<svg xmlns="http://www.w3.org/2000/svg" viewBox="0 0 1907.79 578.02"><defs><style>.cls-1{fill:#757900;}.cls-1,.cls-10,.cls-11,.cls-12,.cls-15,.cls-16,.cls-17,.cls-18,.cls-2,.cls-21,.cls-22,.cls-23,.cls-24,.cls-25,.cls-26,.cls-27,.cls-3,.cls-4,.cls-5,.cls-6,.cls-8,.cls-9{stroke:#000;}.cls-1,.cls-10,.cls-11,.cls-12,.cls-15,.cls-16,.cls-17,.cls-18,.cls-19,.cls-2,.cls-20,.cls-21,.cls-22,.cls-23,.cls-24,.cls-25,.cls-26,.cls-27,.cls-3,.cls-4,.cls-5,.cls-6,.cls-8,.cls-9{stroke-miterlimit:10;}.cls-2{fill:#9b9b9b;}.cls-3{fill:#090d00;}.cls-4{fill:#c9c9c9;}.cls-5{fill:#efefef;}.cls-6{fill:#6cc400;}.cls-21,.cls-7{fill:#303030;}.cls-8{fill:#fff;}.cls-13,.cls-9{fill:#b3b3b3;}.cls-10{fill:none;}.cls-11{fill:#3f3f3f;}.cls-14,.cls-23{fill:#666;}.cls-15{fill:#565656;}.cls-16{fill:#141414;}.cls-17{fill:#545050;}.cls-18{fill:#f2ecec;}.cls-19{stroke:#b8b5b5;}.cls-20,.cls-27{fill:#787878;}.cls-20{stroke:#333;}.cls-22{fill:#727272;}.cls-24{fill:#d8d8d8;}.cls-25{fill:#353535;}.cls-26{fill:#f2f2f2;}</style></defs><title>audience-sad</title><g id="Layer_1" data-name="Layer 1"><path class="cls-1" d="M828,1051.51l-.06-.46A1.56,1.56,0,0,1,828,1051.51Z" transform="translate(-3.28 -521)"/><path class="cls-2" d="M824.12,897.22c9.51-4.38,11.83-4.45,16.18-8.33s3.45-4,7.06-9a17.9,17.9,0,0,1,8.92-6.33s.61-3.59,9.24-13.66,44.25-37.71,44.25-37.71l1.25,6.21c1.25,6.21,23.73,42.33,23.73,42.33l-6.82,4.84-19.33,10.56s-14.76,8.11-25.41,16.45c-9.47,7.42-28.84,13.14-33,14.33-7.15-8.92-17.78-13.62-28.37-18.51C822.66,897.95,823.45,897.53,824.12,897.22Z" transform="translate(-3.28 -521)"/><path class="cls-2" d="M915.88,1022.29c6.8-14.93,10.6-11.39,8.57-24s6.37-17.62,6.37-17.62,1.82-5.83-1.54-6.66-9.91-7.15-9.91-7.15l-5.22-3.77s-14.72-2.69-39-32.88-47-33.89-47-33.89-6.24,1.31-9.23,1.69a3.54,3.54,0,0,0-2.58,1.71c-5,8.35-4.09,11.49-5.23,22.39-2.34,10.19,48.31,34.05,53.82,36.46l-.52-.38c17,10.11,29.72,17.17,32.11,18.48a1.56,1.56,0,0,1,.41.23l-.41-.23c-.13,0,.07.33,1.6,1.88l2.75,2.78c7.31,19.56,4.24,20.51,2.82,34.57L902.38,1030S909.07,1037.22,915.88,1022.29ZM758.66,846.88c-.67-1.27,2.17-.81.61-1.94C760.83,846.07,758,845.6,758.66,846.88Z" transform="translate(-3.28 -521)"/><path class="cls-2" d="M971.46,996.82c-1.93,21.88-3.86,37.32-3.86,37.32s0-1.93.64,1.93l.64,3.86c11.58,17.37,14.15,15.44,26.38,22.52l12.22,7.08s1.93,9.65-14.15,6.43-15.44,1.93-24.45-7.08-18-5.15-18-5.15-5.79-1.93-4.5-5.15,0-12.22,0-12.22v-6.43s6.43-13.51-3.86-50.83,0-57.91,0-57.91-8.36-22.52-7.72-36-1.29-30.24-1.29-30.24L930.92,843v-8.36s42.46-2.57,48.26-5.15L985,827s-1.93,45-5.15,57.91S974,900.31,974,900.31a17.9,17.9,0,0,1,0,10.94c-1.93,5.79-2.57,5.15-3.22,10.94s.64,7.72,2.57,18-1,51.41-1.93,57.26" transform="translate(-3.28 -521)"/><path class="cls-3" d="M982.86,642.19c2.38-6.83-4.91-6.23-9.45-13.11-5-7.61-3.35-16.45.67-30.85s12.26-18.3,17.15-21.59,11.39-3.8,15.87-5.65,15.74.52,17.41.21,7.17,2.78,11.18,5.45,3.48,1.75,8.57,23.34c.39,1.64-2.41,25.71-8,37.32-3.6,7.44-10.06,9.95-15.07,13C1008.92,645,995.75,643.91,982.86,642.19Z" transform="translate(-3.28 -521)"/><path class="cls-4" d="M898.35,555.54c-2.58,1.54,4.81,19.19,4.84,19.27h0s10.16,18.35,20.5,36.84c10.51,18.8,21.19,37.73,21.54,37.66,1.41-.29,16.08-.37,20.14-.61s14.3,3.82,18.49-4.38a15.33,15.33,0,0,0,.9-2.09c10.87,1.29,22,2,32.3,6.42-2.36,1.52-4.33,3.17-5.27,5.79-2.61,7.29,0,0,9.57,6.55s19.6,13.89,25.6,18.83,8.53,12.94,13.7,31,7.4,34.61,12.49,48-.42,16.54-9.63,36.05-27.08,34.06-36.95,46.07-32-2.54-32-2.54l.26-15.91s15.79-1.77,21.51-8.24,9.87-12,20.19-23.24,3-13.84,3.08-26.48-12.67-27.36-13-23.46-11.7,28.84-22,40.07c-4.87,5.3-9.93,24.95-10.38,49.38-.5,27.34.59,54.56.59,54.56s-4.64-2.57-14.38,1.49-14.67.08-42.52-5.37-13.68-3.65-13.68-3.65l5.2-31.91-12,27.43L904,866.05c-13.47-6.93-30.33-16.1-30.33-16.1,1.91-2.15,28.75-60.25,28.75-60.25s10-22.62,13.61-31,6.83-15.8,8.75-20.3c1.78-4.19,7.82-13.15,11.62-23.54,3.32-6.11-5-11.32-5-11.32A362.7,362.7,0,0,1,911,660.15c-10.35-26.07-13-16.13-21.36-49.66-1.85-7.41-6.35-23.48-15.81-55.5-1.59-5.38-5-17,.38-23.87a13.66,13.66,0,0,1,3.48-3.07c5.58-3.45,12.87-1.7,18.15.5a13,13,0,0,1,4.73,3.61c1.49,1.7,4.13,1.55,4.63,3.25a9.05,9.05,0,0,1,.14,1.36c.16,1.77.35,3,.41,3.44.27,2,1.69,12.71-2,14.62a6.78,6.78,0,0,1-1.4.47C900,555.89,899,555.16,898.35,555.54Z" transform="translate(-3.28 -521)"/><path class="cls-5" d="M699.27,970.65c-1.93,21.88-3.86,37.32-3.86,37.32s0-1.93.64,1.93l.64,3.86c11.58,17.37,14.15,15.44,26.38,22.52l12.22,7.08s1.93,9.65-14.15,6.43-15.44,1.93-24.45-7.08-18-5.15-18-5.15-5.79-1.93-4.5-5.15,0-12.22,0-12.22v-6.43s6.43-13.51-3.86-50.83,0-57.91,0-57.91-8.36-22.52-7.72-36-1.29-30.24-1.29-30.24l-2.57-21.88v-8.36s42.46-2.57,48.26-5.15l5.79-2.57s-1.93,45-5.15,57.91-5.79,15.44-5.79,15.44a17.9,17.9,0,0,1,0,10.94c-1.93,5.79-2.57,5.15-3.22,10.94s.64,7.72,2.57,18-1,51.41-1.93,57.26" transform="translate(-3.28 -521)"/><path class="cls-5" d="M622.06,970.65c1.93,21.88,3.86,37.32,3.86,37.32s0-1.93-.64,1.93l-.64,3.86c-11.58,17.37-14.15,15.44-26.38,22.52L586,1043.36s-1.93,9.65,14.15,6.43,15.44,1.93,24.45-7.08,18-5.15,18-5.15,5.79-1.93,4.5-5.15,0-12.22,0-12.22v-6.43s-6.43-13.51,3.86-50.83S651,905,651,905s8.36-22.52,7.72-36S660,838.75,660,838.75l2.57-21.88v-8.36s-42.46-2.57-48.26-5.15l-5.79-2.57s1.93,45,5.15,57.91,5.79,15.44,5.79,15.44a17.9,17.9,0,0,0,0,10.94c1.93,5.79,2.57,5.15,3.22,10.94s-.64,7.72-2.57,18,1,51.41,1.93,57.26" transform="translate(-3.28 -521)"/><path class="cls-6" d="M700.91,684.94c-.53-5.88-1-10.25-1-10.25S699.28,678.18,700.91,684.94Z" transform="translate(-3.28 -521)"/><path class="cls-7" d="M668.05,603.59c-.45-7.22,6.4-4.68,12.63-10.09,6.88-6,7.65-14.95,7.65-29.89s-6.88-20.92-10.71-25.41-9.94-6.73-13.77-9.71S648.56,524.75,647,524s-7.65.75-12.24,2.24-3.82.75-14.53,20.18c-.81,1.47-4.59,25.41-2.29,38.11,1.47,8.14,7,12.29,11,16.58C642.2,599.24,655.17,601.77,668.05,603.59Z" transform="translate(-3.28 -521)"/><path class="cls-2" d="M797.07,615.49c-7.08-5.79-2.57-2.57-9-4.5s-3.86.64-12.22,3.86,0,8.36,0,8.36-7.72,19.3-9.65,25.09S735.94,685,734.66,679.19s-12.87-26.38-12.87-26.38-7.08-16.09-9-21.88-10.94-11.58-12.22-12.22-15.44-4.5-19.3-5.79-14.8,0-16.73-9a15.33,15.33,0,0,1-.33-2.25c-10.84-1.56-21.74-3.74-32.87-2.13,1.89,2.07,3.37,4.18,3.6,7,.64,7.72,0,0-10.94,3.86s-22.52,8.36-29.6,11.58-11.58,10.29-21.23,26.38-16.09,31.53-24.45,43.11-3.86,16.09,0,37.32,17.37,39.89,23.81,54S604,788.57,604,788.57l3.86-15.44s-14.8-5.79-18.66-13.51-6.43-14.15-13.51-27.67.64-14.15,3.86-26.38,19.3-23.16,18.66-19.3,8.36,27,15.44,40.53c3.34,6.38-1.35,30.52-7.22,54.25-6.58,26.54-14.65,52.56-14.65,52.56s5.15-1.29,13.51,5.15,14.15,3.86,42.46,5.79,14.15,0,14.15,0l3.22-32.17,4.5,29.6,14.8-3.22c14.8-3.22,33.46-7.72,33.46-7.72-1.29-2.57-12.22-65.63-12.22-65.63s-3.86-24.45-5.15-33.46-.64-12.22,1.29-16.73c1.26-2.94.06-19.26-.93-30.28-1.63-6.76-1-10.25-1-10.25s.47,4.37,1,10.25a64.9,64.9,0,0,0,3.51,10.33c5.79,13.51,24.45,9.65,36,10.94s23.81-13.51,32.81-20.59,7.08-16.73,11.58-20.59,8.36-27.67,9.65-31.53,1.29-2.57,7.08-3.22,3.22-3.22,4.5-5.79S804.14,621.28,797.07,615.49Z" transform="translate(-3.28 -521)"/><path class="cls-8" d="M44.67,655.49c.82-5,1.71-9.93,1.71-9.93s-9.41-1.65-12.55-4.43-6.17-8.35-6.68-9.72-2.45-7.59-2.43-8.5-1.74-1.64,1-14.64c2.84-13.35,5.18-18.54,12.23-24.33s18.88-10.14,25.27-9.58,17,2.09,20.18,4.87,5.69,8.72,6.71,11,5.65,11,5.52,17.35,2,6.85-.31,15.44-2.94,16-6.75,19.58-10.23,4.38-11.83,4.8-5.89,1.27-5.89,1.27l-1,5.2C61.48,655.88,53.07,655.48,44.67,655.49Z" transform="translate(-3.28 -521)"/><path class="cls-9" d="M81.88,765.69C75.46,753.84,65,742,55.22,727.25s-13.91-21.52-13.75-28.86c0-2,.15-4.4.3-7,1.22-1.78.94-2.59,2.82-3.7,18.34-17.8,24.66-3.63,39,10,.63.6,12.28,24.15,13.06,24.76-.49,3.93,2.71,16.61,9.91,22.75,9.08,7.74,6.47,14.57,20.86,14.08s20.92,0,29.06-.17,19.13-10.34,19.13-10.34l11.55,9.6s-3.16,24.77-17.83,24.45-36.07,3.53-55.71-1.88S88.31,777.55,81.88,765.69Z" transform="translate(-3.28 -521)"/><path class="cls-10" d="M82.41,724" transform="translate(-3.28 -521)"/><path class="cls-2" d="M92,1003.11c-2,20.65-3.95,35.23-3.95,35.23s0-1.82.66,1.82l.66,3.64c11.84,16.4,14.47,14.58,27,21.26l12.5,6.68s2,9.11-14.47,6.07-15.79,1.82-25-6.68-18.42-4.86-18.42-4.86-5.92-1.82-4.6-4.86,0-11.54,0-11.54v-6.07s6.58-12.75-3.95-48,0-54.66,0-54.66-8.55-21.26-7.89-34-1.32-28.54-1.32-28.54L50.53,858v-7.9s43.41-2.43,49.33-4.86l5.92-2.43s-2,42.51-5.26,54.66S94.6,912,94.6,912a15.67,15.67,0,0,1,0,10.32c-2,5.47-2.63,4.86-3.29,10.32s.66,7.29,2.63,17-1,48.52-2,54.05" transform="translate(-3.28 -521)"/><path class="cls-2" d="M64.19,1009.18c-1.82,20.65-3.64,35.23-3.64,35.23s0-1.82.61,1.82l.61,3.64c10.93,16.4,13.36,14.58,24.9,21.26l11.54,6.68s1.82,9.11-13.36,6.07-14.58,1.82-23.08-6.68-17-4.86-17-4.86-5.47-1.82-4.25-4.86,0-11.54,0-11.54v-6.07s6.07-12.75-3.64-48,0-54.66,0-54.66-7.9-21.26-7.29-34-1.21-28.54-1.21-28.54L25.93,864v-7.9S66,853.7,71.48,851.27l5.47-2.43s-1.82,42.51-4.86,54.66-5.47,14.58-5.47,14.58a16.89,16.89,0,0,1,0,10.32c-1.82,5.47-2.43,4.86-3,10.32s.61,7.29,2.43,17-.93,48.52-1.82,54.05" transform="translate(-3.28 -521)"/><path class="cls-6" d="M26.21,735.23c.5-5.55.94-9.68.94-9.68S27.74,728.85,26.21,735.23Z" transform="translate(-3.28 -521)"/><path class="cls-11" d="M17.85,820.49c5.55-22.39,10-45.19,6.82-51.21C18,756.53,12,731.63,12.57,728h0c1.82-18.83,1.82-28.54,4.25-47.37a84,84,0,0,1,3-9.11c4.86-3.64,7.06-9.51,14.53-12.15,10.32-3.64,10.93,3.64,10.32-3.64-.22-2.62-1.62-4.61-3.4-6.57,10.5-1.52,20.8.54,31,2a14.47,14.47,0,0,0,.31,2.13c1.76,8.21,11.44,7.36,15.39,8.39,19.68,17.29,14.49,46.27,19.11,69.82.9,10.3,1.85,24.24.73,26.86-1.82,4.25-2.43,7.29-1.21,15.79s4.86,31.58,4.86,31.58,10.32,59.52,11.54,61.95c0,0-17.61,4.25-31.58,7.29l-14,3-4.25-27.94-3,30.37s13.36,1.82-13.36,0S24.67,881,16.77,875,4,870.1,4,870.1,11.64,845.54,17.85,820.49Z" transform="translate(-3.28 -521)"/><path class="cls-9" d="M57.93,772.72c-1.57-13.39-6.94-28.24-10.49-45.59s-4.93-25.14-2.06-31.9c.79-1.87,1.77-4,2.87-6.37,1.79-1.2,1.83-2.05,4-2.39,23.63-9.72,24.25,5.78,32.5,23.76.36.79,2.44,27,2.94,27.84-1.91,3.47-3.65,16.43.76,24.8,5.56,10.56.6,15.93,14.14,20.82s19.44,7.72,27.05,10.63,21.6-2.5,21.6-2.5L158.41,805s-12.12,21.83-25.63,16.08S98,811,81.74,798.68,59.5,786.11,57.93,772.72Z" transform="translate(-3.28 -521)"/><path class="cls-8" d="M88.59,642.61C92.4,639,93,631.63,95.34,623s.18-9.08.31-15.44-4.5-15.06-5.52-17.35-3.57-8.23-6.71-11" transform="translate(-3.28 -521)"/><path class="cls-8" d="M25.75,608.27c2.84-13.35,5.18-18.54,12.23-24.33s18.88-10.14,25.27-9.58" transform="translate(-3.28 -521)"/><path d="M44.63,577.85C37.07,580.7,29.86,592,27.76,600.27" transform="translate(-3.28 -521)"/><path class="cls-10" d="M72.71,596.32" transform="translate(-3.28 -521)"/><path class="cls-10" d="M104.22,618.36" transform="translate(-3.28 -521)"/><path class="cls-10" d="M72.71,596.32" transform="translate(-3.28 -521)"/><path class="cls-10" d="M83.67,594.82c-3.36-5.31-6.27-7.39-11.72-5.31-4.79,1.82-15.11,5.31-15.11,5.31" transform="translate(-3.28 -521)"/><path class="cls-10" d="M81.82,598.31c-5.74-2.48-8.61-3.72-13.63-3.72s-9.33,3.72-9.33,3.72" transform="translate(-3.28 -521)"/><path class="cls-10" d="M58.86,597.76c5.74,2,8.61,3,13.63,3a18.52,18.52,0,0,0,9.33-3" transform="translate(-3.28 -521)"/><path class="cls-10" d="M94.17,629.7s-15-5.15-19.66-1.24-3.68,3.68-3.68,3.68,7.56.43,9.22,1.24,11.06,2.46,11.06,2.46" transform="translate(-3.28 -521)"/><ellipse class="cls-12" cx="70.93" cy="77.04" rx="4.18" ry="2.44"/><path class="cls-13" d="M80.56,601.66c.43,3.64.86,6.68,0,6.68a1.65,1.65,0,0,1-1.3-.61,1.54,1.54,0,0,1-.43-1.82c.43-1.21.86-3,.86-3Z" transform="translate(-3.28 -521)"/><path class="cls-13" d="M79.67,615.62c.64,3.64,1.29,6.68,0,6.68a2.91,2.91,0,0,1-1.93-.61,1.31,1.31,0,0,1-.64-1.82,27.68,27.68,0,0,0,1.29-3Z" transform="translate(-3.28 -521)"/><path class="cls-14" d="M106.4,579.49s-27.33-1.21-43.12,3.64-39.51,18.78-39.51,18.78L7.41,614.11v-4.25L25.33,596s.3-2.56,3.95-14.1S42,567.34,42,567.34l12.15-4.25S70,561.88,76,569.77a20.66,20.66,0,0,0,15.18,7.9h10.32Z" transform="translate(-3.28 -521)"/><path class="cls-10" d="M40.83,612.12s-.67-8.32-4.33-7.88-5.66,6.48-4.39,9.84,6.7,4.63,6.62,7.39" transform="translate(-3.28 -521)"/><path class="cls-12" d="M83.63,585.26l-1.82,1.21-3.1-6.18s-1.15,5.58-1.15,6.18-3-4.25-3.64-4.25,0,.61-3.64,4.25S64.8,595,63,591.33a11,11,0,0,0-4.25-4.86l-4.25,5.47-4.25-3L44.76,601,42.33,595l-6.07,8.5L32,599.23,29.58,612l-2.43-3.64-1.21-6.68s-.5-.54.36-1.18S52,584,68.11,581.9s14.34-1.61,14.34-1.61l3.3,1.66Z" transform="translate(-3.28 -521)"/><path class="cls-8" d="M92.74,605.3a6.48,6.48,0,0,0,3.64,4.86,8.9,8.9,0,0,0,2.43,1.21c1.82.61,4.25,3,3.64,3.64s0,2.43-4.25,1.82-4.86-.61-4.86-.61l-3.64-.61" transform="translate(-3.28 -521)"/><path class="cls-5" d="M427.32,1015.51c-1.93,21.88-3.86,37.32-3.86,37.32s0-1.93.64,1.93l.64,3.86c11.58,17.37,14.15,15.44,26.38,22.52l12.22,7.08s1.93,9.65-14.15,6.43-15.44,1.93-24.45-7.08-18-5.15-18-5.15-5.79-1.93-4.5-5.15,0-12.22,0-12.22v-6.43s6.43-13.51-3.86-50.83,0-57.91,0-57.91-8.36-22.52-7.72-36-1.29-30.24-1.29-30.24l-2.57-21.88v-8.36s42.46-2.57,48.26-5.15l5.79-2.57s-1.93,45-5.15,57.91S429.89,919,429.89,919a17.9,17.9,0,0,1,0,10.94c-1.93,5.79-2.57,5.15-3.22,10.94s.64,7.72,2.57,18-1,51.41-1.93,57.26" transform="translate(-3.28 -521)"/><path class="cls-5" d="M350.11,1015.51c1.93,21.88,3.86,37.32,3.86,37.32s0-1.93-.64,1.93l-.64,3.86c-11.58,17.37-14.15,15.44-26.38,22.52l-12.22,7.08s-1.93,9.65,14.15,6.43,15.44,1.93,24.45-7.08,18-5.15,18-5.15,5.79-1.93,4.5-5.15,0-12.22,0-12.22v-6.43s-6.43-13.51,3.86-50.83,0-57.91,0-57.91,8.36-22.52,7.72-36,1.29-30.24,1.29-30.24l2.57-21.88v-8.36s-42.46-2.57-48.26-5.15l-5.79-2.57s1.93,45,5.15,57.91S347.54,919,347.54,919a17.9,17.9,0,0,0,0,10.94c1.93,5.79,2.57,5.15,3.22,10.94s-.64,7.72-2.57,18,1,51.41,1.93,57.26" transform="translate(-3.28 -521)"/><path class="cls-6" d="M429,729.79c-.53-5.88-1-10.25-1-10.25S427.33,723,429,729.79Z" transform="translate(-3.28 -521)"/><path class="cls-7" d="M396.1,648.44c-.45-7.22,6.4-4.68,12.63-10.09,6.88-6,7.65-14.95,7.65-29.89s-6.88-20.92-10.71-25.41-9.94-6.73-13.77-9.71-15.3-3.74-16.83-4.48-7.65.75-12.24,2.24-3.82.75-14.53,20.18c-.81,1.47-4.59,25.41-2.29,38.11,1.47,8.14,7,12.29,11,16.58C370.25,644.1,383.22,646.63,396.1,648.44Z" transform="translate(-3.28 -521)"/><path class="cls-2" d="M525.12,660.35c-7.08-5.79-2.57-2.57-9-4.5s-3.86.64-12.22,3.86,0,8.36,0,8.36-7.72,19.3-9.65,25.09S464,729.83,462.71,724s-12.87-26.38-12.87-26.38-7.08-16.09-9-21.88-10.94-11.58-12.22-12.22-15.44-4.5-19.3-5.79-14.8,0-16.73-9a15.33,15.33,0,0,1-.33-2.25c-10.84-1.56-21.74-3.74-32.87-2.13,1.89,2.07,3.37,4.18,3.6,7,.64,7.72,0,0-10.94,3.86s-22.52,8.36-29.6,11.58-11.58,10.29-21.23,26.38-16.09,31.53-24.45,43.11-3.86,16.09,0,37.32,17.37,39.89,23.81,54,31.53,5.79,31.53,5.79L336,818s-14.8-5.79-18.66-13.51-6.43-14.15-13.51-27.67.64-14.15,3.86-26.38,19.3-23.16,18.66-19.3,8.36,27,15.44,40.53c3.34,6.38-1.35,30.52-7.22,54.25-6.58,26.54-14.65,52.56-14.65,52.56s5.15-1.29,13.51,5.15,14.15,3.86,42.46,5.79,14.15,0,14.15,0l3.22-32.17,4.5,29.6,14.8-3.22c14.8-3.22,33.46-7.72,33.46-7.72-1.29-2.57-12.22-65.63-12.22-65.63s-3.86-24.45-5.15-33.46-.64-12.22,1.29-16.73c1.26-2.94.06-19.26-.93-30.28-1.63-6.76-1-10.25-1-10.25s.47,4.37,1,10.25a64.9,64.9,0,0,0,3.51,10.33c5.79,13.51,24.45,9.65,36,10.94s23.81-13.51,32.81-20.59,7.08-16.73,11.58-20.59,8.36-27.67,9.65-31.53,1.29-2.57,7.08-3.22,3.22-3.22,4.5-5.79S532.2,666.14,525.12,660.35Z" transform="translate(-3.28 -521)"/><path class="cls-5" d="M869.35,1005.23c-1.93,21.88-3.86,37.32-3.86,37.32s0-1.93.64,1.93l.64,3.86c11.58,17.37,14.15,15.44,26.38,22.52l12.22,7.08s1.93,9.65-14.15,6.43-15.44,1.93-24.45-7.08-18-5.15-18-5.15-5.79-1.93-4.5-5.15,0-12.22,0-12.22v-6.43s6.43-13.51-3.86-50.83,0-57.91,0-57.91-8.36-22.52-7.72-36-1.29-30.24-1.29-30.24l-2.57-21.88v-8.36s42.46-2.57,48.26-5.15l5.79-2.57s-1.93,45-5.15,57.91-5.79,15.44-5.79,15.44a17.9,17.9,0,0,1,0,10.94c-1.93,5.79-2.57,5.15-3.22,10.94s.64,7.72,2.57,18-1,51.41-1.93,57.26" transform="translate(-3.28 -521)"/><path class="cls-5" d="M792.14,1005.23c1.93,21.88,3.86,37.32,3.86,37.32s0-1.93-.64,1.93l-.64,3.86c-11.58,17.37-14.15,15.44-26.38,22.52l-12.22,7.08s-1.93,9.65,14.15,6.43,15.44,1.93,24.45-7.08,18-5.15,18-5.15,5.79-1.93,4.5-5.15,0-12.22,0-12.22v-6.43s-6.43-13.51,3.86-50.83,0-57.91,0-57.91,8.36-22.52,7.72-36,1.29-30.24,1.29-30.24l2.57-21.88v-8.36s-42.46-2.57-48.26-5.15l-5.79-2.57s1.93,45,5.15,57.91,5.79,15.44,5.79,15.44a17.9,17.9,0,0,0,0,10.94c1.93,5.79,2.57,5.15,3.22,10.94s-.64,7.72-2.57,18,1,51.41,1.93,57.26" transform="translate(-3.28 -521)"/><path class="cls-6" d="M871,719.52c-.53-5.88-1-10.25-1-10.25S869.36,712.76,871,719.52Z" transform="translate(-3.28 -521)"/><path class="cls-7" d="M838.13,638.16c-.45-7.22,6.4-4.68,12.63-10.09,6.88-6,7.65-14.95,7.65-29.89s-6.88-20.92-10.71-25.41-9.94-6.73-13.77-9.71-15.3-3.74-16.83-4.48-7.65.75-12.24,2.24-3.82.75-14.53,20.18c-.81,1.47-4.59,25.41-2.29,38.11,1.47,8.14,7,12.29,11,16.58C812.29,633.82,825.25,636.35,838.13,638.16Z" transform="translate(-3.28 -521)"/><path class="cls-2" d="M967.15,650.07c-7.08-5.79-2.57-2.57-9-4.5s-3.86.64-12.22,3.86,0,8.36,0,8.36-7.72,19.3-9.65,25.09S906,719.55,904.74,713.76s-12.87-26.38-12.87-26.38-7.08-16.09-9-21.88-10.94-11.58-12.22-12.22-15.44-4.5-19.3-5.79-14.8,0-16.73-9a15.33,15.33,0,0,1-.33-2.25c-10.84-1.56-21.74-3.74-32.87-2.13,1.89,2.07,3.37,4.18,3.6,7,.64,7.72,0,0-10.94,3.86s-22.52,8.36-29.6,11.58-11.58,10.29-21.23,26.38S727.16,714.41,718.79,726s-3.86,16.09,0,37.32,17.37,39.89,23.81,54,31.53,5.79,31.53,5.79L778,807.7s-14.8-5.79-18.66-13.51-6.43-14.15-13.51-27.67.64-14.15,3.86-26.38S769,717,768.34,720.84s8.36,27,15.44,40.53c3.34,6.38-1.35,30.52-7.22,54.25-6.58,26.54-14.65,52.56-14.65,52.56s5.15-1.29,13.51,5.15,14.15,3.86,42.46,5.79,14.15,0,14.15,0l3.22-32.17,4.5,29.6,14.8-3.22c14.8-3.22,33.46-7.72,33.46-7.72C886.72,863,875.79,800,875.79,800s-3.86-24.45-5.15-33.46-.64-12.22,1.29-16.73c1.26-2.94.06-19.26-.93-30.28-1.63-6.76-1-10.25-1-10.25s.47,4.37,1,10.25a64.9,64.9,0,0,0,3.51,10.33c5.79,13.51,24.45,9.65,36,10.94s23.81-13.51,32.81-20.59,7.08-16.73,11.58-20.59,8.36-27.67,9.65-31.53,1.29-2.57,7.08-3.22,3.22-3.22,4.5-5.79S974.23,655.86,967.15,650.07Z" transform="translate(-3.28 -521)"/><path class="cls-15" d="M749.73,1005.23c-1.93,21.88-3.86,37.32-3.86,37.32s0-1.93.64,1.93l.64,3.86c11.58,17.37,14.15,15.44,26.38,22.52l12.22,7.08s1.93,9.65-14.15,6.43-15.44,1.93-24.45-7.08-18-5.15-18-5.15-5.79-1.93-4.5-5.15,0-12.22,0-12.22v-6.43s6.43-13.51-3.86-50.83,0-57.91,0-57.91-8.36-22.52-7.72-36-1.29-30.24-1.29-30.24l-2.57-21.88v-8.36s42.46-2.57,48.26-5.15l5.79-2.57s-1.93,45-5.15,57.91-5.79,15.44-5.79,15.44a17.9,17.9,0,0,1,0,10.94c-1.93,5.79-2.57,5.15-3.22,10.94s.64,7.72,2.57,18-1,51.41-1.93,57.26" transform="translate(-3.28 -521)"/><path class="cls-15" d="M672.52,1005.23c1.93,21.88,3.86,37.32,3.86,37.32s0-1.93-.64,1.93l-.64,3.86c-11.58,17.37-14.15,15.44-26.38,22.52l-12.22,7.08s-1.93,9.65,14.15,6.43,15.44,1.93,24.45-7.08,18-5.15,18-5.15,5.79-1.93,4.5-5.15,0-12.22,0-12.22v-6.43s-6.43-13.51,3.86-50.83,0-57.91,0-57.91,8.36-22.52,7.72-36,1.29-30.24,1.29-30.24l2.57-21.88v-8.36s-42.46-2.57-48.26-5.15L659,835.37s1.93,45,5.15,57.91,5.79,15.44,5.79,15.44a17.9,17.9,0,0,0,0,10.94c1.93,5.79,2.57,5.15,3.22,10.94s-.64,7.72-2.57,18,1,51.41,1.93,57.26" transform="translate(-3.28 -521)"/><path class="cls-6" d="M751.37,719.52c-.53-5.88-1-10.25-1-10.25S749.74,712.76,751.37,719.52Z" transform="translate(-3.28 -521)"/><path class="cls-7" d="M718.51,638.16c-.45-7.22,6.4-4.68,12.63-10.09,6.88-6,7.65-14.95,7.65-29.89s-6.88-20.92-10.71-25.41-9.94-6.73-13.77-9.71-15.3-3.74-16.83-4.48-7.65.75-12.24,2.24-3.82.75-14.53,20.18c-.81,1.47-4.59,25.41-2.29,38.11,1.47,8.14,7,12.29,11,16.58C692.67,633.82,705.63,636.35,718.51,638.16Z" transform="translate(-3.28 -521)"/><path class="cls-16" d="M847.53,650.07c-7.08-5.79-2.57-2.57-9-4.5s-3.86.64-12.22,3.86,0,8.36,0,8.36-7.72,19.3-9.65,25.09-30.24,36.67-31.53,30.88-12.87-26.38-12.87-26.38-7.08-16.09-9-21.88S752.31,653.93,751,653.28s-15.44-4.5-19.3-5.79-14.8,0-16.73-9a15.33,15.33,0,0,1-.33-2.25c-10.84-1.56-21.74-3.74-32.87-2.13,1.89,2.07,3.37,4.18,3.6,7,.64,7.72,0,0-10.94,3.86s-22.52,8.36-29.6,11.58-11.58,10.29-21.23,26.38S607.54,714.41,599.17,726s-3.86,16.09,0,37.32,17.37,39.89,23.81,54,31.53,5.79,31.53,5.79l3.86-15.44s-14.8-5.79-18.66-13.51S633.28,780,626.2,766.52s.64-14.15,3.86-26.38,19.3-23.16,18.66-19.3,8.36,27,15.44,40.53c3.34,6.38-1.35,30.52-7.22,54.25-6.58,26.54-14.65,52.56-14.65,52.56s5.15-1.29,13.51,5.15,14.15,3.86,42.46,5.79,14.15,0,14.15,0l3.22-32.17,4.5,29.6,14.8-3.22c14.8-3.22,33.46-7.72,33.46-7.72C767.1,863,756.17,800,756.17,800s-3.86-24.45-5.15-33.46-.64-12.22,1.29-16.73c1.26-2.94.06-19.26-.93-30.28-1.63-6.76-1-10.25-1-10.25s.47,4.37,1,10.25a64.9,64.9,0,0,0,3.51,10.33c5.79,13.51,24.45,9.65,36,10.94s23.81-13.51,32.81-20.59,7.08-16.73,11.58-20.59,8.36-27.67,9.65-31.53,1.29-2.57,7.08-3.22,3.22-3.22,4.5-5.79S854.61,655.86,847.53,650.07Z" transform="translate(-3.28 -521)"/><path class="cls-17" d="M611.76,802.48c-3.17-7.55-6.6-13-7.14-16.67s-1.84-2.34-3.17-7.55-.3-7-1.62-9.65-1.06-3.39-4-7.81-2.64-5.21-5.27-9.11-4.2-4.42-5.26-7.8-1.84-2.34-2.38-6,.51-2.87-1.86-6.26a30,30,0,0,1-3.16-4.94,9.25,9.25,0,0,1-.58-1.64l.18.21-.18-.21c-.11-.39-.16-.57-.19-.22-5.75-6.66-18.67-19.7-13-22.12,1.63-2.57,5.72-5.47,7.36-5.48,7.83,0,13.1,7.76,16,12.18s6.58,9.1,10,17.18,9.24,19.53,11.09,23.18,1.35,7.83,4.24,12.25a61,61,0,0,1,6.6,13c2.12,5.47,4,9.12,5.3,14.33,1,3.79,5.58,17.46,5.58,17.46l4.77,13.29,1.06,2.08-3.13.28-.59-.19.59.19,2.35.77c4.71,1.54,7.86,5.18,7.35,8.05s-.76,5-2.32,5.76-2.86,2.1-5.21,1.33a10.89,10.89,0,0,1-5.24-3.89c-.53-1-.78-.26-1.32-2.6s-2.63-3.9-1.85-5l.78-1-2.09-.25-5.4-8.25a48.88,48.88,0,0,0-2-5C614.9,804.81,614.93,810,611.76,802.48Z" transform="translate(-3.28 -521)"/><path class="cls-12" d="M595.22,1088.27c6.12-6.49,8-5.83,11.87-18.31l-.32-2.41c-.18-1.34-.15-1.58-.08-1.53l.12.26a.94.94,0,0,0-.12-.26c-.46-1-2.26-5-4.79-10.92q6.73-2,13.43-4.1c2.08,11.14,5.44,14.72,5.44,14.72l1.18,3.81s.87,5.58,2.25,7.24-1.79,3.9-1.79,3.9-6.18-.59-10,6.44-4.37,3.86-13.54,8.79-9.77-1.15-9.77-1.15Z" transform="translate(-3.28 -521)"/><path class="cls-12" d="M557.47,1050.31c.67,6.39,1.2,10.75,1.34,11.87a.94.94,0,0,1,0,.29l0-.29c0-.06-.15.16-.37,1.49l-.41,2.39c-7.36,10.78-9,9.58-16.76,14l-7.77,4.39s-1.23,6,9,4,9.81,1.2,15.53-4.39,11.45-3.19,11.45-3.19,3.68-1.2,2.86-3.19,0-7.58,0-7.58v-4s-2.15-4.42-.83-15.7Z" transform="translate(-3.28 -521)"/><path class="cls-2" d="M598,668.19l-.15.59C598.8,668.38,598,668.19,598,668.19Z" transform="translate(-3.28 -521)"/><path class="cls-2" d="M647.22,830.35a2,2,0,0,0-.74.14C645.52,830.8,646.31,830.6,647.22,830.35Z" transform="translate(-3.28 -521)"/><path class="cls-2" d="M540.81,821.73l-.08.71C540.81,822.65,540.81,821.73,540.81,821.73Z" transform="translate(-3.28 -521)"/><path class="cls-17" d="M640.4,949.58c-4.94-23.35-1.48-22.18-4.94-39.7s-5.85-81.44-11.85-94c-6.42-13.43-6.42-18.1-11.36-22.18-2.92-2.41-3.94-3.4-4.49-5a5.07,5.07,0,0,1-2.67,1.21,104.06,104.06,0,0,1-41.26-3.69c-.27.56-.86,1-1,1.65-1,6.42-.74,8.88-5.93,18.68-4.94,9.34-5.43,30.94-5.43,30.94L547,857.34s-16.3,122.6-14.82,124.93-2.47,8.76-2.47,16.35-4,36.78-6.42,42S518.9,1064,518.9,1064s-7.41,3.5,8.4,0,5.43-3.5,18.77-4.09,10.87,4.09,20.25,2.92,8.89,1.75,23.21,0,2.47-5.25,16.3-2.92,19.76,4.09,25.68,2.34,2-5.84,11.85-2.92,13.34,2.34,13.34,2.34S645.34,972.93,640.4,949.58Z" transform="translate(-3.28 -521)"/><path class="cls-18" d="M603.86,686.87c-4.09-7-7-10.51-7-14.59l.44-1.75a28,28,0,0,1-5.69,1.16c-8.17,1.17-10.51,2.34-15.18.58s-6.42-2.34-6.42-2.34,1.17,1.75,0,6.42,3,14.39-5.25,19.85C555.89,702,538.9,711.95,542,711.39c-12.65,34.67,41.19,6.7,62.76-3.21,6.87-2.86,2.63-2,9.63-5.55-1.42-.43-5.84-8.17-5.84-8.17S607.95,693.88,603.86,686.87Z" transform="translate(-3.28 -521)"/><path class="cls-19" d="M545.83,709.64c-3.31,2.34-3.78,7.83-3.86,8.17-1.1,4.67,3.31,15.76,5.51,19.27s2.76,3.5,3.86,7,.55,5.84,2.21,9.92,1.1-.58,3.86,9.34,5,4.67,5.51,14c.3,5.16.27,8.18-.19,10.34a2.81,2.81,0,0,0,2,3.35A128.6,128.6,0,0,0,607.86,794h.21a2.76,2.76,0,0,0,2.23-3.33c-.14-.76-.3-1.67-.51-2.79-1-5.52-3.66-12.2.28-19.91a3.23,3.23,0,0,0,.3-.94,41,41,0,0,1,1.58-4.07,2.59,2.59,0,0,0,.08-.37c3.25-21.87,2.74-34.1,3.8-55.3a3,3,0,0,0-.17-1.15c-.38-1.07-.58-1-2-4.08" transform="translate(-3.28 -521)"/><path class="cls-12" d="M542,709.64" transform="translate(-3.28 -521)"/><path class="cls-5" d="M583.43,587.62c-15.11,0-22.77,14.59-31.57,32.4l0-.29c-1.12,4.7-.58,3.5-5.35,8.81-3.48,3.87-2.24,5.22-2.24,6.26s4.38,1.55,6.64,1.56c1.84,21.84,15.68,38.82,32.48,38.82,18.06,0,32.69-19.6,32.69-43.78S601.48,587.62,583.43,587.62Z" transform="translate(-3.28 -521)"/><path class="cls-19" d="M615,703.8c-6.92-11.53-2.45-5.41-9.65-12.57a2.84,2.84,0,0,1-.46-.61c-12-21.08-44.77,3.84-62.86,19" transform="translate(-3.28 -521)"/><path class="cls-17" d="M519,726.18l.2-.41c1.25-2.64,3.34-2.94,6.65-7.18s1.48-4.47,4-7.13,4.79-8.71,8.83-15.84-.08-3.92,4-11a48.86,48.86,0,0,1,2.77-4.64l3.22-9.31-1.08-1.81,1.31,0c1.31,0,1.25-2.64,2.78-4.49s.75-1.58,1.25-2.64a10.89,10.89,0,0,0-.13-6.53c-.83-2.33-2.66-2.56-4.24-3.31s-3.39.33-6,1.68-3.54,6.08-1.88,10.74l.83,2.33.21.58-.21-.58-2.13-2.31-1,2.11-7.6,11.9s-8,12-10.41,15.09c-3.31,4.24-5.07,7.93-8.1,13A61,61,0,0,0,506,719.5c-.14.41-.3.79-.46,1.16C504.83,727.36,512,732.7,519,726.18Z" transform="translate(-3.28 -521)"/><path class="cls-17" d="M569.74,725.17c5.16-1.16,14.31-3.35,17-10.7.57-1.54-.71-6.38-2.55-8.81-.29-6.15-17,1.38-25.29,4.42.31.14.13.13-.28.1l-.26.09.26-.09a9.25,9.25,0,0,0-1.74,0,30,30,0,0,0-5.74,1.22c-4,1-2.9.32-6.51-.45s-2.9.32-6.45.13-4.58,1.09-9.16,2.19-5.22.58-10.38,1.74c-4.87,1.09-5.72.7-8.24.92-8.33,3.27-4.33,12.81,2.38,14.33,4.53-.63,8,1,11.72.55,4.06-.45,16.83-1.86,25.6-2.25S564.58,726.33,569.74,725.17Z" transform="translate(-3.28 -521)"/><path class="cls-10" d="M564.62,612c3.05-5.11,5.7-7.1,10.64-5.11C579.61,608.64,589,612,589,612" transform="translate(-3.28 -521)"/><path class="cls-10" d="M566.3,615.35c5.21-2.38,7.82-3.57,12.38-3.57s8.47,3.57,8.47,3.57" transform="translate(-3.28 -521)"/><path class="cls-10" d="M587.15,614.82c-5.21,1.91-7.82,2.86-12.38,2.87a16.24,16.24,0,0,1-8.48-2.85" transform="translate(-3.28 -521)"/><path class="cls-10" d="M556.57,655.93s14.29-4.88,18.68-1.17,3.5,3.5,3.5,3.5-7.18.41-8.76,1.17-10.51,2.34-10.51,2.34" transform="translate(-3.28 -521)"/><ellipse class="cls-12" cx="569.93" cy="94.09" rx="3.79" ry="2.34"/><path class="cls-20" d="M628.67,608.59c-9.62-16.28-5.91-25.92-26.28-32.9s-31.5,8-41.73,14.85c-7.67,5.15-.15,6.69,0,8.17.58,5.92,22.8-14.3,35-4.09S613.8,616.4,615,628.49c1.17,12.26-26,43-15.59,53.33a217.55,217.55,0,0,0,20.24,17.71l1.87-12.68s4.71-27.64,7.55-36.3,5.12-14,5.34-16.58S638.29,624.87,628.67,608.59Z" transform="translate(-3.28 -521)"/><path class="cls-10" d="M603,630.38s.64-8,4.16-7.57,5.44,6.23,4.22,9.45-6.44,4.45-6.36,7.11" transform="translate(-3.28 -521)"/><path class="cls-1" d="M305.72,1070.2l.06-.46A1.56,1.56,0,0,0,305.72,1070.2Z" transform="translate(-3.28 -521)"/><path class="cls-2" d="M309.58,915.91c-9.51-4.38-11.83-4.45-16.18-8.33s-3.45-4-7.06-9a17.9,17.9,0,0,0-8.92-6.33s-.61-3.59-9.24-13.66-44.25-37.71-44.25-37.71l-1.25,6.21c-1.25,6.21-23.73,42.33-23.73,42.33l6.82,4.84,19.33,10.56s14.76,8.11,25.41,16.45c9.47,7.42,28.84,13.14,33,14.33,7.15-8.92,17.78-13.62,28.37-18.51C311,916.64,310.25,916.22,309.58,915.91Z" transform="translate(-3.28 -521)"/><path class="cls-2" d="M231.32,1048.7l-1.41-14.05c-1.41-14.05-4.49-15,2.82-34.57l2.75-2.78c1.53-1.54,1.72-1.88,1.6-1.88l-.41.23a1.56,1.56,0,0,1,.41-.23c2.39-1.32,15.13-8.37,32.11-18.48l-.52.38c5.52-2.41,56.17-26.27,53.82-36.46-1.14-10.9-.24-14-5.23-22.39a3.54,3.54,0,0,0-2.58-1.71c-3-.39-9.23-1.69-9.23-1.69s-22.72,3.7-47,33.89-39,32.88-39,32.88l-5.22,3.77s-6.55,6.31-9.91,7.15-1.54,6.66-1.54,6.66,8.4,5,6.37,17.62,1.76,9,8.57,24S231.32,1048.7,231.32,1048.7ZM374.43,863.63c-1.57,1.13,1.27.67.61,1.94C375.7,864.29,372.86,864.76,374.43,863.63Z" transform="translate(-3.28 -521)"/><path class="cls-2" d="M162.24,1015.51c1.93,21.88,3.86,37.32,3.86,37.32s0-1.93-.64,1.93l-.64,3.86c-11.58,17.37-14.15,15.44-26.38,22.52l-12.22,7.08s-1.93,9.65,14.15,6.43,15.44,1.93,24.45-7.08,18-5.15,18-5.15,5.79-1.93,4.5-5.15,0-12.22,0-12.22v-6.43s-6.43-13.51,3.86-50.83,0-57.91,0-57.91,8.36-22.52,7.72-36,1.29-30.24,1.29-30.24l2.57-21.88v-8.36s-42.46-2.57-48.26-5.15l-5.79-2.57s1.93,45,5.15,57.91S159.66,919,159.66,919a17.9,17.9,0,0,0,0,10.94c1.93,5.79,2.57,5.15,3.22,10.94s-.64,7.72-2.57,18,1,51.41,1.93,57.26" transform="translate(-3.28 -521)"/><path class="cls-3" d="M150.84,660.88c-2.38-6.83,4.91-6.23,9.45-13.11,5-7.61,3.35-16.45-.67-30.85s-12.26-18.3-17.15-21.59-11.39-3.8-15.87-5.65-15.74.52-17.41.21S102,592.66,98,595.34s-3.48,1.75-8.57,23.34c-.39,1.64,2.41,25.71,8,37.32,3.6,7.44,10.06,9.95,15.07,13C124.77,663.65,137.94,662.6,150.84,660.88Z" transform="translate(-3.28 -521)"/><path class="cls-4" d="M235.34,574.23c2.58,1.54-4.81,19.19-4.84,19.27h0s-10.16,18.35-20.5,36.84c-10.51,18.8-21.19,37.73-21.54,37.66-1.41-.29-16.08-.37-20.14-.61S154,671.21,149.84,663a15.33,15.33,0,0,1-.9-2.09c-10.87,1.29-22,2-32.3,6.42,2.36,1.52,4.33,3.17,5.27,5.79,2.61,7.29,0,0-9.57,6.55s-19.6,13.89-25.6,18.83-8.53,12.94-13.7,31-7.4,34.61-12.49,48S61,794,70.17,813.49s27.08,34.06,36.95,46.07,32-2.54,32-2.54l-.26-15.91s-15.79-1.77-21.51-8.24-9.87-12-20.19-23.24-3-13.84-3.08-26.48,12.67-27.36,13-23.46,11.7,28.84,22,40.07c4.87,5.3,9.93,24.95,10.38,49.38.5,27.34-.59,54.56-.59,54.56s4.64-2.57,14.38,1.49,14.67.08,42.52-5.37,13.68-3.65,13.68-3.65l-5.2-31.91,12,27.43,13.47-6.93c13.47-6.93,30.33-16.1,30.33-16.1-1.91-2.15-28.75-60.25-28.75-60.25s-10-22.62-13.61-31-6.83-15.8-8.75-20.3c-1.78-4.19-7.82-13.15-11.62-23.54-3.32-6.11,5-11.32,5-11.32a362.7,362.7,0,0,0,20.37-43.4c10.35-26.07,13-16.13,21.36-49.66,1.85-7.41,6.35-23.48,15.81-55.5,1.59-5.38,5-17-.38-23.87a13.66,13.66,0,0,0-3.48-3.07c-5.58-3.45-12.87-1.7-18.15.5a13,13,0,0,0-4.73,3.61c-1.49,1.7-4.13,1.55-4.63,3.25a9.05,9.05,0,0,0-.14,1.36c-.16,1.77-.35,3-.41,3.44-.27,2-1.69,12.71,2,14.62a6.78,6.78,0,0,0,1.4.47C233.69,574.58,234.71,573.85,235.34,574.23Z" transform="translate(-3.28 -521)"/><path class="cls-2" d="M321.16,1018.72c-1.93,21.88-3.86,37.32-3.86,37.32s0-1.93.64,1.93l.64,3.86c11.58,17.37,14.15,15.44,26.38,22.52l12.22,7.08s1.93,9.65-14.15,6.43-15.44,1.93-24.45-7.08-18-5.15-18-5.15-5.79-1.93-4.5-5.15,0-12.22,0-12.22v-6.43s6.43-13.51-3.86-50.83,0-57.91,0-57.91-8.36-22.52-7.72-36-1.29-30.24-1.29-30.24L280.62,865v-8.36s42.46-2.57,48.26-5.15l5.79-2.57s-1.93,45-5.15,57.91-5.79,15.44-5.79,15.44a17.9,17.9,0,0,1,0,10.94c-1.93,5.79-2.57,5.15-3.22,10.94s.64,7.72,2.57,18-1,51.41-1.93,57.26" transform="translate(-3.28 -521)"/><path class="cls-2" d="M243.95,1018.72c1.93,21.88,3.86,37.32,3.86,37.32s0-1.93-.64,1.93l-.64,3.86c-11.58,17.37-14.15,15.44-26.38,22.52l-12.22,7.08s-1.93,9.65,14.15,6.43,15.44,1.93,24.45-7.08,18-5.15,18-5.15,5.79-1.93,4.5-5.15,0-12.22,0-12.22v-6.43s-6.43-13.51,3.86-50.83,0-57.91,0-57.91,8.36-22.52,7.72-36,1.29-30.24,1.29-30.24L284.48,865v-8.36S242,854,236.23,851.44l-5.79-2.57s1.93,45,5.15,57.91,5.79,15.44,5.79,15.44a17.9,17.9,0,0,0,0,10.94c1.93,5.79,2.57,5.15,3.22,10.94s-.64,7.72-2.57,18,1,51.41,1.93,57.26" transform="translate(-3.28 -521)"/><path class="cls-6" d="M322.8,733c-.53-5.88-1-10.25-1-10.25S321.17,726.25,322.8,733Z" transform="translate(-3.28 -521)"/><path class="cls-2" d="M309.15,642c-1.27-7.12,5.83-5.37,11.41-11.45,6.16-6.72,5.91-15.71,4.22-30.56s-9.21-20-13.51-24-10.64-5.56-14.78-8.1-15.62-2-17.23-2.55-7.52,1.61-11.91,3.61-3.72,1.17-12.16,21.69c-.64,1.55-1.69,25.76,2,38.13,2.38,7.92,8.36,11.42,12.82,15.23C283,640.56,296.15,641.61,309.15,642Z" transform="translate(-3.28 -521)"/><path class="cls-11" d="M141.05,657.13c7.08-5.79,2.57-2.57,9-4.5s3.86.64,12.22,3.86,0,8.36,0,8.36,7.72,19.3,9.65,25.09,30.24,36.67,31.53,30.88,12.87-26.38,12.87-26.38,7.08-16.09,9-21.88,10.94-11.58,12.22-12.22,15.44-4.5,19.3-5.79,14.8,0,16.73-9a15.33,15.33,0,0,0,.33-2.25c10.84-1.56,21.74-3.74,32.87-2.13-1.89,2.07-3.37,4.18-3.6,7-.64,7.72,0,0,10.94,3.86s22.52,8.36,29.6,11.58,11.58,10.29,21.23,26.38,16.09,31.53,24.45,43.11,3.86,16.09,0,37.32-17.37,39.89-23.81,54-31.53,5.79-31.53,5.79l-3.86-15.44S345,809,348.88,801.25s6.43-14.15,13.51-27.67-.64-14.15-3.86-26.38-19.3-23.16-18.66-19.3-8.36,27-15.44,40.53c-3.34,6.38,1.35,30.52,7.22,54.25,6.58,26.54,14.65,52.56,14.65,52.56s-5.15-1.29-13.51,5.15-14.15,3.86-42.46,5.79-14.15,0-14.15,0L273,854l-4.5,29.6-14.8-3.22c-14.8-3.22-33.46-7.72-33.46-7.72,1.29-2.57,12.22-65.63,12.22-65.63s3.86-24.45,5.15-33.46.64-12.22-1.29-16.73c-1.26-2.94-.06-19.26.93-30.28,1.63-6.76,1-10.25,1-10.25s-.47,4.37-1,10.25a64.9,64.9,0,0,1-3.51,10.33c-5.79,13.51-24.45,9.65-36,10.94s-23.81-13.51-32.81-20.59-7.08-16.73-11.58-20.59-8.36-27.67-9.65-31.53-1.29-2.57-7.08-3.22-3.22-3.22-4.5-5.79S134,662.92,141.05,657.13Z" transform="translate(-3.28 -521)"/><path class="cls-12" d="M465.16,1080.32" transform="translate(-3.28 -521)"/><path class="cls-12" d="M516.6,1082.88c-5.87-6.22-7.7-5.59-11.38-17.55l.31-2.31c.17-1.28.14-1.51.08-1.47l-.12.25a.91.91,0,0,1,.12-.25c.45-1,2.17-4.81,4.59-10.47q-6.45-1.94-12.87-3.93c-2,10.68-5.21,14.11-5.21,14.11l-1.13,3.65s-.84,5.35-2.15,6.94,1.71,3.74,1.71,3.74,5.92-.57,9.57,6.17,4.19,3.7,13,8.43,9.37-1.1,9.37-1.1Z" transform="translate(-3.28 -521)"/><path class="cls-12" d="M469.37,1051c.64,6.13,1.15,10.3,1.29,11.38a.91.91,0,0,1,0,.28l0-.28c0-.06-.14.15-.36,1.42l-.39,2.3c-7.05,10.33-8.62,9.18-16.07,13.39l-7.45,4.21s-1.18,5.74,8.62,3.83,9.4,1.15,14.89-4.21,11-3.06,11-3.06,3.53-1.15,2.74-3.06,0-7.27,0-7.27v-3.83s-2.06-4.24-.8-15.05Z" transform="translate(-3.28 -521)"/><path class="cls-2" d="M497.06,680.18l-.14.56C497.8,680.37,497.06,680.18,497.06,680.18Z" transform="translate(-3.28 -521)"/><path class="cls-2" d="M544.21,835.63a1.94,1.94,0,0,0-.71.13C542.59,836.07,543.34,835.87,544.21,835.63Z" transform="translate(-3.28 -521)"/><path class="cls-2" d="M442.21,827.36l-.08.68C442.21,828.25,442.21,827.36,442.21,827.36Z" transform="translate(-3.28 -521)"/><path class="cls-2" d="M546.86,953.84c-5.6-22.39-1.68-21.27-5.6-38.05s-6.63-78.07-13.43-90.1c-7.28-12.87-7.28-17.35-12.87-21.27-3.3-2.31-4.46-3.26-5.09-4.8a6.31,6.31,0,0,1-3,1.16,138.51,138.51,0,0,1-46.75-3.54,12.18,12.18,0,0,1-1.09,1.58c-2.24,2.8,1.12-.56-6.72,7.28-7.26,7.26-9.51,28.54-9.51,28.54l-1.68,30.78S422.63,982.94,424.3,985.18s-2.8,8.39-2.8,15.67-4.48,35.26-7.28,40.29-5,22.39-5,22.39-8.39,3.36,9.51,0,6.16-3.36,21.27-3.92,12.31,3.92,22.94,2.8,10.07,1.68,26.3,0,2.8-5,18.47-2.8,22.39,3.92,29.1,2.24,2.24-5.6,13.43-2.8,15.11,2.24,15.11,2.24S552.46,976.23,546.86,953.84Z" transform="translate(-3.28 -521)"/><path class="cls-2" d="M503.21,696.41c-3.92-6.72-6.72-10.07-6.72-14l.42-1.68a26.82,26.82,0,0,1-5.46,1.12c-7.83,1.12-10.07,2.24-14.55.56s-6.16-2.24-6.16-2.24,1.12,1.68,0,6.16-.56,7.83-9,12.31c-6.6,3.52-14.93,5-21.45,7.06,18.46,12.28,43,20.63,63.7,11.13,6.59-2.74,14.24-6.57,19.28-13.05l-2.22-.66S507.13,703.13,503.21,696.41Z" transform="translate(-3.28 -521)"/><path class="cls-2" d="M548.54,840.24c-3.23-3.23-3.42-4.56-4.33-4.61-.87.24-1.63.44-.71.13a1.94,1.94,0,0,1,.71-.13l1.53-.43s2.8-1.68,2.24-3.92-1.68-2.24-.56-14.55,1.12-24.62,1.68-31.34-2.8-5-3.92-15.67,1.12-11.75,2.24-14.55,2.24-15.11,1.68-19-3.36-21.83-7.83-25.18c-3.36-2.52-13-5.66-17.62-7.08a66.81,66.81,0,0,0,6.23,27.57,5.26,5.26,0,0,1,.76-.34s1.12,13.43.56,18.47,0-.56-.56,9.51S529,772,529,779.24s-2.24,8.39-.56,22.39,5.6,35.26,5.6,35.26h3.36l-1.68,1.68s-1.12,6.72-.56,9,1.68,7.28,4.48,6.72,6.72-1.12,7.83-2.24,2.8,1.12,3.36-2.24S552.46,844.15,548.54,840.24Z" transform="translate(-3.28 -521)"/><path class="cls-12" d="M523.34,703.79c-5,6.48-12.7,10.31-19.28,13.05-20.67,9.5-45.24,1.15-63.7-11.13l-.11,0c-1.07,8.19.48,16.37-1.54,24.56.17.28.54,1,1.27,2.49,2.24,4.48,3.36,10.07,5.6,13.43s2.8,3.36,3.92,6.72.56,5.6,2.24,9.51,1.12-.56,3.92,9,5,4.48,5.6,13.43c.45,7.26.17,10.1-1.14,12.41a138.51,138.51,0,0,0,46.75,3.54,6.31,6.31,0,0,0,3-1.16,30.51,30.51,0,0,1-1.07-4.71c-1.12-5.6-3.36-6.16,1.68-14.55s5.6-16.79,7.83-20.71,2.8-.56,6.16-11.19,3.92-10.63,3.36-13.43a3.36,3.36,0,0,1,2-3.57,66.81,66.81,0,0,1-6.23-27.57Z" transform="translate(-3.28 -521)"/><path class="cls-2" d="M442.77,811.7c-.56-7.83,0-14-1.12-17.35s.56-2.8-.56-7.83-2.8-6.16-2.8-9-.56-3.36,0-8.39,0-5.6.56-10.07,1.68-5.6,1.12-9,.56-2.8-.56-6.16-1.68-2.24-1.12-6.16a28.71,28.71,0,0,0,.56-5.6,8.86,8.86,0,0,0-.22-1.65l-.06.26.06-.26c-.08-.38-.1-.55.07-.27,2-8.19.47-16.37,1.54-24.56a34.15,34.15,0,0,0-4.75,1.86c-6.72,3.36-11.75,9-12.31,14s-1.68,10.63-1.12,19,.56,20.71.56,24.62,2.24,7.28,1.68,12.31a58.45,58.45,0,0,0,0,14c.56,5.6.56,9.51,1.68,14.55.81,3.66,2.8,17.35,2.8,17.35l1.68,13.43v2.24l2.8-1.12.42-.42-.42.42-1.68,1.68c-3.36,3.36-4.48,7.83-2.8,10.07s2.8,3.92,4.48,3.92,3.36.56,5-1.12a10.44,10.44,0,0,0,2.8-5.6c0-1.12.56-.56,0-2.8s.56-4.48-.56-5l-1.12-.56,1.68-1.12,1-9.39a46.86,46.86,0,0,1-.48-5.16C441.09,815.05,443.33,819.53,442.77,811.7Z" transform="translate(-3.28 -521)"/><path class="cls-21" d="M486.42,709.84s14-22.94,19.59-29.66,9.51-10.63,10.63-12.87,6.72-6.72,3.92-24.62,3.92-25.18-11.75-38.61-26.86-14.55-38.61-13.43-31.34,27.42-30.22,33-4.48,6.16,2.8,19.59,3.36,21.83,10.07,31.34,10.07,10.07,15.67,22.94a208.54,208.54,0,0,0,11.75,22.94Z" transform="translate(-3.28 -521)"/><path class="cls-10" d="M404.16,710.4" transform="translate(-3.28 -521)"/><path class="cls-12" d="M893,1081.1" transform="translate(-3.28 -521)"/><path class="cls-12" d="M932.27,1083.06c-4.48-4.75-5.88-4.27-8.69-13.39l.23-1.76c.13-1,.11-1.15.06-1.12l-.09.19a.69.69,0,0,1,.09-.19c.34-.75,1.66-3.67,3.51-8q-4.92-1.48-9.82-3c-1.52,8.15-4,10.77-4,10.77l-.86,2.79s-.64,4.08-1.64,5.3,1.31,2.85,1.31,2.85,4.52-.43,7.31,4.71,3.19,2.82,9.9,6.43,7.15-.84,7.15-.84Z" transform="translate(-3.28 -521)"/><path class="cls-12" d="M896.23,1058.7c.49,4.68.88,7.86,1,8.68a.69.69,0,0,1,0,.21l0-.21s-.11.11-.27,1.09l-.3,1.75c-5.38,7.88-6.58,7-12.26,10.22l-5.68,3.21s-.9,4.38,6.58,2.92,7.18.88,11.36-3.21S905,1081,905,1081s2.69-.88,2.09-2.34,0-5.55,0-5.55v-2.92s-1.57-3.24-.61-11.49Z" transform="translate(-3.28 -521)"/><path class="cls-2" d="M917.36,775.72l-.11.43C917.93,775.87,917.36,775.72,917.36,775.72Z" transform="translate(-3.28 -521)"/><path class="cls-2" d="M875.5,888.05l-.06.52C875.5,888.72,875.5,888.05,875.5,888.05Z" transform="translate(-3.28 -521)"/><path class="cls-2" d="M953.35,894.36a1.48,1.48,0,0,0-.54.1C952.11,894.69,952.68,894.54,953.35,894.36Z" transform="translate(-3.28 -521)"/><path class="cls-2" d="M955.37,984.58c-4.27-17.08-1.28-16.23-4.27-29S946,896,940.85,886.77c-5.55-9.82-5.55-13.24-9.82-16.23s-3.84-3-4.7-7.26-2.56-4.7,1.28-11.1,4.27-12.81,6-15.8,2.14-.43,4.7-8.54,3-8.12,2.56-10.25,2.14-3,2.14-3,.85,10.25.43,14.09,0-.43-.43,7.26-1.28,9.82-1.28,15.38-1.71,6.41-.43,17.08,4.27,26.91,4.27,26.91h2.56l-1.28,1.28s-.85,5.13-.43,6.83,1.28,5.55,3.42,5.13,5.13-.85,6-1.71,2.14.85,2.56-1.71,1.28-4.27-1.71-7.26c-2.47-2.47-2.61-3.48-3.3-3.52-.67.18-1.24.33-.54.1a1.48,1.48,0,0,1,.54-.1l1.17-.33s2.14-1.28,1.71-3-1.28-1.71-.43-11.1.85-18.79,1.28-23.92-2.14-3.84-3-12,.85-9,1.71-11.1,1.71-11.53,1.28-14.52-2.56-16.66-6-19.22-15.38-6-15.38-6-10.68,0-13.67-5.13-5.13-7.69-5.13-10.68l.32-1.28a20.47,20.47,0,0,1-4.16.85c-6,.85-7.69,1.71-11.1.43s-4.7-1.71-4.7-1.71.85,1.28,0,4.7-.43,6-6.83,9.4-14.95,4.27-20.07,6.83-9,6.83-9.4,10.68-1.28,8.12-.85,14.52.43,15.8.43,18.79,1.71,5.55,1.28,9.4a44.61,44.61,0,0,0,0,10.68c.43,4.27.43,7.26,1.28,11.1.62,2.8,2.14,13.24,2.14,13.24l1.28,10.25V897l2.14-.85.32-.32-.32.32-1.28,1.28c-2.56,2.56-3.42,6-2.14,7.69s2.14,3,3.42,3,2.56.43,3.84-.85a8,8,0,0,0,2.14-4.27c0-.85.43-.43,0-2.14s.43-3.42-.43-3.84l-.85-.43,1.28-.85.8-7.17a35.76,35.76,0,0,1-.37-3.94c-.43-6,1.28-2.56.85-8.54s0-10.68-.85-13.24.43-2.14-.43-6-2.14-4.7-2.14-6.83-.43-2.56,0-6.41,0-4.27.43-7.69,1.28-4.27.85-6.83.43-2.14-.43-4.7-1.28-1.71-.85-4.7a21.91,21.91,0,0,0,.43-4.27c0-1.28-.85-3,.85.43s2.56,7.69,4.27,10.25,2.14,2.56,3,5.13.43,4.27,1.71,7.26.85-.43,3,6.83,3.84,3.42,4.27,10.25,0,8.54-1.71,10.68.85-.43-5.13,5.55c-5.54,5.54-7.26,21.78-7.26,21.78l-1.28,23.49s-14.09,89.69-12.81,91.4-2.14,6.41-2.14,12-3.42,26.91-5.55,30.75-3.84,17.08-3.84,17.08-6.41,2.56,7.26,0,4.7-2.56,16.23-3,9.4,3,17.51,2.14,7.69,1.28,20.07,0,2.14-3.84,14.09-2.14,17.08,3,22.21,1.71,1.71-4.27,10.25-2.14,11.53,1.71,11.53,1.71S959.64,1001.66,955.37,984.58ZM906.89,869.47a5.65,5.65,0,0,0,.85-5.13c-5.13-19.22-3-38.44-3.42-57.66.43,19.22-1.71,38.44,3.42,57.66A5.65,5.65,0,0,1,906.89,869.47Z" transform="translate(-3.28 -521)"/><ellipse class="cls-5" cx="902.97" cy="224.83" rx="23.92" ry="32.03"/><path class="cls-12" d="M942.83,814.85a51,51,0,0,1-4.75-21l-.24-.07c-3.85,4.95-9.69,7.87-14.72,10-15.78,7.25-34.53.88-48.62-8.49l-.08,0c-.82,6.25.37,12.5-1.18,18.74.13.22.41.78,1,1.9,1.71,3.42,2.56,7.69,4.27,10.25s2.14,2.56,3,5.13.43,4.27,1.71,7.26.85-.43,3,6.83,3.84,3.42,4.27,10.25c.35,5.54.13,7.71-.87,9.47a108.79,108.79,0,0,0,18.14,2.9,6.15,6.15,0,0,0,0-3.62c-5.13-19.22-3-38.44-3.42-57.66.43,19.22-1.71,38.44,3.42,57.66a6.15,6.15,0,0,1,0,3.62,101.56,101.56,0,0,0,17.55-.2,4.81,4.81,0,0,0,2.31-.89,23.29,23.29,0,0,1-.82-3.6c-.85-4.27-2.56-4.7,1.28-11.1s4.27-12.81,6-15.8,2.14-.43,4.7-8.54,3-8.12,2.56-10.25A2.56,2.56,0,0,1,942.83,814.85Z" transform="translate(-3.28 -521)"/><path class="cls-10" d="M908.29,736.75c3.81-2.78,5.72-4.16,9.06-4.16s6.2,4.16,6.2,4.16" transform="translate(-3.28 -521)"/><path class="cls-10" d="M888.74,736.75c3.81-2.78,5.72-4.16,9.06-4.16s6.2,4.16,6.2,4.16" transform="translate(-3.28 -521)"/><path class="cls-10" d="M907.82,741.61c3.81-2.78,5.72-4.16,9.06-4.16s6.2,4.16,6.2,4.16" transform="translate(-3.28 -521)"/><path class="cls-10" d="M904,742.31c-3.82,2.77-5.72,4.16-9.06,4.16s-6.2-4.17-6.2-4.17" transform="translate(-3.28 -521)"/><path class="cls-10" d="M888.74,742.3c3.81-2.78,5.72-4.16,9.06-4.16s6.2,4.16,6.2,4.16" transform="translate(-3.28 -521)"/><path class="cls-10" d="M923.07,741.6c-3.81,2.78-5.72,4.17-9.06,4.18s-6.2-4.15-6.2-4.15" transform="translate(-3.28 -521)"/><ellipse class="cls-12" cx="893.15" cy="221.2" rx="2.99" ry="4.06"/><ellipse class="cls-12" cx="912.37" cy="220.77" rx="2.99" ry="4.06"/><path class="cls-10" d="M906.25,746.25c-.43,3.44-.85,3.44-1.71,6.87s-.85,3.82-.85,4.58,1.71,1.15,2.56,1.15" transform="translate(-3.28 -521)"/><path class="cls-10" d="M899.92,763.37c3-1.51,3.65-2.61,4.75-2l2.16,1.9s1.89-2.17,2.46-2.12,2.73,1.94,3.88,2-7.61,1.73-10.43.94Z" transform="translate(-3.28 -521)"/><path class="cls-10" d="M899.35,763.32c1.59,1.85,1,2.38,3.79,3.18s2.25.75,5.15.39a8,8,0,0,0,4.84-3.1l0-.57" transform="translate(-3.28 -521)"/><path class="cls-12" d="M937.43,749.24c-2.14-13.67,3-19.22-9-29.47S908,708.67,899,709.52s-23.92,20.93-23.06,25.2-3.42,4.7,2.14,14.95,2.56,16.66,7.69,23.92,7.69,7.69,12,17.51a159.16,159.16,0,0,0,9,17.51l4.7-8.12s10.68-17.51,14.95-22.64,7.26-8.12,8.12-9.82S939.57,762.91,937.43,749.24Z" transform="translate(-3.28 -521)"/><path class="cls-2" d="M860.32,809.29c-4.64-6-7.48-11.23-10.17-13.32s-1-2.54-4.64-6-5.54-3.45-7-5.69-2.24-2.4-4.49-6.74-3-4.49-4.93-8.38-1.64-5.39-3.89-7.78-1-2.54-3.74-4.64-2.54-.9-4.19-4.34a27.68,27.68,0,0,0-2.54-4.79,8.55,8.55,0,0,0-1.06-1.21l.09.24-.09-.24c-.27-.27-.38-.39-.09-.25-2.75-7.65-7.36-24-11.89-20.53-2.81.14-7,2.11-7.75,3.43-3.6,6.28.29,14.07,2.53,18.41s4.33,9.43,9.27,15.87,11.51,16.32,13.61,19.46,5.68,4.64,7.93,9A56.36,56.36,0,0,0,834.73,803c3.44,4.19,5.53,7.34,9.12,10.78,2.61,2.51,11.52,12.43,11.52,12.43l8.53,9.88,1.2,1.8,1.65-2.39.11-.56-.11.56-.45,2.24c-.9,4.49.59,8.68,3.14,9.58s4.34,1.65,5.69.75,3-1.35,3.44-3.59a10.06,10.06,0,0,0-.75-6c-.6-.9.15-.75-1.5-2.25s-1.94-3.89-3.14-3.74l-1.2.15.75-1.8-4.18-8.09a45.18,45.18,0,0,1-3.15-3.88C860.77,812.88,865,815.28,860.32,809.29Z" transform="translate(-3.28 -521)"/><path class="cls-12" d="M792,1082.15c-5.66-6-7.43-5.39-11-16.92l.29-2.23c.16-1.23.14-1.46.08-1.41l-.11.24a.87.87,0,0,1,.11-.24c.43-.95,2.09-4.64,4.43-10.09q-6.22-1.87-12.41-3.79c-1.92,10.29-5,13.6-5,13.6l-1.09,3.52s-.81,5.16-2.08,6.69,1.65,3.6,1.65,3.6,5.71-.55,9.23,6,4,3.57,12.51,8.13,9-1.06,9-1.06Z" transform="translate(-3.28 -521)"/><path class="cls-12" d="M826.9,1047.06c-.62,5.91-1.11,9.94-1.24,11a.87.87,0,0,0,0,.27l0-.27c0-.06.13.15.34,1.37l.38,2.21c6.8,10,8.31,8.85,15.49,12.91l7.18,4.06s1.13,5.53-8.31,3.69-9.07,1.11-14.36-4.06-10.58-3-10.58-3-3.4-1.11-2.64-3,0-7,0-7v-3.69s2-4.09.77-14.51Z" transform="translate(-3.28 -521)"/><path class="cls-2" d="M789.41,693.87l.14.54C788.69,694.05,789.41,693.87,789.41,693.87Z" transform="translate(-3.28 -521)"/><path class="cls-2" d="M743.94,843.75a1.87,1.87,0,0,1,.68.13C745.51,844.17,744.78,844,743.94,843.75Z" transform="translate(-3.28 -521)"/><path class="cls-2" d="M842.29,835.78l.07.66C842.29,836.63,842.29,835.78,842.29,835.78Z" transform="translate(-3.28 -521)"/><path class="cls-2" d="M741.39,957.73c5.4-21.58,1.62-20.5,5.4-36.69s6.39-75.27,13-86.87c7-12.41,7-16.73,12.41-20.5,3.18-2.23,4.3-3.14,4.9-4.63a6.08,6.08,0,0,0,2.92,1.12A133.55,133.55,0,0,0,825,806.74c.3.52.94.88,1.05,1.52,1.08,5.94.81,8.21,6.48,17.27,5.4,8.63,5.94,28.6,5.94,28.6l4.86,18.35s17.81,113.31,16.19,115.47,2.7,8.09,2.7,15.11,4.32,34,7,38.85,4.86,21.58,4.86,21.58,8.09,3.24-9.17,0-5.94-3.24-20.5-3.78-11.87,3.78-22.12,2.7-9.71,1.62-25.36,0-2.7-4.86-17.81-2.7-21.58,3.78-28.06,2.16-2.16-5.4-13-2.7-14.57,2.16-14.57,2.16S736,979.32,741.39,957.73Z" transform="translate(-3.28 -521)"/><path class="cls-2" d="M784,711.14c3.78-6.48,6.48-9.71,6.48-13.49l-.4-1.62a25.86,25.86,0,0,0,5.26,1.08c7.55,1.08,9.71,2.16,14,.54s5.94-2.16,5.94-2.16-1.08,1.62,0,5.94-2.81,13.3,4.86,18.35c8.19,5.39,23.89,14.54,21,14,11.69,32-38.08,6.19-58-3-6.35-2.65-2.43-1.89-8.9-5.13,1.31-.4,5.4-7.55,5.4-7.55S780.24,717.61,784,711.14Z" transform="translate(-3.28 -521)"/><path class="cls-12" d="M841.21,732.18c3.24,2.16,3.7,7.24,3.78,7.55,1.08,4.32-3.24,14.57-5.4,17.81s-2.7,3.24-3.78,6.48-.54,5.4-2.16,9.17-1.08-.54-3.78,8.63-4.86,4.32-5.4,13c-.3,4.77-.27,7.56.18,9.56a2.59,2.59,0,0,1-2,3.09,133.05,133.05,0,0,1-42.19,2.73h-.21a2.56,2.56,0,0,1-2.18-3.08c.14-.7.29-1.54.5-2.58,1-5.1,3.58-11.28-.27-18.41a2.87,2.87,0,0,1-.3-.87,36.67,36.67,0,0,0-1.54-3.76,2.27,2.27,0,0,1-.07-.34c-3.18-20.22-2.68-31.52-3.72-51.11a2.64,2.64,0,0,1,.17-1.07c.38-1,.56-1,2-3.77" transform="translate(-3.28 -521)"/><path class="cls-12" d="M841.21,732.18" transform="translate(-3.28 -521)"/><path class="cls-5" d="M802.9,619.41c14,0,25.72,12.7,29.18,29.95l0-.81c1,4.34,2.88,4.34,4.95,8.68s2.07,4.82,2.07,5.79-4,1.44-6.13,1.45c-1.7,20.19-14.49,35.88-30,35.88-16.69,0-30.22-18.12-30.22-40.47S786.21,619.41,802.9,619.41Z" transform="translate(-3.28 -521)"/><path class="cls-12" d="M773.76,726.79c6.4-10.66,2.26-5,8.92-11.62a2.63,2.63,0,0,0,.42-.56c11.1-19.49,41.38,3.55,58.1,17.58" transform="translate(-3.28 -521)"/><path class="cls-2" d="M813.15,829.31c-.54-7.55,0-13.49-1.08-16.73s.54-2.7-.54-7.55-2.7-5.94-2.7-8.63-.54-3.24,0-8.09,0-5.4.54-9.71,1.62-5.4,1.08-8.63.54-2.7-.54-5.94-1.62-2.16-1.08-5.94a27.68,27.68,0,0,0,.54-5.4,8.55,8.55,0,0,0-.21-1.6l-.06.25.06-.25c-.07-.37-.1-.53.06-.26,2-7.89,7.16-24,1.49-23.68-2.42-1.44-7-2.12-8.35-1.44-6.48,3.24-7.55,11.87-8.09,16.73s-1.62,10.25-1.08,18.35.54,20,.54,23.74,2.16,7,1.62,11.87a56.36,56.36,0,0,0,0,13.49c.54,5.4.54,9.17,1.62,14,.79,3.53,2.7,16.73,2.7,16.73l1.62,13v2.16l2.7-1.08.4-.4-.4.4-1.62,1.62c-3.24,3.24-4.32,7.55-2.7,9.71s2.7,3.78,4.32,3.78,3.24.54,4.86-1.08a10.06,10.06,0,0,0,2.7-5.4c0-1.08.54-.54,0-2.7s.54-4.32-.54-4.86l-1.08-.54,1.62-1.08,1-9.05a45.18,45.18,0,0,1-.47-5C811.54,832.55,813.69,836.86,813.15,829.31Z" transform="translate(-3.28 -521)"/><path class="cls-10" d="M818.13,640.86c-4.82-3.51-7.23-5.26-11.45-5.26s-7.83,5.26-7.83,5.26" transform="translate(-3.28 -521)"/><path class="cls-10" d="M818.74,647c-4.82-3.51-7.23-5.26-11.45-5.26s-7.83,5.26-7.83,5.26" transform="translate(-3.28 -521)"/><path class="cls-10" d="M799.46,647c4.82,3.52,7.22,5.27,11.44,5.28s7.84-5.25,7.84-5.25" transform="translate(-3.28 -521)"/><ellipse class="cls-12" cx="809.34" cy="126.46" rx="3.78" ry="4.32"/><path class="cls-10" d="M827.72,682.54c-5.17-1.63-11.37-4.12-10.14-3.88,1.76.34,5.62-1.13,6.5-1s3.64,4.84,3.64,4.84" transform="translate(-3.28 -521)"/><path class="cls-10" d="M817.74,678.49s6.48,6.79,8.09,7" transform="translate(-3.28 -521)"/><path class="cls-22" d="M761.09,638.79c8.89-15,5.47-24,24.29-30.41s29.12,7.38,38.57,13.72c7.09,4.76.13,6.19,0,7.55-.54,5.48-21.07-13.22-32.38-3.78s-16.74,20.12-17.81,31.3c-1.08,11.33,24,39.76,14.41,49.29a201.08,201.08,0,0,1-18.71,16.37l-1.73-11.72s-4.36-25.54-7-33.55-4.73-12.92-4.94-15.32S752.2,653.83,761.09,638.79Z" transform="translate(-3.28 -521)"/><path class="cls-10" d="M784.85,658.92s-.59-7.4-3.84-7-5,5.75-3.9,8.74,6,4.11,5.88,6.57" transform="translate(-3.28 -521)"/><path class="cls-13" d="M578.08,620.73c-.58,3.5-1.17,6.42,0,6.42a2.56,2.56,0,0,0,1.75-.58,1.28,1.28,0,0,0,.58-1.75,27.49,27.49,0,0,1-1.17-2.92Z" transform="translate(-3.28 -521)"/><path class="cls-13" d="M579.83,642.33c-.58,3.5-1.17,6.42,0,6.42a2.56,2.56,0,0,0,1.75-.58,1.28,1.28,0,0,0,.58-1.75A27.49,27.49,0,0,1,581,643.5Z" transform="translate(-3.28 -521)"/><path class="cls-1" d="M1141.18,1048.7l.06-.46A1.56,1.56,0,0,0,1141.18,1048.7Z" transform="translate(-3.28 -521)"/><path class="cls-2" d="M1145,894.42c-9.51-4.38-11.83-4.45-16.18-8.33s-3.45-4-7.06-9a17.9,17.9,0,0,0-8.92-6.33s-.61-3.59-9.24-13.66-44.25-37.71-44.25-37.71l-1.25,6.21c-1.25,6.21-23.73,42.33-23.73,42.33l6.82,4.84,19.33,10.56s14.76,8.11,25.41,16.45c9.47,7.42,28.84,13.14,33,14.33,7.15-8.92,17.78-13.62,28.37-18.51C1146.5,895.15,1145.71,894.73,1145,894.42Z" transform="translate(-3.28 -521)"/><path class="cls-2" d="M1066.78,1027.2l-1.41-14.05c-1.41-14.05-4.49-15,2.82-34.57l2.75-2.78c1.53-1.54,1.72-1.88,1.6-1.88l-.41.23a1.56,1.56,0,0,1,.41-.23c2.39-1.32,15.13-8.37,32.11-18.48l-.52.38c5.52-2.41,56.17-26.27,53.82-36.46-1.14-10.9-.24-14-5.23-22.39a3.54,3.54,0,0,0-2.58-1.71c-3-.39-9.23-1.69-9.23-1.69s-22.72,3.7-47,33.89-39,32.88-39,32.88l-5.22,3.77s-6.55,6.31-9.91,7.15-1.54,6.66-1.54,6.66,8.4,5,6.37,17.62,1.76,9,8.57,24S1066.78,1027.2,1066.78,1027.2Zm143.11-185.07c-1.57,1.13,1.27.67.61,1.94C1211.17,842.8,1208.33,843.26,1209.89,842.13Z" transform="translate(-3.28 -521)"/><path class="cls-2" d="M997.7,994c1.93,21.88,3.86,37.32,3.86,37.32s0-1.93-.64,1.93l-.64,3.86c-11.58,17.37-14.15,15.44-26.38,22.52l-12.22,7.08s-1.93,9.65,14.15,6.43,15.44,1.93,24.45-7.08,18-5.15,18-5.15,5.79-1.93,4.5-5.15,0-12.22,0-12.22v-6.43s-6.43-13.51,3.86-50.83,0-57.91,0-57.91,8.36-22.52,7.72-36,1.29-30.24,1.29-30.24l2.57-21.88v-8.36s-42.46-2.57-48.26-5.15l-5.79-2.57s1.93,45,5.15,57.91,5.79,15.44,5.79,15.44a17.9,17.9,0,0,0,0,10.94c1.93,5.79,2.57,5.15,3.22,10.94s-.64,7.72-2.57,18,1,51.41,1.93,57.26" transform="translate(-3.28 -521)"/><path class="cls-3" d="M986.3,639.39c-2.38-6.83,4.91-6.23,9.45-13.11,5-7.61,3.35-16.45-.67-30.85s-12.26-18.3-17.15-21.59-11.39-3.8-15.87-5.65-15.74.52-17.41.21-7.17,2.78-11.18,5.45-3.48,1.75-8.57,23.34c-.39,1.64,2.41,25.71,8,37.32,3.6,7.44,10.06,9.95,15.07,13C960.24,642.15,973.41,641.1,986.3,639.39Z" transform="translate(-3.28 -521)"/><path class="cls-4" d="M1070.81,552.73c2.58,1.54-4.81,19.19-4.84,19.27h0s-10.16,18.35-20.5,36.84c-10.51,18.8-21.19,37.73-21.54,37.66-1.41-.29-16.08-.37-20.14-.61s-14.3,3.82-18.49-4.38a15.33,15.33,0,0,1-.9-2.09c-10.87,1.29-22,2-32.3,6.42,2.36,1.52,4.33,3.17,5.27,5.79,2.61,7.29,0,0-9.57,6.55s-19.6,13.89-25.6,18.83-8.53,12.94-13.7,31-7.4,34.61-12.49,48,.42,16.54,9.63,36.05,27.08,34.06,36.95,46.07,32-2.54,32-2.54l-.26-15.91s-15.79-1.77-21.51-8.24-9.87-12-20.19-23.24-3-13.84-3.08-26.48,12.67-27.36,13-23.46,11.7,28.84,22,40.07c4.87,5.3,9.93,24.95,10.38,49.38.5,27.34-.59,54.56-.59,54.56s4.64-2.57,14.38,1.49,14.67.08,42.52-5.37,13.68-3.65,13.68-3.65l-5.2-31.91,12,27.43,13.47-6.93c13.47-6.93,30.33-16.1,30.33-16.1-1.91-2.15-28.75-60.25-28.75-60.25s-10-22.62-13.61-31-6.83-15.8-8.75-20.3c-1.78-4.19-7.82-13.15-11.62-23.54-3.32-6.11,5-11.32,5-11.32a362.7,362.7,0,0,0,20.37-43.4c10.35-26.07,13-16.13,21.36-49.66,1.85-7.41,6.35-23.48,15.81-55.5,1.59-5.38,5-17-.38-23.87a13.66,13.66,0,0,0-3.48-3.07c-5.58-3.45-12.87-1.7-18.15.5a13,13,0,0,0-4.73,3.61c-1.49,1.7-4.13,1.55-4.63,3.25a9.05,9.05,0,0,0-.14,1.36c-.16,1.77-.35,3-.41,3.44-.27,2-1.69,12.71,2,14.62a6.78,6.78,0,0,0,1.4.47C1069.16,553.09,1070.17,552.35,1070.81,552.73Z" transform="translate(-3.28 -521)"/><path class="cls-5" d="M1269.89,967.85c1.93,21.88,3.86,37.32,3.86,37.32s0-1.93-.64,1.93l-.64,3.86c-11.58,17.37-14.15,15.44-26.38,22.52l-12.22,7.08s-1.93,9.65,14.15,6.43,15.44,1.93,24.45-7.08,18-5.15,18-5.15,5.79-1.93,4.5-5.15,0-12.22,0-12.22V1011s-6.43-13.51,3.86-50.83,0-57.91,0-57.91,8.36-22.52,7.72-36,1.29-30.24,1.29-30.24l2.57-21.88v-8.36s-42.46-2.57-48.26-5.15l-5.79-2.57s1.93,45,5.15,57.91,5.79,15.44,5.79,15.44a17.9,17.9,0,0,0,0,10.94c1.93,5.79,2.57,5.15,3.22,10.94s-.64,7.72-2.57,18,1,51.41,1.93,57.26" transform="translate(-3.28 -521)"/><path class="cls-5" d="M1347.1,967.85c-1.93,21.88-3.86,37.32-3.86,37.32s0-1.93.64,1.93l.64,3.86c11.58,17.37,14.15,15.44,26.38,22.52l12.22,7.08s1.93,9.65-14.15,6.43-15.44,1.93-24.45-7.08-18-5.15-18-5.15-5.79-1.93-4.5-5.15,0-12.22,0-12.22V1011s6.43-13.51-3.86-50.83,0-57.91,0-57.91-8.36-22.52-7.72-36-1.29-30.24-1.29-30.24l-2.57-21.88v-8.36s42.46-2.57,48.26-5.15l5.79-2.57s-1.93,45-5.15,57.91-5.79,15.44-5.79,15.44a17.9,17.9,0,0,1,0,10.94c-1.93,5.79-2.57,5.15-3.22,10.94s.64,7.72,2.57,18-1,51.41-1.93,57.26" transform="translate(-3.28 -521)"/><path class="cls-6" d="M1268.25,682.13c.53-5.88,1-10.25,1-10.25S1269.88,675.37,1268.25,682.13Z" transform="translate(-3.28 -521)"/><path class="cls-7" d="M1301.11,600.78c.45-7.22-6.4-4.68-12.63-10.09-6.88-6-7.65-14.95-7.65-29.89s6.88-20.92,10.71-25.41,9.94-6.73,13.77-9.71,15.3-3.74,16.83-4.48,7.65.75,12.24,2.24,3.82.75,14.53,20.18c.81,1.47,4.59,25.41,2.29,38.11-1.47,8.14-7,12.29-11,16.58C1327,596.43,1314,599,1301.11,600.78Z" transform="translate(-3.28 -521)"/><path class="cls-2" d="M1172.09,612.69c7.08-5.79,2.57-2.57,9-4.5s3.86.64,12.22,3.86,0,8.36,0,8.36,7.72,19.3,9.65,25.09,30.24,36.67,31.53,30.88S1247.37,650,1247.37,650s7.08-16.09,9-21.88,10.94-11.58,12.22-12.22,15.44-4.5,19.3-5.79,14.8,0,16.73-9a15.33,15.33,0,0,0,.33-2.25c10.84-1.56,21.74-3.74,32.87-2.13-1.89,2.07-3.37,4.18-3.6,7-.64,7.72,0,0,10.94,3.86s22.52,8.36,29.6,11.58,11.58,10.29,21.23,26.38,16.09,31.53,24.45,43.11,3.86,16.09,0,37.32-17.37,39.89-23.81,54-31.53,5.79-31.53,5.79l-3.86-15.44s14.8-5.79,18.66-13.51,6.43-14.15,13.51-27.67-.64-14.15-3.86-26.38-19.3-23.16-18.66-19.3-8.36,27-15.44,40.53c-3.34,6.38,1.35,30.52,7.22,54.25,6.58,26.54,14.65,52.56,14.65,52.56s-5.15-1.29-13.51,5.15-14.15,3.86-42.46,5.79-14.15,0-14.15,0L1304,809.57l-4.5,29.6-14.8-3.22c-14.8-3.22-33.46-7.72-33.46-7.72,1.29-2.57,12.22-65.63,12.22-65.63s3.86-24.45,5.15-33.46.64-12.22-1.29-16.73c-1.26-2.94-.06-19.26.93-30.28,1.63-6.76,1-10.25,1-10.25s-.47,4.37-1,10.25a64.9,64.9,0,0,1-3.51,10.33c-5.79,13.51-24.45,9.65-36,10.94s-23.81-13.51-32.81-20.59-7.08-16.73-11.58-20.59-8.36-27.67-9.65-31.53-1.29-2.57-7.08-3.22-3.22-3.22-4.5-5.79S1165,618.48,1172.09,612.69Z" transform="translate(-3.28 -521)"/><path class="cls-5" d="M1541.84,1012.7c1.93,21.88,3.86,37.32,3.86,37.32s0-1.93-.64,1.93l-.64,3.86c-11.58,17.37-14.15,15.44-26.38,22.52l-12.22,7.08s-1.93,9.65,14.15,6.43,15.44,1.93,24.45-7.08,18-5.15,18-5.15,5.79-1.93,4.5-5.15,0-12.22,0-12.22v-6.43s-6.43-13.51,3.86-50.83,0-57.91,0-57.91,8.36-22.52,7.72-36,1.29-30.24,1.29-30.24l2.57-21.88v-8.36s-42.46-2.57-48.26-5.15l-5.79-2.57s1.93,45,5.15,57.91,5.79,15.44,5.79,15.44a17.9,17.9,0,0,0,0,10.94c1.93,5.79,2.57,5.15,3.22,10.94s-.64,7.72-2.57,18,1,51.41,1.93,57.26" transform="translate(-3.28 -521)"/><path class="cls-5" d="M1619,1012.7c-1.93,21.88-3.86,37.32-3.86,37.32s0-1.93.64,1.93l.64,3.86c11.58,17.37,14.15,15.44,26.38,22.52l12.22,7.08s1.93,9.65-14.15,6.43-15.44,1.93-24.45-7.08-18-5.15-18-5.15-5.79-1.93-4.5-5.15,0-12.22,0-12.22v-6.43s6.43-13.51-3.86-50.83,0-57.91,0-57.91-8.36-22.52-7.72-36-1.29-30.24-1.29-30.24l-2.57-21.88v-8.36s42.46-2.57,48.26-5.15l5.79-2.57s-1.93,45-5.15,57.91-5.79,15.44-5.79,15.44a17.9,17.9,0,0,1,0,10.94c-1.93,5.79-2.57,5.15-3.22,10.94s.64,7.72,2.57,18-1,51.41-1.93,57.26" transform="translate(-3.28 -521)"/><path class="cls-6" d="M1540.2,727c.53-5.88,1-10.25,1-10.25S1541.83,720.23,1540.2,727Z" transform="translate(-3.28 -521)"/><path class="cls-7" d="M1573.06,645.64c.45-7.22-6.4-4.68-12.63-10.09-6.88-6-7.65-14.95-7.65-29.89s6.88-20.92,10.71-25.41,9.94-6.73,13.77-9.71,15.3-3.74,16.83-4.48,7.65.75,12.24,2.24,3.82.75,14.53,20.18c.81,1.47,4.59,25.41,2.29,38.11-1.47,8.14-7,12.29-11,16.58C1598.91,641.29,1585.94,643.83,1573.06,645.64Z" transform="translate(-3.28 -521)"/><path class="cls-2" d="M1444,657.54c7.08-5.79,2.57-2.57,9-4.5s3.86.64,12.22,3.86,0,8.36,0,8.36,7.72,19.3,9.65,25.09,30.24,36.67,31.53,30.88,12.87-26.38,12.87-26.38,7.08-16.09,9-21.88,10.94-11.58,12.22-12.22,15.44-4.5,19.3-5.79,14.8,0,16.73-9a15.33,15.33,0,0,0,.33-2.25c10.84-1.56,21.74-3.74,32.87-2.13-1.89,2.07-3.37,4.18-3.6,7-.64,7.72,0,0,10.94,3.86s22.52,8.36,29.6,11.58,11.58,10.29,21.23,26.38,16.09,31.53,24.45,43.11,3.86,16.09,0,37.32-17.37,39.89-23.81,54-31.53,5.79-31.53,5.79l-3.86-15.44s14.8-5.79,18.66-13.51,6.43-14.15,13.51-27.67-.64-14.15-3.86-26.38-19.3-23.16-18.66-19.3-8.36,27-15.44,40.53c-3.34,6.38,1.35,30.52,7.22,54.25,6.58,26.54,14.65,52.56,14.65,52.56s-5.15-1.29-13.51,5.15-14.15,3.86-42.46,5.79-14.15,0-14.15,0l-3.22-32.17-4.5,29.6-14.8-3.22c-14.8-3.22-33.46-7.72-33.46-7.72,1.29-2.57,12.22-65.63,12.22-65.63s3.86-24.45,5.15-33.46.64-12.22-1.29-16.73c-1.26-2.94-.06-19.26.93-30.28,1.63-6.76,1-10.25,1-10.25s-.47,4.37-1,10.25a64.9,64.9,0,0,1-3.51,10.33c-5.79,13.51-24.45,9.65-36,10.94s-23.81-13.51-32.81-20.59-7.08-16.73-11.58-20.59-8.36-27.67-9.65-31.53-1.29-2.57-7.08-3.22-3.22-3.22-4.5-5.79S1437,663.33,1444,657.54Z" transform="translate(-3.28 -521)"/><path class="cls-5" d="M1099.81,1002.42c1.93,21.88,3.86,37.32,3.86,37.32s0-1.93-.64,1.93l-.64,3.86c-11.58,17.37-14.15,15.44-26.38,22.52l-12.22,7.08s-1.93,9.65,14.15,6.43,15.44,1.93,24.45-7.08,18-5.15,18-5.15,5.79-1.93,4.5-5.15,0-12.22,0-12.22v-6.43s-6.43-13.51,3.86-50.83,0-57.91,0-57.91,8.36-22.52,7.72-36,1.29-30.24,1.29-30.24l2.57-21.88v-8.36s-42.46-2.57-48.26-5.15l-5.79-2.57s1.93,45,5.15,57.91,5.79,15.44,5.79,15.44a17.9,17.9,0,0,0,0,10.94c1.93,5.79,2.57,5.15,3.22,10.94s-.64,7.72-2.57,18,1,51.41,1.93,57.26" transform="translate(-3.28 -521)"/><path class="cls-5" d="M1177,1002.42c-1.93,21.88-3.86,37.32-3.86,37.32s0-1.93.64,1.93l.64,3.86c11.58,17.37,14.15,15.44,26.38,22.52l12.22,7.08s1.93,9.65-14.15,6.43-15.44,1.93-24.45-7.08-18-5.15-18-5.15-5.79-1.93-4.5-5.15,0-12.22,0-12.22v-6.43s6.43-13.51-3.86-50.83,0-57.91,0-57.91-8.36-22.52-7.72-36-1.29-30.24-1.29-30.24l-2.57-21.88v-8.36s42.46-2.57,48.26-5.15l5.79-2.57s-1.93,45-5.15,57.91-5.79,15.44-5.79,15.44a17.9,17.9,0,0,1,0,10.94c-1.93,5.79-2.57,5.15-3.22,10.94s.64,7.72,2.57,18-1,51.41-1.93,57.26" transform="translate(-3.28 -521)"/><path class="cls-6" d="M1098.17,716.71c.53-5.88,1-10.25,1-10.25S1099.8,710,1098.17,716.71Z" transform="translate(-3.28 -521)"/><path class="cls-7" d="M1131,635.36c.45-7.22-6.4-4.68-12.63-10.09-6.88-6-7.65-14.95-7.65-29.89s6.88-20.92,10.71-25.41,9.94-6.73,13.77-9.71,15.3-3.74,16.83-4.48,7.65.75,12.24,2.24,3.82.75,14.53,20.18c.81,1.47,4.59,25.41,2.29,38.11-1.47,8.14-7,12.29-11,16.58C1156.88,631,1143.91,633.55,1131,635.36Z" transform="translate(-3.28 -521)"/><path class="cls-2" d="M1002,647.26c7.08-5.79,2.57-2.57,9-4.5s3.86.64,12.22,3.86,0,8.36,0,8.36,7.72,19.3,9.65,25.09,30.24,36.67,31.53,30.88,12.87-26.38,12.87-26.38,7.08-16.09,9-21.88,10.94-11.58,12.22-12.22,15.44-4.5,19.3-5.79,14.8,0,16.73-9a15.33,15.33,0,0,0,.33-2.25c10.84-1.56,21.74-3.74,32.87-2.13-1.89,2.07-3.37,4.18-3.6,7-.64,7.72,0,0,10.94,3.86s22.52,8.36,29.6,11.58,11.58,10.29,21.23,26.38,16.09,31.53,24.45,43.11,3.86,16.09,0,37.32-17.37,39.89-23.81,54-31.53,5.79-31.53,5.79l-3.86-15.44s14.8-5.79,18.66-13.51,6.43-14.15,13.51-27.67-.64-14.15-3.86-26.38-19.3-23.16-18.66-19.3-8.36,27-15.44,40.53c-3.34,6.38,1.35,30.52,7.22,54.25,6.58,26.54,14.65,52.56,14.65,52.56s-5.15-1.29-13.51,5.15-14.15,3.86-42.46,5.79-14.15,0-14.15,0l-3.22-32.17-4.5,29.6-14.8-3.22c-14.8-3.22-33.46-7.72-33.46-7.72,1.29-2.57,12.22-65.63,12.22-65.63s3.86-24.45,5.15-33.46.64-12.22-1.29-16.73c-1.26-2.94-.06-19.26.93-30.28,1.63-6.76,1-10.25,1-10.25s-.47,4.37-1,10.25a64.9,64.9,0,0,1-3.51,10.33c-5.79,13.51-24.45,9.65-36,10.94s-23.81-13.51-32.81-20.59-7.08-16.73-11.58-20.59-8.36-27.67-9.65-31.53-1.29-2.57-7.08-3.22-3.22-3.22-4.5-5.79S994.93,653.05,1002,647.26Z" transform="translate(-3.28 -521)"/><path class="cls-15" d="M1219.43,1002.42c1.93,21.88,3.86,37.32,3.86,37.32s0-1.93-.64,1.93l-.64,3.86c-11.58,17.37-14.15,15.44-26.38,22.52l-12.22,7.08s-1.93,9.65,14.15,6.43,15.44,1.93,24.45-7.08,18-5.15,18-5.15,5.79-1.93,4.5-5.15,0-12.22,0-12.22v-6.43s-6.43-13.51,3.86-50.83,0-57.91,0-57.91,8.36-22.52,7.72-36,1.29-30.24,1.29-30.24l2.57-21.88v-8.36s-42.46-2.57-48.26-5.15l-5.79-2.57s1.93,45,5.15,57.91,5.79,15.44,5.79,15.44a17.9,17.9,0,0,0,0,10.94c1.93,5.79,2.57,5.15,3.22,10.94s-.64,7.72-2.57,18,1,51.41,1.93,57.26" transform="translate(-3.28 -521)"/><path class="cls-15" d="M1296.64,1002.42c-1.93,21.88-3.86,37.32-3.86,37.32s0-1.93.64,1.93l.64,3.86c11.58,17.37,14.15,15.44,26.38,22.52l12.22,7.08s1.93,9.65-14.15,6.43-15.44,1.93-24.45-7.08-18-5.15-18-5.15-5.79-1.93-4.5-5.15,0-12.22,0-12.22v-6.43s6.43-13.51-3.86-50.83,0-57.91,0-57.91-8.36-22.52-7.72-36-1.29-30.24-1.29-30.24l-2.57-21.88v-8.36s42.46-2.57,48.26-5.15l5.79-2.57s-1.93,45-5.15,57.91-5.79,15.44-5.79,15.44a17.9,17.9,0,0,1,0,10.94c-1.93,5.79-2.57,5.15-3.22,10.94s.64,7.72,2.57,18-1,51.41-1.93,57.26" transform="translate(-3.28 -521)"/><path class="cls-6" d="M1217.79,716.71c.53-5.88,1-10.25,1-10.25S1219.42,710,1217.79,716.71Z" transform="translate(-3.28 -521)"/><path class="cls-7" d="M1250.65,635.36c.45-7.22-6.4-4.68-12.63-10.09-6.88-6-7.65-14.95-7.65-29.89s6.88-20.92,10.71-25.41,9.94-6.73,13.77-9.71,15.3-3.74,16.83-4.48,7.65.75,12.24,2.24,3.82.75,14.53,20.18c.81,1.47,4.59,25.41,2.29,38.11-1.47,8.14-7,12.29-11,16.58C1276.49,631,1263.53,633.55,1250.65,635.36Z" transform="translate(-3.28 -521)"/><path class="cls-16" d="M1121.63,647.26c7.08-5.79,2.57-2.57,9-4.5s3.86.64,12.22,3.86,0,8.36,0,8.36,7.72,19.3,9.65,25.09S1182.75,716.75,1184,711s12.87-26.38,12.87-26.38,7.08-16.09,9-21.88,10.94-11.58,12.22-12.22,15.44-4.5,19.3-5.79,14.8,0,16.73-9a15.33,15.33,0,0,0,.33-2.25c10.84-1.56,21.74-3.74,32.87-2.13-1.89,2.07-3.37,4.18-3.6,7-.64,7.72,0,0,10.94,3.86s22.52,8.36,29.6,11.58,11.58,10.29,21.23,26.38,16.09,31.53,24.45,43.11,3.86,16.09,0,37.32-17.37,39.89-23.81,54-31.53,5.79-31.53,5.79l-3.86-15.44s14.8-5.79,18.66-13.51,6.43-14.15,13.51-27.67-.64-14.15-3.86-26.38-19.3-23.16-18.66-19.3-8.36,27-15.44,40.53c-3.34,6.38,1.35,30.52,7.22,54.25,6.58,26.54,14.65,52.56,14.65,52.56s-5.15-1.29-13.51,5.15-14.15,3.86-42.46,5.79-14.15,0-14.15,0l-3.22-32.17-4.5,29.6-14.8-3.22c-14.8-3.22-33.46-7.72-33.46-7.72,1.29-2.57,12.22-65.63,12.22-65.63s3.86-24.45,5.15-33.46.64-12.22-1.29-16.73c-1.26-2.94-.06-19.26.93-30.28,1.63-6.76,1-10.25,1-10.25s-.47,4.37-1,10.25a64.9,64.9,0,0,1-3.51,10.33c-5.79,13.51-24.45,9.65-36,10.94s-23.81-13.51-32.81-20.59-7.08-16.73-11.58-20.59-8.36-27.67-9.65-31.53-1.29-2.57-7.08-3.22-3.22-3.22-4.5-5.79S1114.55,653.05,1121.63,647.26Z" transform="translate(-3.28 -521)"/><path class="cls-1" d="M1663.44,1067.39l-.06-.46A1.56,1.56,0,0,1,1663.44,1067.39Z" transform="translate(-3.28 -521)"/><path class="cls-2" d="M1659.58,913.11c9.51-4.38,11.83-4.45,16.18-8.33s3.45-4,7.06-9a17.9,17.9,0,0,1,8.92-6.33s.61-3.59,9.24-13.66,44.25-37.71,44.25-37.71l1.25,6.21c1.25,6.21,23.73,42.33,23.73,42.33l-6.82,4.84-19.33,10.56s-14.76,8.11-25.41,16.45c-9.47,7.42-28.84,13.14-33,14.33-7.15-8.92-17.78-13.62-28.37-18.51C1658.13,913.84,1658.91,913.42,1659.58,913.11Z" transform="translate(-3.28 -521)"/><path class="cls-2" d="M1751.35,1038.18c6.8-14.93,10.6-11.39,8.57-24s6.37-17.62,6.37-17.62,1.82-5.83-1.54-6.66-9.91-7.15-9.91-7.15l-5.22-3.77s-14.72-2.69-39-32.88-47-33.89-47-33.89-6.24,1.31-9.23,1.69a3.54,3.54,0,0,0-2.58,1.71c-5,8.35-4.09,11.49-5.23,22.39-2.34,10.19,48.31,34.05,53.82,36.46l-.52-.38c17,10.11,29.72,17.17,32.11,18.48a1.56,1.56,0,0,1,.41.23l-.41-.23c-.13,0,.07.33,1.6,1.88l2.75,2.78c7.31,19.56,4.24,20.51,2.82,34.57l-1.41,14.05S1744.54,1053.11,1751.35,1038.18ZM1594.13,862.77c-.67-1.27,2.17-.81.61-1.94C1596.3,862,1593.46,861.49,1594.13,862.77Z" transform="translate(-3.28 -521)"/><path class="cls-2" d="M1806.92,1012.7c-1.93,21.88-3.86,37.32-3.86,37.32s0-1.93.64,1.93l.64,3.86c11.58,17.37,14.15,15.44,26.38,22.52l12.22,7.08s1.93,9.65-14.15,6.43-15.44,1.93-24.45-7.08-18-5.15-18-5.15-5.79-1.93-4.5-5.15,0-12.22,0-12.22v-6.43s6.43-13.51-3.86-50.83,0-57.91,0-57.91-8.36-22.52-7.72-36-1.29-30.24-1.29-30.24l-2.57-21.88v-8.36s42.46-2.57,48.26-5.15l5.79-2.57s-1.93,45-5.15,57.91-5.79,15.44-5.79,15.44a17.9,17.9,0,0,1,0,10.94c-1.93,5.79-2.57,5.15-3.22,10.94s.64,7.72,2.57,18-1,51.41-1.93,57.26" transform="translate(-3.28 -521)"/><path class="cls-3" d="M1818.32,658.08c2.38-6.83-4.91-6.23-9.45-13.11-5-7.61-3.35-16.45.67-30.85s12.26-18.3,17.15-21.59,11.39-3.8,15.87-5.65,15.74.52,17.41.21,7.17,2.78,11.18,5.45,3.48,1.75,8.57,23.34c.39,1.64-2.41,25.71-8,37.32-3.6,7.44-10.06,9.95-15.07,13C1844.39,660.84,1831.22,659.8,1818.32,658.08Z" transform="translate(-3.28 -521)"/><path class="cls-4" d="M1733.82,571.42c-2.58,1.54,4.81,19.19,4.84,19.27h0s10.16,18.35,20.5,36.84c10.51,18.8,21.19,37.73,21.54,37.66,1.41-.29,16.08-.37,20.14-.61s14.3,3.82,18.49-4.38a15.33,15.33,0,0,0,.9-2.09c10.87,1.29,22,2,32.3,6.42-2.36,1.52-4.33,3.17-5.27,5.79-2.61,7.29,0,0,9.57,6.55s19.6,13.89,25.6,18.83,8.53,12.94,13.7,31,7.4,34.61,12.49,48-.42,16.54-9.63,36.05-27.08,34.06-36.95,46.07-32-2.54-32-2.54l.26-15.91s15.79-1.77,21.51-8.24,9.87-12,20.19-23.24,3-13.84,3.08-26.48-12.67-27.36-13-23.46-11.7,28.84-22,40.07c-4.87,5.3-9.93,24.95-10.38,49.38-.5,27.34.59,54.56.59,54.56s-4.64-2.57-14.38,1.49-14.67.08-42.52-5.37-13.68-3.65-13.68-3.65l5.2-31.91-12,27.43-13.47-6.93c-13.47-6.93-30.33-16.1-30.33-16.1,1.91-2.15,28.75-60.25,28.75-60.25s10-22.62,13.61-31,6.83-15.8,8.75-20.3c1.78-4.19,7.82-13.15,11.62-23.54,3.32-6.11-5-11.32-5-11.32a362.7,362.7,0,0,1-20.37-43.4c-10.35-26.07-13-16.13-21.36-49.66-1.85-7.41-6.35-23.48-15.81-55.5-1.59-5.38-5-17,.38-23.87a13.66,13.66,0,0,1,3.48-3.07c5.58-3.45,12.87-1.7,18.15.5a13,13,0,0,1,4.73,3.61c1.49,1.7,4.13,1.55,4.63,3.25a9.05,9.05,0,0,1,.14,1.36c.16,1.77.35,3,.41,3.44.27,2,1.69,12.71-2,14.62a6.78,6.78,0,0,1-1.4.47C1735.47,571.78,1734.45,571,1733.82,571.42Z" transform="translate(-3.28 -521)"/><path class="cls-2" d="M1648,1015.92c1.93,21.88,3.86,37.32,3.86,37.32s0-1.93-.64,1.93l-.64,3.86c-11.58,17.37-14.15,15.44-26.38,22.52l-12.22,7.08s-1.93,9.65,14.15,6.43,15.44,1.93,24.45-7.08,18-5.15,18-5.15,5.79-1.93,4.5-5.15,0-12.22,0-12.22V1059s-6.43-13.51,3.86-50.83,0-57.91,0-57.91,8.36-22.52,7.72-36S1686,884,1686,884l2.57-21.88v-8.36s-42.46-2.57-48.26-5.15l-5.79-2.57s1.93,45,5.15,57.91,5.79,15.44,5.79,15.44a17.9,17.9,0,0,0,0,10.94c1.93,5.79,2.57,5.15,3.22,10.94s-.64,7.72-2.57,18,1,51.41,1.93,57.26" transform="translate(-3.28 -521)"/><path class="cls-2" d="M1725.21,1015.92c-1.93,21.88-3.86,37.32-3.86,37.32s0-1.93.64,1.93l.64,3.86c11.58,17.37,14.15,15.44,26.38,22.52l12.22,7.08s1.93,9.65-14.15,6.43-15.44,1.93-24.45-7.08-18-5.15-18-5.15-5.79-1.93-4.5-5.15,0-12.22,0-12.22V1059s6.43-13.51-3.86-50.83,0-57.91,0-57.91-8.36-22.52-7.72-36-1.29-30.24-1.29-30.24l-2.57-21.88v-8.36s42.46-2.57,48.26-5.15l5.79-2.57s-1.93,45-5.15,57.91-5.79,15.44-5.79,15.44a17.9,17.9,0,0,1,0,10.94c-1.93,5.79-2.57,5.15-3.22,10.94s.64,7.72,2.57,18-1,51.41-1.93,57.26" transform="translate(-3.28 -521)"/><path class="cls-6" d="M1646.36,730.21c.53-5.88,1-10.25,1-10.25S1648,723.45,1646.36,730.21Z" transform="translate(-3.28 -521)"/><path class="cls-2" d="M1660,639.15c1.27-7.12-5.83-5.37-11.41-11.45-6.16-6.72-5.91-15.71-4.22-30.56s9.21-20,13.51-24,10.64-5.56,14.78-8.1,15.62-2,17.23-2.55,7.52,1.61,11.91,3.61,3.72,1.17,12.16,21.69c.64,1.55,1.69,25.76-2,38.13-2.38,7.92-8.36,11.42-12.82,15.23C1686.18,637.76,1673,638.81,1660,639.15Z" transform="translate(-3.28 -521)"/><path class="cls-11" d="M1828.11,654.33c-7.08-5.79-2.57-2.57-9-4.5s-3.86.64-12.22,3.86,0,8.36,0,8.36-7.72,19.3-9.65,25.09S1767,723.81,1765.7,718s-12.87-26.38-12.87-26.38-7.08-16.09-9-21.88-10.94-11.58-12.22-12.22-15.44-4.5-19.3-5.79-14.8,0-16.73-9a15.33,15.33,0,0,1-.33-2.25c-10.84-1.56-21.74-3.74-32.87-2.13,1.89,2.07,3.37,4.18,3.6,7,.64,7.72,0,0-10.94,3.86s-22.52,8.36-29.6,11.58-11.58,10.29-21.23,26.38-16.09,31.53-24.45,43.11-3.86,16.09,0,37.32,17.37,39.89,23.81,54,31.53,5.79,31.53,5.79l3.86-15.44s-14.8-5.79-18.66-13.51-6.43-14.15-13.51-27.67.64-14.15,3.86-26.38,19.3-23.16,18.66-19.3,8.36,27,15.44,40.53c3.34,6.38-1.35,30.52-7.22,54.25-6.58,26.54-14.65,52.56-14.65,52.56s5.15-1.29,13.51,5.15,14.15,3.86,42.46,5.79,14.15,0,14.15,0l3.22-32.17,4.5,29.6,14.8-3.22c14.8-3.22,33.46-7.72,33.46-7.72-1.29-2.57-12.22-65.63-12.22-65.63s-3.86-24.45-5.15-33.46-.64-12.22,1.29-16.73c1.26-2.94.06-19.26-.93-30.28-1.63-6.76-1-10.25-1-10.25s.47,4.37,1,10.25a64.9,64.9,0,0,0,3.51,10.33c5.79,13.51,24.45,9.65,36,10.94s23.81-13.51,32.81-20.59,7.08-16.73,11.58-20.59,8.36-27.67,9.65-31.53,1.29-2.57,7.08-3.22,3.22-3.22,4.5-5.79S1835.18,660.12,1828.11,654.33Z" transform="translate(-3.28 -521)"/><path class="cls-12" d="M1504,1077.51" transform="translate(-3.28 -521)"/><path class="cls-12" d="M1452.56,1080.07c5.87-6.22,7.7-5.59,11.38-17.55l-.31-2.31c-.17-1.28-.14-1.51-.08-1.47l.12.25a.91.91,0,0,0-.12-.25c-.45-1-2.17-4.81-4.59-10.47q6.45-1.94,12.87-3.93c2,10.68,5.21,14.11,5.21,14.11l1.13,3.65s.84,5.35,2.15,6.94-1.71,3.74-1.71,3.74-5.92-.57-9.57,6.17-4.19,3.7-13,8.43-9.37-1.1-9.37-1.1Z" transform="translate(-3.28 -521)"/><path class="cls-12" d="M1499.79,1048.16c-.64,6.13-1.15,10.3-1.29,11.38a.91.91,0,0,0,0,.28l0-.28c0-.06.14.15.36,1.42l.39,2.3c7.05,10.33,8.62,9.18,16.07,13.39l7.45,4.21s1.18,5.74-8.62,3.83-9.4,1.15-14.89-4.21-11-3.06-11-3.06-3.53-1.15-2.74-3.06,0-7.27,0-7.27v-3.83s2.06-4.24.8-15.05Z" transform="translate(-3.28 -521)"/><path class="cls-2" d="M1472.1,677.38l.14.56C1471.36,677.57,1472.1,677.38,1472.1,677.38Z" transform="translate(-3.28 -521)"/><path class="cls-2" d="M1424.95,832.83a1.94,1.94,0,0,1,.71.13C1426.57,833.26,1425.82,833.07,1424.95,832.83Z" transform="translate(-3.28 -521)"/><path class="cls-2" d="M1526.95,824.56l.08.68C1526.95,825.44,1526.95,824.56,1526.95,824.56Z" transform="translate(-3.28 -521)"/><path class="cls-2" d="M1422.3,951c5.6-22.39,1.68-21.27,5.6-38.05s6.63-78.07,13.43-90.1c7.28-12.87,7.28-17.35,12.87-21.27,3.3-2.31,4.46-3.26,5.09-4.8a6.31,6.31,0,0,0,3,1.16,138.51,138.51,0,0,0,46.75-3.54,12.18,12.18,0,0,0,1.09,1.58c2.24,2.8-1.12-.56,6.72,7.28,7.26,7.26,9.51,28.54,9.51,28.54l1.68,30.78s18.47,117.52,16.79,119.76,2.8,8.39,2.8,15.67,4.48,35.26,7.28,40.29,5,22.39,5,22.39,8.39,3.36-9.51,0-6.16-3.36-21.27-3.92-12.31,3.92-22.94,2.8-10.07,1.68-26.3,0-2.8-5-18.47-2.8-22.39,3.92-29.1,2.24-2.24-5.6-13.43-2.8-15.11,2.24-15.11,2.24S1416.7,973.42,1422.3,951Z" transform="translate(-3.28 -521)"/><path class="cls-2" d="M1465.95,693.61c3.92-6.72,6.72-10.07,6.72-14l-.42-1.68a26.82,26.82,0,0,0,5.46,1.12c7.83,1.12,10.07,2.24,14.55.56s6.16-2.24,6.16-2.24-1.12,1.68,0,6.16.56,7.83,9,12.31c6.6,3.52,14.93,5,21.45,7.06-18.46,12.28-43,20.63-63.7,11.13-6.59-2.74-14.24-6.57-19.28-13.05l2.22-.66S1462,700.32,1465.95,693.61Z" transform="translate(-3.28 -521)"/><path class="cls-2" d="M1420.62,837.43c3.23-3.23,3.42-4.56,4.33-4.61.87.24,1.63.44.71.13a1.94,1.94,0,0,0-.71-.13l-1.53-.43s-2.8-1.68-2.24-3.92,1.68-2.24.56-14.55-1.12-24.62-1.68-31.34,2.8-5,3.92-15.67-1.12-11.75-2.24-14.55-2.24-15.11-1.68-19,3.36-21.83,7.83-25.18c3.36-2.52,13-5.66,17.62-7.08a66.81,66.81,0,0,1-6.23,27.57,5.26,5.26,0,0,0-.76-.34s-1.12,13.43-.56,18.47,0-.56.56,9.51,1.68,12.87,1.68,20.15,2.24,8.39.56,22.39-5.6,35.26-5.6,35.26h-3.36l1.68,1.68s1.12,6.72.56,9-1.68,7.28-4.48,6.72-6.72-1.12-7.83-2.24-2.8,1.12-3.36-2.24S1416.7,841.35,1420.62,837.43Z" transform="translate(-3.28 -521)"/><path class="cls-12" d="M1445.82,701c5,6.48,12.7,10.31,19.28,13.05,20.67,9.5,45.24,1.15,63.7-11.13l.11,0c1.07,8.19-.48,16.37,1.54,24.56-.17.28-.54,1-1.27,2.49-2.24,4.48-3.36,10.07-5.6,13.43s-2.8,3.36-3.92,6.72-.56,5.6-2.24,9.51-1.12-.56-3.92,9-5,4.48-5.6,13.43c-.45,7.26-.17,10.1,1.14,12.41a138.51,138.51,0,0,1-46.75,3.54,6.31,6.31,0,0,1-3-1.16,30.51,30.51,0,0,0,1.07-4.71c1.12-5.6,3.36-6.16-1.68-14.55s-5.6-16.79-7.83-20.71-2.8-.56-6.16-11.19-3.92-10.63-3.36-13.43a3.36,3.36,0,0,0-2-3.57,66.81,66.81,0,0,0,6.23-27.57Z" transform="translate(-3.28 -521)"/><path class="cls-2" d="M1526.39,808.89c.56-7.83,0-14,1.12-17.35s-.56-2.8.56-7.83,2.8-6.16,2.8-9,.56-3.36,0-8.39,0-5.6-.56-10.07-1.68-5.6-1.12-9-.56-2.8.56-6.16,1.68-2.24,1.12-6.16a28.71,28.71,0,0,1-.56-5.6,8.86,8.86,0,0,1,.22-1.65l.06.26-.06-.26c.08-.38.1-.55-.07-.27-2-8.19-.47-16.37-1.54-24.56a34.15,34.15,0,0,1,4.75,1.86c6.72,3.36,11.75,9,12.31,14s1.68,10.63,1.12,19-.56,20.71-.56,24.62-2.24,7.28-1.68,12.31a58.45,58.45,0,0,1,0,14c-.56,5.6-.56,9.51-1.68,14.55-.81,3.66-2.8,17.35-2.8,17.35l-1.68,13.43v2.24l-2.8-1.12-.42-.42.42.42,1.68,1.68c3.36,3.36,4.48,7.83,2.8,10.07s-2.8,3.92-4.48,3.92-3.36.56-5-1.12a10.44,10.44,0,0,1-2.8-5.6c0-1.12-.56-.56,0-2.8s-.56-4.48.56-5l1.12-.56-1.68-1.12-1-9.39a46.86,46.86,0,0,0,.48-5.16C1528.07,812.25,1525.83,816.73,1526.39,808.89Z" transform="translate(-3.28 -521)"/><path class="cls-21" d="M1482.74,707s-14-22.94-19.59-29.66-9.51-10.63-10.63-12.87-6.72-6.72-3.92-24.62-3.92-25.18,11.75-38.61,26.86-14.55,38.61-13.43,31.34,27.42,30.22,33,4.48,6.16-2.8,19.59-3.36,21.83-10.07,31.34-10.07,10.07-15.67,22.94a208.54,208.54,0,0,1-11.75,22.94Z" transform="translate(-3.28 -521)"/><path class="cls-10" d="M1565,707.6" transform="translate(-3.28 -521)"/><path class="cls-12" d="M1076.15,1078.3" transform="translate(-3.28 -521)"/><path class="cls-12" d="M1036.89,1080.25c4.48-4.75,5.88-4.27,8.69-13.39l-.23-1.76c-.13-1-.11-1.15-.06-1.12l.09.19a.69.69,0,0,0-.09-.19c-.34-.75-1.66-3.67-3.51-8q4.92-1.48,9.82-3c1.52,8.15,4,10.77,4,10.77l.86,2.79s.64,4.08,1.64,5.3-1.31,2.85-1.31,2.85-4.52-.43-7.31,4.71-3.19,2.82-9.9,6.43-7.15-.84-7.15-.84Z" transform="translate(-3.28 -521)"/><path class="cls-12" d="M1072.93,1055.9c-.49,4.68-.88,7.86-1,8.68a.69.69,0,0,0,0,.21l0-.21s.11.11.27,1.09l.3,1.75c5.38,7.88,6.58,7,12.26,10.22l5.68,3.21s.9,4.38-6.58,2.92-7.18.88-11.36-3.21-8.37-2.34-8.37-2.34-2.69-.88-2.09-2.34,0-5.55,0-5.55v-2.92s1.57-3.24.61-11.49Z" transform="translate(-3.28 -521)"/><path class="cls-2" d="M1051.8,772.92l.11.43C1051.23,773.06,1051.8,772.92,1051.8,772.92Z" transform="translate(-3.28 -521)"/><path class="cls-2" d="M1093.66,885.25l.06.52C1093.66,885.92,1093.66,885.25,1093.66,885.25Z" transform="translate(-3.28 -521)"/><path class="cls-2" d="M1015.81,891.56a1.48,1.48,0,0,1,.54.1C1017.05,891.89,1016.48,891.74,1015.81,891.56Z" transform="translate(-3.28 -521)"/><path class="cls-15" d="M999.7,1063.78s3,.43,11.53-1.71,5.13.85,10.25,2.14,10.25,0,22.21-1.71,1.71.85,14.09,2.14,12-.85,20.07,0,6-2.56,17.51-2.14,2.56.43,16.23,3,7.26,0,7.26,0-1.71-13.24-3.84-17.08-5.55-25.2-5.55-30.75-3.42-10.25-2.14-12-12.81-91.4-12.81-91.4l-1.28-23.49s-1.72-16.24-7.26-21.78c-6-6-3.42-3.42-5.13-5.55s-2.14-3.84-1.71-10.68,2.14-3,4.27-10.25,1.71-3.84,3-6.83.85-4.7,1.71-7.26,1.28-2.56,3-5.13,2.56-6.83,4.27-10.25.85-1.71.85-.43a21.91,21.91,0,0,0,.43,4.27c.43,3,0,2.14-.85,4.7s0,2.14-.43,4.7.43,3.42.85,6.83,0,3.84.43,7.69,0,4.27,0,6.41-1.28,3-2.14,6.83.43,3.42-.43,6-.43,7.26-.85,13.24,1.28,2.56.85,8.54a35.76,35.76,0,0,1-.37,3.94l.8,7.17,1.28.85-.85.43c-.85.43,0,2.14-.43,3.84s0,1.28,0,2.14a8,8,0,0,0,2.14,4.27c1.28,1.28,2.56.85,3.84.85s2.14-1.28,3.42-3,.43-5.13-2.14-7.69l-1.28-1.28-.32-.32.32.32,2.14.85v-1.71l1.28-10.25s1.51-10.44,2.14-13.24c.85-3.84.85-6.83,1.28-11.1a44.61,44.61,0,0,0,0-10.68c-.43-3.84,1.28-6.41,1.28-9.4s0-12.39.43-18.79-.43-10.68-.85-14.52-4.27-8.12-9.4-10.68-13.67-3.42-20.07-6.83-6-6-6.83-9.4,0-4.7,0-4.7-1.28.43-4.7,1.71-5.13.43-11.1-.43a20.47,20.47,0,0,1-4.16-.85l.32,1.28c0,3-2.14,5.55-5.13,10.68s-13.67,5.13-13.67,5.13-12,3.42-15.38,6-5.55,16.23-6,19.22.43,12.39,1.28,14.52,2.56,3,1.71,11.1-3.42,6.83-3,12,.43,14.52,1.28,23.92,0,9.4-.43,11.1,1.71,3,1.71,3l1.17.33a1.48,1.48,0,0,1,.54.1c.7.23.12.08-.54-.1-.69,0-.84,1-3.3,3.52-3,3-2.14,4.7-1.71,7.26s1.71.85,2.56,1.71,3.84,1.28,6,1.71,3-3.42,3.42-5.13-.43-6.83-.43-6.83l-1.28-1.28h2.56s3-16.23,4.27-26.91-.43-11.53-.43-17.08-.85-7.69-1.28-15.38,0-3.42-.43-7.26.43-14.09.43-14.09,2.56.85,2.14,3,0,2.14,2.56,10.25,3,5.55,4.7,8.54,2.14,9.4,6,15.8,2.14,6.83,1.28,11.1-.43,4.27-4.7,7.26-4.27,6.41-9.82,16.23c-5.19,9.18-7.26,56-10.25,68.76s0,12-4.27,29S999.7,1063.78,999.7,1063.78Zm61.72-202.23c5.13-19.22,3-38.44,3.42-57.66-.43,19.22,1.71,38.44-3.42,57.66a5.65,5.65,0,0,0,.85,5.13A5.65,5.65,0,0,1,1061.41,861.54Z" transform="translate(-3.28 -521)"/><ellipse class="cls-5" cx="1059.63" cy="222.02" rx="23.92" ry="32.03"/><path class="cls-23" d="M1026.33,812a51,51,0,0,0,4.75-21l.24-.07c3.85,4.95,9.69,7.87,14.72,10,15.78,7.25,34.53.88,48.62-8.49l.08,0c.82,6.25-.37,12.5,1.18,18.74-.13.22-.41.78-1,1.9-1.71,3.42-2.56,7.69-4.27,10.25s-2.14,2.56-3,5.13-.43,4.27-1.71,7.26-.85-.43-3,6.83-3.84,3.42-4.27,10.25c-.35,5.54-.13,7.71.87,9.47a108.79,108.79,0,0,1-18.14,2.9,6.15,6.15,0,0,1,0-3.62c5.13-19.22,3-38.44,3.42-57.66-.43,19.22,1.71,38.44-3.42,57.66a6.15,6.15,0,0,0,0,3.62,101.56,101.56,0,0,1-17.55-.2,4.81,4.81,0,0,1-2.31-.89,23.29,23.29,0,0,0,.82-3.6c.85-4.27,2.56-4.7-1.28-11.1s-4.27-12.81-6-15.8-2.14-.43-4.7-8.54-3-8.12-2.56-10.25A2.56,2.56,0,0,0,1026.33,812Z" transform="translate(-3.28 -521)"/><path class="cls-10" d="M1060.87,733.95c-3.81-2.78-5.72-4.16-9.06-4.16s-6.2,4.16-6.2,4.16" transform="translate(-3.28 -521)"/><path class="cls-10" d="M1080.42,733.95c-3.81-2.78-5.72-4.16-9.06-4.16s-6.2,4.16-6.2,4.16" transform="translate(-3.28 -521)"/><path class="cls-10" d="M1061.35,738.81c-3.81-2.78-5.72-4.16-9.06-4.16s-6.2,4.16-6.2,4.16" transform="translate(-3.28 -521)"/><path class="cls-10" d="M1065.16,739.51c3.82,2.77,5.72,4.16,9.06,4.16s6.2-4.17,6.2-4.17" transform="translate(-3.28 -521)"/><path class="cls-10" d="M1080.42,739.5c-3.81-2.78-5.72-4.16-9.06-4.16s-6.2,4.16-6.2,4.16" transform="translate(-3.28 -521)"/><path class="cls-10" d="M1046.09,738.79c3.81,2.78,5.72,4.17,9.06,4.18s6.2-4.15,6.2-4.15" transform="translate(-3.28 -521)"/><ellipse class="cls-12" cx="1069.45" cy="218.39" rx="2.99" ry="4.06"/><ellipse class="cls-12" cx="1050.23" cy="217.96" rx="2.99" ry="4.06"/><path class="cls-10" d="M1062.91,743.45c.43,3.44.85,3.44,1.71,6.87s.85,3.82.85,4.58-1.71,1.15-2.56,1.15" transform="translate(-3.28 -521)"/><path class="cls-10" d="M1069.24,760.56c-3-1.51-3.65-2.61-4.75-2l-2.16,1.9s-1.89-2.17-2.46-2.12-2.73,1.94-3.88,2,7.61,1.73,10.43.94Z" transform="translate(-3.28 -521)"/><path class="cls-10" d="M1069.81,760.52c-1.59,1.85-1,2.38-3.79,3.18s-2.25.75-5.15.39A8,8,0,0,1,1056,761l0-.57" transform="translate(-3.28 -521)"/><path class="cls-12" d="M1031.73,746.44c2.14-13.67-3-19.22,9-29.47s20.5-11.1,29.47-10.25,23.92,20.93,23.06,25.2,3.42,4.7-2.14,14.95-2.56,16.66-7.69,23.92-7.69,7.69-12,17.51a159.16,159.16,0,0,1-9,17.51l-4.7-8.12s-10.68-17.51-14.95-22.64-7.26-8.12-8.12-9.82S1029.59,760.11,1031.73,746.44Z" transform="translate(-3.28 -521)"/><path class="cls-24" d="M1108.84,806.49c4.64-6,7.48-11.23,10.17-13.32s1-2.54,4.64-6,5.54-3.45,7-5.69,2.24-2.4,4.49-6.74,3-4.49,4.93-8.38,1.64-5.39,3.89-7.78,1-2.54,3.74-4.64,2.54-.9,4.19-4.34a27.68,27.68,0,0,1,2.54-4.79,8.55,8.55,0,0,1,1.06-1.21l-.09.24.09-.24c.27-.27.38-.39.09-.25,2.75-7.65,7.36-24,11.89-20.53,2.81.14,7,2.11,7.75,3.43,3.6,6.28-.29,14.07-2.53,18.41s-4.33,9.43-9.27,15.87-11.51,16.32-13.61,19.46-5.68,4.64-7.93,9a56.36,56.36,0,0,1-7.48,11.23c-3.44,4.19-5.53,7.34-9.12,10.78-2.61,2.51-11.52,12.43-11.52,12.43l-8.53,9.88-1.2,1.8-1.65-2.39-.11-.56.11.56.45,2.24c.9,4.49-.59,8.68-3.14,9.58s-4.34,1.65-5.69.75-3-1.35-3.44-3.59a10.06,10.06,0,0,1,.75-6c.6-.9-.15-.75,1.5-2.25s1.94-3.89,3.14-3.74l1.2.15-.75-1.8,4.18-8.09a45.18,45.18,0,0,0,3.15-3.88C1108.39,810.08,1104.2,812.48,1108.84,806.49Z" transform="translate(-3.28 -521)"/><path class="cls-12" d="M1177.15,1079.34c5.66-6,7.43-5.39,11-16.92l-.29-2.23c-.16-1.23-.14-1.46-.08-1.41l.11.24a.87.87,0,0,0-.11-.24c-.43-.95-2.09-4.64-4.43-10.09q6.22-1.87,12.41-3.79c1.92,10.29,5,13.6,5,13.6l1.09,3.52s.81,5.16,2.08,6.69-1.65,3.6-1.65,3.6-5.71-.55-9.23,6-4,3.57-12.51,8.13-9-1.06-9-1.06Z" transform="translate(-3.28 -521)"/><path class="cls-12" d="M1142.26,1044.25c.62,5.91,1.11,9.94,1.24,11a.87.87,0,0,1,0,.27l0-.27c0-.06-.13.15-.34,1.37l-.38,2.21c-6.8,10-8.31,8.85-15.49,12.91l-7.18,4.06s-1.13,5.53,8.31,3.69,9.07,1.11,14.36-4.06,10.58-3,10.58-3,3.4-1.11,2.64-3,0-7,0-7v-3.69s-2-4.09-.77-14.51Z" transform="translate(-3.28 -521)"/><path class="cls-2" d="M1179.75,691.07l-.14.54C1180.47,691.25,1179.75,691.07,1179.75,691.07Z" transform="translate(-3.28 -521)"/><path class="cls-2" d="M1225.22,840.95a1.87,1.87,0,0,0-.68.13C1223.65,841.37,1224.38,841.18,1225.22,840.95Z" transform="translate(-3.28 -521)"/><path class="cls-2" d="M1126.87,833l-.07.66C1126.87,833.83,1126.87,833,1126.87,833Z" transform="translate(-3.28 -521)"/><path class="cls-12" d="M1227.77,954.93c-5.4-21.58-1.62-20.5-5.4-36.69s-6.39-75.27-13-86.87c-7-12.41-7-16.73-12.41-20.5-3.18-2.23-4.3-3.14-4.9-4.63a6.08,6.08,0,0,1-2.92,1.12,133.55,133.55,0,0,1-45.08-3.41c-.3.52-.94.88-1.05,1.52-1.08,5.94-.81,8.21-6.48,17.27-5.4,8.63-5.94,28.6-5.94,28.6l-4.86,18.35S1108,983,1109.6,985.15s-2.7,8.09-2.7,15.11-4.32,34-7,38.85-4.86,21.58-4.86,21.58-8.09,3.24,9.17,0,5.94-3.24,20.5-3.78,11.87,3.78,22.12,2.7,9.71,1.62,25.36,0,2.7-4.86,17.81-2.7,21.58,3.78,28.06,2.16,2.16-5.4,13-2.7,14.57,2.16,14.57,2.16S1233.17,976.51,1227.77,954.93Z" transform="translate(-3.28 -521)"/><path class="cls-2" d="M1185.14,708.33c-3.78-6.48-6.48-9.71-6.48-13.49l.4-1.62a25.86,25.86,0,0,1-5.26,1.08c-7.55,1.08-9.71,2.16-14,.54s-5.94-2.16-5.94-2.16,1.08,1.62,0,5.94,2.81,13.3-4.86,18.35c-8.19,5.39-23.89,14.54-21,14-11.69,32,38.08,6.19,58-3,6.35-2.65,2.43-1.89,8.9-5.13-1.31-.4-5.4-7.55-5.4-7.55S1188.92,714.81,1185.14,708.33Z" transform="translate(-3.28 -521)"/><path class="cls-25" d="M1127.95,729.38c-3.24,2.16-3.7,7.24-3.78,7.55-1.08,4.32,3.24,14.57,5.4,17.81s2.7,3.24,3.78,6.48.54,5.4,2.16,9.17,1.08-.54,3.78,8.63,4.86,4.32,5.4,13c.3,4.77.27,7.56-.18,9.56a2.59,2.59,0,0,0,2,3.09,133.05,133.05,0,0,0,42.19,2.73h.21a2.56,2.56,0,0,0,2.18-3.08c-.14-.7-.29-1.54-.5-2.58-1-5.1-3.58-11.28.27-18.41a2.87,2.87,0,0,0,.3-.87,36.67,36.67,0,0,1,1.54-3.76,2.27,2.27,0,0,0,.07-.34c3.18-20.22,2.68-31.52,3.72-51.11a2.64,2.64,0,0,0-.17-1.07c-.38-1-.56-1-2-3.77" transform="translate(-3.28 -521)"/><path class="cls-12" d="M1127.95,729.38" transform="translate(-3.28 -521)"/><path class="cls-5" d="M1166.26,616.6c-14,0-25.72,12.7-29.18,29.95l0-.81c-1,4.34-2.88,4.34-4.95,8.68s-2.07,4.82-2.07,5.79,4,1.44,6.13,1.45c1.7,20.19,14.49,35.88,30,35.88,16.69,0,30.22-18.12,30.22-40.47S1182.95,616.6,1166.26,616.6Z" transform="translate(-3.28 -521)"/><path class="cls-25" d="M1195.4,724c-6.4-10.66-2.26-5-8.92-11.62a2.63,2.63,0,0,1-.42-.56c-11.1-19.49-41.38,3.55-58.1,17.58" transform="translate(-3.28 -521)"/><path class="cls-24" d="M1156,826.5c.54-7.55,0-13.49,1.08-16.73s-.54-2.7.54-7.55,2.7-5.94,2.7-8.63.54-3.24,0-8.09,0-5.4-.54-9.71-1.62-5.4-1.08-8.63-.54-2.7.54-5.94,1.62-2.16,1.08-5.94a27.68,27.68,0,0,1-.54-5.4,8.55,8.55,0,0,1,.21-1.6l.06.25-.06-.25c.07-.37.1-.53-.06-.26-2-7.89-7.16-24-1.49-23.68,2.42-1.44,7-2.12,8.35-1.44,6.48,3.24,7.55,11.87,8.09,16.73s1.62,10.25,1.08,18.35-.54,20-.54,23.74-2.16,7-1.62,11.87a56.36,56.36,0,0,1,0,13.49c-.54,5.4-.54,9.17-1.62,14-.79,3.53-2.7,16.73-2.7,16.73l-1.62,13v2.16l-2.7-1.08-.4-.4.4.4,1.62,1.62c3.24,3.24,4.32,7.55,2.7,9.71s-2.7,3.78-4.32,3.78-3.24.54-4.86-1.08a10.06,10.06,0,0,1-2.7-5.4c0-1.08-.54-.54,0-2.7s-.54-4.32.54-4.86l1.08-.54-1.62-1.08-1-9.05a45.18,45.18,0,0,0,.47-5C1157.63,829.74,1155.47,834.06,1156,826.5Z" transform="translate(-3.28 -521)"/><path class="cls-10" d="M1151,638.05c4.82-3.51,7.23-5.26,11.45-5.26s7.83,5.26,7.83,5.26" transform="translate(-3.28 -521)"/><path class="cls-10" d="M1150.43,644.19c4.82-3.51,7.23-5.26,11.45-5.26s7.83,5.26,7.83,5.26" transform="translate(-3.28 -521)"/><path class="cls-10" d="M1169.7,644.17c-4.82,3.52-7.22,5.27-11.44,5.28s-7.84-5.25-7.84-5.25" transform="translate(-3.28 -521)"/><ellipse class="cls-12" cx="1153.27" cy="123.66" rx="3.78" ry="4.32"/><path class="cls-10" d="M1141.44,679.73c5.17-1.63,11.37-4.12,10.14-3.88-1.76.34-5.62-1.13-6.5-1s-3.64,4.84-3.64,4.84" transform="translate(-3.28 -521)"/><path class="cls-10" d="M1151.42,675.69s-6.48,6.79-8.09,7" transform="translate(-3.28 -521)"/><path class="cls-22" d="M1208.07,636c-8.89-15-5.47-24-24.29-30.41s-29.12,7.38-38.57,13.72c-7.09,4.76-.13,6.19,0,7.55.54,5.48,21.07-13.22,32.38-3.78s16.74,20.12,17.81,31.3c1.08,11.33-24,39.76-14.41,49.29A201.08,201.08,0,0,0,1199.7,720l1.73-11.72s4.36-25.54,7-33.55,4.73-12.92,4.94-15.32S1217,651,1208.07,636Z" transform="translate(-3.28 -521)"/><path class="cls-10" d="M1184.32,656.12s.59-7.4,3.84-7,5,5.75,3.9,8.74-6,4.11-5.88,6.57" transform="translate(-3.28 -521)"/><path class="cls-13" d="M1391.08,617.93c.58,3.5,1.17,6.42,0,6.42a2.56,2.56,0,0,1-1.75-.58,1.28,1.28,0,0,1-.58-1.75,27.49,27.49,0,0,0,1.17-2.92Z" transform="translate(-3.28 -521)"/><path class="cls-13" d="M1389.33,639.53c.58,3.5,1.17,6.42,0,6.42a2.56,2.56,0,0,1-1.75-.58,1.28,1.28,0,0,1-.58-1.75,27.49,27.49,0,0,0,1.17-2.92Z" transform="translate(-3.28 -521)"/><path class="cls-8" d="M1366.66,551.75c-3.36,3-6.07,9.31-7.16,11.75s-6,11.73-5.89,18.51-2.13,7.3.33,16.47,3.14,17.08,7.2,20.89" transform="translate(-3.28 -521)"/><path class="cls-8" d="M1428.19,582.74c-3-14.24-5.52-19.78-13-26s-20.14-10.82-27-10.22" transform="translate(-3.28 -521)"/><path d="M1408,550.28c8.07,3,15.77,15.07,18,23.92" transform="translate(-3.28 -521)"/><path d="M1360.66,577.47c3.65-1.69,7.29-3.42,10.93-5.13a14.35,14.35,0,0,1,3.94-1.62c3.08-.39,8.82.13,11,1.8,1.51,1.17,3.64-.94,2.12-2.12-3.22-2.51-9-2.9-13-2.68a10.59,10.59,0,0,0-3.71,1.16c-4.3,1.91-8.52,4-12.8,6-1.75.81-.23,3.4,1.51,2.59Z" transform="translate(-3.28 -521)"/><path class="cls-10" d="M1378.09,570" transform="translate(-3.28 -521)"/><path class="cls-8" d="M1408,633.11c-.88-5.3-1.83-10.59-1.83-10.59s10-1.76,13.4-4.72,6.59-8.91,7.13-10.37,2.61-8.1,2.59-9.07,1.85-1.75-1.1-15.62c-3-14.24-5.52-19.78-13-26s-20.14-10.82-27-10.22-18.17,2.23-21.53,5.2-6.07,9.31-7.16,11.75-6,11.73-5.89,18.51-2.13,7.3.33,16.47,3.14,17.08,7.2,20.89,10.91,4.67,12.63,5.13,6.29,1.35,6.29,1.35l1,5.55C1390.07,633.53,1399,633.1,1408,633.11Z" transform="translate(-3.28 -521)"/><path class="cls-10" d="M1344.47,593.5" transform="translate(-3.28 -521)"/><path class="cls-10" d="M1378.09,570" transform="translate(-3.28 -521)"/><path class="cls-26" d="M1367.73,708.18" transform="translate(-3.28 -521)"/><path class="cls-9" d="M1357.54,1006c2.11,22,4.21,37.58,4.21,37.58s0-1.94-.7,1.94l-.7,3.89c-12.63,17.5-15.44,15.55-28.77,22.68l-13.33,7.13s-2.11,9.72,15.44,6.48,16.84,1.94,26.67-7.13,19.65-5.18,19.65-5.18,6.32-1.94,4.91-5.18,0-12.31,0-12.31v-6.48s-7-13.61,4.21-51.19,0-58.32,0-58.32,9.12-22.68,8.42-36.29,1.4-30.46,1.4-30.46l2.81-22v-8.42s-46.32-2.59-52.63-5.18l-6.32-2.59s2.11,45.36,5.61,58.32,6.32,15.55,6.32,15.55a16.72,16.72,0,0,0,0,11c2.11,5.83,2.81,5.18,3.51,11s-.7,7.78-2.81,18.14,1.08,51.77,2.11,57.67" transform="translate(-3.28 -521)"/><path class="cls-9" d="M1413.49,1012.89c5.25,21.48,9.53,36.56,9.53,36.56s-.29-1.92-.35,2l-.05,3.94c-8.88,19.06-11.74,17.53-22.83,26.44l-11.09,8.91s-.45,9.9,15.07,4.25,15.67-.43,23.26-10.77,17.15-7.87,17.15-7.87,5.47-2.8,3.7-5.81-1.86-12.17-1.86-12.17l-1-6.41s-8.46-12.47-3.9-51.19-8.82-57.65-8.82-57.65,4.9-23.69,2.2-37-3.32-30.3-3.32-30.3l-.77-22.17-1.27-8.33s-42.67,3.91-48.83,2.23l-6.16-1.68s8.78,44.54,13.94,56.87,8.12,14.49,8.12,14.49a18,18,0,0,0,1.67,10.89c2.8,5.47,3.35,4.73,4.87,10.4s.54,7.78.18,18.33,8.81,51,10.64,56.71" transform="translate(-3.28 -521)"/><path class="cls-26" d="M1427.7,720.14c-.53-5.93-1-10.33-1-10.33S1426.06,713.33,1427.7,720.14Z" transform="translate(-3.28 -521)"/><path class="cls-27" d="M1436.62,811.11c-5.92-23.89-10.64-48.21-7.28-54.64,7.13-13.61,13.56-40.18,12.91-44.06h0c-1.94-20.09-1.94-30.46-4.54-50.54a89.61,89.61,0,0,0-3.24-9.72c-5.18-3.89-7.53-10.15-15.5-13-11-3.89-11.66,3.89-11-3.89.23-2.8,1.72-4.92,3.63-7-11.2-1.62-22.19.57-33.1,2.15a15.44,15.44,0,0,1-.33,2.27c-1.88,8.76-12.21,7.85-16.42,8.95-21,18.45-15.46,49.37-20.39,74.49-1,11-2,25.87-.78,28.66,1.94,4.54,2.59,7.78,1.3,16.85s-5.18,33.7-5.18,33.7-11,63.5-12.31,66.1c0,0,18.79,4.54,33.7,7.78l14.9,3.24,4.54-29.81,3.24,32.4s-14.26,1.94,14.26,0,34.34.65,42.77-5.83,13.61-5.18,13.61-5.18S1443.24,837.84,1436.62,811.11Z" transform="translate(-3.28 -521)"/><path class="cls-9" d="M1403.64,760.38c-1.34-14.33,1-31,.82-49.91s-.44-27.34-4.94-33.75c-1.24-1.77-2.74-3.81-4.41-6-2.14-.85-2.37-1.74-4.7-1.61-26.82-4.9-24,11.42-28.64,32-.2.9,3.45,28.7,3.11,29.71,2.77,3.2,7.45,16.33,4.71,26-3.46,12.25,2.91,16.76-10.14,24.86s-18.57,12.37-25.87,17.1-23.1,2.18-23.1,2.18L1306,816.39s17.5,20.09,30.32,11.09,34.08-18.28,48.29-34.73S1405,774.71,1403.64,760.38Z" transform="translate(-3.28 -521)"/><path class="cls-12" d="M1367.73,554.94l1.94,1.3,3.31-6.6s1.23,5.95,1.23,6.6,3.24-4.54,3.89-4.54,0,.65,3.89,4.54,5.83,9.07,7.78,5.18a11.7,11.7,0,0,1,4.54-5.18l4.54,5.83,4.54-3.24,5.83,13,2.59-6.48,6.48,9.07,4.54-4.54,2.59,13.61,2.59-3.89,1.3-7.13s.54-.58-.38-1.26-27.42-17.58-44.63-19.82-15.3-1.71-15.3-1.71l-3.52,1.77Z" transform="translate(-3.28 -521)"/><path class="cls-13" d="M1336.3,548.24s33.63-1.8,53.06,5.39S1438,581.44,1438,581.44l20.14,18V593.2l-22-20.48s-.37-3.79-4.86-20.87-15.7-21.58-15.7-21.58L1400.58,524s-19.43-1.8-26.91,9.89S1355,545.54,1355,545.54h-12.71Z" transform="translate(-3.28 -521)"/><path class="cls-8" d="M1366,553c-3.36,2.91-6.07,9.13-7.16,11.53s-6,11.51-5.89,18.17-2.13,7.17.33,16.17,3.14,16.76,7.2,20.5" transform="translate(-3.28 -521)"/><path class="cls-10" d="M1377.44,571.28" transform="translate(-3.28 -521)"/><path class="cls-10" d="M1377.44,571.28" transform="translate(-3.28 -521)"/><path class="cls-10" d="M1363,574.22c6.76-4.21,10.14-6.32,16.05-6.32s11,6.32,11,6.32" transform="translate(-3.28 -521)"/><path class="cls-10" d="M1365.56,580.94c5.79-4.21,8.68-6.32,13.75-6.32s9.4,6.32,9.4,6.32" transform="translate(-3.28 -521)"/><path class="cls-10" d="M1390,579.63c-5.78,4.22-8.68,6.33-13.74,6.34s-9.41-6.3-9.41-6.3" transform="translate(-3.28 -521)"/><ellipse class="cls-12" cx="1370.61" cy="59.86" rx="3.56" ry="4.54"/><path class="cls-10" d="M1360.58,619.92s14.35,1.77,16.94-4.06,1.94-5.18,1.94-5.18-6.48,4.54-8.42,4.54-13.36.2-13.36.2" transform="translate(-3.28 -521)"/><path class="cls-10" d="M1359.12,617.79s7.38,2,13.21-.64l5.83-2.59" transform="translate(-3.28 -521)"/><line class="cls-10" x1="1359.34" y1="94.21" x2="1360.64" y2="99.39"/><line class="cls-10" x1="1364.52" y1="94.21" x2="1365.17" y2="98.74"/><line class="cls-10" x1="1369.06" y1="93.56" x2="1370.36" y2="98.09"/><line class="cls-10" x1="1372.95" y1="91.61" x2="1373.6" y2="95.5"/><path class="cls-8" d="M1356.06,587.34a6.91,6.91,0,0,1-3.89,5.18c-1.3.65-.65.65-2.59,1.3s-4.54,3.24-3.89,3.89,0,2.59,4.54,1.94,5.18-.65,5.18-.65l3.89-.65" transform="translate(-3.28 -521)"/></g></svg>