<svg xmlns="http://www.w3.org/2000/svg" xmlns:xlink="http://www.w3.org/1999/xlink" viewBox="0 0 1920 1080"><defs><style>.cls-1{fill:none;stroke:#878787;}.cls-1,.cls-11,.cls-19,.cls-20,.cls-21,.cls-22,.cls-23,.cls-24,.cls-25{stroke-miterlimit:10;}.cls-2{fill:#969696;}.cls-3{fill:#b7b7b7;}.cls-4{fill:#d8d8d8;}.cls-5{fill:#a0a0a0;}.cls-6{fill:#aaa;}.cls-7{fill:#8e8e8e;}.cls-8{fill:#515151;}.cls-9{fill:#6b6a6a;}.cls-10{fill:#777;}.cls-11{fill:#7c7c7c;stroke:#545252;stroke-width:4px;}.cls-12{fill:#545252;}.cls-13{fill:#727272;}.cls-14{fill:#4c4c4c;}.cls-15,.cls-21{fill:#9b9b9b;}.cls-16{fill:#878787;}.cls-17{fill:#5b5b5b;}.cls-18{fill:#3d3d3d;}.cls-19{fill:#090d00;}.cls-19,.cls-20,.cls-21,.cls-22,.cls-23,.cls-24,.cls-25{stroke:#000;}.cls-20{fill:#c9c9c9;}.cls-23{fill:url(#White_Black);}.cls-24{fill:url(#White_Black-2);}.cls-25{fill:#3f3f3f;}</style><linearGradient id="White_Black" x1="1228.63" y1="913.8" x2="1358.16" y2="913.8" gradientUnits="userSpaceOnUse"><stop offset="0" stop-color="#fff"/><stop offset="1"/></linearGradient><linearGradient id="White_Black-2" x1="490.25" y1="953.32" x2="613.72" y2="953.32" xlink:href="#White_Black"/></defs><title>Artboard 1</title><g id="Layer_2" data-name="Layer 2"><path class="cls-1" d="M1920,942.07s-48,9-133.45-6-117-9-244.49-13.5-256.49,26.36-279,22.18-213.34,36.32-251.41,37.82-120.1,7.5-176.59,0-157.55-19.5-168.51-19.5-128.55-7.26-133.5-8.88-23-10.62-92-10.62-111,.24-166.5,10.62-73.49-4.38-85.49,0-19.25,0-19.25,0"/></g><g id="backgroun"><polygon class="cls-2" points="1202.98 249.38 1011.66 0 1145.77 0 1150.27 87.67 1192.27 86.33 1215.97 -0.25 1228.57 0 1279.87 84.33 1449.65 85.89 1511.63 0 1673.75 0 1595.33 149.38 1380.17 182.19 1266.26 249.38 1202.98 249.38"/><polygon class="cls-3" points="6.93 1080.94 170.7 1080.94 164.48 122.81 176.92 24.38 145.16 0 0.04 0 6.93 1080.94"/><polygon class="cls-4" points="168.98 20.14 202.19 -4.29 577.82 -4.29 633.86 57.72 694.38 15.65 723.43 -4.54 818.56 84.33 907.72 -3.78 963.83 84.33 1012.2 -4.29 1200.42 245.59 1262.68 245.59 1374.75 178.27 1504.08 -4.29 1586.43 145.39 1663.59 -4.29 1914.39 -4.29 1921.72 1078.84 1470.73 1083.65 163.92 1078.84 156.77 150.02 156.53 118.78 168.98 20.14"/><polygon class="cls-5" points="218.38 141.56 283.02 0.91 372.21 0 487.01 145.02 218.38 141.56"/><polyline class="cls-5" points="514.71 146.56 730.77 -0.25 892.75 150.84"/><polygon class="cls-5" points="408.06 141.56 408.06 168.67 367.44 179 367.62 154 408.06 141.56"/><polygon class="cls-6" points="408.06 141.56 701.06 146.56 698.06 170.56 408.06 168.67 408.06 141.56"/><polygon class="cls-7" points="376.81 24.38 401.81 0 457.1 0 408.06 141.56 367.62 154 367.44 122.81 376.81 24.38"/><polygon class="cls-8" points="352.88 0 377.03 24.16 401.81 0 352.88 0"/><polygon class="cls-5" points="701.06 146.56 671.81 0 584 0 517.56 143.43 701.06 146.56"/><polygon class="cls-8" points="524 0 557.58 56.29 584 0 524 0"/><polygon class="cls-8" points="417.07 260.71 533.07 260.71 533.07 486.62 417.07 511.4 417.07 260.71"/><polygon class="cls-9" points="427.07 282.38 523.07 282.38 523.07 488.75 427.07 509.26 427.07 282.38"/><polygon class="cls-2" points="701.06 146.56 948 151.7 940.08 170.56 698.06 170.56 701.06 146.56"/><polygon class="cls-10" points="671.81 0 698.06 0 804.31 148.71 891.67 0 933 0.5 975.25 88.44 948 151.7 701.06 146.56 671.81 0"/><polygon class="cls-8" points="608.06 336.08 666.06 336.08 666.57 458.1 608.06 470.6 608.06 336.08"/><polygon class="cls-9" points="613.06 346.92 661.06 346.92 661.06 459.27 613.06 469.6 613.06 346.92"/><rect class="cls-11" x="738.1" y="189.11" width="101.29" height="101.29"/><rect class="cls-12" x="783.74" y="189.11" width="10" height="101.29"/><rect class="cls-12" x="783.74" y="189.11" width="10" height="101.29" transform="translate(548.99 1028.49) rotate(-90)"/><rect class="cls-11" x="1763.59" y="264.28" width="101.29" height="101.29"/><rect class="cls-12" x="1809.23" y="264.28" width="10" height="101.29"/><rect class="cls-12" x="1809.23" y="264.28" width="10" height="101.29" transform="translate(1499.31 2129.15) rotate(-90)"/><rect class="cls-11" x="268.32" y="240.88" width="66.43" height="66.43"/><rect class="cls-12" x="298.25" y="240.88" width="6.56" height="66.43"/><rect class="cls-12" x="298.25" y="240.88" width="6.56" height="66.43" transform="translate(27.43 575.63) rotate(-90)"/><rect class="cls-11" x="268.32" y="398.58" width="66.43" height="66.43"/><rect class="cls-12" x="298.25" y="398.58" width="6.56" height="66.43"/><rect class="cls-12" x="298.25" y="398.58" width="6.56" height="66.43" transform="translate(-130.26 733.33) rotate(-90)"/><rect class="cls-11" x="1503.73" y="226.02" width="101.29" height="101.29"/><rect class="cls-12" x="1549.38" y="226.02" width="10" height="101.29"/><rect class="cls-12" x="1549.38" y="226.02" width="10" height="101.29" transform="translate(1277.72 1831.04) rotate(-90)"/><polygon class="cls-13" points="956.03 681.71 1413.75 618.19 1417.64 635.44 948.84 696.81 956.03 681.71"/><polygon class="cls-14" points="1413.53 618.07 1024.61 548.64 657.88 640.87 955.7 682.31 1413.53 618.07"/><polygon class="cls-13" points="657.88 640.87 955.7 682.31 948.69 700.97 657.88 658.48 657.88 640.87"/><polygon class="cls-13" points="641.43 670.92 939.26 712.37 932.25 731.02 641.43 688.53 641.43 670.92"/><polygon class="cls-13" points="633.26 700.97 931.08 742.41 924.07 761.07 633.26 718.58 633.26 700.97"/><polygon class="cls-13" points="619.76 734.71 917.58 776.15 910.57 794.81 619.76 752.32 619.76 734.71"/><polygon class="cls-13" points="604.81 763.43 902.63 804.88 895.62 823.53 604.81 781.05 604.81 763.43"/><polygon class="cls-13" points="595.14 792.82 892.96 834.27 885.95 852.92 595.14 810.43 595.14 792.82"/><polygon class="cls-15" points="653 655.12 950.82 696.57 943.81 715.23 653 672.74 653 655.12"/><polygon class="cls-15" points="637.3 684.51 935.12 725.96 928.11 744.61 637.3 702.13 637.3 684.51"/><polygon class="cls-15" points="627.63 717.88 925.45 759.33 918.44 777.98 627.63 735.49 627.63 717.88"/><polygon class="cls-15" points="615.62 746.81 913.45 788.26 906.44 806.91 615.62 764.43 615.62 746.81"/><polygon class="cls-15" points="599.93 775.53 897.75 816.98 890.74 835.63 599.93 793.15 599.93 775.53"/><polygon class="cls-15" points="591 806.25 888.83 847.7 881.82 866.35 591 823.86 591 806.25"/><polygon class="cls-13" points="937.41 713.57 1420.58 643.57 1424.37 660.06 933.04 725.67 937.41 713.57"/><polygon class="cls-13" points="929.82 744.33 1429.64 672.24 1433.44 689.51 924.34 759.44 929.82 744.33"/><polygon class="cls-13" points="917.07 777.03 1436.22 702.77 1440.02 720.04 912.7 789.13 917.07 777.03"/><polygon class="cls-13" points="901.36 805.97 1442.81 728.68 1446.61 745.95 896.99 818.06 901.36 805.97"/><polygon class="cls-13" points="891.7 835.35 1448.45 760.32 1452.24 777.59 887.01 848.34 891.7 835.35"/><polygon class="cls-15" points="950.22 696.45 1418.26 633.3 1422.15 650.54 942.84 713 950.22 696.45"/><polygon class="cls-15" points="933.04 725.67 1427.17 658.38 1430.97 675.65 927.56 744.53 933.04 725.67"/><polygon class="cls-15" points="924.34 759.44 1434.16 687.34 1437.96 704.62 917.07 777.03 924.34 759.44"/><polygon class="cls-15" points="912.7 788.15 1440.74 717.87 1444.53 735.14 905.74 806.25 912.7 788.15"/><polygon class="cls-15" points="897.75 816.98 1447.33 743.78 1451.12 761.06 890.74 835.63 897.75 816.98"/><polygon class="cls-15" points="888.83 847.7 1452.97 775.43 1456.76 792.7 881.82 866.35 888.83 847.7"/><polygon class="cls-15" points="1381.93 387.35 1653.92 407.35 1653.92 397.35 1383.26 381.02 1381.93 387.35"/><polygon class="cls-16" points="1653.92 407.35 1769.02 404.35 1768.52 394.19 1653.92 397.35 1653.92 407.35"/><polygon class="cls-17" points="1383.26 381.02 1639.77 369.02 1769.02 378.69 1768.52 394.19 1653.92 397.35 1383.26 381.02"/><polygon class="cls-17" points="1394.84 388.3 1442.96 527.13 1653.92 534.35 1653.92 407.35 1394.84 388.3"/><polygon class="cls-18" points="1653.92 407.35 1769.02 404.35 1769.02 534.35 1653.92 534.35 1653.92 407.35"/><path class="cls-1" d="M1456.76,792.7c152.24,4.3,210.4,11,234.32,11.63S1749,815.12,1795,815.06s125,7.81,125,7.81"/><path class="cls-1" d="M591,823.86s22.13-5.08-57.93-3S393.69,835.6,377.34,836.3s-99.71-6.63-109-8-115.59-21.43-115.59-21.43"/></g><g id="humans"><path class="cls-19" d="M1535.21,961.87c-4-10.38,7.61-9.66,14.62-20.32,7.75-11.78,4.84-25.25-2-47.13s-20-27.62-27.83-32.5-18.18-5.48-25.35-8.18-25,1.25-27.63.83-11.29,4.45-17.58,8.66-5.48,2.77-12.93,35.93c-.56,2.51,4.57,39.22,13.84,56.81,5.93,11.27,16.25,14.92,24.29,19.44C1493.93,966.86,1514.8,964.87,1535.21,961.87Z"/><path class="cls-20" d="M1687.06,815.72a18.59,18.59,0,0,0-4.77-4c-7.62-4.55-17.6-2.24-24.82.66a17.77,17.77,0,0,0-6.47,4.76c-2,2.24-5.65,2-6.33,4.29a12.3,12.3,0,0,0-.18,1.79c-.23,2.33-.48,3.89-.57,4.54-.36,2.65-2.31,16.76,2.68,19.28a9.25,9.25,0,0,0,1.92.62c3.3.8,4.69-.17,5.56.33,3.53,2-6.58,25.33-6.62,25.43s-13.9,24.22-28,48.62c-14.37,24.8-29,49.79-29.45,49.69-1.93-.38-22-.48-27.56-.8s-19.55,5-25.28-5.79a18.81,18.81,0,0,1-1.23-2.76c-14.87,1.7-30.06,2.63-44.19,8.48,3.23,2,5.93,4.18,7.21,7.64,3.58,9.63,0,0-13.09,8.65s-26.8,18.33-35,24.85-11.67,17.06-18.74,40.86c-3.46,11.64-6,22.81-8.43,33.25,62.23,1.55,125.24.73,187.46-1.7a9.45,9.45,0,0,1,3.58-1.24c-3.6-6.26-8.87-15.1-12.6-24.92-4.53-8.06,6.8-14.93,6.8-14.93s13.71-22.87,27.86-57.28,17.79-21.28,29.22-65.53c2.53-9.79,8.69-31,21.62-73.25C1689.76,840.12,1694.49,824.82,1687.06,815.72Z"/><path class="cls-19" d="M326.46,972.52c3.46-11.11-8.94-9.69-17.33-20.46-9.26-11.9-7.18-26.18-1.58-49.51s19.33-30.1,27.4-35.67,19.13-6.79,26.64-10,27-.13,29.79-.73,12.5,4,19.6,8.07,6.11,2.59,16.73,36.91c.8,2.6-1.85,41.38-10.43,60.35C411.77,973.61,401,978,392.66,983.22,371.27,975.37,348.66,974.49,326.46,972.52Z"/><path class="cls-20" d="M452.42,1085.14c-2.42-8.51-5-17.43-8.2-26.64-8.18-23.46-12.12-33.86-20.63-40s-22.66-15.23-36.14-23.3-16.61,1.7-13.49-8.07c1.13-3.51,3.72-5.82,6.86-8-14.39-5.23-29.61-5.5-44.54-6.55a21.64,21.64,0,0,1-1.1,2.81c-5.22,11.06-19.46,6.31-25,6.87s-25.58,1.54-27.49,2c-.47.12-16.23-24.21-31.74-48.36-15.26-23.76-30.28-47.35-30.28-47.35s-11.23-22.94-7.79-25.12c.84-.54,2.27.37,5.53-.57a9.78,9.78,0,0,0,1.89-.7c4.87-2.74,2.27-16.76,1.78-19.39-.12-.64-.45-2.19-.78-4.51a11.54,11.54,0,0,0-.26-1.78c-.79-2.2-4.38-1.85-6.53-4a17.61,17.61,0,0,0-6.68-4.48c-7.35-2.59-17.42-4.46-24.83.41a18.43,18.43,0,0,0-4.57,4.25c-7,9.42-1.56,24.49.94,31.49,14.89,41.66,22,62.57,25,72.23,13.48,43.72,16.5,30.45,32.25,64.21s30.5,56,30.5,56,11.64,6.37,7.49,14.62a125.7,125.7,0,0,1-6.05,14.78C329.58,1088.42,391.41,1085.24,452.42,1085.14Z"/><path class="cls-21" d="M1320,951.4l-.22.86C1321.16,951.69,1320,951.4,1320,951.4Z"/><path class="cls-21" d="M1329.66,976c-6.16-10.19-10.56-15.29-10.56-21.23l.66-2.54c-1,.41-3.39,1-8.58,1.69-12.32,1.7-15.84,3.4-22.88.85s-9.68-3.4-9.68-3.4,1.76,2.55,0,9.34-.88,11.89-14.08,18.68c-10.38,5.35-23.47,7.54-33.73,10.71,29,18.63,67.67,31.3,100.17,16.89,10.36-4.17,22.4-10,30.33-19.8-2.14-.63-3.48-1-3.48-1S1335.82,986.22,1329.66,976Z"/><path class="cls-21" d="M1399.19,1065.18c1.76-4.25,3.52-22.93,2.64-28.87s-5.28-33.11-12.32-38.21c-5.28-3.82-20.46-8.59-27.71-10.74a98.34,98.34,0,0,0,9.79,41.83,7.69,7.69,0,0,1,1.2-.52s1.76,20.38.88,28,0-.85-.88,14.43c-.4,7-1,11.63-1.5,15.7q12.17.18,24.36.26C1393.94,1071.11,1397.44,1069.41,1399.19,1065.18Z"/><path class="cls-22" d="M1363.11,1055c5.28-16.13,6.16-16.13,5.28-20.38-.61-2.92,1.7-4.63,3.2-5.42a98.34,98.34,0,0,1-9.79-41.83l-.49-.14c-7.93,9.83-20,15.63-30.33,19.8-32.5,14.41-71.15,1.74-100.17-16.89l-.17,0c-1.69,12.42.76,24.84-2.43,37.26.27.43.86,1.56,2,3.78,3.52,6.79,5.28,15.28,8.8,20.37s4.4,5.1,6.16,10.19.88,8.49,3.52,14.44c2.42,5.44,1.88.2,5.16,10.4,31.6-1.24,63.11-.74,94.65-.19,1.88-6.08,3-11.26,4.92-14.46C1357,1066,1357.83,1071.12,1363.11,1055Z"/><path class="cls-21" d="M1228.45,1071.12c.88-6.79,2.65-8.49,1.77-13.58s.88-4.25-.89-9.34-2.64-3.4-1.76-9.34.88-5.95.88-8.49a12.92,12.92,0,0,0-.34-2.51c0,.13-.06.26-.1.38,0-.12.07-.25.1-.38-.12-.58-.16-.84.1-.42,3.19-12.42.74-24.84,2.43-37.26a55,55,0,0,0-7.47,2.83c-10.56,5.09-18.48,13.58-19.36,21.22s-2.64,16.14-1.76,28.87.88,31.42.88,37.36c0,3.3,1.09,6.34,1.9,9.7q11.3-1.23,22.57-2.06c0-.53.1-1.08.17-1.7C1228.45,1078.76,1227.57,1077.91,1228.45,1071.12Z"/><path class="cls-23" d="M1303.26,996.4s22-34.81,30.8-45,15-16.13,16.73-19.52,10.56-10.19,6.16-37.36,6.16-38.21-18.49-58.59-42.24-22.07-60.72-20.37-49.29,41.6-47.52,50.09-7,9.34,4.4,29.72,5.28,33.11,15.84,47.54,15.84,15.29,24.64,34.82a313.43,313.43,0,0,0,18.48,34.81Z"/><path class="cls-21" d="M599.2,900.46l-.22.86C600.38,900.75,599.2,900.46,599.2,900.46Z"/><path class="cls-21" d="M591.28,1005.74c-6.16-10.18-10.56-15.28-10.56-21.22l.66-2.54c-1,.41-3.39,1-8.58,1.69-12.32,1.7-15.84,3.4-22.88.85s-9.68-3.4-9.68-3.4,1.76,2.55,0,9.34-.88,11.89-14.08,18.68c-10.39,5.34-23.48,7.54-33.74,10.71,29,18.63,67.68,31.29,100.18,16.88,10.36-4.16,22.4-10,30.33-19.8-2.14-.63-3.49-1-3.49-1S597.44,1015.93,591.28,1005.74Z"/><path class="cls-21" d="M663.45,1066c-.88-6-5.28-33.12-12.32-38.21-5.28-3.82-20.46-8.59-27.71-10.74a98.37,98.37,0,0,0,9.79,41.83,7.69,7.69,0,0,1,1.2-.52s1.65,19.15,1,27.28q13.73-.69,27.48-1.86C663.58,1077.12,664,1069.46,663.45,1066Z"/><path class="cls-22" d="M624.25,1086.15l.47-1.44c5.29-16.14,6.17-16.14,5.29-20.38-.61-2.92,1.7-4.64,3.2-5.42a98.37,98.37,0,0,1-9.79-41.83l-.49-.15c-7.93,9.84-20,15.64-30.33,19.8-32.5,14.41-71.15,1.75-100.18-16.88l-.16,0c-1.69,12.42.76,24.84-2.43,37.26.27.43.85,1.56,2,3.77,3.52,6.8,5.28,15.29,8.8,20.38,1.26,1.81,2.17,3,2.92,4C543.86,1086.46,584,1087.65,624.25,1086.15Z"/><path class="cls-21" d="M491,1083c-1.76-5.1-2.64-3.4-1.76-9.34s.88-5.94.88-8.49a12.92,12.92,0,0,0-.34-2.51c0,.13-.06.26-.1.39,0-.13.06-.26.1-.39-.12-.58-.17-.84.1-.42,3.19-12.42.74-24.84,2.43-37.26a54.54,54.54,0,0,0-7.47,2.83c-10.56,5.09-18.48,13.58-19.36,21.23s-2.64,16.13-1.76,28.86c.24,3.43.41,7.28.54,11.2,1.21.05,2.37.12,3.42.27q12,.27,23.95.63C491.49,1087.36,492.38,1087.14,491,1083Z"/><path class="cls-24" d="M561.39,1027.72s21-31.35,29.36-40.53S605,972.66,606.69,969.6s10.07-9.18,5.87-33.65,5.87-34.42-17.61-52.77-40.27-19.88-57.89-18.36-47,37.48-45.3,45.13-6.71,8.41,4.19,26.76,5,29.83,15.1,42.83,15.1,13.77,23.49,31.36a276.48,276.48,0,0,0,17.62,31.35Z"/><path class="cls-21" d="M931.29,929.68c-1.74-9.4,8-7.08,15.6-15.11,8.44-8.86,8.09-20.73,5.78-40.33s-12.59-26.41-18.49-31.71-14.55-7.34-20.21-10.69-21.37-2.61-23.56-3.37-10.28,2.13-16.29,4.77-5.08,1.55-16.63,28.62c-.87,2-2.3,34,2.78,50.31,3.26,10.45,11.44,15.07,17.54,20.1C895.49,927.84,913.5,929.23,931.29,929.68Z"/><path class="cls-25" d="M1041.07,1049.9c-11.44-15.29-20.24-35.67-33.44-56.89s-19.37-30.57-29-34.81S953.06,948,938.1,942.91s-15.84,5.1-15-5.09c.32-3.66,2.34-6.45,4.92-9.18-15.21-2.13-30.13.75-44.95,2.81a20.32,20.32,0,0,1-.45,3c-2.64,11.89-17.61,10.19-22.89,11.89s-24.64,6.79-26.4,7.64-14.08,8.49-16.72,16.13S804.33,999,804.33,999s-15.84,27.17-17.6,34.81S746.24,1000.65,743.6,993s-13.2-33.11-13.2-33.11,11.44-6.8,0-11-7.92-7.64-16.72-5.1-2.64-1.69-12.32,6S687.28,958.2,689,961.59s-1.76,6.8,6.16,7.64,7.92-.84,9.68,4.25,7,36.51,13.2,41.6,3.52,17.83,15.84,27.17,29.05,28.87,44.89,27.17,41.36,3.4,49.28-14.43a84.1,84.1,0,0,0,4.8-13.64c.72-7.76,1.36-13.53,1.36-13.53s.87,4.61-1.36,13.53c-1.36,14.54-3,36.09-1.28,40a37.05,37.05,0,0,1,1.64,4.29c41.06,2.58,82,3.32,122.89,3.31,8.76-17.81,17.93-41.39,17.16-45.81-.88-5.09,21.13,9.34,25.53,25.47,2.72,10,7.79,14.11,9,20q17.79-.18,35.57-.41C1047.77,1069.2,1050.84,1063,1041.07,1049.9Z"/></g></svg>