<svg xmlns="http://www.w3.org/2000/svg" xmlns:xlink="http://www.w3.org/1999/xlink" viewBox="0 0 1366 1366"><defs><style>.cls-1{fill:#191919;}.cls-2{fill:#282828;}.cls-3{fill:#4f4e4d;}.cls-4{fill:url(#linear-gradient);}.cls-5{fill:#333;}.cls-15,.cls-20,.cls-6{fill:none;}.cls-6{stroke:#191919;stroke-width:5px;}.cls-20,.cls-6{stroke-miterlimit:10;}.cls-7{fill:#313331;}.cls-8{fill:#272827;}.cls-9{fill:#686868;}.cls-10{fill:#383838;}.cls-11{fill:#787a78;}.cls-12{fill:#444;}.cls-13{fill:#707070;}.cls-14{fill:#4f4f4e;}.cls-16{fill:#303030;}.cls-17{fill:#101110;}.cls-18{fill:#3f3f3f;}.cls-19{fill:#353535;}.cls-20{stroke:#000;stroke-width:10px;}.cls-21{fill:#1c1c1c;}.cls-22{fill:#4f4f4f;}.cls-23{fill:#161616;}.cls-24{fill:#141414;}.cls-25{fill:#2b2b2b;}.cls-26{fill:#383a39;}.cls-27{fill:#2c2d2c;}</style><linearGradient id="linear-gradient" x1="-16" y1="983.5" x2="563" y2="983.5" gradientUnits="userSpaceOnUse"><stop offset="0" stop-color="#4d4d4d"/><stop offset="1"/></linearGradient></defs><title>church-background</title><g id="Layer_3" data-name="Layer 3"><rect class="cls-1" x="113" y="1024" width="45" height="61"/><rect class="cls-2" x="453" y="900" width="45" height="61"/><rect class="cls-3" x="419" y="924" width="34" height="61"/><polygon class="cls-4" points="-16 805 7 799 33 805 59 799 62 797 62 791 56 787 61 783 65 738 75 780 75 783 82 786 78 792 79 799 89 799 96 787 193 783 201 802 221 801 227 778 232 799 241 794 259 792 294 793 358 816 366 796 378 801 388 809 397 801 405 805 423 805 427 798 432 805 446 805 448 797 453 805 471 804 479 788 481 775 477 770 484 765 489 738 496 765 501 769 498 775 501 782 504 791 516 802 527 781 530 785 547 785 549 780 552 786 563 799 563 968 -16 1229 -16 805"/><polygon class="cls-5" points="0 1221.79 0 1366 1366 1366 1366 1258 0 1181 0 1221.79"/><polygon class="cls-5" points="58 1089 113 954 264 1021 366 1205 58 1191 85 1130 58 1089"/><polygon class="cls-1" points="255 1044 255 1200.09 273.5 1200.09 273.5 1038.14 264 1021 255 1044"/><polygon class="cls-1" points="205 1162 328.34 1137.07 336.63 1152.02 192 1181 205 1162"/><polygon class="cls-1" points="259 1015 446.67 985 475 1044 259 1015"/><polygon class="cls-2" points="595 1044 258 1017 366 1205 647 1219 644 1165 637 1159 637 1144 656 1133 595 1044"/><polygon class="cls-6" points="264 1021 185.33 1196.79 366 1205 264 1021"/><rect class="cls-5" x="885" y="1079" width="60" height="80"/></g><g id="Layer_4" data-name="Layer 4"><rect class="cls-7" x="970" y="510" width="30" height="194"/><rect class="cls-8" x="988" y="510" width="2" height="7"/><polyline class="cls-7" points="1168 928.66 1217 922.51 1214 782.19 1182 747.37 1174 704.35 1159.84 689.75 1162.67 929 1217 922.51"/><path class="cls-9" d="M1057,542l-1,50,24,34,12-31-2-50s21-4-1-15l-18-193-14,188S1034,539,1057,542Z"/><polyline class="cls-9" points="1026 642 1081.02 662.81 1135 725.81 1135 741 1026 706.9 1026 642"/><polygon class="cls-10" points="1079.46 627 1026 612.24 1026 569 1046.32 578.49 1080 624.13 1079.46 627"/><polyline class="cls-5" points="1026.59 648.96 1085.41 664.33 1082.12 623.44 1026.81 612.39 1026.44 646.13"/><polyline class="cls-11" points="779 617 962.46 392 970 611.58 779 617"/><rect class="cls-11" x="584" y="538" width="179" height="95"/><polygon class="cls-12" points="715.07 750.5 823.52 748.24 823.5 717.55 821 611 715 625.68 715.07 750.5"/><rect class="cls-13" x="590.5" y="555.5" width="3" height="78"/><rect class="cls-13" x="601.5" y="552.5" width="3" height="78"/><rect class="cls-13" x="612.5" y="552.5" width="3" height="78"/><rect class="cls-13" x="623.5" y="552.5" width="3" height="78"/><rect class="cls-13" x="632.5" y="552.5" width="3" height="78"/><rect class="cls-13" x="650.5" y="549.5" width="3" height="78"/><rect class="cls-13" x="656.5" y="549.5" width="3" height="78"/><rect class="cls-13" x="664.5" y="549.5" width="3" height="78"/><rect class="cls-13" x="672.5" y="549.5" width="3" height="78"/><rect class="cls-13" x="679.5" y="547.5" width="3" height="78"/><rect class="cls-13" x="641.5" y="549.5" width="3" height="78"/><rect class="cls-14" x="582.01" y="622.97" width="378" height="154.13" transform="translate(-35.89 41.69) rotate(-3.03)"/><polygon class="cls-15" points="566.5 641.5 566.5 759.5 969.5 750.5 969.5 611.5 566.5 641.5"/><polygon class="cls-16" points="571.5 529.5 571.5 321.86 695.5 300 695.5 516.39 571.5 529.5"/><polygon class="cls-16" points="833 503.5 970 487.5 963 274.5 833 291.5 833 503.5"/><polygon class="cls-7" points="1000 949 1139 931.66 1135.23 740.45 1000 697 1000 949"/><polygon class="cls-17" points="1134.5 725.5 1132 647 1079.5 647.5 1079.5 670.5 1134.5 725.5"/><polygon class="cls-18" points="1139.65 594.05 1131 649 1159 659 1139.65 594.05"/><polygon class="cls-19" points="695 517.5 758 510.5 758 368.67 758 358.5 695 300.5 695 517.5"/><polygon class="cls-19" points="963 521 1028 514 1026 351.93 1026 340.38 963 274.5 963 521"/><path class="cls-1" d="M604,525.37l-4.91-146.61A39.93,39.93,0,0,1,600,371c1.38-8.29,10-21,17-20,7.54,1.08,12,8,15,18s5,152.13,5,153.49h0l-32.92,2.89Z"/><path d="M651,521l-4.88-147.5s1.24-24,13.11-28.35S677,371,677,371l5,147Z"/><path class="cls-1" d="M864,497l-5.87-165.68a43.09,43.09,0,0,1,1-8.73c1.62-9.33,11.77-23.64,20-22.51,8.88,1.21,14.13,9,17.67,20.26s5.86,171.25,5.88,172.79h0L864,498S864,497,864,497Z"/><path d="M916.5,491.45l-5.74-166s1.46-27,15.43-31.91,20.92,29.1,20.92,29.1L953,488.07Z"/><rect class="cls-3" x="706" y="756.5" width="117.5" height="85"/><polygon class="cls-7" points="1028 738 1000 738 1000 517 1028 513 1028 738"/><rect class="cls-7" x="1026" y="602" width="5" height="1"/><polygon class="cls-7" points="1167.78 928.35 1131 932 1131 647 1158.78 658.6 1167.78 928.35"/><line class="cls-20" x1="520.84" y1="994.45" x2="464" y2="1021"/><line class="cls-20" x1="861" y1="1004" x2="706" y2="1085"/><circle class="cls-21" cx="779.5" cy="697.5" r="47"/><rect class="cls-2" x="820" y="620.5" width="25.5" height="132"/><rect class="cls-2" x="685.5" y="631" width="24.5" height="125.5"/><rect class="cls-2" x="830.5" y="530.5" width="15" height="86"/><rect class="cls-2" x="947.5" y="611.5" width="22.5" height="137"/><rect class="cls-3" x="586.5" y="754" width="95" height="38.5"/><polygon class="cls-2" points="819 753.5 819 943.5 849 944 848.5 784.5 848.5 753.5 819 753.5"/><polygon class="cls-2" points="947 750.5 947 752.5 947 784.5 947 948.5 980.5 948.5 980.5 750.5 947 750.5"/><polygon class="cls-3" points="848 752.5 848 753.5 848 784.5 949.5 784.5 949.5 752.5 848 752.5"/><rect class="cls-2" x="566.5" y="640.5" width="20" height="116"/><rect class="cls-2" x="571" y="556" width="13" height="79"/><rect class="cls-2" x="688.5" y="543" width="16" height="82.5"/><rect class="cls-2" x="949.5" y="519.5" width="21.5" height="97.5"/><path class="cls-2" d="M715.5,744.5v-68s12-47.37,55-50.19,53,24.19,53,24.19v-30l-117,10.58V755.5l8.17.5Z"/><rect class="cls-14" x="565.96" y="616.95" width="403.78" height="13.04" transform="translate(-44.01 58.49) rotate(-4.24)"/><circle class="cls-5" cx="782" cy="697" r="30.5"/><rect class="cls-22" x="848" y="779.5" width="101" height="70"/><polygon class="cls-2" points="565.07 759.74 565.07 933.43 587.92 933.43 587.92 788.08 587.92 759.74 565.07 759.74"/><polygon class="cls-3" points="587.47 758.83 587.47 759.74 587.47 788.08 680.25 788.08 680.25 758.83 587.47 758.83"/><rect class="cls-22" x="587.46" y="783.51" width="92.33" height="63.99"/><path class="cls-23" d="M706,940.13l.48-90.63s24-60,56-57,62,46,61,57,.5,94.5.5,94.5Z"/><rect class="cls-14" x="709" y="543" width="4" height="82"/><rect class="cls-14" x="720" y="543" width="4" height="82"/><rect class="cls-14" x="730" y="541" width="4" height="82"/><rect class="cls-14" x="740" y="541" width="4" height="82"/><rect class="cls-14" x="748" y="538" width="4" height="82"/><rect class="cls-14" x="756" y="538" width="4" height="82"/><rect class="cls-14" x="766" y="538" width="4" height="82"/><rect class="cls-14" x="775" y="535" width="4" height="82"/><rect class="cls-14" x="783" y="535" width="4" height="82"/><rect class="cls-14" x="791" y="535" width="4" height="82"/><rect class="cls-14" x="798" y="535" width="4" height="82"/><rect class="cls-14" x="807" y="533" width="4" height="82"/><rect class="cls-14" x="817" y="533" width="4" height="82"/><rect class="cls-14" x="824" y="531" width="4" height="82"/><rect class="cls-14" x="851" y="530" width="4" height="81"/><rect class="cls-14" x="858" y="526" width="4" height="85"/><rect class="cls-14" x="865" y="526" width="4" height="85"/><rect class="cls-14" x="874" y="528" width="4" height="83"/><rect class="cls-14" x="883" y="523" width="4" height="88"/><rect class="cls-14" x="891" y="523" width="4" height="88"/><rect class="cls-14" x="898" y="523" width="4" height="88"/><rect class="cls-14" x="906" y="523" width="4" height="88"/><rect class="cls-14" x="914" y="523" width="4" height="88"/><rect class="cls-14" x="922" y="520" width="4" height="88"/><rect class="cls-14" x="930" y="520" width="4" height="88"/><rect class="cls-14" x="938" y="520" width="4" height="88"/><path class="cls-1" d="M848.67,943.86l-.17-94.36s31-46,48-46c24,0,53,48,52,46l1.5,99Z"/><path class="cls-1" d="M588.07,933.76l-.15-86.26s28.31-42,43.88-42c21.94,0,48.45,43.88,47.54,42l1.37,90.5Z"/><rect class="cls-8" x="969" y="698" width="31" height="251"/><path class="cls-19" d="M850.5,746l99-3.17v-74s-23-40.16-44-43.33-55,45.45-55,45.45Z"/><path class="cls-24" d="M866.5,735.5v-61s2-9,11-8,21,12,22,19,0,50,0,50Z"/><path class="cls-24" d="M909.5,732.5v-47s5-20,14-22,23,19,23,19v50Z"/><circle class="cls-24" cx="903.5" cy="650.5" r="11"/><path class="cls-25" d="M594,752.8,686,750V685s-21.37-35.32-40.89-38.1-51.11,40-51.11,40Z"/><path class="cls-24" d="M609.29,748.8V692.42s1.85-8.31,10.16-7.39,19.41,11.09,20.34,17.56,0,46.21,0,46.21Z"/><path class="cls-24" d="M649,746V702.59s4.62-18.48,12.94-20.33,21.26,17.56,21.26,17.56V746Z"/><circle class="cls-24" cx="643.48" cy="670.24" r="10.17"/><polygon class="cls-26" points="577 528 571.5 528.5 571.5 559.5 963 520 963.5 490.33 963.5 485.5 577 528"/><polygon class="cls-27" points="1079.5 647.5 1080 623 1092 595 1140 595 1131.5 647.5 1079.5 647.5"/><path class="cls-2" d="M737.46,933.5V870.16s-3.72-9.94,9.94-9.94h13.66s9.94-2.48,9.94,6.21V933.5Z"/><path class="cls-2" d="M777,932.26V868.92S773.24,859,786.9,859h13.66s9.94-2.48,9.94,6.21v67.07Z"/><ellipse class="cls-24" cx="782.25" cy="697.25" rx="7.25" ry="6.75"/><rect class="cls-14" x="564.99" y="742.12" width="415.16" height="16.84" transform="translate(-11.2 11.7) rotate(-0.86)"/><rect class="cls-2" x="678" y="755.5" width="31" height="184"/></g><g id="Layer_8" data-name="Layer 8"><polygon class="cls-1" points="818.5 1058.5 877.5 969.5 877 904 929 904 929 1017 1000 1015 1000 904 1026 845 1049 845 1057 833 1075 833 1081 846 1123 847 1133 833 1160 833 1191 879 1246 869 1273 868 1298 892 1298 939 1366 966 1366 1260 818 1229 818.5 1058.5"/><polygon class="cls-5" points="1278 934 1217 1041 1149 1012 1090 1080 1035 1258 1366 1266 1366 966 1278 934"/><polygon class="cls-7" points="1000 904 1026 845 1049 845 1057 833 1075 833 1081 846 1123 847 1133 833 1160 833 1193 881 1162 895 1135 839 1110 885 1078 885 1058 839 1026 904 1000 904"/><polygon class="cls-1" points="1096 931 1186 931 1207 943 1210.3 1038.14 1149 1012 1096 931"/></g></svg>