<svg id="Layer_4" data-name="Layer 4" xmlns="http://www.w3.org/2000/svg" viewBox="0 0 763.76 799.84"><defs><style>.cls-1{fill:#313331;}.cls-2{fill:#272827;}.cls-3{fill:#686868;}.cls-4{fill:#383838;}.cls-5{fill:#333;}.cls-6{fill:#787a78;}.cls-7{fill:#444;}.cls-8{fill:#707070;}.cls-9{fill:#4f4f4e;}.cls-10,.cls-17{fill:none;}.cls-11{fill:#303030;}.cls-12{fill:#101110;}.cls-13{fill:#3f3f3f;}.cls-14{fill:#353535;}.cls-15{fill:#191919;}.cls-16{fill:#4f4e4d;}.cls-17{stroke:#000;stroke-miterlimit:10;stroke-width:10px;}.cls-18{fill:#1c1c1c;}.cls-19{fill:#282828;}.cls-20{fill:#4f4f4f;}.cls-21{fill:#161616;}.cls-22{fill:#141414;}.cls-23{fill:#2b2b2b;}.cls-24{fill:#383a39;}.cls-25{fill:#2c2d2c;}</style></defs><title>church</title><rect class="cls-1" x="644.87" y="518.86" width="30" height="194" transform="translate(911.56 912.2) rotate(176.88)"/><rect class="cls-2" x="649.78" y="519.22" width="2" height="7" transform="matrix(-1, 0.05, -0.05, -1, 888.32, 726.55)"/><polyline class="cls-1" points="53.91 664.36 4.65 660.89 0 520.61 30.05 484.09 35.7 440.7 49.04 425.35 59.26 664.41 4.65 660.89"/><path class="cls-3" d="M584.44,554.88l3.72,49.87L566,640l-13.67-30.3-.73-50s-21.19-2.85.18-15L559.29,351l24.22,187S607.24,550.63,584.44,554.88Z" transform="translate(-440.75 -282.66)"/><polyline class="cls-3" points="180.08 370.39 126.28 394.17 75.81 460.01 76.64 475.18 183.62 435.19 180.08 370.39"/><polygon class="cls-4" points="125.88 358.32 178.46 340.67 176.1 297.5 156.34 308.08 125.19 355.49 125.88 358.32"/><polyline class="cls-5" points="179.87 377.37 121.97 395.92 123.03 354.92 177.66 340.87 179.87 374.53"/><polyline class="cls-6" points="425.35 331.97 229.91 117.3 234.34 336.96 425.35 331.97"/><rect class="cls-6" x="880.24" y="529.92" width="179" height="95" transform="translate(1528.74 818.5) rotate(176.88)"/><polygon class="cls-7" points="496.47 461.79 388.05 465.44 386.4 434.8 383.09 328.26 489.73 337.15 496.47 461.79"/><rect class="cls-8" x="1050.11" y="542.97" width="3" height="78" transform="translate(1692.6 823.12) rotate(176.88)"/><rect class="cls-8" x="1038.96" y="540.57" width="3" height="78" transform="translate(1670.19 818.94) rotate(176.88)"/><rect class="cls-8" x="1027.97" y="541.17" width="3" height="78" transform="translate(1648.27 820.74) rotate(176.88)"/><rect class="cls-8" x="1016.99" y="541.77" width="3" height="78" transform="translate(1626.36 822.53) rotate(176.88)"/><rect class="cls-8" x="1008" y="542.26" width="3" height="78" transform="translate(1608.42 824) rotate(176.88)"/><rect class="cls-8" x="989.87" y="540.25" width="3" height="78" transform="translate(1572.07 820.96) rotate(176.88)"/><rect class="cls-8" x="983.88" y="540.58" width="3" height="78" transform="translate(1560.11 821.94) rotate(176.88)"/><rect class="cls-8" x="975.89" y="541.01" width="3" height="78" transform="translate(1544.17 823.25) rotate(176.88)"/><rect class="cls-8" x="967.9" y="541.45" width="3" height="78" transform="translate(1528.23 824.56) rotate(176.88)"/><rect class="cls-8" x="960.8" y="539.83" width="3" height="78" transform="translate(1513.96 821.71) rotate(176.88)"/><rect class="cls-8" x="998.85" y="539.76" width="3" height="78" transform="translate(1590 819.49) rotate(176.88)"/><rect class="cls-9" x="689.61" y="620.04" width="378" height="154.13" transform="translate(1317.64 1110.08) rotate(179.9)"/><polygon class="cls-10" points="638.87 344.85 645.3 462.68 242.41 475.65 234.84 336.85 638.87 344.85"/><polygon class="cls-11" points="627.78 233.29 616.47 25.96 491.46 10.89 503.25 226.95 627.78 233.29"/><polygon class="cls-11" points="365.25 221.58 227.58 213.06 222.97 0 353.7 9.89 365.25 221.58"/><polygon class="cls-1" points="222.77 675.51 83.03 665.77 76.38 474.64 209.04 423.89 222.77 675.51"/><polygon class="cls-12" points="76.29 459.67 74.51 381.15 126.96 378.79 128.22 401.76 76.29 459.67"/><polygon class="cls-13" points="63.99 328.7 75.62 383.1 48.21 394.61 63.99 328.7"/><polygon class="cls-14" points="503.81 228.04 440.52 224.48 432.79 82.86 432.24 72.71 491.99 11.36 503.81 228.04"/><polygon class="cls-14" points="236.4 246.13 171.11 242.69 164.28 80.75 163.65 69.22 222.97 0 236.4 246.13"/><path class="cls-15" d="M1035.81,513.6l-3.08-146.66a39.91,39.91,0,0,0-1.3-7.7c-1.83-8.2-11.13-20.42-18.06-19-7.47,1.49-11.55,8.64-14,18.79s3.31,152.17,3.37,153.53c0,0,0,0,0,0l33,1.09A0,0,0,0,0,1035.81,513.6Z" transform="translate(-440.75 -282.66)"/><path d="M988.69,511.79l-3.17-147.55s-2.54-23.88-14.63-27.59-16.33,26.78-16.33,26.78l3,147.05Z" transform="translate(-440.75 -282.66)"/><path class="cls-15" d="M774.7,499.43l-3.16-165.75A43,43,0,0,0,770,325c-2.13-9.23-13-23-21.21-21.39-8.8,1.69-13.62,9.76-16.53,21.2s3.47,171.32,3.54,172.85c0,0,0,0,0,0l38.91,2.75S774.7,499.45,774.7,499.43Z" transform="translate(-440.75 -282.66)"/><path d="M722,496.75l-3.31-166.11s-2.93-26.88-17.15-31-19.3,30.2-19.3,30.2l3.14,165.56Z" transform="translate(-440.75 -282.66)"/><rect class="cls-16" x="831.5" y="753.08" width="117.5" height="85" transform="translate(1381.78 1258.81) rotate(176.88)"/><polygon class="cls-1" points="183.32 466.35 211.28 464.83 199.23 244.16 171.06 241.69 183.32 466.35"/><rect class="cls-1" x="613.69" y="613.24" width="5" height="1" transform="translate(824.15 910.34) rotate(176.88)"/><polygon class="cls-1" points="54.12 664.03 91.04 665.68 75.51 381.1 48.41 394.2 54.12 664.03"/><line class="cls-17" x1="703.7" y1="694.79" x2="761.9" y2="718.2"/><line class="cls-17" x1="364.56" y1="722.86" x2="523.74" y2="795.29"/><path class="cls-17" d="M1088,1120.29" transform="translate(-440.75 -282.66)"/><path class="cls-17" d="M1240.94,1096.92" transform="translate(-440.75 -282.66)"/><circle class="cls-18" cx="870" cy="695.03" r="47" transform="translate(-477.33 -234.23) rotate(-3.12)"/><rect class="cls-19" x="803.48" y="620.95" width="25.5" height="132" transform="translate(1227.91 1045.75) rotate(176.88)"/><rect class="cls-19" x="939.17" y="624.08" width="24.5" height="125.5" transform="translate(1498.09 1038.15) rotate(176.88)"/><rect class="cls-19" x="797.33" y="531.4" width="15" height="86" transform="translate(1199 821.45) rotate(176.88)"/><rect class="cls-19" x="678.81" y="618.83" width="22.5" height="137" transform="translate(975.78 1053.37) rotate(176.88)"/><rect class="cls-16" x="971.91" y="743.49" width="95" height="38.5" transform="translate(1638.1 1186.15) rotate(176.88)"/><polygon class="cls-19" points="392.85 470.44 403.2 660.16 373.27 662.29 365.08 503 363.39 472.05 392.85 470.44"/><polygon class="cls-19" points="264.88 474.42 264.99 476.42 266.73 508.37 275.67 672.13 242.21 673.95 231.43 476.25 264.88 474.42"/><polygon class="cls-16" points="363.84 471.02 363.89 472.02 365.58 502.98 264.23 508.51 262.49 476.55 363.84 471.02"/><rect class="cls-19" x="1062.75" y="626.97" width="20" height="116" transform="translate(1740.47 1027.82) rotate(176.88)"/><rect class="cls-19" x="1059.64" y="542.68" width="13" height="79" transform="translate(1721.66 822.75) rotate(176.88)"/><rect class="cls-19" x="938.7" y="536.18" width="16" height="82.5" transform="matrix(-1, 0.05, -0.05, -1, 1482.7, 819.76)"/><rect class="cls-19" x="671.72" y="527.07" width="21.5" height="97.5" transform="translate(954.55 830.95) rotate(176.88)"/><path class="cls-19" d="M936.46,738.48l-3.7-67.9s-14.56-46.65-57.65-47.11-51.6,27-51.6,27l-1.63-30,117.4,4.19L946,749l-8.13.94Z" transform="translate(-440.75 -282.66)"/><rect class="cls-9" x="675.7" y="613.96" width="403.78" height="13.04" transform="translate(1302.16 975.31) rotate(-178.88)"/><circle class="cls-5" cx="867.47" cy="694.67" r="30.5" transform="translate(-477.31 -234.36) rotate(-3.12)"/><rect class="cls-20" x="707.05" y="783.34" width="101" height="70" transform="translate(1117.8 1311.54) rotate(176.88)"/><polygon class="cls-19" points="646.75 462.84 656.21 636.27 633.39 637.51 625.47 492.38 623.92 464.09 646.75 462.84"/><polygon class="cls-16" points="624.33 463.15 624.38 464.06 625.93 492.36 533.28 497.41 531.68 468.2 624.33 463.15"/><rect class="cls-20" x="975.92" y="772.92" width="92.33" height="63.99" transform="matrix(-1, 0.05, -0.05, -1, 1645.74, 1270.29)"/><path class="cls-21" d="M956.59,933.29l-5.42-90.46s-27.23-58.6-59-53.86-59.4,49.31-57.8,60.24S839,943.59,839,943.59Z" transform="translate(-440.75 -282.66)"/><rect class="cls-9" x="930.21" y="536.97" width="4" height="82" transform="translate(1453.77 821.63) rotate(176.88)"/><rect class="cls-9" x="919.23" y="537.57" width="4" height="82" transform="translate(1431.85 823.43) rotate(176.88)"/><rect class="cls-9" x="909.13" y="536.12" width="4" height="82" transform="translate(1411.6 821.08) rotate(176.88)"/><rect class="cls-9" x="899.15" y="536.66" width="4" height="82" transform="translate(1391.67 822.71) rotate(176.88)"/><rect class="cls-9" x="891" y="534.1" width="4" height="82" transform="translate(1375.24 818.04) rotate(176.88)"/><rect class="cls-9" x="883.01" y="534.54" width="4" height="82" transform="translate(1359.3 819.34) rotate(176.88)"/><rect class="cls-9" x="873.02" y="535.08" width="4" height="82" transform="translate(1339.38 820.98) rotate(176.88)"/><rect class="cls-9" x="863.87" y="532.58" width="4" height="82" transform="translate(1320.95 816.47) rotate(176.88)"/><rect class="cls-9" x="855.88" y="533.01" width="4" height="82" transform="translate(1305.01 817.77) rotate(176.88)"/><rect class="cls-9" x="847.9" y="533.45" width="4" height="82" transform="translate(1289.07 819.08) rotate(176.88)"/><rect class="cls-9" x="840.91" y="533.83" width="4" height="82" transform="translate(1275.12 820.22) rotate(176.88)"/><rect class="cls-9" x="831.81" y="532.32" width="4" height="82" transform="translate(1256.86 817.71) rotate(176.88)"/><rect class="cls-9" x="821.83" y="532.87" width="4" height="82" transform="translate(1236.94 819.34) rotate(176.88)"/><rect class="cls-9" x="814.73" y="531.25" width="4" height="82" transform="translate(1222.66 816.5) rotate(176.88)"/><rect class="cls-9" x="787.69" y="531.73" width="4" height="81" transform="translate(1168.62 817.92) rotate(176.88)"/><rect class="cls-9" x="780.59" y="528.11" width="4" height="85" transform="translate(1154.34 815.08) rotate(176.88)"/><rect class="cls-9" x="773.6" y="528.49" width="4" height="85" transform="translate(1140.4 816.22) rotate(176.88)"/><rect class="cls-9" x="764.66" y="530.98" width="4" height="83" transform="translate(1122.63 819.68) rotate(176.88)"/><rect class="cls-9" x="755.54" y="526.47" width="4" height="88" transform="translate(1104.29 816.17) rotate(176.88)"/><rect class="cls-9" x="747.55" y="526.91" width="4" height="88" transform="translate(1088.34 817.48) rotate(176.88)"/><rect class="cls-9" x="740.56" y="527.29" width="4" height="88" transform="translate(1074.4 818.62) rotate(176.88)"/><rect class="cls-9" x="732.58" y="527.73" width="4" height="88" transform="translate(1058.46 819.93) rotate(176.88)"/><rect class="cls-9" x="724.59" y="528.16" width="4" height="88" transform="translate(1042.52 821.23) rotate(176.88)"/><rect class="cls-9" x="716.44" y="525.6" width="4" height="88" transform="translate(1026.08 816.56) rotate(176.88)"/><rect class="cls-9" x="708.45" y="526.04" width="4" height="88" transform="translate(1010.14 817.87) rotate(176.88)"/><rect class="cls-9" x="700.46" y="526.48" width="4" height="88" transform="translate(994.2 819.17) rotate(176.88)"/><path class="cls-15" d="M814.35,944.8l-5-94.23s-33.43-44.24-50.43-43.32c-24,1.31-50.31,50.82-49.42,48.76l3.9,98.93Z" transform="translate(-440.75 -282.66)"/><path class="cls-15" d="M1074,920.51l-4.55-86.14s-30.56-40.45-46.1-39.6c-21.91,1.2-46,46.45-45.17,44.58l3.56,90.44Z" transform="translate(-440.75 -282.66)"/><rect class="cls-2" x="656.66" y="706.51" width="31" height="251" transform="translate(947.91 1343.51) rotate(176.88)"/><path class="cls-14" d="M801.74,747.33l-99,2.23-4-73.88s20.78-41.36,41.57-45.67,57.39,42.38,57.39,42.38Z" transform="translate(-440.75 -282.66)"/><path class="cls-22" d="M785.19,737.72l-3.32-60.91s-2.49-8.88-11.42-7.39-20.32,13.13-20.93,20.17,2.72,49.93,2.72,49.93Z" transform="translate(-440.75 -282.66)"/><path class="cls-22" d="M742.1,737.06l-2.56-46.93s-6.08-19.7-15.18-21.2-21.93,20.22-21.93,20.22l2.72,49.93Z" transform="translate(-440.75 -282.66)"/><circle class="cls-22" cx="743.62" cy="654.86" r="11" transform="translate(-475.33 -241.17) rotate(-3.12)"/><path class="cls-23" d="M1058.23,740.14l-92,2.23-3.54-65s19.42-36.43,38.75-40.27,53.21,37.12,53.21,37.12Z" transform="translate(-440.75 -282.66)"/><path class="cls-22" d="M1042.75,737l-3.07-56.3s-2.3-8.21-10.55-6.83-18.78,12.13-19.35,18.64,2.52,46.14,2.52,46.14Z" transform="translate(-440.75 -282.66)"/><path class="cls-22" d="M1002.92,736.38,1000.55,693s-5.62-18.21-14-19.6-20.27,18.69-20.27,18.69l2.52,46.14Z" transform="translate(-440.75 -282.66)"/><circle class="cls-22" cx="1004.32" cy="660.41" r="10.17" transform="translate(-475.24 -226.96) rotate(-3.12)"/><polygon class="cls-24" points="622.21 232.09 627.72 232.29 629.41 263.25 236.34 245.13 234.23 215.54 233.96 210.71 622.21 232.09"/><polygon class="cls-25" points="126.96 378.79 125.13 354.36 111.62 327.05 63.69 329.67 75.04 381.63 126.96 378.79"/><path class="cls-19" d="M924.83,928.39l-3.45-63.25s3.18-10.12-10.46-9.38l-13.64.74s-10.06-1.94-9.58,6.74l3.65,67Z" transform="translate(-440.75 -282.66)"/><path class="cls-19" d="M885.32,929.3l-3.45-63.25s3.18-10.12-10.46-9.38l-13.64.74s-10.06-1.94-9.58,6.74l3.65,67Z" transform="translate(-440.75 -282.66)"/><path class="cls-22" d="M860,695.33a7,7,0,0,0,7.61,6.34c-1.52.08,7.07-3.41,6.87-7.13a7.27,7.27,0,0,0-14.48.79Z" transform="translate(-440.75 -282.66)"/><rect class="cls-9" x="672.23" y="739.19" width="415.16" height="16.84" transform="translate(1347.68 1177.26) rotate(177.74)"/><rect class="cls-19" x="948.54" y="748.12" width="31" height="184" transform="translate(1531.67 1343.82) rotate(176.88)"/></svg>