<svg id="Layer_1" data-name="Layer 1" xmlns="http://www.w3.org/2000/svg" xmlns:xlink="http://www.w3.org/1999/xlink" viewBox="0 0 322.44 578.61"><defs><style>.cls-1{fill:none;}.cls-2{isolation:isolate;}.cls-3{fill:#b4b4b4;}.cls-4{clip-path:url(#clip-path);}.cls-5{fill:#2a2a2a;}.cls-6{fill:#282828;}.cls-7{fill:#272727;}.cls-8{fill:#262626;}.cls-9{fill:#252525;}.cls-10{fill:#232323;}.cls-11{fill:#222;}.cls-12{fill:#212121;}.cls-13{clip-path:url(#clip-path-2);}.cls-14{clip-path:url(#clip-path-3);}.cls-15{clip-path:url(#clip-path-4);}.cls-16{fill:#161616;}.cls-17{fill:#151515;}.cls-18{fill:#141414;}.cls-19{clip-path:url(#clip-path-5);}.cls-20{fill:#111;}.cls-21{fill:#121212;}.cls-22{fill:#131313;}.cls-23{fill:#1d1d1d;}.cls-24{clip-path:url(#clip-path-6);}.cls-25{clip-path:url(#clip-path-7);}.cls-26{clip-path:url(#clip-path-8);}.cls-27{clip-path:url(#clip-path-9);}.cls-28{clip-path:url(#clip-path-10);}.cls-29{clip-path:url(#clip-path-11);}.cls-30{clip-path:url(#clip-path-12);}.cls-31{fill:#858585;}.cls-32{clip-path:url(#clip-path-13);}.cls-33{fill:#a8a8a8;}.cls-34{clip-path:url(#clip-path-14);}.cls-35{clip-path:url(#clip-path-15);}.cls-36{clip-path:url(#clip-path-16);}.cls-37{clip-path:url(#clip-path-17);}.cls-38{clip-path:url(#clip-path-18);}.cls-39{clip-path:url(#clip-path-19);}.cls-40{clip-path:url(#clip-path-20);}.cls-41{clip-path:url(#clip-path-21);}.cls-42{clip-path:url(#clip-path-22);}.cls-43{clip-path:url(#clip-path-23);}.cls-44{clip-path:url(#clip-path-24);}.cls-45{clip-path:url(#clip-path-25);}.cls-46{clip-path:url(#clip-path-26);}.cls-47{fill:#202020;}.cls-48{clip-path:url(#clip-path-27);}.cls-49{fill:#373737;}.cls-50{clip-path:url(#clip-path-28);}.cls-51{clip-path:url(#clip-path-29);}.cls-52{clip-path:url(#clip-path-30);}.cls-53{clip-path:url(#clip-path-31);}.cls-54{clip-path:url(#clip-path-32);}.cls-55{clip-path:url(#clip-path-33);}.cls-56{clip-path:url(#clip-path-34);}.cls-57{clip-path:url(#clip-path-35);}.cls-58{clip-path:url(#clip-path-36);}.cls-59{clip-path:url(#clip-path-37);}.cls-60{clip-path:url(#clip-path-38);}.cls-61{clip-path:url(#clip-path-39);}.cls-62{clip-path:url(#clip-path-40);}.cls-63{clip-path:url(#clip-path-41);}.cls-64{clip-path:url(#clip-path-42);}.cls-65{clip-path:url(#clip-path-43);}.cls-66{clip-path:url(#clip-path-44);}.cls-67{clip-path:url(#clip-path-45);}.cls-68{clip-path:url(#clip-path-46);}.cls-69{clip-path:url(#clip-path-47);}.cls-70{clip-path:url(#clip-path-48);}.cls-71{clip-path:url(#clip-path-49);}.cls-72{clip-path:url(#clip-path-50);}.cls-73{clip-path:url(#clip-path-51);}.cls-74{clip-path:url(#clip-path-52);}.cls-75{clip-path:url(#clip-path-53);}.cls-76{clip-path:url(#clip-path-54);}.cls-77{clip-path:url(#clip-path-55);}.cls-78{clip-path:url(#clip-path-56);}.cls-79{clip-path:url(#clip-path-57);}.cls-80{clip-path:url(#clip-path-58);}.cls-81{clip-path:url(#clip-path-59);}.cls-82{clip-path:url(#clip-path-60);}.cls-83{clip-path:url(#clip-path-61);}.cls-84{clip-path:url(#clip-path-62);}.cls-85{clip-path:url(#clip-path-63);}.cls-86{fill:#dfdfdf;}.cls-87{clip-path:url(#clip-path-64);}.cls-88{clip-path:url(#clip-path-65);}.cls-89{clip-path:url(#clip-path-66);}.cls-90{clip-path:url(#clip-path-67);}.cls-91{clip-path:url(#clip-path-68);}.cls-92{clip-path:url(#clip-path-69);}.cls-93{fill:#8a8a8a;}.cls-94{fill:#8f8f8f;}.cls-95{fill:#949494;}.cls-96{fill:#999;}.cls-97{fill:#9e9e9e;}.cls-98{fill:#a3a3a3;}.cls-99{clip-path:url(#clip-path-70);}</style><clipPath id="clip-path" transform="translate(-381.9 -508.5)"><path class="cls-1" d="M655.25,673.54,678,685.94a9.14,9.14,0,0,1,1.3,4.84c0,5.3-4,10.17-8.92,10.86l-22.79-12.4c4.91-.69,8.91-5.56,8.92-10.86A9.14,9.14,0,0,0,655.25,673.54Z"/></clipPath><clipPath id="clip-path-2" transform="translate(-381.9 -508.5)"><path class="cls-1" d="M642.88,688.42a7.63,7.63,0,0,0,4.75.82l22.79,12.4a7.63,7.63,0,0,1-4.75-.82Z"/></clipPath><clipPath id="clip-path-3" transform="translate(-381.9 -508.5)"><path class="cls-1" d="M655.25,673.54a7.59,7.59,0,0,0-2.83-2.71l22.79,12.4a7.59,7.59,0,0,1,2.83,2.71Z"/></clipPath><clipPath id="clip-path-4" transform="translate(-381.9 -508.5)"><path class="cls-1" d="M652.42,670.83l22.79,12.4a7.62,7.62,0,0,0-4.75-.82L647.67,670A7.62,7.62,0,0,1,652.42,670.83Z"/></clipPath><clipPath id="clip-path-5" transform="translate(-381.9 -508.5)"><path class="cls-1" d="M665.68,700.82l-22.79-12.4a8.33,8.33,0,0,1-4.13-7.54c0-5.31,4-10.17,8.92-10.86l22.79,12.4c-4.92.69-8.91,5.56-8.92,10.86A8.33,8.33,0,0,0,665.68,700.82Z"/></clipPath><clipPath id="clip-path-6" transform="translate(-381.9 -508.5)"><path class="cls-1" d="M608.47,694.74c4.92-.69,8.91-5.56,8.92-10.85l22.79,12.4c0,5.3-4,10.16-8.92,10.85Z"/></clipPath><clipPath id="clip-path-7" transform="translate(-381.9 -508.5)"><path class="cls-1" d="M603.72,693.92a7.63,7.63,0,0,0,4.75.82l22.79,12.4a7.63,7.63,0,0,1-4.75-.82Z"/></clipPath><clipPath id="clip-path-8" transform="translate(-381.9 -508.5)"><path class="cls-1" d="M617.39,683.88a8.33,8.33,0,0,0-4.13-7.55l22.79,12.4a8.33,8.33,0,0,1,4.13,7.55h0l-22.79-12.4Z"/></clipPath><clipPath id="clip-path-9" transform="translate(-381.9 -508.5)"><path class="cls-1" d="M613.26,676.33l22.79,12.4a7.62,7.62,0,0,0-4.75-.82l-22.79-12.4A7.62,7.62,0,0,1,613.26,676.33Z"/></clipPath><clipPath id="clip-path-10" transform="translate(-381.9 -508.5)"><path class="cls-1" d="M626.51,706.32l-22.79-12.4a8.33,8.33,0,0,1-4.13-7.54c0-5.31,4-10.17,8.92-10.86l22.79,12.4c-4.92.69-8.91,5.56-8.92,10.86A8.33,8.33,0,0,0,626.51,706.32Z"/></clipPath><clipPath id="clip-path-11" transform="translate(-381.9 -508.5)"><path class="cls-1" d="M590.63,741.69l-11.53-6.27-1.29-.7-2.54-1.38L572.82,732l-1.18-.64c-.34-.19-.75-.62-1.14-.62l22.79,12.4Z"/></clipPath><clipPath id="clip-path-12" transform="translate(-381.9 -508.5)"><path class="cls-1" d="M565.17,1063.85c7.65-32.51,7.27-193,5.33-333.12L581.9,737l8.73,4.72,2.66,1.45c1.95,140.07,2.32,300.61-5.33,333.12Z"/></clipPath><clipPath id="clip-path-13" transform="translate(-381.9 -508.5)"><path class="cls-1" d="M593.3,743.13l-22.79-12.4.88-.07,22.79,12.4Z"/></clipPath><clipPath id="clip-path-14" transform="translate(-381.9 -508.5)"><path class="cls-1" d="M590.63,741.69l2.66,1.45a3.61,3.61,0,0,1-1.51-.11L569,730.63a3.61,3.61,0,0,0,1.51.11l8.6,4.68,5.22,2.84Z"/></clipPath><clipPath id="clip-path-15" transform="translate(-381.9 -508.5)"><path class="cls-1" d="M591.79,743,569,730.63a.25.25,0,0,1-.09-.07L591.7,743A.25.25,0,0,0,591.79,743Z"/></clipPath><clipPath id="clip-path-16" transform="translate(-381.9 -508.5)"><path class="cls-1" d="M541.56,789.62a8.68,8.68,0,0,0-2.6-6.43l22.79,12.4a8.68,8.68,0,0,1,2.6,6.43c0,5.3-4,10.17-8.93,10.86l-22.79-12.4C537.56,799.78,541.55,794.92,541.56,789.62Z"/></clipPath><clipPath id="clip-path-17" transform="translate(-381.9 -508.5)"><path class="cls-1" d="M529.18,800.21a7.81,7.81,0,0,0,3.46.27l22.79,12.4a7.81,7.81,0,0,1-3.46-.27Z"/></clipPath><clipPath id="clip-path-18" transform="translate(-381.9 -508.5)"><path class="cls-1" d="M527.89,799.66a7.32,7.32,0,0,0,1.29.55L552,812.61a7.32,7.32,0,0,1-1.29-.55Z"/></clipPath><clipPath id="clip-path-19" transform="translate(-381.9 -508.5)"><path class="cls-1" d="M539,783.19a7.41,7.41,0,0,0-1.54-1.11l22.79,12.4a7.41,7.41,0,0,1,1.54,1.11l-11.4-6.2-1.49-.81-4.42-2.4-1.43-.78-1.39-.76A26.32,26.32,0,0,1,539,783.19Z"/></clipPath><clipPath id="clip-path-20" transform="translate(-381.9 -508.5)"><path class="cls-1" d="M537.43,782.07l22.79,12.4a7.63,7.63,0,0,0-4.76-.82l-22.79-12.4A7.63,7.63,0,0,1,537.43,782.07Z"/></clipPath><clipPath id="clip-path-21" transform="translate(-381.9 -508.5)"><path class="cls-1" d="M550.68,812.06l-22.79-12.4a8.33,8.33,0,0,1-4.13-7.54c0-5.31,4-10.17,8.92-10.86l22.79,12.4c-4.91.69-8.91,5.56-8.92,10.86A8.33,8.33,0,0,0,550.68,812.06Z"/></clipPath><clipPath id="clip-path-22" transform="translate(-381.9 -508.5)"><path class="cls-1" d="M541.65,744.46a9.45,9.45,0,0,0-.69-3.64l22.79,12.4a9.45,9.45,0,0,1,.69,3.64c0,5.31-4,10.17-8.93,10.86l-22.79-12.4C537.64,754.63,541.64,749.77,541.65,744.46Z"/></clipPath><clipPath id="clip-path-23" transform="translate(-381.9 -508.5)"><path class="cls-1" d="M528,754.5a7.63,7.63,0,0,0,4.75.82l22.79,12.4a7.63,7.63,0,0,1-4.75-.82Z"/></clipPath><clipPath id="clip-path-24" transform="translate(-381.9 -508.5)"><path class="cls-1" d="M541,740.82a7.75,7.75,0,0,0-3.44-3.9l22.79,12.4a7.75,7.75,0,0,1,3.44,3.9l-11.4-6.2-8.73-4.75A10.14,10.14,0,0,1,541,740.82Z"/></clipPath><clipPath id="clip-path-25" transform="translate(-381.9 -508.5)"><path class="cls-1" d="M537.52,736.92l22.79,12.4a7.64,7.64,0,0,0-4.76-.82l-22.79-12.4A7.64,7.64,0,0,1,537.52,736.92Z"/></clipPath><clipPath id="clip-path-26" transform="translate(-381.9 -508.5)"><path class="cls-1" d="M550.76,766.9,528,754.5a8.32,8.32,0,0,1-4.13-7.54c0-5.3,4-10.17,8.92-10.86l22.79,12.4c-4.91.69-8.91,5.56-8.92,10.86A8.32,8.32,0,0,0,550.76,766.9Z"/></clipPath><clipPath id="clip-path-27" transform="translate(-381.9 -508.5)"><path class="cls-1" d="M678.26,636.25,701,648.65c-1.67-.91-13.9.43-29.73,2.65-27.59,3.88-66.08,10.46-78.42,12.6L592,664l-3.09.54-22.79-12.4,3.09-.54.89-.15c12.34-2.14,50.83-8.72,78.42-12.6C664.35,636.67,676.59,635.34,678.26,636.25Z"/></clipPath><clipPath id="clip-path-28" transform="translate(-381.9 -508.5)"><path class="cls-1" d="M541.74,695.47a8.66,8.66,0,0,0-2.6-6.43l22.79,12.4a8.66,8.66,0,0,1,2.6,6.43c0,5.3-4,10.17-8.93,10.86l-22.79-12.4C537.73,705.64,541.73,700.77,541.74,695.47Z"/></clipPath><clipPath id="clip-path-29" transform="translate(-381.9 -508.5)"><path class="cls-1" d="M528.06,705.51a7.62,7.62,0,0,0,4.75.82l22.79,12.4a7.62,7.62,0,0,1-4.75-.82Z"/></clipPath><clipPath id="clip-path-30" transform="translate(-381.9 -508.5)"><path class="cls-1" d="M539.14,689a7.4,7.4,0,0,0-1.53-1.11l22.79,12.4a7.4,7.4,0,0,1,1.53,1.11l-11.4-6.2-1.49-.81-4.42-2.4-2.82-1.54A26.39,26.39,0,0,1,539.14,689Z"/></clipPath><clipPath id="clip-path-31" transform="translate(-381.9 -508.5)"><path class="cls-1" d="M537.61,687.94l22.79,12.4a7.64,7.64,0,0,0-4.76-.82l-22.79-12.4A7.64,7.64,0,0,1,537.61,687.94Z"/></clipPath><clipPath id="clip-path-32" transform="translate(-381.9 -508.5)"><path class="cls-1" d="M550.86,717.91l-22.79-12.4a8.33,8.33,0,0,1-4.13-7.54c0-5.31,4-10.17,8.92-10.86l22.79,12.4c-4.91.69-8.91,5.55-8.92,10.86A8.33,8.33,0,0,0,550.86,717.91Z"/></clipPath><clipPath id="clip-path-33" transform="translate(-381.9 -508.5)"><path class="cls-1" d="M541.89,615.73a9.45,9.45,0,0,0-.69-3.64L564,624.49a9.45,9.45,0,0,1,.69,3.64c0,5.31-4,10.17-8.93,10.87L533,626.6C537.88,625.91,541.88,621,541.89,615.73Z"/></clipPath><clipPath id="clip-path-34" transform="translate(-381.9 -508.5)"><path class="cls-1" d="M529.5,626.33a7.81,7.81,0,0,0,3.46.27L555.75,639a7.81,7.81,0,0,1-3.46-.27Z"/></clipPath><clipPath id="clip-path-35" transform="translate(-381.9 -508.5)"><path class="cls-1" d="M528.21,625.78a7.32,7.32,0,0,0,1.29.55l22.79,12.4a7.32,7.32,0,0,1-1.29-.55Z"/></clipPath><clipPath id="clip-path-36" transform="translate(-381.9 -508.5)"><path class="cls-1" d="M541.19,612.09a7.75,7.75,0,0,0-3.44-3.9l22.79,12.4a7.75,7.75,0,0,1,3.44,3.9Z"/></clipPath><clipPath id="clip-path-37" transform="translate(-381.9 -508.5)"><path class="cls-1" d="M537.75,608.2l22.79,12.4a7.64,7.64,0,0,0-4.76-.82L533,607.38A7.64,7.64,0,0,1,537.75,608.2Z"/></clipPath><clipPath id="clip-path-38" transform="translate(-381.9 -508.5)"><path class="cls-1" d="M551,638.18l-22.79-12.4a8.33,8.33,0,0,1-4.13-7.55c0-5.3,4-10.17,8.92-10.86l22.79,12.4c-4.91.69-8.91,5.56-8.92,10.86A8.33,8.33,0,0,0,551,638.18Z"/></clipPath><clipPath id="clip-path-39" transform="translate(-381.9 -508.5)"><path class="cls-1" d="M542,569.62a9.47,9.47,0,0,0-.69-3.64l22.79,12.4a9.47,9.47,0,0,1,.69,3.64c0,5.22-3.88,10-8.69,10.82l-22.79-12.4C538.09,579.63,542,574.85,542,569.62Z"/></clipPath><clipPath id="clip-path-40" transform="translate(-381.9 -508.5)"><path class="cls-1" d="M533,580.48l.24,0,22.79,12.4-.24,0Z"/></clipPath><clipPath id="clip-path-41" transform="translate(-381.9 -508.5)"><path class="cls-1" d="M540.65,564.76l15,8.17,5.33,2.9,2.45,1.33a8.32,8.32,0,0,1,.63,1.22L541.28,566A8.32,8.32,0,0,0,540.65,564.76Z"/></clipPath><clipPath id="clip-path-42" transform="translate(-381.9 -508.5)"><path class="cls-1" d="M540.65,564.76a7.79,7.79,0,0,0-1.28-1.56l22.79,12.4a7.79,7.79,0,0,1,1.28,1.56l-6-3.25-10-5.42-1.16-.63-3.53-1.92-.57-.31-1.09-.59A2.58,2.58,0,0,1,540.65,564.76Z"/></clipPath><clipPath id="clip-path-43" transform="translate(-381.9 -508.5)"><path class="cls-1" d="M538.2,562.29,561,574.69a7.42,7.42,0,0,1,1.18.9l-22.79-12.4A7.42,7.42,0,0,0,538.2,562.29Z"/></clipPath><clipPath id="clip-path-44" transform="translate(-381.9 -508.5)"><path class="cls-1" d="M528.29,579.66a7.63,7.63,0,0,0,4.75.82l22.79,12.4a7.63,7.63,0,0,1-4.75-.82Z"/></clipPath><clipPath id="clip-path-45" transform="translate(-381.9 -508.5)"><path class="cls-1" d="M538.2,562.29l-.36-.21,22.79,12.4.36.21-.72-.39-12.41-6.75-5.21-2.83-3.87-2.1Z"/></clipPath><clipPath id="clip-path-46" transform="translate(-381.9 -508.5)"><path class="cls-1" d="M569.22,651.65c-1.42-77.41-2.95-136.19-3.11-142.1L588.91,522c.16,5.91,1.69,64.68,3.11,142.1Z"/></clipPath><clipPath id="clip-path-47" transform="translate(-381.9 -508.5)"><path class="cls-1" d="M537.84,562.09l22.79,12.4a7.64,7.64,0,0,0-4.76-.82l-22.79-12.4A7.64,7.64,0,0,1,537.84,562.09Z"/></clipPath><clipPath id="clip-path-48" transform="translate(-381.9 -508.5)"><path class="cls-1" d="M551.09,592.06l-22.79-12.4a8.32,8.32,0,0,1-4.13-7.54c0-5.31,4-10.17,8.92-10.86l22.79,12.4c-4.91.69-8.91,5.55-8.92,10.86A8.32,8.32,0,0,0,551.09,592.06Z"/></clipPath><clipPath id="clip-path-49" transform="translate(-381.9 -508.5)"><path class="cls-1" d="M518,515.48c19.31-2.71,44.59-5.53,48.15-5.93L588.91,522c-3.56.39-28.85,3.21-48.15,5.93Z"/></clipPath><clipPath id="clip-path-50" transform="translate(-381.9 -508.5)"><path class="cls-1" d="M515.7,750.53l-22.79-12.4,2.92-.59,22.79,12.4Z"/></clipPath><clipPath id="clip-path-51" transform="translate(-381.9 -508.5)"><path class="cls-1" d="M495.64,1073.63c-.13-10.45-2.29-185.45-2.73-335.5l11.4,6.23c4.29,2.33,6.55,3.55,8.73,4.72l2.66,1.45c.45,150,2.6,325,2.73,335.5Z"/></clipPath><clipPath id="clip-path-52" transform="translate(-381.9 -508.5)"><path class="cls-1" d="M514.81,750.71,492,738.31l.89-.18,22.79,12.4Z"/></clipPath><clipPath id="clip-path-53" transform="translate(-381.9 -508.5)"><path class="cls-1" d="M496,665.89a1.18,1.18,0,0,0-.75-1L518,677.27a1.18,1.18,0,0,1,.75,1l-.13,71.66-22.79-12.4Z"/></clipPath><clipPath id="clip-path-54" transform="translate(-381.9 -508.5)"><path class="cls-1" d="M456.27,716.13c4.92-.69,8.91-5.56,8.92-10.85L488,717.67c0,5.3-4,10.16-8.92,10.85Z"/></clipPath><clipPath id="clip-path-55" transform="translate(-381.9 -508.5)"><path class="cls-1" d="M451.52,715.31a7.63,7.63,0,0,0,4.75.82l22.79,12.4a7.63,7.63,0,0,1-4.75-.82Z"/></clipPath><clipPath id="clip-path-56" transform="translate(-381.9 -508.5)"><path class="cls-1" d="M465.19,705.27a8.33,8.33,0,0,0-4.13-7.55l22.79,12.4a8.33,8.33,0,0,1,4.13,7.55h0l-12.89-7-3-1.61-1.45-.79-1.43-.78-1.39-.76L466.5,706c-.39-.21-.86-.71-1.31-.71Z"/></clipPath><clipPath id="clip-path-57" transform="translate(-381.9 -508.5)"><path class="cls-1" d="M461.06,697.72l22.79,12.4a7.62,7.62,0,0,0-4.75-.82l-22.79-12.4A7.62,7.62,0,0,1,461.06,697.72Z"/></clipPath><clipPath id="clip-path-58" transform="translate(-381.9 -508.5)"><path class="cls-1" d="M474.31,727.71l-22.79-12.4a8.33,8.33,0,0,1-4.13-7.54c0-5.31,4-10.17,8.92-10.86l22.79,12.4c-4.92.69-8.91,5.56-8.92,10.86A8.33,8.33,0,0,0,474.31,727.71Z"/></clipPath><clipPath id="clip-path-59" transform="translate(-381.9 -508.5)"><path class="cls-1" d="M426,711.73a8.67,8.67,0,0,0-2.59-6.43l22.79,12.4a8.67,8.67,0,0,1,2.59,6.43c0,5.3-4,10.17-8.92,10.86l-22.79-12.4C422,721.9,426,717,426,711.73Z"/></clipPath><clipPath id="clip-path-60" transform="translate(-381.9 -508.5)"><path class="cls-1" d="M412.36,721.77a7.63,7.63,0,0,0,4.75.82L439.9,735a7.63,7.63,0,0,1-4.75-.82Z"/></clipPath><clipPath id="clip-path-61" transform="translate(-381.9 -508.5)"><path class="cls-1" d="M423.43,705.31a7.39,7.39,0,0,0-1.53-1.11l22.79,12.4a7.39,7.39,0,0,1,1.53,1.11l-11.4-6.2-1.49-.81-3-1.61-2.88-1.57-2.75-1.5A12.93,12.93,0,0,1,423.43,705.31Z"/></clipPath><clipPath id="clip-path-62" transform="translate(-381.9 -508.5)"><path class="cls-1" d="M421.9,704.2l22.79,12.4a7.63,7.63,0,0,0-4.76-.82l-22.79-12.4A7.63,7.63,0,0,1,421.9,704.2Z"/></clipPath><clipPath id="clip-path-63" transform="translate(-381.9 -508.5)"><path class="cls-1" d="M435.15,734.17l-22.79-12.4a8.33,8.33,0,0,1-4.13-7.54c0-5.31,4-10.17,8.92-10.86l22.79,12.4c-4.92.69-8.91,5.55-8.92,10.86A8.32,8.32,0,0,0,435.15,734.17Z"/></clipPath><clipPath id="clip-path-64" transform="translate(-381.9 -508.5)"><path class="cls-1" d="M494.77,1074.71c0-2.58-2.29-182.58-2.75-336.4,3.8,2.07,7.59,4.16,11.4,6.23,1.1.6,5.39,2.92,8.73,4.72l2.66,1.45c.46,153.82,2.71,333.82,2.75,336.4Z"/></clipPath><clipPath id="clip-path-65" transform="translate(-381.9 -508.5)"><path class="cls-1" d="M405.18,767l-22.79-12.4a.75.75,0,0,1-.48-.64l22.79,12.4A.75.75,0,0,0,405.18,767Z"/></clipPath><clipPath id="clip-path-66" transform="translate(-381.9 -508.5)"><path class="cls-1" d="M496.33,519.36c2.62-1,11.24-2.42,21.57-3.87l22.79,12.4c-10.34,1.45-19,2.87-21.57,3.87Z"/></clipPath><clipPath id="clip-path-67" transform="translate(-381.9 -508.5)"><path class="cls-1" d="M492.85,664.24c.22-116.79,2.06-143.23,3.48-144.88l20.13,11,2.66,1.45c-1.42,1.65-3.26,28.09-3.48,144.88Z"/></clipPath><clipPath id="clip-path-68" transform="translate(-381.9 -508.5)"><path class="cls-1" d="M404.83,694.3,382,681.9c2.53-.55,50.64-11,84.4-15.7,11.18-1.57,20.5-2.46,25.53-2l.89.09,22.79,12.4-.89-.09c-5-.42-14.35.47-25.53,2C455.47,683.34,407.36,693.75,404.83,694.3Z"/></clipPath><clipPath id="clip-path-69" transform="translate(-381.9 -508.5)"><path class="cls-1" d="M514.75,676.55,492,664.15c.28-144.21,3-145.26,4.18-145.7,2.73-1,11.55-2.49,22.06-4,20.21-2.84,46.69-5.76,48.37-5.94l22.79,12.4c-1.68.18-28.16,3.1-48.37,5.94-10.51,1.48-19.33,2.93-22.06,4C517.76,531.29,515,532.34,514.75,676.55Z"/></clipPath><clipPath id="clip-path-70" transform="translate(-381.9 -508.5)"><path class="cls-1" d="M404.7,766.34l-22.79-12.4.13-72,22.79,12.4Z"/></clipPath></defs><title>cross</title><g class="cls-2"><polygon class="cls-3" points="136.53 577.53 113.74 565.13 183.27 555.36 206.06 567.76 136.53 577.53"/><g class="cls-2"><g class="cls-4"><g class="cls-2"><path class="cls-5" d="M670.43,701.63l-22.79-12.4a9.08,9.08,0,0,0,2.6-.78L673,700.85a9.08,9.08,0,0,1-2.6.78" transform="translate(-381.9 -508.5)"/><path class="cls-6" d="M673,700.85l-22.79-12.4a10.07,10.07,0,0,0,1.45-.83L674.47,700a10.07,10.07,0,0,1-1.45.83" transform="translate(-381.9 -508.5)"/><path class="cls-7" d="M674.47,700l-22.79-12.4a10.77,10.77,0,0,0,1.08-.85l22.79,12.4a10.77,10.77,0,0,1-1.08.85" transform="translate(-381.9 -508.5)"/><path class="cls-8" d="M675.55,699.17l-22.79-12.4a11.28,11.28,0,0,0,.91-.92l22.79,12.4a11.28,11.28,0,0,1-.91.92" transform="translate(-381.9 -508.5)"/><path class="cls-9" d="M676.46,698.25l-22.79-12.4a11.6,11.6,0,0,0,.8-1l22.79,12.4a11.6,11.6,0,0,1-.8,1" transform="translate(-381.9 -508.5)"/><path class="cls-10" d="M677.26,697.23l-22.79-12.4a11.73,11.73,0,0,0,.73-1.18L678,696.05a11.73,11.73,0,0,1-.73,1.18" transform="translate(-381.9 -508.5)"/><path class="cls-11" d="M678,696.05l-22.79-12.4a11.63,11.63,0,0,0,.67-1.5l22.79,12.4a11.63,11.63,0,0,1-.67,1.5" transform="translate(-381.9 -508.5)"/><path class="cls-12" d="M678.66,694.55l-22.79-12.4a11,11,0,0,0,.68-3.78,8.33,8.33,0,0,0-4.13-7.55l22.79,12.4a8.33,8.33,0,0,1,4.13,7.55,11,11,0,0,1-.68,3.78" transform="translate(-381.9 -508.5)"/></g></g></g><g class="cls-2"><g class="cls-13"><g class="cls-2"><path class="cls-7" d="M665.68,700.82l-22.79-12.4.27.14L665.95,701l-.27-.14" transform="translate(-381.9 -508.5)"/><path class="cls-6" d="M665.95,701l-22.79-12.4a7.34,7.34,0,0,0,1.41.52l22.79,12.4a7.34,7.34,0,0,1-1.41-.52" transform="translate(-381.9 -508.5)"/><path class="cls-5" d="M667.35,701.48l-22.79-12.4a7.89,7.89,0,0,0,3.08.16l22.79,12.4a7.89,7.89,0,0,1-3.08-.16" transform="translate(-381.9 -508.5)"/></g></g></g><g class="cls-2"><g class="cls-14"><g class="cls-2"><path class="cls-12" d="M678.66,694.55l-22.79-12.4a11,11,0,0,0,.68-3.78,8.33,8.33,0,0,0-4.13-7.55l22.79,12.4a8.33,8.33,0,0,1,4.13,7.55,11,11,0,0,1-.68,3.78" transform="translate(-381.9 -508.5)"/></g></g></g><g class="cls-2"><g class="cls-15"><g class="cls-2"><path class="cls-16" d="M670.46,682.41,647.67,670a7.88,7.88,0,0,1,3.07.16l22.79,12.4a7.88,7.88,0,0,0-3.07-.16" transform="translate(-381.9 -508.5)"/><path class="cls-17" d="M673.53,682.57l-22.79-12.4a7.34,7.34,0,0,1,1.41.52l22.79,12.4a7.34,7.34,0,0,0-1.41-.52" transform="translate(-381.9 -508.5)"/><path class="cls-18" d="M674.94,683.09l-22.79-12.4.27.14,22.79,12.4-.27-.14" transform="translate(-381.9 -508.5)"/></g></g></g><g class="cls-2"><g class="cls-19"><g class="cls-2"><path class="cls-20" d="M665.68,700.82l-22.79-12.4a8.33,8.33,0,0,1-4.13-7.54,11.06,11.06,0,0,1,.69-3.79l22.79,12.4a11.06,11.06,0,0,0-.69,3.79,8.33,8.33,0,0,0,4.13,7.54" transform="translate(-381.9 -508.5)"/><path class="cls-21" d="M662.23,689.49l-22.79-12.4a11.63,11.63,0,0,1,.67-1.5L662.91,688a11.63,11.63,0,0,0-.67,1.5" transform="translate(-381.9 -508.5)"/><path class="cls-21" d="M662.91,688l-22.79-12.4a11.72,11.72,0,0,1,.73-1.18l22.79,12.4a11.72,11.72,0,0,0-.73,1.18" transform="translate(-381.9 -508.5)"/><path class="cls-22" d="M663.63,686.81l-22.79-12.4a11.59,11.59,0,0,1,.8-1l22.79,12.4a11.59,11.59,0,0,0-.8,1" transform="translate(-381.9 -508.5)"/><path class="cls-18" d="M664.44,685.8l-22.79-12.4a11.26,11.26,0,0,1,.91-.92l22.79,12.4a11.26,11.26,0,0,0-.91.92" transform="translate(-381.9 -508.5)"/><path class="cls-18" d="M665.34,684.88l-22.79-12.4a10.76,10.76,0,0,1,1.08-.85L666.42,684a10.76,10.76,0,0,0-1.08.85" transform="translate(-381.9 -508.5)"/><path class="cls-17" d="M666.42,684l-22.79-12.4a10.06,10.06,0,0,1,1.44-.83l22.79,12.4a10.06,10.06,0,0,0-1.44.83" transform="translate(-381.9 -508.5)"/><path class="cls-16" d="M667.86,683.19l-22.79-12.4a9.1,9.1,0,0,1,2.6-.78l22.79,12.4a9.1,9.1,0,0,0-2.6.78" transform="translate(-381.9 -508.5)"/></g></g></g><path class="cls-23" d="M670.46,682.41c4.91-.69,8.89,3.05,8.88,8.36s-4,10.17-8.92,10.86-8.89-3.05-8.88-8.35S665.55,683.1,670.46,682.41Z" transform="translate(-381.9 -508.5)"/><g class="cls-2"><g class="cls-24"><g class="cls-2"><path class="cls-5" d="M631.27,707.14l-22.79-12.4a9.1,9.1,0,0,0,2.6-.78l22.79,12.4a9.1,9.1,0,0,1-2.6.78" transform="translate(-381.9 -508.5)"/><path class="cls-6" d="M633.87,706.35,611.07,694a10.06,10.06,0,0,0,1.45-.83l22.79,12.4a10.06,10.06,0,0,1-1.45.83" transform="translate(-381.9 -508.5)"/><path class="cls-7" d="M635.31,705.52l-22.79-12.4a10.76,10.76,0,0,0,1.08-.85l22.79,12.4a10.76,10.76,0,0,1-1.08.85" transform="translate(-381.9 -508.5)"/><path class="cls-8" d="M636.39,704.67l-22.79-12.4a11.27,11.27,0,0,0,.91-.92l22.79,12.4a11.27,11.27,0,0,1-.91.92" transform="translate(-381.9 -508.5)"/><path class="cls-9" d="M637.3,703.75l-22.79-12.4a11.59,11.59,0,0,0,.8-1l22.79,12.4a11.59,11.59,0,0,1-.8,1" transform="translate(-381.9 -508.5)"/><path class="cls-10" d="M638.1,702.73l-22.79-12.4a11.72,11.72,0,0,0,.73-1.18l22.79,12.4a11.72,11.72,0,0,1-.73,1.18" transform="translate(-381.9 -508.5)"/><path class="cls-11" d="M638.82,701.56,616,689.16a11.62,11.62,0,0,0,.67-1.5l22.79,12.4a11.62,11.62,0,0,1-.67,1.5" transform="translate(-381.9 -508.5)"/><path class="cls-12" d="M639.5,700.06l-22.79-12.4a11,11,0,0,0,.69-3.78,8.33,8.33,0,0,0-4.13-7.55l22.79,12.4a8.33,8.33,0,0,1,4.13,7.55,11,11,0,0,1-.69,3.78" transform="translate(-381.9 -508.5)"/></g></g></g><g class="cls-2"><g class="cls-25"><g class="cls-2"><path class="cls-7" d="M626.51,706.32l-22.79-12.4.27.14,22.79,12.4-.27-.14" transform="translate(-381.9 -508.5)"/><path class="cls-6" d="M626.78,706.46,604,694.06a7.34,7.34,0,0,0,1.41.52L628.19,707a7.34,7.34,0,0,1-1.41-.52" transform="translate(-381.9 -508.5)"/><path class="cls-5" d="M628.19,707l-22.79-12.4a7.89,7.89,0,0,0,3.08.16l22.79,12.4a7.89,7.89,0,0,1-3.08-.16" transform="translate(-381.9 -508.5)"/></g></g></g><g class="cls-2"><g class="cls-26"><g class="cls-2"><path class="cls-12" d="M639.5,700.06l-22.79-12.4a11,11,0,0,0,.69-3.78,8.33,8.33,0,0,0-4.13-7.55l22.79,12.4a8.33,8.33,0,0,1,4.13,7.55,11,11,0,0,1-.69,3.78" transform="translate(-381.9 -508.5)"/></g></g></g><g class="cls-2"><g class="cls-27"><g class="cls-2"><path class="cls-16" d="M631.3,687.92l-22.79-12.4a7.89,7.89,0,0,1,3.07.16l22.79,12.4a7.89,7.89,0,0,0-3.07-.16" transform="translate(-381.9 -508.5)"/><path class="cls-17" d="M634.38,688.07l-22.79-12.4a7.33,7.33,0,0,1,1.41.52l22.79,12.4a7.33,7.33,0,0,0-1.41-.52" transform="translate(-381.9 -508.5)"/><path class="cls-18" d="M635.78,688.59,613,676.19l.27.14,22.79,12.4-.27-.14" transform="translate(-381.9 -508.5)"/></g></g></g><g class="cls-2"><g class="cls-28"><g class="cls-2"><path class="cls-20" d="M626.51,706.32l-22.79-12.4a8.33,8.33,0,0,1-4.13-7.54,11.06,11.06,0,0,1,.69-3.79L623.07,695a11.06,11.06,0,0,0-.69,3.79,8.33,8.33,0,0,0,4.13,7.54" transform="translate(-381.9 -508.5)"/><path class="cls-21" d="M623.07,695l-22.79-12.4a11.63,11.63,0,0,1,.67-1.5l22.79,12.4a11.63,11.63,0,0,0-.67,1.5" transform="translate(-381.9 -508.5)"/><path class="cls-21" d="M623.75,693.49,601,681.09a11.72,11.72,0,0,1,.73-1.18l22.79,12.4a11.72,11.72,0,0,0-.73,1.18" transform="translate(-381.9 -508.5)"/><path class="cls-22" d="M624.47,692.32l-22.79-12.4a11.59,11.59,0,0,1,.8-1l22.79,12.4a11.59,11.59,0,0,0-.8,1" transform="translate(-381.9 -508.5)"/><path class="cls-18" d="M625.27,691.3l-22.79-12.4a11.26,11.26,0,0,1,.91-.92l22.79,12.4a11.26,11.26,0,0,0-.91.92" transform="translate(-381.9 -508.5)"/><path class="cls-18" d="M626.18,690.38,603.39,678a10.76,10.76,0,0,1,1.08-.85l22.79,12.4a10.76,10.76,0,0,0-1.08.85" transform="translate(-381.9 -508.5)"/><path class="cls-17" d="M627.26,689.53l-22.79-12.4a10.06,10.06,0,0,1,1.44-.83l22.79,12.4a10.06,10.06,0,0,0-1.44.83" transform="translate(-381.9 -508.5)"/><path class="cls-16" d="M628.7,688.7l-22.79-12.4a9.1,9.1,0,0,1,2.6-.78l22.79,12.4a9.1,9.1,0,0,0-2.6.78" transform="translate(-381.9 -508.5)"/></g></g></g><path class="cls-23" d="M631.3,687.92c4.92-.69,8.89,3.05,8.88,8.36s-4,10.17-8.92,10.86-8.89-3.05-8.88-8.35S626.38,688.61,631.3,687.92Z" transform="translate(-381.9 -508.5)"/><g class="cls-2"><g class="cls-29"><g class="cls-2"><path class="cls-5" d="M591.94,743.09l-22.79-12.4a5.1,5.1,0,0,0,1.35,0l22.79,12.4a5.1,5.1,0,0,1-1.35,0" transform="translate(-381.9 -508.5)"/></g></g></g><g class="cls-2"><g class="cls-30"><g class="cls-2"><path class="cls-31" d="M588,1076.25l-22.79-12.4c7.65-32.51,7.27-193,5.33-333.12l22.79,12.4c1.95,140.07,2.32,300.61-5.33,333.12" transform="translate(-381.9 -508.5)"/></g></g></g><g class="cls-2"><g class="cls-32"><g class="cls-2"><path class="cls-33" d="M593.3,743.13l-22.79-12.4.88-.07,22.79,12.4-.88.07" transform="translate(-381.9 -508.5)"/></g></g></g><g class="cls-2"><g class="cls-34"><g class="cls-2"><path class="cls-7" d="M591.79,743,569,730.63h0L591.8,743h0" transform="translate(-381.9 -508.5)"/><path class="cls-6" d="M591.8,743,569,730.64l.14,0,22.79,12.4-.14,0" transform="translate(-381.9 -508.5)"/><path class="cls-5" d="M591.94,743.09l-22.79-12.4a5.1,5.1,0,0,0,1.35,0l22.79,12.4a5.1,5.1,0,0,1-1.35,0" transform="translate(-381.9 -508.5)"/></g></g></g><g class="cls-2"><g class="cls-35"><g class="cls-2"><path class="cls-12" d="M591.79,743,569,730.63a.25.25,0,0,1-.09-.07L591.7,743a.25.25,0,0,0,.09.07" transform="translate(-381.9 -508.5)"/></g></g></g><g class="cls-2"><g class="cls-36"><g class="cls-2"><path class="cls-5" d="M555.43,812.87l-22.79-12.4a9.1,9.1,0,0,0,2.6-.78L558,812.09a9.1,9.1,0,0,1-2.6.78" transform="translate(-381.9 -508.5)"/><path class="cls-6" d="M558,812.09l-22.79-12.4a10.08,10.08,0,0,0,1.45-.83l22.79,12.4a10.08,10.08,0,0,1-1.45.83" transform="translate(-381.9 -508.5)"/><path class="cls-7" d="M559.48,811.26l-22.79-12.4a10.78,10.78,0,0,0,1.08-.85l22.79,12.4a10.78,10.78,0,0,1-1.08.85" transform="translate(-381.9 -508.5)"/><path class="cls-8" d="M560.56,810.4,537.77,798a11.28,11.28,0,0,0,.91-.92l22.79,12.4a11.28,11.28,0,0,1-.91.92" transform="translate(-381.9 -508.5)"/><path class="cls-9" d="M561.47,809.48l-22.79-12.4a11.6,11.6,0,0,0,.8-1l22.79,12.4a11.6,11.6,0,0,1-.8,1" transform="translate(-381.9 -508.5)"/><path class="cls-10" d="M562.27,808.47l-22.79-12.4a11.72,11.72,0,0,0,.73-1.18L563,807.29a11.72,11.72,0,0,1-.73,1.18" transform="translate(-381.9 -508.5)"/><path class="cls-11" d="M563,807.29l-22.79-12.4a11.62,11.62,0,0,0,.67-1.5l22.79,12.4a11.62,11.62,0,0,1-.67,1.5" transform="translate(-381.9 -508.5)"/><path class="cls-12" d="M563.67,805.79l-22.79-12.4a11,11,0,0,0,.68-3.77,8.33,8.33,0,0,0-4.13-7.54l22.79,12.4a8.33,8.33,0,0,1,4.13,7.54,11,11,0,0,1-.68,3.77" transform="translate(-381.9 -508.5)"/></g></g></g><g class="cls-2"><g class="cls-37"><g class="cls-2"><path class="cls-6" d="M551,812.2l-22.79-12.4a7.34,7.34,0,0,0,1.41.52l22.79,12.4a7.34,7.34,0,0,1-1.41-.52" transform="translate(-381.9 -508.5)"/><path class="cls-5" d="M552.36,812.72l-22.79-12.4a7.88,7.88,0,0,0,3.07.16l22.79,12.4a7.88,7.88,0,0,1-3.07-.16" transform="translate(-381.9 -508.5)"/></g></g></g><g class="cls-2"><g class="cls-38"><g class="cls-2"><path class="cls-7" d="M550.68,812.06l-22.79-12.4.27.14L551,812.2l-.27-.14" transform="translate(-381.9 -508.5)"/><path class="cls-6" d="M551,812.2l-22.79-12.4a7.34,7.34,0,0,0,1.41.52l22.79,12.4a7.34,7.34,0,0,1-1.41-.52" transform="translate(-381.9 -508.5)"/></g></g></g><g class="cls-2"><g class="cls-39"><g class="cls-2"><path class="cls-12" d="M563.67,805.79l-22.79-12.4a11,11,0,0,0,.68-3.77,8.33,8.33,0,0,0-4.13-7.54l22.79,12.4a8.33,8.33,0,0,1,4.13,7.54,11,11,0,0,1-.68,3.77" transform="translate(-381.9 -508.5)"/></g></g></g><g class="cls-2"><g class="cls-40"><g class="cls-2"><path class="cls-16" d="M555.47,793.65l-22.79-12.4a7.89,7.89,0,0,1,3.08.16l22.79,12.4a7.89,7.89,0,0,0-3.08-.16" transform="translate(-381.9 -508.5)"/><path class="cls-17" d="M558.54,793.81l-22.79-12.4a7.35,7.35,0,0,1,1.41.52L560,794.33a7.35,7.35,0,0,0-1.41-.52" transform="translate(-381.9 -508.5)"/><path class="cls-18" d="M560,794.33l-22.79-12.4.27.14,22.79,12.4-.27-.14" transform="translate(-381.9 -508.5)"/></g></g></g><g class="cls-2"><g class="cls-41"><g class="cls-2"><path class="cls-20" d="M550.68,812.06l-22.79-12.4a8.33,8.33,0,0,1-4.13-7.54,11,11,0,0,1,.69-3.78l22.79,12.4a11,11,0,0,0-.69,3.78,8.33,8.33,0,0,0,4.13,7.54" transform="translate(-381.9 -508.5)"/><path class="cls-21" d="M547.23,800.73l-22.79-12.4a11.64,11.64,0,0,1,.68-1.5l22.79,12.4a11.64,11.64,0,0,0-.68,1.5" transform="translate(-381.9 -508.5)"/><path class="cls-21" d="M547.91,799.24l-22.79-12.4a11.73,11.73,0,0,1,.73-1.18l22.79,12.4a11.73,11.73,0,0,0-.73,1.18" transform="translate(-381.9 -508.5)"/><path class="cls-22" d="M548.64,798.06l-22.79-12.4a11.6,11.6,0,0,1,.8-1L549.44,797a11.6,11.6,0,0,0-.8,1" transform="translate(-381.9 -508.5)"/><path class="cls-18" d="M549.44,797l-22.79-12.4a11.28,11.28,0,0,1,.91-.92l22.79,12.4a11.28,11.28,0,0,0-.91.92" transform="translate(-381.9 -508.5)"/><path class="cls-18" d="M550.35,796.12l-22.79-12.4a10.77,10.77,0,0,1,1.08-.85l22.79,12.4a10.77,10.77,0,0,0-1.08.85" transform="translate(-381.9 -508.5)"/><path class="cls-17" d="M551.42,795.27l-22.79-12.4a10.06,10.06,0,0,1,1.45-.83l22.79,12.4a10.06,10.06,0,0,0-1.45.83" transform="translate(-381.9 -508.5)"/><path class="cls-16" d="M552.87,794.44,530.08,782a9.08,9.08,0,0,1,2.6-.78l22.79,12.4a9.08,9.08,0,0,0-2.6.78" transform="translate(-381.9 -508.5)"/></g></g></g><g class="cls-2"><g class="cls-42"><g class="cls-2"><path class="cls-5" d="M555.51,767.72l-22.79-12.4a9.12,9.12,0,0,0,2.61-.78l22.79,12.4a9.12,9.12,0,0,1-2.61.78" transform="translate(-381.9 -508.5)"/><path class="cls-6" d="M558.12,766.93l-22.79-12.4a10.08,10.08,0,0,0,1.45-.84l22.79,12.4a10.08,10.08,0,0,1-1.45.84" transform="translate(-381.9 -508.5)"/><path class="cls-7" d="M559.57,766.1l-22.79-12.4a10.77,10.77,0,0,0,1.08-.85l22.79,12.4a10.77,10.77,0,0,1-1.08.85" transform="translate(-381.9 -508.5)"/><path class="cls-8" d="M560.65,765.25l-22.79-12.4a11.27,11.27,0,0,0,.91-.92l22.79,12.4a11.27,11.27,0,0,1-.91.92" transform="translate(-381.9 -508.5)"/><path class="cls-9" d="M561.55,764.33l-22.79-12.4a11.58,11.58,0,0,0,.8-1l22.79,12.4a11.58,11.58,0,0,1-.8,1" transform="translate(-381.9 -508.5)"/><path class="cls-10" d="M562.36,763.31l-22.79-12.4a11.71,11.71,0,0,0,.72-1.18l22.79,12.4a11.71,11.71,0,0,1-.72,1.18" transform="translate(-381.9 -508.5)"/><path class="cls-11" d="M563.08,762.14l-22.79-12.4a11.61,11.61,0,0,0,.67-1.5l22.79,12.4a11.61,11.61,0,0,1-.67,1.5" transform="translate(-381.9 -508.5)"/><path class="cls-12" d="M563.75,760.64,541,748.24a11,11,0,0,0,.69-3.78,8.32,8.32,0,0,0-4.13-7.54l22.79,12.4a8.32,8.32,0,0,1,4.13,7.54,11,11,0,0,1-.69,3.78" transform="translate(-381.9 -508.5)"/></g></g></g><g class="cls-2"><g class="cls-43"><g class="cls-2"><path class="cls-7" d="M550.76,766.9,528,754.5l.27.14L551,767l-.27-.14" transform="translate(-381.9 -508.5)"/><path class="cls-6" d="M551,767l-22.79-12.4a7.34,7.34,0,0,0,1.41.52l22.79,12.4A7.34,7.34,0,0,1,551,767" transform="translate(-381.9 -508.5)"/><path class="cls-5" d="M552.44,767.56l-22.79-12.4a7.89,7.89,0,0,0,3.07.16l22.79,12.4a7.89,7.89,0,0,1-3.07-.16" transform="translate(-381.9 -508.5)"/></g></g></g><g class="cls-2"><g class="cls-44"><g class="cls-2"><path class="cls-12" d="M563.75,760.64,541,748.24a11,11,0,0,0,.69-3.78,8.32,8.32,0,0,0-4.13-7.54l22.79,12.4a8.32,8.32,0,0,1,4.13,7.54,11,11,0,0,1-.69,3.78" transform="translate(-381.9 -508.5)"/></g></g></g><g class="cls-2"><g class="cls-45"><g class="cls-2"><path class="cls-16" d="M555.55,748.51l-22.79-12.4a7.9,7.9,0,0,1,3.08.16l22.79,12.4a7.9,7.9,0,0,0-3.08-.16" transform="translate(-381.9 -508.5)"/><path class="cls-17" d="M558.63,748.66l-22.79-12.4a7.35,7.35,0,0,1,1.41.52L560,749.18a7.35,7.35,0,0,0-1.41-.52" transform="translate(-381.9 -508.5)"/><path class="cls-18" d="M560,749.18l-22.79-12.4.27.14,22.79,12.4-.27-.14" transform="translate(-381.9 -508.5)"/></g></g></g><g class="cls-2"><g class="cls-46"><g class="cls-2"><path class="cls-20" d="M550.76,766.9,528,754.5a8.32,8.32,0,0,1-4.13-7.54,11,11,0,0,1,.68-3.78l22.79,12.4a11,11,0,0,0-.68,3.78,8.32,8.32,0,0,0,4.13,7.54" transform="translate(-381.9 -508.5)"/><path class="cls-21" d="M547.32,755.59l-22.79-12.4a11.63,11.63,0,0,1,.67-1.5L548,754.09a11.63,11.63,0,0,0-.67,1.5" transform="translate(-381.9 -508.5)"/><path class="cls-21" d="M548,754.09l-22.79-12.4a11.73,11.73,0,0,1,.73-1.18l22.79,12.4a11.73,11.73,0,0,0-.73,1.18" transform="translate(-381.9 -508.5)"/><path class="cls-22" d="M548.72,752.91l-22.79-12.4a11.6,11.6,0,0,1,.8-1l22.79,12.4a11.6,11.6,0,0,0-.8,1" transform="translate(-381.9 -508.5)"/><path class="cls-18" d="M549.52,751.89l-22.79-12.4a11.28,11.28,0,0,1,.91-.92L550.43,751a11.28,11.28,0,0,0-.91.92" transform="translate(-381.9 -508.5)"/><path class="cls-18" d="M550.43,751l-22.79-12.4a10.77,10.77,0,0,1,1.08-.85l22.79,12.4a10.77,10.77,0,0,0-1.08.85" transform="translate(-381.9 -508.5)"/><path class="cls-17" d="M551.51,750.12l-22.79-12.4a10.06,10.06,0,0,1,1.45-.83L553,749.29a10.06,10.06,0,0,0-1.45.83" transform="translate(-381.9 -508.5)"/><path class="cls-16" d="M553,749.29l-22.79-12.4a9.08,9.08,0,0,1,2.6-.78l22.79,12.4a9.08,9.08,0,0,0-2.6.78" transform="translate(-381.9 -508.5)"/></g></g></g><polygon class="cls-47" points="209.8 234.46 187.01 222.06 184.23 143.69 207.02 156.09 209.8 234.46"/><g class="cls-2"><g class="cls-48"><g class="cls-2"><path class="cls-5" d="M588.92,664.59l-22.79-12.4,3.09-.54.89-.15c12.34-2.14,50.83-8.72,78.42-12.6,15-2.11,26.81-3.42,29.39-2.77l22.79,12.4c-2.58-.65-14.37.66-29.39,2.77-27.59,3.88-66.08,10.46-78.42,12.6L592,664l-3.09.54" transform="translate(-381.9 -508.5)"/><path class="cls-6" d="M700.72,648.53l-22.79-12.4a1.62,1.62,0,0,1,.29.1L701,648.62a1.62,1.62,0,0,0-.29-.1" transform="translate(-381.9 -508.5)"/><path class="cls-7" d="M701,648.62l-22.79-12.4,0,0L701,648.65l0,0" transform="translate(-381.9 -508.5)"/></g></g></g><path class="cls-49" d="M701.22,648.81c1.77,3.59,6.11,66.36-.13,69.17-5.49,2.46-84.8,22-104.84,24.84-.78.11-1.47.19-2.07.25l-.88.07c-.92.05-1.47,0-1.59-.18l-2.78-78.37L592,664l.89-.15c12.34-2.14,50.83-8.72,78.42-12.6C688,649,700.63,647.61,701.22,648.81Zm-70,58.33c4.92-.69,8.91-5.56,8.92-10.86s-4-9.05-8.88-8.36-8.91,5.56-8.92,10.87,4,9,8.88,8.35m39.16-5.5c4.91-.69,8.91-5.56,8.92-10.86s-4-9.05-8.88-8.36-8.91,5.56-8.92,10.87,4,9,8.88,8.35" transform="translate(-381.9 -508.5)"/><g class="cls-2"><g class="cls-50"><g class="cls-2"><path class="cls-5" d="M555.6,718.73l-22.79-12.4a9.1,9.1,0,0,0,2.6-.78l22.79,12.4a9.1,9.1,0,0,1-2.6.78" transform="translate(-381.9 -508.5)"/><path class="cls-6" d="M558.21,717.95l-22.79-12.4a10.08,10.08,0,0,0,1.45-.83l22.79,12.4a10.08,10.08,0,0,1-1.45.83" transform="translate(-381.9 -508.5)"/><path class="cls-7" d="M559.66,717.11l-22.79-12.4a10.78,10.78,0,0,0,1.08-.85l22.79,12.4a10.78,10.78,0,0,1-1.08.85" transform="translate(-381.9 -508.5)"/><path class="cls-8" d="M560.73,716.26l-22.79-12.4a11.28,11.28,0,0,0,.91-.92l22.79,12.4a11.28,11.28,0,0,1-.91.92" transform="translate(-381.9 -508.5)"/><path class="cls-9" d="M561.64,715.34l-22.79-12.4a11.6,11.6,0,0,0,.8-1l22.79,12.4a11.6,11.6,0,0,1-.8,1" transform="translate(-381.9 -508.5)"/><path class="cls-10" d="M562.45,714.32l-22.79-12.4a11.72,11.72,0,0,0,.73-1.18l22.79,12.4a11.72,11.72,0,0,1-.73,1.18" transform="translate(-381.9 -508.5)"/><path class="cls-11" d="M563.17,713.14l-22.79-12.4a11.62,11.62,0,0,0,.67-1.5l22.79,12.4a11.62,11.62,0,0,1-.67,1.5" transform="translate(-381.9 -508.5)"/><path class="cls-12" d="M563.85,711.65l-22.79-12.4a11,11,0,0,0,.68-3.77,8.32,8.32,0,0,0-4.13-7.54l22.79,12.4a8.32,8.32,0,0,1,4.13,7.54,11,11,0,0,1-.68,3.77" transform="translate(-381.9 -508.5)"/></g></g></g><g class="cls-2"><g class="cls-51"><g class="cls-2"><path class="cls-7" d="M550.86,717.91l-22.79-12.4.27.14,22.79,12.4-.27-.14" transform="translate(-381.9 -508.5)"/><path class="cls-6" d="M551.13,718.05l-22.79-12.4a7.34,7.34,0,0,0,1.41.52l22.79,12.4a7.34,7.34,0,0,1-1.41-.52" transform="translate(-381.9 -508.5)"/><path class="cls-5" d="M552.53,718.57l-22.79-12.4a7.88,7.88,0,0,0,3.07.16l22.79,12.4a7.88,7.88,0,0,1-3.07-.16" transform="translate(-381.9 -508.5)"/></g></g></g><g class="cls-2"><g class="cls-52"><g class="cls-2"><path class="cls-12" d="M563.85,711.65l-22.79-12.4a11,11,0,0,0,.68-3.77,8.32,8.32,0,0,0-4.13-7.54l22.79,12.4a8.32,8.32,0,0,1,4.13,7.54,11,11,0,0,1-.68,3.77" transform="translate(-381.9 -508.5)"/></g></g></g><g class="cls-2"><g class="cls-53"><g class="cls-2"><path class="cls-16" d="M555.64,699.52l-22.79-12.4a7.91,7.91,0,0,1,3.08.16l22.79,12.4a7.91,7.91,0,0,0-3.08-.16" transform="translate(-381.9 -508.5)"/><path class="cls-17" d="M558.72,699.68l-22.79-12.4a7.35,7.35,0,0,1,1.41.52l22.79,12.4a7.35,7.35,0,0,0-1.41-.52" transform="translate(-381.9 -508.5)"/><path class="cls-18" d="M560.13,700.2l-22.79-12.4.27.14,22.79,12.4-.27-.14" transform="translate(-381.9 -508.5)"/></g></g></g><g class="cls-2"><g class="cls-54"><g class="cls-2"><path class="cls-20" d="M550.86,717.91l-22.79-12.4a8.33,8.33,0,0,1-4.13-7.54,11,11,0,0,1,.69-3.78l22.79,12.4a11,11,0,0,0-.69,3.78,8.33,8.33,0,0,0,4.13,7.54" transform="translate(-381.9 -508.5)"/><path class="cls-21" d="M547.41,706.59l-22.79-12.4a11.62,11.62,0,0,1,.67-1.5l22.79,12.4a11.62,11.62,0,0,0-.67,1.5" transform="translate(-381.9 -508.5)"/><path class="cls-21" d="M548.08,705.1l-22.79-12.4a11.71,11.71,0,0,1,.72-1.18l22.79,12.4a11.71,11.71,0,0,0-.72,1.18" transform="translate(-381.9 -508.5)"/><path class="cls-22" d="M548.81,703.92,526,691.52a11.59,11.59,0,0,1,.8-1l22.79,12.4a11.59,11.59,0,0,0-.8,1" transform="translate(-381.9 -508.5)"/><path class="cls-18" d="M549.61,702.9l-22.79-12.4a11.27,11.27,0,0,1,.91-.92L550.52,702a11.27,11.27,0,0,0-.91.92" transform="translate(-381.9 -508.5)"/><path class="cls-18" d="M550.52,702l-22.79-12.4a10.77,10.77,0,0,1,1.08-.85l22.79,12.4a10.77,10.77,0,0,0-1.08.85" transform="translate(-381.9 -508.5)"/><path class="cls-17" d="M551.59,701.13l-22.79-12.4a10.07,10.07,0,0,1,1.45-.83L553,700.3a10.07,10.07,0,0,0-1.45.83" transform="translate(-381.9 -508.5)"/><path class="cls-16" d="M553,700.3l-22.79-12.4a9.09,9.09,0,0,1,2.6-.78l22.79,12.4a9.09,9.09,0,0,0-2.6.78" transform="translate(-381.9 -508.5)"/></g></g></g><path class="cls-23" d="M555.64,699.52c4.92-.69,8.9,3,8.89,8.35s-4,10.17-8.93,10.86-8.89-3.05-8.88-8.35S550.73,700.21,555.64,699.52Z" transform="translate(-381.9 -508.5)"/><g class="cls-2"><g class="cls-55"><g class="cls-2"><path class="cls-5" d="M555.75,639,533,626.6a9.1,9.1,0,0,0,2.6-.78l22.79,12.4a9.1,9.1,0,0,1-2.6.78" transform="translate(-381.9 -508.5)"/><path class="cls-6" d="M558.36,638.21l-22.79-12.4A10.07,10.07,0,0,0,537,625l22.79,12.4a10.07,10.07,0,0,1-1.45.83" transform="translate(-381.9 -508.5)"/><path class="cls-7" d="M559.8,637.38,537,625a10.78,10.78,0,0,0,1.08-.85l22.79,12.4a10.78,10.78,0,0,1-1.08.85" transform="translate(-381.9 -508.5)"/><path class="cls-8" d="M560.88,636.53l-22.79-12.4a11.28,11.28,0,0,0,.91-.92l22.79,12.4a11.28,11.28,0,0,1-.91.92" transform="translate(-381.9 -508.5)"/><path class="cls-9" d="M561.79,635.61,539,623.21a11.6,11.6,0,0,0,.8-1l22.79,12.4a11.6,11.6,0,0,1-.8,1" transform="translate(-381.9 -508.5)"/><path class="cls-10" d="M562.59,634.59l-22.79-12.4a11.73,11.73,0,0,0,.73-1.18l22.79,12.4a11.73,11.73,0,0,1-.73,1.18" transform="translate(-381.9 -508.5)"/><path class="cls-11" d="M563.32,633.41,540.52,621a11.63,11.63,0,0,0,.67-1.5L564,631.91a11.63,11.63,0,0,1-.67,1.5" transform="translate(-381.9 -508.5)"/><path class="cls-12" d="M564,631.91l-22.79-12.4a11,11,0,0,0,.69-3.78,8.32,8.32,0,0,0-4.13-7.54l22.79,12.4a8.32,8.32,0,0,1,4.13,7.54,11,11,0,0,1-.69,3.78" transform="translate(-381.9 -508.5)"/></g></g></g><g class="cls-2"><g class="cls-56"><g class="cls-2"><path class="cls-6" d="M551.28,638.32l-22.79-12.4a7.34,7.34,0,0,0,1.41.52l22.79,12.4a7.34,7.34,0,0,1-1.41-.52" transform="translate(-381.9 -508.5)"/><path class="cls-5" d="M552.68,638.84l-22.79-12.4a7.88,7.88,0,0,0,3.07.16L555.75,639a7.88,7.88,0,0,1-3.07-.16" transform="translate(-381.9 -508.5)"/></g></g></g><g class="cls-2"><g class="cls-57"><g class="cls-2"><path class="cls-7" d="M551,638.18l-22.79-12.4.27.14,22.79,12.4-.27-.14" transform="translate(-381.9 -508.5)"/><path class="cls-6" d="M551.28,638.32l-22.79-12.4a7.34,7.34,0,0,0,1.41.52l22.79,12.4a7.34,7.34,0,0,1-1.41-.52" transform="translate(-381.9 -508.5)"/></g></g></g><g class="cls-2"><g class="cls-58"><g class="cls-2"><path class="cls-12" d="M564,631.91l-22.79-12.4a11,11,0,0,0,.69-3.78,8.32,8.32,0,0,0-4.13-7.54l22.79,12.4a8.32,8.32,0,0,1,4.13,7.54,11,11,0,0,1-.69,3.78" transform="translate(-381.9 -508.5)"/></g></g></g><g class="cls-2"><g class="cls-59"><g class="cls-2"><path class="cls-16" d="M555.79,619.78,533,607.38a7.9,7.9,0,0,1,3.08.16l22.79,12.4a7.9,7.9,0,0,0-3.08-.16" transform="translate(-381.9 -508.5)"/><path class="cls-17" d="M558.87,619.93l-22.79-12.4a7.35,7.35,0,0,1,1.41.52l22.79,12.4a7.35,7.35,0,0,0-1.41-.52" transform="translate(-381.9 -508.5)"/><path class="cls-18" d="M560.28,620.45l-22.79-12.4.27.14,22.79,12.4-.27-.14" transform="translate(-381.9 -508.5)"/></g></g></g><g class="cls-2"><g class="cls-60"><g class="cls-2"><path class="cls-20" d="M551,638.18l-22.79-12.4a8.33,8.33,0,0,1-4.13-7.55,11,11,0,0,1,.68-3.78l22.79,12.4a11,11,0,0,0-.68,3.78,8.33,8.33,0,0,0,4.13,7.55" transform="translate(-381.9 -508.5)"/><path class="cls-21" d="M547.56,626.86l-22.79-12.4a11.63,11.63,0,0,1,.67-1.5l22.79,12.4a11.63,11.63,0,0,0-.67,1.5" transform="translate(-381.9 -508.5)"/><path class="cls-21" d="M548.23,625.36,525.44,613a11.73,11.73,0,0,1,.73-1.18L549,624.18a11.73,11.73,0,0,0-.73,1.18" transform="translate(-381.9 -508.5)"/><path class="cls-22" d="M549,624.18l-22.79-12.4a11.6,11.6,0,0,1,.8-1l22.79,12.4a11.6,11.6,0,0,0-.8,1" transform="translate(-381.9 -508.5)"/><path class="cls-18" d="M549.76,623.16,527,610.76a11.28,11.28,0,0,1,.91-.92l22.79,12.4a11.28,11.28,0,0,0-.91.92" transform="translate(-381.9 -508.5)"/><path class="cls-18" d="M550.67,622.24l-22.79-12.4A10.77,10.77,0,0,1,529,609l22.79,12.4a10.77,10.77,0,0,0-1.08.85" transform="translate(-381.9 -508.5)"/><path class="cls-17" d="M551.75,621.39,529,609a10.06,10.06,0,0,1,1.45-.83l22.79,12.4a10.06,10.06,0,0,0-1.45.83" transform="translate(-381.9 -508.5)"/><path class="cls-16" d="M553.19,620.56l-22.79-12.4a9.08,9.08,0,0,1,2.6-.78l22.79,12.4a9.08,9.08,0,0,0-2.6.78" transform="translate(-381.9 -508.5)"/></g></g></g><path class="cls-23" d="M555.79,619.78c4.92-.69,8.9,3.05,8.89,8.35s-4,10.17-8.93,10.87-8.89-3.05-8.88-8.36S550.88,620.47,555.79,619.78Z" transform="translate(-381.9 -508.5)"/><g class="cls-2"><g class="cls-61"><g class="cls-2"><path class="cls-5" d="M555.84,592.88,533,580.48a9.12,9.12,0,0,0,2.61-.78l22.79,12.4a9.12,9.12,0,0,1-2.61.78" transform="translate(-381.9 -508.5)"/><path class="cls-6" d="M558.45,592.1l-22.79-12.4a10.08,10.08,0,0,0,1.45-.84l22.79,12.4a10.08,10.08,0,0,1-1.45.84" transform="translate(-381.9 -508.5)"/><path class="cls-7" d="M559.89,591.26l-22.79-12.4a10.77,10.77,0,0,0,1.08-.85L561,590.41a10.77,10.77,0,0,1-1.08.85" transform="translate(-381.9 -508.5)"/><path class="cls-8" d="M561,590.41,538.18,578a11.27,11.27,0,0,0,.91-.92l22.79,12.4a11.27,11.27,0,0,1-.91.92" transform="translate(-381.9 -508.5)"/><path class="cls-9" d="M561.88,589.49l-22.79-12.4a11.58,11.58,0,0,0,.8-1l22.79,12.4a11.58,11.58,0,0,1-.8,1" transform="translate(-381.9 -508.5)"/><path class="cls-10" d="M562.68,588.47l-22.79-12.4a11.71,11.71,0,0,0,.72-1.18l22.79,12.4a11.71,11.71,0,0,1-.72,1.18" transform="translate(-381.9 -508.5)"/><path class="cls-11" d="M563.41,587.3l-22.79-12.4a11.61,11.61,0,0,0,.67-1.5l22.79,12.4a11.61,11.61,0,0,1-.67,1.5" transform="translate(-381.9 -508.5)"/><path class="cls-12" d="M564.08,585.8l-22.79-12.4a11,11,0,0,0,.69-3.78,8.32,8.32,0,0,0-4.13-7.54l22.79,12.4a8.32,8.32,0,0,1,4.13,7.54,11,11,0,0,1-.69,3.78" transform="translate(-381.9 -508.5)"/></g></g></g><g class="cls-2"><g class="cls-62"><g class="cls-2"><path class="cls-5" d="M555.84,592.88,533,580.48a9.12,9.12,0,0,0,2.61-.78l22.79,12.4a9.12,9.12,0,0,1-2.61.78" transform="translate(-381.9 -508.5)"/></g></g></g><g class="cls-2"><g class="cls-63"><g class="cls-2"><path class="cls-12" d="M564.08,585.8l-22.79-12.4a11,11,0,0,0,.69-3.78,8.32,8.32,0,0,0-4.13-7.54l22.79,12.4a8.32,8.32,0,0,1,4.13,7.54,11,11,0,0,1-.69,3.78" transform="translate(-381.9 -508.5)"/></g></g></g><g class="cls-2"><g class="cls-64"><g class="cls-2"><path class="cls-12" d="M564.08,585.8l-22.79-12.4a11,11,0,0,0,.69-3.78,8.32,8.32,0,0,0-4.13-7.54l22.79,12.4a8.32,8.32,0,0,1,4.13,7.54,11,11,0,0,1-.69,3.78" transform="translate(-381.9 -508.5)"/></g></g></g><g class="cls-2"><g class="cls-65"><g class="cls-2"><path class="cls-12" d="M564.08,585.8l-22.79-12.4a11,11,0,0,0,.69-3.78,8.32,8.32,0,0,0-4.13-7.54l22.79,12.4a8.32,8.32,0,0,1,4.13,7.54,11,11,0,0,1-.69,3.78" transform="translate(-381.9 -508.5)"/></g></g></g><g class="cls-2"><g class="cls-66"><g class="cls-2"><path class="cls-7" d="M551.09,592.06l-22.79-12.4.27.14,22.79,12.4-.27-.14" transform="translate(-381.9 -508.5)"/><path class="cls-6" d="M551.36,592.2l-22.79-12.4a7.34,7.34,0,0,0,1.41.52l22.79,12.4a7.34,7.34,0,0,1-1.41-.52" transform="translate(-381.9 -508.5)"/><path class="cls-5" d="M552.76,592.72,530,580.32a7.89,7.89,0,0,0,3.07.16l22.79,12.4a7.89,7.89,0,0,1-3.07-.16" transform="translate(-381.9 -508.5)"/></g></g></g><g class="cls-2"><g class="cls-67"><g class="cls-2"><path class="cls-12" d="M564.08,585.8l-22.79-12.4a11,11,0,0,0,.69-3.78,8.32,8.32,0,0,0-4.13-7.54l22.79,12.4a8.32,8.32,0,0,1,4.13,7.54,11,11,0,0,1-.69,3.78" transform="translate(-381.9 -508.5)"/></g></g></g><g class="cls-2"><g class="cls-68"><g class="cls-2"><path class="cls-31" d="M592,664l-22.79-12.4c-1.42-77.41-2.95-136.19-3.11-142.1L588.91,522c.16,5.91,1.69,64.68,3.11,142.1" transform="translate(-381.9 -508.5)"/></g></g></g><g class="cls-2"><g class="cls-69"><g class="cls-2"><path class="cls-16" d="M555.87,573.67l-22.79-12.4a7.91,7.91,0,0,1,3.08.16L559,573.83a7.91,7.91,0,0,0-3.08-.16" transform="translate(-381.9 -508.5)"/><path class="cls-17" d="M559,573.83l-22.79-12.4a7.35,7.35,0,0,1,1.41.52l22.79,12.4a7.35,7.35,0,0,0-1.41-.52" transform="translate(-381.9 -508.5)"/><path class="cls-18" d="M560.37,574.35l-22.79-12.4.27.14,22.79,12.4-.27-.14" transform="translate(-381.9 -508.5)"/></g></g></g><g class="cls-2"><g class="cls-70"><g class="cls-2"><path class="cls-20" d="M551.09,592.06l-22.79-12.4a8.32,8.32,0,0,1-4.13-7.54,11,11,0,0,1,.69-3.78l22.79,12.4a11,11,0,0,0-.69,3.78,8.32,8.32,0,0,0,4.13,7.54" transform="translate(-381.9 -508.5)"/><path class="cls-21" d="M547.64,580.74l-22.79-12.4a11.62,11.62,0,0,1,.67-1.5l22.79,12.4a11.62,11.62,0,0,0-.67,1.5" transform="translate(-381.9 -508.5)"/><path class="cls-21" d="M548.32,579.25l-22.79-12.4a11.71,11.71,0,0,1,.72-1.18L549,578.07a11.71,11.71,0,0,0-.72,1.18" transform="translate(-381.9 -508.5)"/><path class="cls-22" d="M549,578.07l-22.79-12.4a11.59,11.59,0,0,1,.8-1l22.79,12.4a11.59,11.59,0,0,0-.8,1" transform="translate(-381.9 -508.5)"/><path class="cls-18" d="M549.84,577.05,527,564.65a11.27,11.27,0,0,1,.91-.92l22.79,12.4a11.27,11.27,0,0,0-.91.92" transform="translate(-381.9 -508.5)"/><path class="cls-18" d="M550.75,576.14,528,563.74a10.77,10.77,0,0,1,1.08-.85l22.79,12.4a10.77,10.77,0,0,0-1.08.85" transform="translate(-381.9 -508.5)"/><path class="cls-17" d="M551.83,575.28,529,562.89a10.07,10.07,0,0,1,1.45-.83l22.79,12.4a10.07,10.07,0,0,0-1.45.83" transform="translate(-381.9 -508.5)"/><path class="cls-16" d="M553.27,574.45l-22.79-12.4a9.09,9.09,0,0,1,2.6-.78l22.79,12.4a9.09,9.09,0,0,0-2.6.78" transform="translate(-381.9 -508.5)"/></g></g></g><g class="cls-2"><g class="cls-71"><g class="cls-2"><path class="cls-5" d="M519.12,531.76l-22.79-12.4c2.63-1,11.24-2.42,21.59-3.87,19.31-2.71,44.64-5.54,48.2-5.93L588.91,522c-3.56.39-28.89,3.22-48.2,5.93-10.34,1.45-19,2.88-21.59,3.87" transform="translate(-381.9 -508.5)"/></g></g></g><g class="cls-2"><g class="cls-72"><g class="cls-2"><path class="cls-5" d="M515.7,750.53l-22.79-12.4,2.92-.59,22.79,12.4-2.92.59" transform="translate(-381.9 -508.5)"/></g></g></g><g class="cls-2"><g class="cls-73"><g class="cls-2"><path class="cls-12" d="M518.44,1086l-22.79-12.4c-.13-10.45-2.29-185.45-2.73-335.5l22.79,12.4c.45,150,2.6,325,2.73,335.5" transform="translate(-381.9 -508.5)"/></g></g></g><g class="cls-2"><g class="cls-74"><g class="cls-2"><path class="cls-33" d="M514.81,750.71,492,738.31l.89-.18,22.79,12.4-.89.18" transform="translate(-381.9 -508.5)"/></g></g></g><g class="cls-2"><g class="cls-75"><g class="cls-2"><path class="cls-12" d="M518.62,749.94l-22.79-12.4.13-71.66a1.18,1.18,0,0,0-.75-1L518,677.27a1.18,1.18,0,0,1,.75,1l-.13,71.66" transform="translate(-381.9 -508.5)"/></g></g></g><g class="cls-2"><g class="cls-76"><g class="cls-2"><path class="cls-5" d="M479.07,728.53l-22.79-12.4a9.1,9.1,0,0,0,2.6-.78l22.79,12.4a9.1,9.1,0,0,1-2.6.78" transform="translate(-381.9 -508.5)"/><path class="cls-6" d="M481.67,727.74l-22.79-12.4a10.06,10.06,0,0,0,1.45-.83l22.79,12.4a10.06,10.06,0,0,1-1.45.83" transform="translate(-381.9 -508.5)"/><path class="cls-7" d="M483.11,726.91l-22.79-12.4a10.76,10.76,0,0,0,1.08-.85l22.79,12.4a10.76,10.76,0,0,1-1.08.85" transform="translate(-381.9 -508.5)"/><path class="cls-8" d="M484.19,726.06l-22.79-12.4a11.27,11.27,0,0,0,.91-.92l22.79,12.4a11.27,11.27,0,0,1-.91.92" transform="translate(-381.9 -508.5)"/><path class="cls-9" d="M485.1,725.14l-22.79-12.4a11.59,11.59,0,0,0,.8-1l22.79,12.4a11.59,11.59,0,0,1-.8,1" transform="translate(-381.9 -508.5)"/><path class="cls-10" d="M485.9,724.13l-22.79-12.4a11.72,11.72,0,0,0,.73-1.18l22.79,12.4a11.72,11.72,0,0,1-.73,1.18" transform="translate(-381.9 -508.5)"/><path class="cls-11" d="M486.62,722.95l-22.79-12.4a11.62,11.62,0,0,0,.67-1.5l22.79,12.4a11.62,11.62,0,0,1-.67,1.5" transform="translate(-381.9 -508.5)"/><path class="cls-12" d="M487.3,721.45l-22.79-12.4a11,11,0,0,0,.69-3.78,8.33,8.33,0,0,0-4.13-7.55l22.79,12.4a8.33,8.33,0,0,1,4.13,7.55,11,11,0,0,1-.69,3.78" transform="translate(-381.9 -508.5)"/></g></g></g><g class="cls-2"><g class="cls-77"><g class="cls-2"><path class="cls-7" d="M474.31,727.71l-22.79-12.4.27.14,22.79,12.4-.27-.14" transform="translate(-381.9 -508.5)"/><path class="cls-6" d="M474.59,727.85l-22.79-12.4a7.34,7.34,0,0,0,1.41.52L476,728.37a7.34,7.34,0,0,1-1.41-.52" transform="translate(-381.9 -508.5)"/><path class="cls-5" d="M476,728.37,453.2,716a7.89,7.89,0,0,0,3.08.16l22.79,12.4a7.89,7.89,0,0,1-3.08-.16" transform="translate(-381.9 -508.5)"/></g></g></g><g class="cls-2"><g class="cls-78"><g class="cls-2"><path class="cls-12" d="M487.3,721.45l-22.79-12.4a11,11,0,0,0,.69-3.78,8.33,8.33,0,0,0-4.13-7.55l22.79,12.4a8.33,8.33,0,0,1,4.13,7.55,11,11,0,0,1-.69,3.78" transform="translate(-381.9 -508.5)"/></g></g></g><g class="cls-2"><g class="cls-79"><g class="cls-2"><path class="cls-16" d="M479.1,709.31l-22.79-12.4a7.89,7.89,0,0,1,3.07.16l22.79,12.4a7.89,7.89,0,0,0-3.07-.16" transform="translate(-381.9 -508.5)"/><path class="cls-17" d="M482.18,709.46l-22.79-12.4a7.33,7.33,0,0,1,1.41.52L483.58,710a7.33,7.33,0,0,0-1.41-.52" transform="translate(-381.9 -508.5)"/><path class="cls-18" d="M483.58,710l-22.79-12.4.27.14,22.79,12.4-.27-.14" transform="translate(-381.9 -508.5)"/></g></g></g><g class="cls-2"><g class="cls-80"><g class="cls-2"><path class="cls-20" d="M474.31,727.71l-22.79-12.4a8.33,8.33,0,0,1-4.13-7.54,11.06,11.06,0,0,1,.69-3.79l22.79,12.4a11.06,11.06,0,0,0-.69,3.79,8.33,8.33,0,0,0,4.13,7.54" transform="translate(-381.9 -508.5)"/><path class="cls-21" d="M470.87,716.38,448.08,704a11.63,11.63,0,0,1,.67-1.5l22.79,12.4a11.63,11.63,0,0,0-.67,1.5" transform="translate(-381.9 -508.5)"/><path class="cls-21" d="M471.55,714.88l-22.79-12.4a11.72,11.72,0,0,1,.73-1.18l22.79,12.4a11.72,11.72,0,0,0-.73,1.18" transform="translate(-381.9 -508.5)"/><path class="cls-22" d="M472.27,713.71l-22.79-12.4a11.59,11.59,0,0,1,.8-1l22.79,12.4a11.59,11.59,0,0,0-.8,1" transform="translate(-381.9 -508.5)"/><path class="cls-18" d="M473.07,712.69l-22.79-12.4a11.26,11.26,0,0,1,.91-.92L474,711.77a11.26,11.26,0,0,0-.91.92" transform="translate(-381.9 -508.5)"/><path class="cls-18" d="M474,711.77l-22.79-12.4a10.76,10.76,0,0,1,1.08-.85l22.79,12.4a10.76,10.76,0,0,0-1.08.85" transform="translate(-381.9 -508.5)"/><path class="cls-17" d="M475.06,710.92l-22.79-12.4a10.06,10.06,0,0,1,1.44-.83l22.79,12.4a10.06,10.06,0,0,0-1.44.83" transform="translate(-381.9 -508.5)"/><path class="cls-16" d="M476.5,710.09l-22.79-12.4a9.1,9.1,0,0,1,2.6-.78l22.79,12.4a9.1,9.1,0,0,0-2.6.78" transform="translate(-381.9 -508.5)"/></g></g></g><g class="cls-2"><g class="cls-81"><g class="cls-2"><path class="cls-5" d="M439.9,735l-22.79-12.4a9.1,9.1,0,0,0,2.6-.78l22.79,12.4a9.1,9.1,0,0,1-2.6.78" transform="translate(-381.9 -508.5)"/><path class="cls-6" d="M442.5,734.21l-22.79-12.4a10.06,10.06,0,0,0,1.45-.83l22.79,12.4a10.06,10.06,0,0,1-1.45.83" transform="translate(-381.9 -508.5)"/><path class="cls-7" d="M443.95,733.37,421.16,721a10.76,10.76,0,0,0,1.08-.85L445,732.52a10.76,10.76,0,0,1-1.08.85" transform="translate(-381.9 -508.5)"/><path class="cls-8" d="M445,732.52l-22.79-12.4a11.26,11.26,0,0,0,.91-.92l22.79,12.4a11.26,11.26,0,0,1-.91.92" transform="translate(-381.9 -508.5)"/><path class="cls-9" d="M445.93,731.61l-22.79-12.4a11.59,11.59,0,0,0,.8-1l22.79,12.4a11.59,11.59,0,0,1-.8,1" transform="translate(-381.9 -508.5)"/><path class="cls-10" d="M446.73,730.59l-22.79-12.4a11.72,11.72,0,0,0,.73-1.18l22.79,12.4a11.72,11.72,0,0,1-.73,1.18" transform="translate(-381.9 -508.5)"/><path class="cls-11" d="M447.46,729.41,424.67,717a11.62,11.62,0,0,0,.67-1.5l22.79,12.4a11.62,11.62,0,0,1-.67,1.5" transform="translate(-381.9 -508.5)"/><path class="cls-12" d="M448.13,727.91l-22.79-12.4a11,11,0,0,0,.69-3.78,8.32,8.32,0,0,0-4.13-7.54l22.79,12.4a8.32,8.32,0,0,1,4.13,7.54,11,11,0,0,1-.69,3.78" transform="translate(-381.9 -508.5)"/></g></g></g><g class="cls-2"><g class="cls-82"><g class="cls-2"><path class="cls-7" d="M435.15,734.17l-22.79-12.4.27.14,22.79,12.4-.27-.14" transform="translate(-381.9 -508.5)"/><path class="cls-6" d="M435.42,734.31l-22.79-12.4a7.34,7.34,0,0,0,1.41.52l22.79,12.4a7.34,7.34,0,0,1-1.41-.52" transform="translate(-381.9 -508.5)"/><path class="cls-5" d="M436.83,734.83,414,722.43a7.89,7.89,0,0,0,3.08.16L439.9,735a7.89,7.89,0,0,1-3.08-.16" transform="translate(-381.9 -508.5)"/></g></g></g><g class="cls-2"><g class="cls-83"><g class="cls-2"><path class="cls-12" d="M448.13,727.91l-22.79-12.4a11,11,0,0,0,.69-3.78,8.32,8.32,0,0,0-4.13-7.54l22.79,12.4a8.32,8.32,0,0,1,4.13,7.54,11,11,0,0,1-.69,3.78" transform="translate(-381.9 -508.5)"/></g></g></g><g class="cls-2"><g class="cls-84"><g class="cls-2"><path class="cls-16" d="M439.94,715.78l-22.79-12.4a7.9,7.9,0,0,1,3.08.16L443,715.94a7.9,7.9,0,0,0-3.08-.16" transform="translate(-381.9 -508.5)"/><path class="cls-17" d="M443,715.94l-22.79-12.4a7.34,7.34,0,0,1,1.41.52l22.79,12.4a7.34,7.34,0,0,0-1.41-.52" transform="translate(-381.9 -508.5)"/><path class="cls-18" d="M444.42,716.46l-22.79-12.4.27.14,22.79,12.4-.27-.14" transform="translate(-381.9 -508.5)"/></g></g></g><g class="cls-2"><g class="cls-85"><g class="cls-2"><path class="cls-20" d="M435.15,734.17l-22.79-12.4a8.32,8.32,0,0,1-4.13-7.54,11,11,0,0,1,.69-3.79l22.79,12.4a11,11,0,0,0-.69,3.79,8.32,8.32,0,0,0,4.13,7.54" transform="translate(-381.9 -508.5)"/><path class="cls-21" d="M431.71,722.85l-22.79-12.4a11.61,11.61,0,0,1,.67-1.5l22.79,12.4a11.61,11.61,0,0,0-.67,1.5" transform="translate(-381.9 -508.5)"/><path class="cls-21" d="M432.38,721.35,409.59,709a11.7,11.7,0,0,1,.72-1.17l22.79,12.4a11.7,11.7,0,0,0-.72,1.17" transform="translate(-381.9 -508.5)"/><path class="cls-22" d="M433.11,720.18l-22.79-12.4a11.57,11.57,0,0,1,.8-1l22.79,12.4a11.57,11.57,0,0,0-.8,1" transform="translate(-381.9 -508.5)"/><path class="cls-18" d="M433.91,719.16l-22.79-12.4a11.25,11.25,0,0,1,.91-.92l22.79,12.4a11.25,11.25,0,0,0-.91.92" transform="translate(-381.9 -508.5)"/><path class="cls-18" d="M434.81,718.25,412,705.85a10.76,10.76,0,0,1,1.08-.85l22.79,12.4a10.76,10.76,0,0,0-1.08.85" transform="translate(-381.9 -508.5)"/><path class="cls-17" d="M435.89,717.4,413.09,705a10.06,10.06,0,0,1,1.45-.83l22.79,12.4a10.06,10.06,0,0,0-1.45.83" transform="translate(-381.9 -508.5)"/><path class="cls-16" d="M437.33,716.56l-22.79-12.4a9.11,9.11,0,0,1,2.61-.78l22.79,12.4a9.11,9.11,0,0,0-2.61.78" transform="translate(-381.9 -508.5)"/></g></g></g><path class="cls-49" d="M515.64,676.64c2,.26,3.11.79,3.11,1.64l-.13,71.66-2.92.59-.89.18c-12.66,2.52-54.17,10.66-82.45,14.64-15.94,2.24-27.67,3.16-27.67,1l.13-72c2.53-.55,50.64-11,84.4-15.7,11.18-1.57,20.5-2.46,25.53-2Zm-36.57,51.88C484,727.84,488,723,488,717.67s-4-9.05-8.88-8.36-8.91,5.56-8.92,10.86,4,9,8.88,8.35M439.9,735c4.92-.69,8.91-5.56,8.92-10.86s-4-9-8.88-8.35S431,721.33,431,726.64s4,9,8.88,8.35" transform="translate(-381.9 -508.5)"/><path class="cls-49" d="M593.3,743.13c1.95,140.07,2.32,300.61-5.33,333.12L518.44,1086c-.13-10.45-2.29-185.45-2.73-335.5l2.92-.59.13-71.66c0-.85-1.11-1.38-3.11-1.64.22-116.79,2.06-143.23,3.48-144.88,2.63-1,11.24-2.42,21.59-3.87,19.31-2.71,44.64-5.54,48.2-5.93.16,5.91,1.69,64.68,3.11,142.1l-3.09.54L591.7,743C591.82,743.13,592.37,743.18,593.3,743.13Zm-37.87,69.74c4.92-.69,8.92-5.56,8.93-10.86s-4-9.05-8.89-8.36-8.91,5.56-8.92,10.87,4,9,8.88,8.35M555.75,639c4.92-.69,8.92-5.56,8.93-10.87s-4-9-8.89-8.35-8.91,5.56-8.92,10.86,4,9.05,8.88,8.36m-.24,128.72c4.92-.69,8.92-5.55,8.93-10.86s-4-9-8.89-8.35-8.91,5.56-8.92,10.86,4,9,8.88,8.35m.09-49c4.92-.69,8.92-5.56,8.93-10.86s-4-9-8.89-8.35-8.91,5.55-8.92,10.86,4,9,8.88,8.35m.23-125.85c4.92-.69,8.92-5.55,8.93-10.86s-4-9-8.89-8.35S547,579.22,547,584.52s4,9,8.88,8.35" transform="translate(-381.9 -508.5)"/><path class="cls-23" d="M555.47,793.65c4.92-.69,8.9,3.05,8.89,8.36s-4,10.17-8.93,10.86-8.89-3.05-8.88-8.35S550.56,794.34,555.47,793.65Z" transform="translate(-381.9 -508.5)"/><path class="cls-23" d="M555.55,748.51c4.92-.69,8.9,3.05,8.89,8.35s-4,10.17-8.93,10.86-8.89-3-8.88-8.35S550.64,749.2,555.55,748.51Z" transform="translate(-381.9 -508.5)"/><path class="cls-86" d="M594.18,743.07c1.95,140.66,2.32,302-5.44,333.68l-71.18,10.36c0-2.58-2.29-182.58-2.75-336.4l.89-.18c.45,150,2.6,325,2.73,335.49l69.53-9.77c7.65-32.51,7.27-193,5.33-333.12Z" transform="translate(-381.9 -508.5)"/><g class="cls-2"><g class="cls-87"><g class="cls-2"><path class="cls-31" d="M517.56,1087.11l-22.79-12.4c0-2.58-2.29-182.58-2.75-336.4l22.79,12.4c.46,153.82,2.71,333.82,2.75,336.4" transform="translate(-381.9 -508.5)"/></g></g></g><polygon class="cls-3" points="207.46 12.44 184.66 0.04 185.08 0 207.87 12.4 207.46 12.44"/><path class="cls-23" d="M555.87,573.67c4.92-.69,8.9,3,8.89,8.35s-4,10.17-8.93,10.86-8.89-3-8.88-8.35S551,574.36,555.87,573.67Z" transform="translate(-381.9 -508.5)"/><path class="cls-23" d="M479.1,709.31c4.92-.69,8.89,3.05,8.88,8.36s-4,10.17-8.92,10.86-8.89-3.05-8.88-8.35S474.18,710,479.1,709.31Z" transform="translate(-381.9 -508.5)"/><path class="cls-23" d="M439.94,715.78c4.92-.69,8.89,3,8.88,8.35s-4,10.17-8.92,10.86-8.89-3.05-8.88-8.35S435,716.47,439.94,715.78Z" transform="translate(-381.9 -508.5)"/><g class="cls-2"><g class="cls-88"><g class="cls-2"><path class="cls-12" d="M405.18,767l-22.79-12.4a.75.75,0,0,1-.48-.64l22.79,12.4a.75.75,0,0,0,.48.64" transform="translate(-381.9 -508.5)"/></g></g></g><g class="cls-2"><g class="cls-89"><g class="cls-2"><path class="cls-5" d="M519.12,531.76l-22.79-12.4c2.63-1,11.24-2.42,21.59-3.87,19.31-2.71,44.64-5.54,48.2-5.93L588.91,522c-3.56.39-28.89,3.22-48.2,5.93-10.34,1.45-19,2.88-21.59,3.87" transform="translate(-381.9 -508.5)"/></g></g></g><g class="cls-2"><g class="cls-90"><g class="cls-2"><path class="cls-12" d="M515.64,676.64l-22.79-12.4c.21-111.24,1.89-140.51,3.28-144.47l22.79,12.4c-1.39,4-3.06,33.23-3.28,144.47" transform="translate(-381.9 -508.5)"/><path class="cls-11" d="M518.92,532.17l-22.79-12.4.07-.18L519,532l-.07.18" transform="translate(-381.9 -508.5)"/><path class="cls-10" d="M519,532l-22.79-12.4.07-.14,22.79,12.4L519,532" transform="translate(-381.9 -508.5)"/><path class="cls-9" d="M519.06,531.85l-22.79-12.4.06-.09,22.79,12.4-.06.09" transform="translate(-381.9 -508.5)"/></g></g></g><g class="cls-2"><g class="cls-91"><g class="cls-2"><path class="cls-5" d="M404.83,694.3,382,681.9c2.53-.55,50.64-11,84.4-15.7,11.18-1.57,20.5-2.46,25.53-2l.89.09,22.79,12.4-.89-.09c-5-.42-14.35.47-25.53,2-33.76,4.74-81.86,15.15-84.4,15.7" transform="translate(-381.9 -508.5)"/></g></g></g><g class="cls-2"><g class="cls-92"><g class="cls-2"><path class="cls-31" d="M514.75,676.55,492,664.15c.23-120.59,2.18-141.07,3.5-144.81l22.79,12.4c-1.32,3.73-3.26,24.21-3.5,144.81" transform="translate(-381.9 -508.5)"/><path class="cls-93" d="M518.25,531.75l-22.79-12.4a3.24,3.24,0,0,1,.16-.38l22.79,12.4a3.24,3.24,0,0,0-.16.38" transform="translate(-381.9 -508.5)"/><path class="cls-94" d="M518.41,531.36,495.61,519a1.65,1.65,0,0,1,.11-.2l22.79,12.4a1.65,1.65,0,0,0-.11.2" transform="translate(-381.9 -508.5)"/><path class="cls-95" d="M518.52,531.17l-22.79-12.4.08-.1,22.79,12.4-.08.1" transform="translate(-381.9 -508.5)"/><path class="cls-96" d="M518.6,531.07l-22.79-12.4.07-.07L518.67,531l-.07.07" transform="translate(-381.9 -508.5)"/><path class="cls-97" d="M518.67,531l-22.79-12.4.07-.05L518.73,531l-.07.05" transform="translate(-381.9 -508.5)"/><path class="cls-98" d="M518.73,531l-22.79-12.4.15-.08,22.79,12.4-.15.08" transform="translate(-381.9 -508.5)"/><path class="cls-33" d="M518.88,530.87l-22.79-12.4.05,0c2.73-1,11.55-2.49,22.06-4,20.21-2.84,46.69-5.76,48.37-5.94l22.79,12.4c-1.68.18-28.16,3.1-48.37,5.94-10.51,1.48-19.33,2.93-22.06,4l-.05,0" transform="translate(-381.9 -508.5)"/></g></g></g><path class="cls-86" d="M515.64,676.15v.49l-.89-.09c.28-144.21,3-145.26,4.18-145.7,2.73-1,11.55-2.49,22.06-4,20.21-2.84,46.69-5.76,48.37-5.94l.42,0,0,.45c0,1.72,1.64,62.06,3.11,142.55L592,664c-1.42-77.41-2.95-136.19-3.11-142.1-3.56.39-28.89,3.22-48.2,5.93-10.34,1.45-19,2.88-21.59,3.87C517.7,533.41,515.87,559.85,515.64,676.15Z" transform="translate(-381.9 -508.5)"/><g class="cls-2"><g class="cls-99"><g class="cls-2"><path class="cls-12" d="M404.7,766.34l-22.79-12.4.13-72,22.79,12.4-.13,72" transform="translate(-381.9 -508.5)"/></g></g></g></g></svg>