<svg id="Layer_1" data-name="Layer 1" xmlns="http://www.w3.org/2000/svg" viewBox="0 0 292.79 554.16"><defs><style>.cls-1,.cls-7{fill:#fff;}.cls-1,.cls-2,.cls-3,.cls-4,.cls-8,.cls-9{stroke:#282828;}.cls-1,.cls-2,.cls-3,.cls-4,.cls-6,.cls-7,.cls-8,.cls-9{stroke-miterlimit:10;}.cls-2,.cls-6{fill:none;}.cls-3{fill:#dbdbdb;}.cls-4{fill:#88079b;}.cls-5{fill:#282828;}.cls-6,.cls-7{stroke:#000;}.cls-8{fill:#d18c79;}.cls-10{fill:#900089;}</style></defs><title>esmeralta-watering</title><path class="cls-1" d="M168.71,227.81l-1.87,14.61-.75,5.79-17.68,17.64L135.29,264l-7.07-5.33s-2.56-5.94-2.42-7.74.74-6.73.74-6.73.54-5.22,1.62-7.4a21.83,21.83,0,0,0,2.52-7c.39-2.74.86-4.17.3-5.68s-1.17-2.05-.92-3.56a24.23,24.23,0,0,1,.92-3.76c.27-.76,1.08-2.87,1.24-3.25s.93-2.34,1.05-2.69a21.83,21.83,0,0,0,.57-2.29c0-.26-.11-1.18-.11-1.18s3.09,2.67,3.22,2.92,2.58,1.44,3.56,1.13,3.45-.53,4.73-.84,2.33-.62,2.75-.77,2.77-.86,2.77-.86l1.81-.84.75-.52" transform="translate(-53.28 -130.76)"/><path class="cls-2" d="M148.49,606.33s2.68,13.82,2,19.24.11,13.57.11,13.57-24.26,17.31-25.31,22.73,5.6,14.25,5.6,14.25,10.15,4.75,15.4,0,10.26-16.28,10.26-16.28l11.09-28.5L168,609v-7.89Z" transform="translate(-53.28 -130.76)"/><path class="cls-2" d="M189.32,609.63l-4.2,34.6s2.8,26.12,2.1,29.86S173.34,685.62,168,684.26s-8.59,1.7-11.5-1.69,1.69-24.6,1.69-24.6l11.85-20.75,1.16-29.4Z" transform="translate(-53.28 -130.76)"/><path class="cls-3" d="M81.15,302.05l4.5.5-.51.06c-1.31-.18-2.62-.33-3.93-.46A.33.33,0,0,1,81.15,302.05Z" transform="translate(-53.28 -130.76)"/><path class="cls-3" d="M85.14,302.61l-.49.05-3.41-.46,0-.05C82.52,302.28,83.83,302.43,85.14,302.61Z" transform="translate(-53.28 -130.76)"/><path class="cls-3" d="M81.24,302.2l3.41.46C82.87,302.87,81.65,303,81.24,302.2Z" transform="translate(-53.28 -130.76)"/><path class="cls-3" d="M104.91,291.21c0,1.71-.66,10.64-1.64,13.3l-2.51-.28c-2.28-.66-6-.91-7.22-1.27a20.19,20.19,0,0,0-7.89-.41l-4.5-.5a1.65,1.65,0,0,1-.08-.42c-.77-13.79-.47-11.76-1.8-19.66-.3-1.77-2.42-17.42-2.29-19,.26-3.21.81-13,.81-13l2.21-8.1,4.84-5.6,9.85-7.09,7.79-3s14.28,23.18,24.08,31,4.62,6.57,21.86,8.6a204.25,204.25,0,0,0,17.69-17.64l5-39.49,48.51,6.7s16.58,16.32,18.9,20.4S229,255.94,229,255.94l-22.09-24.73.73,15.79-10,75.09-67,11.68S126.76,318,113.91,298.6c-2-3.06-5.06-8.79-7.65-12.26C105.63,285.51,104.82,288.34,104.91,291.21Z" transform="translate(-53.28 -130.76)"/><path class="cls-3" d="M101.91,304.68a5.75,5.75,0,0,0-1.15-.45l2.51.28c0,.08-.07.16-.1.23Z" transform="translate(-53.28 -130.76)"/><path class="cls-3" d="M101.91,304.68l1.26.06s0,0,0,0l-1.17-.06Z" transform="translate(-53.28 -130.76)"/><path class="cls-3" d="M103.15,304.78c-.21.46-.44.62-.67.32a1.87,1.87,0,0,0-.5-.38Z" transform="translate(-53.28 -130.76)"/><path class="cls-4" d="M105.67,278.53l-9.88-49.37,7.79-3s7.34,25.21,17.14,33,9.74,15.27,35.5,8.48c0,0,4.06,2.1,16.65-18l-.6-41.06,6.32-3.61s-2.33,9.39,0,13.46,26.51,42.39,26.51,42.39l-7.48,61.22-67,11.68S127.86,318,115,298.6,105.67,278.53,105.67,278.53Z" transform="translate(-53.28 -130.76)"/><path class="cls-4" d="M197.62,322.09l7.4,6.37s16.32,31.2,18.69,41.35,35.43,165.53,35.43,165.53l-3.67,77.34L208.41,632s-8.94,4.45-13.84-.75-2.34-16.29-2.34-16.29-5.25,5.82-14.78,3A14.65,14.65,0,0,1,167,605.9s-3,2.77-15.38,1.5-11.38-18.92-11.38-18.92l-2.17-22.84s1-4.32-2.78-4.8-25.65.76-32.9,10.92-6.38,32.52-20.32,31-24.74-3.39-28-4.52S74,528.12,74,528.12,109.93,427,108.27,389.67c0,0,7.43-27.62,13.73-39.61s8.63-16.29,8.63-16.29Z" transform="translate(-53.28 -130.76)"/><path class="cls-5" d="M185.12,644.23s3.29,27.83,2.1,29.86-8.64,11-19.19,10.17-16.34,5.88-9.81-26.29l11.85-20.75S158.57,658,163,665.5s16.67,8.9,20.3-13.68Z" transform="translate(-53.28 -130.76)"/><path class="cls-5" d="M150.27,639.05s-21.86,16-25,23.13c0,0-1.63,4.31,5.82,14.15,0,0,15.62,11.69,25.4-16.69l6.77-18.24s-11.6,26-17.79,25.44-15.83,2.74-11.43-7.17S150.27,639.05,150.27,639.05Z" transform="translate(-53.28 -130.76)"/><path class="cls-4" d="M95.79,273.24" transform="translate(-53.28 -130.76)"/><path class="cls-1" d="M122,168c.11,6,1.3,25.78,4.73,30.67C133.19,207.94,138.6,211,138.6,211c2.35.11,11.74.18,17.85-7,2.82-3.31,6.93-12.35,7.55-22.47a222.18,222.18,0,0,0,0-23.68s-1.79-9.23-7.59-11.46-22.75-.61-26.74,2.06C123.43,152.68,122,168,122,168Z" transform="translate(-53.28 -130.76)"/><path class="cls-6" d="M164.92,168.65s-.5-2.17-4-1.81a33,33,0,0,0-7.82,2.25" transform="translate(-53.28 -130.76)"/><path class="cls-6" d="M139.81,167.59s-4.53-3.1-7.75-2.71a14.22,14.22,0,0,0-5.49,2.09" transform="translate(-53.28 -130.76)"/><path class="cls-7" d="M162.72,172.17a7.39,7.39,0,0,0-7.93-2,19.55,19.55,0,0,0-3.14,2.94s5.42,2.46,7.15,1.49S162.72,172.17,162.72,172.17Z" transform="translate(-53.28 -130.76)"/><path class="cls-7" d="M140.63,171.83s-3.59-4.32-6.85-3.35c-3.84,1.14-3.71,2.11-3.71,2.11s4.67,4.53,7.61,2.88Z" transform="translate(-53.28 -130.76)"/><path class="cls-8" d="M152.06,194.17s-3.75,4.48-7.51,3.35a11.54,11.54,0,0,1-5.79-4.23A8.07,8.07,0,0,1,145,193a7.51,7.51,0,0,0,3-.22c1.51-.47,4,1.38,4,1.38a19.74,19.74,0,0,1-7,.81,19,19,0,0,1-6.26-1.69" transform="translate(-53.28 -130.76)"/><ellipse cx="103.7" cy="41.47" rx="2.24" ry="2.17"/><ellipse cx="82.77" cy="40.56" rx="2.24" ry="2.17"/><path class="cls-2" d="M147.85,171.19c.13,4.14.27,8.33,1.71,12.3.31.86.61,2-.23,2.54s-2.61.24-3.7.3" transform="translate(-53.28 -130.76)"/><path class="cls-2" d="M146.4,171.19c-.12,4.14-.24,8.33-1.53,12.3-.29.86-.5,1.89.2,2.54s2.13.12,3.33.31" transform="translate(-53.28 -130.76)"/><path class="cls-9" d="M145.81,145.41a1.67,1.67,0,0,1,.13,1.27L144.79,145A1.13,1.13,0,0,1,145.81,145.41Z" transform="translate(-53.28 -130.76)"/><path class="cls-9" d="M101,258.05c6.59-17.77,1.52-11.72.74-18.72s-.45-2.33-2.12-12S95,216.55,97.81,209.44s2.66-8.44,3.88-15.78a185.38,185.38,0,0,1,3.88-18.91c2.34-9.42,2.67-10.75,3.67-15.42s-.67-6.68,5-14.34,10.08-10,15.71-11.66,11.06-2.67,15.34-1.67,7.28.34,13.62,4.34,9.66,5.18,11,11.92,3,8.08,4,13.41,3.66,7.15,3,13.41-2.67,7.75-1.34,13,1,3.85,6.34,9.89,8,3.7,8.66,13.7.34,13.33,0,17.33-.64,10.82,3.26,17,9.41,17.33,4.74,24.66-7.33,3.33-4.66,13.33.66,26.34-2.34,28.67,2.67,14.67-4-1-10.66-11.67-10.66-21.67-1.34-3.8.66-13.9,1.34-10.84-1-13.3-5.56.4-5.78-7.2-.79-1.94.45-11.6,7-10,1.17-14.34-6.19-.67-10.15-6-8.92-14.16-8.42-15.83,4.54-2.95,6.16-7.26,2.12-3.28,3.53-9.57c1.47-6.6,1.71-4.26,1.54-11.26-.2-8,2.29-4-1-14.08S157,166.82,151.53,156s-4.88-9-4.88-9l-.21-.32a1.62,1.62,0,0,0-.13-1.27,1.13,1.13,0,0,0-1-.41l1.15,1.68a9.33,9.33,0,0,1-1.15,2.65c-2.72,4.67-5.07,7.67-10.06,9.67s-10.63,2.5-11.37,6.43-1.09-1-.91,11.86c.18,12.48,1.84,15.64,2.83,19.36.72,2.72,5.52,7.71,6.71,9.25.83,1.08,2.11.19,1.85,2.83s-5.17,11.08-3.39,13.75-.16,10.85-2.27,14.18S127.34,247,126.46,249c-.65,1.47.68,6.88,2.22,10.32a8.63,8.63,0,0,0,1.66,2.68c2,1.74,4.47,2.06,3.35,10.53S132,286,130,289.66s-1.08.43-5.38,11,.67,25-5.66,12.67-2.67-1-10-15-5.44-14-7.22-21.33S94.36,275.83,101,258.05Z" transform="translate(-53.28 -130.76)"/><path class="cls-2" d="M100.76,212.23" transform="translate(-53.28 -130.76)"/><path class="cls-2" d="M86.31,226" transform="translate(-53.28 -130.76)"/><path class="cls-1" d="M80.87,301.92l22.15,3,2.28,103.72s5.6,6.56,5.6,8.71S109,444.51,109,444.51s.47,1.58-2,1.36-2-14.82-2-14.82-1-2.71-2.56-1.13-.94,15.27-.94,15.27,5,1.13,5.6,1.69,2.45.29,1.2,1-7.61-.63-7.61-.63-.94-.45-.7-9.72-2.57,8.93.7,11.08c0,0,7-.57,7.23.34s-6.3,1.24-6.3,1.24-4.08.68-4.67-1-3.26-11.88-3.26-14,2.1-18.43,2.33-21.71-3.5-21.6-4.78-25.78-7.59-28-8.29-31.21-2.1-55.86-2.33-59.71" transform="translate(-53.28 -130.76)"/><path class="cls-1" d="M239.81,237.75l-10.94,19.07,79.84,64.37s1.77,8.32,3.45,9.62,22.37,14.92,22.37,14.92,1,1.32,2.25-.73-10.4-10.48-10.4-10.48-1.5-2.46.65-2.69,12.52,8.49,12.52,8.49-2.13,4.59-2,5.39-1.25,2.08,0,1.51,4.09-6.31,4.09-6.31.21-1-7.19-6.41,8.53,3.39,8.25,7.23c0,0-4.64,5.11-4.08,5.84s4.76-4.16,4.76-4.16,3-2.77,2-4.25-7.34-9.71-9-11-15.69-9.49-18.4-11.29-14.81-15.76-17.31-19.28-17.4-22.84-19.46-25.29-40.52-35.19-43.39-37.69" transform="translate(-53.28 -130.76)"/><line class="cls-2" x1="109.6" y1="87.31" x2="111.27" y2="87.31"/><path class="cls-2" d="M154,207s-1.94-.71.76,3.74" transform="translate(-53.28 -130.76)"/><path class="cls-10" d="M121.86,153.09c-.29,1-.58,2-.89,3V161c.55-10.45,10.3-21.48,21-20.27,5.81.66,12.27,2.45,16.87,6.23,4.07,3.36,5.81,6.67,6.46,11.94-.2-1.64.2-3.36,0-5-.65-5.27-2.39-8.58-6.46-11.94-4.78-3.94-12.26-6.17-18.39-6.36-10.16-.31-19,10.79-19.54,20.58-.08,1.46.43,3.52,0,4.91.31-1,.6-2,.89-3,.45-1.55-.44-3.48,0-5Z" transform="translate(-53.28 -130.76)"/><path class="cls-1" d="M104.59,208.44" transform="translate(-53.28 -130.76)"/><path class="cls-2" d="M146.67,263.33s.26-.88-2-3.12a33.75,33.75,0,0,0-5.76-4.23l-4.31-1.26a34,34,0,0,0-4.84.05" transform="translate(-53.28 -130.76)"/><path class="cls-2" d="M148.58,262.87s-.49-.75,1-3.57a33.58,33.58,0,0,1,4.27-5.73l3.74-2.48a35,35,0,0,1,4.64-1.38" transform="translate(-53.28 -130.76)"/></svg>