<?xml version="1.0" encoding="utf-8"?>
<!-- Generator: Adobe Illustrator 21.1.0, SVG Export Plug-In . SVG Version: 6.00 Build 0)  -->
<svg version="1.1" xmlns="http://www.w3.org/2000/svg" xmlns:xlink="http://www.w3.org/1999/xlink" x="0px" y="0px"
	 viewBox="0 0 500 700" style="enable-background:new 0 0 500 700;" xml:space="preserve">
<style type="text/css">
	.st0{fill:#FFFFFF;stroke:#282828;stroke-miterlimit:10;}
	.st1{fill:#DBDBDB;stroke:#282828;stroke-miterlimit:10;}
	.st2{fill:#88079B;stroke:#282828;stroke-miterlimit:10;}
	.st3{fill:#282828;}
	.st4{fill:none;stroke:#000000;stroke-miterlimit:10;}
	.st5{fill:#FFFFFF;stroke:#000000;stroke-miterlimit:10;}
	.st6{fill:#D18C79;stroke:#282828;stroke-miterlimit:10;}
	.st7{fill:none;stroke:#282828;stroke-miterlimit:10;}
	.st8{stroke:#282828;stroke-miterlimit:10;}
	.st9{fill:#900089;}
</style>
<g id="Layer_1">
	<path class="st0" d="M247.3,234c0.9,7.3,1.9,14.6,1.9,14.6l0.7,5.8l17.7,17.6l13.1-1.9l7.1-5.3c0,0,2.6-5.9,2.4-7.7
		c-0.1-1.8-0.7-6.7-0.7-6.7s-0.5-5.2-1.6-7.4c-1.1-2.2-2.1-4.3-2.5-7c-0.4-2.7-0.9-4.2-0.3-5.7c0.6-1.5,1.2-2.1,0.9-3.6
		c-0.2-1.5-0.6-3-0.9-3.8c-0.3-0.8-1.1-2.9-1.2-3.3c-0.2-0.4-0.9-2.3-1.1-2.7c-0.1-0.3-0.6-2-0.6-2.3s0.1-1.2,0.1-1.2
		s-3.1,2.7-3.2,2.9s-2.6,1.4-3.6,1.1s-3.5-0.5-4.7-0.8c-1.3-0.3-2.3-0.6-2.7-0.8c-0.4-0.1-2.8-0.9-2.8-0.9l-1.8-0.8l-0.7-0.5"/>
	<path class="st0" d="M267.5,612.5c0,0-2.7,13.8-2,19.2c0.7,5.4-0.1,13.6-0.1,13.6s24.3,17.3,25.3,22.7c1.1,5.4-5.6,14.2-5.6,14.2
		s-10.2,4.7-15.4,0S259.5,666,259.5,666l-11.1-28.5l-0.4-22.3v-7.9L267.5,612.5z"/>
	<path class="st0" d="M226.7,615.8l4.2,34.6c0,0-2.8,26.1-2.1,29.9c0.7,3.7,13.9,11.5,19.2,10.2s8.6,1.7,11.5-1.7
		c2.9-3.4-1.7-24.6-1.7-24.6L246,643.4l-1.2-29.4L226.7,615.8z"/>
	<path class="st1" d="M334.9,308.2c-1.5,0.2-3,0.3-4.5,0.5c0.2,0,0.3,0,0.5,0.1C332.2,308.6,333.5,308.5,334.9,308.2
		C334.8,308.3,334.9,308.3,334.9,308.2z"/>
	<path class="st1" d="M330.9,308.8c0.2,0,0.3,0,0.5,0.1c1.1-0.2,2.3-0.3,3.4-0.5c0,0,0,0,0-0.1C333.5,308.5,332.2,308.6,330.9,308.8
		z"/>
	<path class="st1" d="M334.8,308.4c-1.1,0.1-2.3,0.3-3.4,0.5C333.2,309.1,334.4,309.2,334.8,308.4z"/>
	<path class="st1" d="M311.1,297.4c-0.1,1.7,0.7,10.6,1.6,13.3c0.8-0.1,1.7-0.2,2.5-0.3c2.3-0.7,5.9-0.9,7.2-1.3
		c3-0.8,5.8-0.7,7.9-0.4c1.5-0.2,3-0.3,4.5-0.5c0-0.1,0.1-0.3,0.1-0.4c0.8-13.8,0.5-11.8,1.8-19.7c0.3-1.8,2.4-17.4,2.3-19
		c-0.3-3.2-0.8-13-0.8-13L336,248l-4.8-5.6l-9.8-7.1l-7.8-3c0,0-14.3,23.2-24.1,31c-9.8,7.8-4.6,6.6-21.9,8.6c0,0-9.2-7.9-17.7-17.6
		l-5.1-39.5l-32.2-23.7c0,0-4.4,2.2-6.7,6.2c-2.3,4.1-13.6,15.8-13.6,15.8l16.8,24.3l2.7,14l6.6,76.9l67,11.7
		c0,0,3.9-15.8,16.7-35.2c2-3.1,5.1-8.8,7.7-12.3C310.4,291.7,311.2,294.5,311.1,297.4z"/>
	<path class="st1" d="M314.1,310.9c0.3-0.2,0.7-0.3,1.2-0.4c-0.8,0.1-1.7,0.2-2.5,0.3c0,0.1,0.1,0.2,0.1,0.2
		C313.3,310.9,313.7,310.9,314.1,310.9z"/>
	<path class="st1" d="M314.1,310.9c-0.4,0-0.8,0-1.3,0.1c0,0,0,0,0,0C313.3,311,313.7,310.9,314.1,310.9
		C314.1,310.9,314.1,310.9,314.1,310.9z"/>
	<path class="st1" d="M312.9,311c0.2,0.5,0.4,0.6,0.7,0.3c0.1-0.1,0.3-0.3,0.5-0.4C313.7,310.9,313.3,311,312.9,311z"/>
	<path class="st2" d="M310.4,284.7l9.9-49.4l-7.8-3c0,0-7.3,25.2-17.1,33s-9.7,15.3-35.5,8.5c0,0-4.1,2.1-16.7-18l0.6-41.1l-6.3-3.6
		c0,0,2.3,9.4,0,13.5c-2.3,4.1-26.5,42.4-26.5,42.4l7.5,61.2l67,11.7c0,0,2.8-15.8,15.6-35.2C313.9,285.4,310.4,284.7,310.4,284.7z"
		/>
	<path class="st2" d="M218.4,328.3l-7.4,6.4c0,0-16.3,31.2-18.7,41.3s-35.4,165.5-35.4,165.5l3.7,77.3l47.1,19.3
		c0,0,8.9,4.5,13.8-0.7c4.9-5.2,2.3-16.3,2.3-16.3s5.3,5.8,14.8,3s10.4-12.1,10.4-12.1s3,2.8,15.4,1.5c12.4-1.3,11.4-18.9,11.4-18.9
		l2.2-22.8c0,0-1-4.3,2.8-4.8c3.8-0.5,25.6,0.8,32.9,10.9s6.4,32.5,20.3,31c13.9-1.5,24.7-3.4,28-4.5S342,534.3,342,534.3
		s-35.9-101.2-34.3-138.5c0,0-7.4-27.6-13.7-39.6c-6.3-12-8.6-16.3-8.6-16.3L218.4,328.3z"/>
	<path class="st3" d="M230.9,650.4c0,0-3.3,27.8-2.1,29.9s8.6,11,19.2,10.2c10.5-0.8,16.3,5.9,9.8-26.3L246,643.4
		c0,0,11.5,20.8,7.1,28.3s-16.7,8.9-20.3-13.7L230.9,650.4z"/>
	<path class="st3" d="M265.8,645.2c0,0,21.9,15.9,25,23.1c0,0,1.6,4.3-5.8,14.2c0,0-15.6,11.7-25.4-16.7l-6.8-18.2
		c0,0,11.6,26,17.8,25.4c6.2-0.6,15.8,2.7,11.4-7.2S265.8,645.2,265.8,645.2z"/>
	<g>
		<path class="st0" d="M294,174.2c-0.1,6-1.3,25.8-4.7,30.7c-6.5,9.2-11.9,12.3-11.9,12.3c-2.3,0.1-11.7,0.2-17.8-7
			c-2.8-3.3-6.9-12.3-7.5-22.5c-0.7-11.8,0-23.7,0-23.7s1.8-9.2,7.6-11.5c5.8-2.2,22.7-0.6,26.7,2.1
			C292.6,158.9,294,174.2,294,174.2z"/>
		<path class="st4" d="M251.1,174.8c0,0,0.5-2.2,4-1.8s7.8,2.2,7.8,2.2"/>
		<path class="st4" d="M276.2,173.8c0,0,4.5-3.1,7.7-2.7c3.2,0.4,4.9,2,5.5,2.1"/>
		<path class="st5" d="M253.3,178.4c0,0,3.2-3.8,7.9-2.1c0,0,2.4,1.8,3.1,2.9c0,0-5.4,2.5-7.1,1.5
			C255.5,179.8,253.3,178.4,253.3,178.4z"/>
		<path class="st5" d="M275.4,178c0,0,3.6-4.3,6.8-3.3c3.8,1.1,3.7,2.1,3.7,2.1s-4.7,4.5-7.6,2.9S275.4,178,275.4,178z"/>
		<path class="st6" d="M264,200.4c0,0,3.8,4.5,7.5,3.4s5.8-4.2,5.8-4.2c-3.4-1.5-6.2-0.3-6.2-0.3s-1.5,0.3-3.1-0.2
			C266.5,198.5,264,200.4,264,200.4s3.5,1.1,7,0.8c3.6-0.3,6.3-1.7,6.3-1.7"/>
		<path d="M261,179.4c-0.6,1.1-1.9,1.5-3,0.9c-1.1-0.6-1.5-1.9-0.9-2.9c0.6-1.1,1.9-1.5,3-0.9S261.6,178.4,261,179.4z"/>
		<path d="M281.9,178.5c-0.6,1.1-1.9,1.5-3,0.9c-1.1-0.6-1.5-1.9-0.9-2.9c0.6-1.1,1.9-1.5,3-0.9
			C282.1,176.2,282.5,177.5,281.9,178.5z"/>
		<path class="st7" d="M268.2,177.4c-0.1,4.1-0.3,8.3-1.7,12.3c-0.3,0.9-0.6,2,0.2,2.5c1,0.7,2.6,0.2,3.7,0.3"/>
		<path class="st7" d="M269.6,177.4c0.1,4.1,0.2,8.3,1.5,12.3c0.3,0.9,0.5,1.9-0.2,2.5c-0.8,0.7-2.1,0.1-3.3,0.3"/>
		<path class="st8" d="M270.2,151.6c-0.2,0.2-0.3,0.6-0.1,1.3l1.1-1.7C271.2,151.2,270.6,151.1,270.2,151.6z"/>
		<path class="st8" d="M315.1,264.2c-6.6-17.8-1.5-11.7-0.7-18.7s0.4-2.3,2.1-12c1.7-9.7,4.5-10.8,1.8-17.9
			c-2.8-7.1-2.7-8.4-3.9-15.8c-1.2-7.3-1.6-9.5-3.9-18.9c-2.3-9.4-2.7-10.8-3.7-15.4s0.7-6.7-5-14.3c-5.7-7.7-10.1-10-15.7-11.7
			c-5.6-1.7-11.1-2.7-15.3-1.7s-7.3,0.3-13.6,4.3c-6.3,4-9.7,5.2-11,11.9c-1.3,6.7-3,8.1-4,13.4s-3.7,7.2-3,13.4
			c0.7,6.3,2.7,7.8,1.3,13c-1.3,5.3-1,3.9-6.3,9.9c-5.3,6-8,3.7-8.7,13.7c-0.7,10-0.3,13.3,0,17.3c0.3,4,0.6,10.8-3.3,17
			c-3.9,6.2-9.4,17.3-4.7,24.7c4.7,7.3,7.3,3.3,4.7,13.3s-0.7,26.3,2.3,28.7s-2.7,14.7,4-1c6.7-15.7,10.7-11.7,10.7-21.7
			s1.3-3.8-0.7-13.9s-1.3-10.8,1-13.3c2.3-2.5,5.6,0.4,5.8-7.2c0.2-7.6,0.8-1.9-0.4-11.6c-1.2-9.7-7-10-1.2-14.3
			c5.8-4.3,6.2-0.7,10.1-6c4-5.3,8.9-14.2,8.4-15.8c-0.5-1.7-4.5-2.9-6.2-7.3c-1.6-4.3-2.1-3.3-3.5-9.6c-1.5-6.6-1.7-4.3-1.5-11.3
			c0.2-8.1-2.3-4,1-14.1c3.3-10,7.1,1.5,12.5-9.3c5.5-10.8,4.9-9,4.9-9l0.2-0.3c-0.1-0.6,0-1,0.1-1.3c0.3-0.5,1-0.4,1-0.4l-1.1,1.7
			c0.1,0.6,0.5,1.5,1.1,2.6c2.7,4.7,5.1,7.7,10.1,9.7s10.6,2.5,11.4,6.4c0.7,3.9,1.1-1,0.9,11.9c-0.2,12.5-1.8,15.6-2.8,19.4
			c-0.7,2.7-5.5,7.7-6.7,9.2c-0.8,1.1-2.1,0.2-1.9,2.8c0.3,2.7,5.2,11.1,3.4,13.8c-1.8,2.7,0.2,10.8,2.3,14.2
			c2.1,3.3,1.3,10.3,2.2,12.3c0.7,1.5-0.7,6.9-2.2,10.3c-0.6,1.2-1.1,2.2-1.7,2.7c-2,1.7-4.5,2.1-3.4,10.5
			c1.1,8.5,1.7,13.5,3.7,17.1c2,3.7,1.1,0.4,5.4,11c4.3,10.6-0.7,25,5.7,12.7s2.7-1,10-15s5.4-14,7.2-21.3
			C316.1,275.8,321.7,282,315.1,264.2z"/>
	</g>
	<path class="st0" d="M335.1,308.1l-22.1,3l-2.3,103.7c0,0-5.6,6.6-5.6,8.7s1.9,27.1,1.9,27.1s-0.5,1.6,2,1.4c2.5-0.2,2-14.8,2-14.8
		s1.1-2.7,2.6-1.1s0.9,15.3,0.9,15.3s-5,1.1-5.6,1.7s-2.5,0.3-1.2,1c1.3,0.7,7.6-0.6,7.6-0.6s0.9-0.5,0.7-9.7s2.6,8.9-0.7,11.1
		c0,0-7-0.6-7.2,0.3c-0.2,0.9,6.3,1.2,6.3,1.2s4.1,0.7,4.7-1c0.6-1.7,3.3-11.9,3.3-14s-2.1-18.4-2.3-21.7s3.5-21.6,4.8-25.8
		c1.3-4.2,7.6-28,8.3-31.2s2.1-55.9,2.3-59.7"/>
	<path class="st0" d="M196.4,175.9l-3.7-21.3L194,51c0,0,5.6-6.6,5.6-8.7c0-2.1-1.9-27.1-1.9-27.1s0.5-1.6-2-1.4s-2,14.8-2,14.8
		s-1.1,2.7-2.6,1.1c-1.5-1.6-0.9-15.3-0.9-15.3s5-1.1,5.6-1.7s2.5-0.3,1.2-1c-1.3-0.7-7.6,0.6-7.6,0.6s-0.9,0.5-0.7,9.7
		s-2.6-8.9,0.7-11.1c0,0,7,0.6,7.2-0.3s-6.3-1.2-6.3-1.2s-4.1-0.7-4.7,1s-3.3,11.9-3.3,14s2.1,18.4,2.3,21.7s-3.5,21.6-4.8,25.8
		s-7.6,28-8.3,31.2c-0.7,3.2-0.8,56.1-1,59.9s2.5,10.7,3.8,16.9c1.4,6.3,5.1,14.2,11.7,23.9c5.7,8.3,3.5,6,6.1,9.2"/>
	<path class="st7" d="M196.4,175.5c2.8,3.9,6.2,6.2,9.7,10.1c1.7,1.9,3.3,4.4,5.5,5.8"/>
	<line class="st7" x1="253.1" y1="224.3" x2="251.5" y2="224.3"/>
	<path class="st7" d="M262,213.2c0,0,1.9-0.7-0.8,3.7"/>
	<g>
		<g>
			<path class="st9" d="M294.2,164.3c0.3,1,0.6,2,0.9,3c-0.4-1.4,0.1-3.5,0-4.9c-0.5-9.8-9.4-20.9-19.5-20.6
				c-6.1,0.2-13.6,2.4-18.4,6.4c-4.1,3.4-5.8,6.7-6.5,11.9c-0.2,1.6,0.2,3.4,0,5c0.6-5.3,2.4-8.6,6.5-11.9
				c4.6-3.8,11.1-5.6,16.9-6.2c10.8-1.2,20.5,9.8,21.1,20.3c0-1.6,0-3.3,0-4.9c-0.3-1-0.6-2-0.9-3
				C294.6,160.8,293.7,162.7,294.2,164.3L294.2,164.3z"/>
		</g>
	</g>
	<path class="st7" d="M269.3,269.5c0,0-0.3-0.9,2-3.1c2.3-2.2,5.8-4.2,5.8-4.2l4.3-1.3c0,0,3-0.2,4.8,0"/>
	<path class="st7" d="M267.4,269.1c0,0,0.5-0.8-1-3.6c-1.5-2.8-4.3-5.7-4.3-5.7l-3.7-2.5c0,0-2.8-1-4.6-1.4"/>
</g>
<g id="Layer_2">
</g>
</svg>
