<svg xmlns="http://www.w3.org/2000/svg" viewBox="0 0 294.38 956.66"><defs><style>.cls-1,.cls-6,.cls-9{fill:none;}.cls-1,.cls-2,.cls-3,.cls-5,.cls-8{stroke:#282828;}.cls-1,.cls-2,.cls-3,.cls-5,.cls-6,.cls-7,.cls-8,.cls-9{stroke-miterlimit:10;}.cls-2{fill:#dbdbdb;}.cls-3{fill:#88079b;}.cls-4,.cls-7{fill:#fff;}.cls-5{fill:#474747;}.cls-6,.cls-7{stroke:#000;}.cls-8{fill:#d18c79;}.cls-9{stroke:#88079b;}.cls-10{fill:#282828;}</style></defs><title>esmeralda-dwg</title><g id="Layer_2" data-name="Layer 2"><g id="Layer_2-2" data-name="Layer 2"><path class="cls-1" d="M158.58,841.06s-3.82,20.37-2.82,28.37-.17,20-.17,20,34.67,25.5,36.17,33.5-8,21-8,21-14.5,7-22,0-14.66-24-14.66-24l-15.84-42-.59-32.87V833.43Z"/><path class="cls-1" d="M100.26,845.93l6,51s-4,38.5-3,44,19.82,17,27.41,15,12.28,2.5,16.43-2.5-2.43-36.25-2.43-36.25l-16.92-30.58-1.67-43.33Z"/><path class="cls-1" d="M140,225.18s2.61,35.34,0,36.63-39.25-19.23-54.58-34.64-48.67-58.74-48.67-58.74l8-100.67,10.5-16.58S64,53.93,69,51.18,90,28.93,90,28.93s-1.25-9-5-3-6.25,9.5-8.5,9.25,17.75-19.5,17.75-19.5,4.5-6.25.25-6S79,25.18,79,25.18,104.18-7.69,91.18,3.31,76,22.43,76,22.43,92.75-2,86.3.71,71.09,20.27,71.09,20.27L69.17,18.1s.13-3.83,6.88-7.16,4.12-5.42,4.12-5.42a26.48,26.48,0,0,0-9.12,4.17C66.47,13.28,59.19,16,59.19,16A158.76,158.76,0,0,0,50.68,32.1L19.76,59.43S2.26,145.93.51,171.93c0,0,62.75,105.25,73,116.25s-1.25,139.75-1.25,139.75-24.17,43-29.5,64.43S.51,736.43.51,736.43l5.25,114,65.08,27.33s14.59,8.67,21.92,0,3.33-24,3.33-24,4,6,16,5.33a22,22,0,0,0,17.33-10l2.67-8.67s-.67,2.67,17.33,2.67,20-18.67,20-18.67l4-43.33s-4-11.33,18.67-6.67,28.67,10,36,20.67,6.67,42.67,25.33,40.67,36.67-4,40-6.67-25.33-94.67-25.33-94.67-55.33-150-52-225.33c0,0-3.33-34.67-9.33-46.67s-18-17.33-14-48l24.67-48.67,5.32,31.33-1.82,152.67s-8,9.67-8,12.83,2.67,40,2.67,40-.67,2.33,2.83,2,2.83-21.83,2.83-21.83,1.5-4,3.67-1.67,1.33,22.5,1.33,22.5-7.17,1.67-8,2.5-3.5.42-1.71,1.42,10.88-.92,10.88-.92,1.33-.67,1-14.33,3.67,13.17-1,16.33c0,0-10-.83-10.33.5s9,1.83,9,1.83,5.83,1,6.67-1.5,4.67-17.5,4.67-20.67-3-27.17-3.33-32,5-31.83,6.83-38,10.83-41.33,11.83-46,3-82.33,3.33-88,3.33-30.33,4.67-39.67,6.67-23,2.33-39-56.67-30.33-61.67-33-12.29-6.54-13.79-13.79,2.5-30.38,2.5-30.38Z"/><path class="cls-2" d="M78.65,219.9A25.52,25.52,0,0,0,69,229.1c-3.32,6-19.46,23.29-19.46,23.29l24,35.79,3.91,20.62L73,419.36l121.27,21.8s-6.2-25.09,12.15-53.66c2.89-4.5,7.22-13,10.94-18.06.89-1.23,2.05,2.95,1.93,7.18-.09,3.15,1.51,23,3.47,20.48,1.55-2,10.31-2.45,12.77-3.16,9.83-2.83,20.16,0,20.39-4.18,1.11-20.32.58-14.42,2.46-26.07.42-2.63,2.46-27.79,3.81-29.38,3.51-4.14,2.27-21.1,2.27-21.1L261.66,303l-9.31-8.42-18.49-9.41-11.13-4.4s-20.4,34.17-34.4,45.67-6.61,9.68-31.24,12.67a295.06,295.06,0,0,1-25.26-26l-7.22-58.2Z"/><path class="cls-3" d="M115.58,249.58s3.32,13.84,0,19.84S77.71,331.9,77.71,331.9L73,419.36l121.27,21.8s-6.2-25.09,12.15-53.66,13.35-29.57,13.35-29.57l14.11-72.76-11.13-4.4s-10.48,37.16-24.48,48.66-13.93,22.5-50.71,12.5c0,0-5.8,3.09-23.79-26.5l.86-60.52Z"/><path class="cls-4" d="M196.21,190.78c-.16,8.83-1.85,38-6.75,45.21-9.23,13.59-17,18.16-17,18.16-3.35.16-16.77.27-25.5-10.28-4-4.88-9.9-18.2-10.78-33.11a339.75,339.75,0,0,1,0-34.9s2.57-13.61,10.86-16.89,32.49-.91,38.19,3C194.18,168.13,196.21,190.78,196.21,190.78Z"/><path class="cls-5" d="M219.28,288.19A7,7,0,0,0,223.9,279a4.83,4.83,0,0,0,3.39-5.07c.6-1.65-.95-23-2.05-24.36a4.81,4.81,0,0,0,2.61-4.9,4.88,4.88,0,0,0-1-4.83,4.81,4.81,0,0,0,2.66-5.08,4.89,4.89,0,0,0-1.25-5.07,4.82,4.82,0,0,0,2.2-5,4.9,4.9,0,0,0-1.38-5.08,4.81,4.81,0,0,0,1.34-4.59,4.9,4.9,0,0,0-1.42-5,4.81,4.81,0,0,0,2.16-5.43,4.91,4.91,0,0,0-1.47-5,4.79,4.79,0,0,0,1-4.72,4.93,4.93,0,0,0-2.48-5.55,5,5,0,0,0-2-.58,4.84,4.84,0,0,0-.34-2.22,4.94,4.94,0,0,0-2.53-5.35l-.09,0-.06-.13a5,5,0,0,0-2.55-5.26l-.12-.06a4.85,4.85,0,0,0-.35-.91c.33-2,3-16.34,1.08-17.38a5,5,0,0,0-1.33-.48,4.85,4.85,0,0,0-.47-1.11c.27-2,.69-7.22-1.2-8.23a5,5,0,0,0-1.45-.51,4.85,4.85,0,0,0-.7-1.74,5,5,0,0,0-6.5-5.26,4.84,4.84,0,0,0-.9-2,5,5,0,0,0-9.27-2.84l0,0a5,5,0,0,0-9.29-2.67,4.78,4.78,0,0,0-.33.79c-.09-.11-.19-.22-.29-.33a5,5,0,0,0-2.63-4.48c-2.41-1.29-19.07.44-20.34,2.8a4.76,4.76,0,0,0-.56,2.2l0,0a5,5,0,0,0-2.64-4.37,4.91,4.91,0,0,0-6.66,1.95,4.78,4.78,0,0,0-.4,1,5,5,0,0,0-1.89-1.77,4.91,4.91,0,0,0-6.66,1.95,4.76,4.76,0,0,0-.56,2l-.39-.23A4.91,4.91,0,0,0,140,136a4.78,4.78,0,0,0-.49,3.08l-.37-.22c-2.41-1.29-10.69,7.11-12,9.48a4.84,4.84,0,0,0,.2,4.89,4.84,4.84,0,0,0-3.1,8.93c0,.08,0,.17,0,.25a4.87,4.87,0,0,0-5.38,2.42c-1.21,2.25-7.09,7.22-4.92,8.59a81.92,81.92,0,0,1-.87,11.06c-.37,2.6,1.68,6.66,4,8a4.85,4.85,0,0,0,.24.92c-1.77,0-4,2.64-4.91,4.29-1.24,2.31.71,5.05,2.44,4.77a4.85,4.85,0,0,0,.21.78,4.85,4.85,0,0,0-4.32,2.54c-1.23,2.3-2.22,7.56.05,8.9a4.86,4.86,0,0,0,.46,1.32,4.79,4.79,0,0,0-2.72,2.28,4.9,4.9,0,0,0,1.83,6.48,4.84,4.84,0,0,0,.79,1.81A4.81,4.81,0,0,0,108,229a4.9,4.9,0,0,0,1.78,6.45,4.85,4.85,0,0,0,.6,1.47,4.76,4.76,0,0,0-1.35,1.57,4.9,4.9,0,0,0,1.7,6.4,4.84,4.84,0,0,0,.9,1.88c-.78.43-7.26,18.86-7.71,19.7a4.9,4.9,0,0,0,1.62,6.35,4.82,4.82,0,0,0,1.45,2.41,4.78,4.78,0,0,0-.62.89,4.89,4.89,0,0,0,1.5,6.26,4.84,4.84,0,0,0,.93,1.84l0,.07a4.89,4.89,0,0,0,1.4,6.18,4.83,4.83,0,0,0,9.38-2.29,4.82,4.82,0,0,0,8.8-1.29s1.62-3.52,8.07-7.65,8.27-2.94,10.71-8.33c1.25-2.77,8.66-19.25,9-19.9-1.84-1.21-7.83-5.64-9.69-7.89-4.13-5-9.92-19.37-10.83-34.65a220.35,220.35,0,0,1,.84-34.08s2.51-10.81,11-14.17,31.51-2,37.35,2.07c9.13,6.3,11.21,29.51,11.21,29.51-.16,9.05-1.69,39.08-6.91,46.33-1.22,1.69-2.11,24.36-4.34,26.12l8.83,13.37c.11,0,3.79,1.69,1.63,7.79-1.51,4.25.76,12.82,2.33,17.79a4.82,4.82,0,0,0,4.55-6,5,5,0,0,0-2.56-5.24h0a4.1,4.1,0,0,0,.11-2.78l.28.19a4.22,4.22,0,0,0,2.2,4.36,4.32,4.32,0,0,0,.5.22,5,5,0,1,0,9.45,1.58l.06,0a6.4,6.4,0,0,0,7.22-7.31Z"/><path class="cls-6" d="M134.91,191.67s.71-3.19,5.66-2.66,11.17,3.3,11.17,3.3"/><path class="cls-6" d="M170.78,190.12s6.47-4.57,11.07-4,7,2.88,7.84,3.08"/><path class="cls-7" d="M138,196.87s4.54-5.56,11.33-3a28.54,28.54,0,0,1,4.49,4.34s-7.74,3.63-10.21,2.19S138,196.87,138,196.87Z"/><path class="cls-7" d="M169.6,196.36s5.13-6.36,9.78-4.94c5.48,1.68,5.31,3.1,5.31,3.1s-6.68,6.68-10.88,4.26Z"/><path class="cls-8" d="M153.27,229.29s5.36,6.6,10.73,4.94a16.53,16.53,0,0,0,8.27-6.24,11.24,11.24,0,0,0-8.9-.41,10.41,10.41,0,0,1-4.36-.33c-2.15-.69-5.74,2-5.74,2a27.38,27.38,0,0,0,10.06,1.2,26.51,26.51,0,0,0,8.94-2.49"/><circle cx="146.25" cy="196.96" r="3.2" transform="translate(-96.42 232.93) rotate(-61.84)"/><circle cx="176.15" cy="195.62" r="3.2" transform="translate(-79.45 258.58) rotate(-61.84)"/><path class="cls-1" d="M159.29,195.42c-.18,6.1-.38,12.28-2.44,18.12-.45,1.28-.88,2.89.32,3.75,1.4,1,3.73.35,5.3.44"/><path class="cls-1" d="M161.36,195.42c.17,6.1.34,12.28,2.19,18.12.4,1.28.7,2.79-.29,3.75s-3,.17-4.76.46"/><path class="cls-3" d="M73,419.36v8.56s-25.77,45.67-29.15,60.62S.51,736.43.51,736.43l5.25,114L73,878.86s12.78,6.57,19.78-1.1,3.33-24,3.33-24,7.51,8.57,21.12,4.46,14.88-17.79,14.88-17.79,4.29,4.08,22,2.21,16.25-27.88,16.25-27.88l3.11-33.66s-1.39-6.37,4-7.08,36.63,1.13,47,16.1,9.11,47.92,29,45.64,35.33-5,40-6.67S265,725.79,265,725.79,213.66,576.7,216,521.73c0,0-.28-41.64-9.28-59.31s-12.51-21.26-12.51-21.26Z"/><polygon class="cls-9" points="50.67 32.1 55.26 51.18 34.94 46.01 44.76 67.76 19.76 59.43 52.98 41.7 55.26 51.18 50.67 32.1"/><path class="cls-10" d="M106.26,896.93s-4.7,41-3,44,12.34,16.2,27.41,15,23.34,8.66,14-38.75l-16.92-30.58s16.42,30.68,10.08,41.68-23.82,13.13-29-20.17Z"/><path class="cls-10" d="M155.59,889.43s31.58,23,36.17,33.5c0,0,2.42,6.32-8,21,0,0-22,17.59-36.66-24L137,893.2s17.15,38.07,26,37.07,22.67,3.67,16.17-10.83S155.59,889.43,155.59,889.43Z"/><path class="cls-3" d="M233.87,350.13"/></g></g></svg>