<svg xmlns="http://www.w3.org/2000/svg" viewBox="0 0 466.85 1200.46"><defs><style>.cls-1,.cls-2{fill:#aaa;}.cls-1,.cls-7,.cls-9{stroke:#000;}.cls-1,.cls-6,.cls-7,.cls-8,.cls-9{stroke-miterlimit:10;}.cls-3{fill:#232321;}.cls-4{fill:#0a0a0a;}.cls-5{fill:#28231f;}.cls-6,.cls-7,.cls-8{fill:none;}.cls-6{stroke:#9b8e86;stroke-width:4px;}.cls-8{stroke:#fcf500;}.cls-9{fill:#f2f2f0;}</style></defs><title>jean</title><g id="Layer_2" data-name="Layer 2"><ellipse class="cls-1" cx="631.22" cy="227.69" rx="60" ry="90" transform="translate(-404.88 -14.1) rotate(-2.07)"/><path class="cls-2" d="M572.48,112.07c22.8-3.32,45.45,6.35,64.33,25,11.18,5.7,21,16.12,28.37,29.7,25.66,9.66,45.46,43.77,47,85.05,1.25,34.51-10.63,64.94-29.1,80.71,0,.13,0,.26,0,.4A131.92,131.92,0,0,1,681.28,360a238.21,238.21,0,0,1,4.08,36.33c2.43,67.06-22.45,122.39-55.56,123.59s-61.93-52.19-64.36-119.25a241.36,241.36,0,0,1,.79-30.43c-31.22-18.69-56.59-60.16-64-111C491.45,185.19,522.9,119.29,572.48,112.07Z" transform="translate(-397.05 -37.09)"/><path class="cls-2" d="M627.64,128.93l55.81,36.39s40.88,57.5,41.18,76,3.18,51.42-27.36,74" transform="translate(-397.05 -37.09)"/><rect class="cls-3" x="499.77" y="396.45" width="262" height="384" rx="75.16" ry="75.16" transform="translate(885.39 1116.59) rotate(177.93)"/><path class="cls-4" d="M769.45,1184.82s27-359.43-18.39-507.67L512.22,685.8s-24.4,486.74-9.59,508.68" transform="translate(-397.05 -37.09)"/><path class="cls-3" d="M741,509.17s84.81,178.33,96.35,219.59,34-33,24.15-82-88.35-220.54-88.35-220.54" transform="translate(-397.05 -37.09)"/><rect class="cls-5" x="504.52" y="703.36" width="262" height="32" transform="translate(899.6 1378.16) rotate(177.93)"/><rect class="cls-6" x="610.52" y="703.58" width="38" height="32" transform="translate(887.62 1378.81) rotate(177.93)"/><line class="cls-6" x1="213.48" y1="683.17" x2="232.47" y2="682.49"/><rect class="cls-4" x="671.64" y="1205.79" width="88" height="26" rx="12" ry="12" transform="matrix(-1, 0.04, -0.04, -1, 1077.89, 2373.78)"/><rect class="cls-4" x="489.75" y="1213.5" width="81" height="23" rx="11.5" ry="11.5" transform="translate(707.44 2392.92) rotate(177.93)"/><rect class="cls-4" x="638.69" y="1153.11" width="80" height="80" rx="12" ry="12" transform="translate(1003.07 2323.78) rotate(177.93)"/><rect class="cls-4" x="526.73" y="1157.2" width="78" height="78" rx="12" ry="12" transform="matrix(-1, 0.04, -0.04, -1, 777.33, 2334.05)"/><polyline class="cls-2" points="206.97 227.11 208.15 232.07 206.26 235.14"/><line class="cls-7" x1="205.97" y1="227.15" x2="207.15" y2="232.11"/><line class="cls-7" x1="205.18" y1="234.84" x2="207.07" y2="231.77"/></g><g id="Layer_1" data-name="Layer 1"><path class="cls-8" d="M748.73,405.56" transform="translate(-397.05 -37.09)"/><path class="cls-9" d="M617.24,212.44c-.56,5.7,7.07,11.76,17,13.53s18.51-1.42,19.07-7.13-7.07-11.76-17-13.53S617.8,206.74,617.24,212.44Z" transform="translate(-397.05 -37.09)"/><path class="cls-9" d="M534.88,205.78c-.21,5.75,7.76,11.05,17.8,11.85s18.35-3.22,18.56-9-7.76-11.05-17.8-11.85S535.09,200,534.88,205.78Z" transform="translate(-397.05 -37.09)"/><path d="M630.31,216.34c.56,5.65,3.46,9.9,6.48,9.49s5-5.33,4.47-11-3.46-9.9-6.48-9.49S629.76,210.69,630.31,216.34Z" transform="translate(-397.05 -37.09)"/><path d="M547,207.9c.62,6.22,3.35,11,6.1,10.56s4.47-5.75,3.85-12-3.35-11-6.1-10.56S546.37,201.67,547,207.9Z" transform="translate(-397.05 -37.09)"/><path d="M659.2,186.52s-40.71.74-49.62,9" transform="translate(-397.05 -37.09)"/><path d="M534.84,180.09s40.49,4.29,48.64,13.25" transform="translate(-397.05 -37.09)"/><path class="cls-7" d="M591.76,278.62" transform="translate(-397.05 -37.09)"/><path class="cls-7" d="M598.27,276.22" transform="translate(-397.05 -37.09)"/><path class="cls-7" d="M582.35,278.57" transform="translate(-397.05 -37.09)"/><path class="cls-7" d="M576.78,274.09" transform="translate(-397.05 -37.09)"/><path d="M618.27,303.9s.26-2.17-12.81-.63c-16.22,1.87-43.66,8.17-53.23,14.32C547.57,321.45,618.27,303.9,618.27,303.9Z" transform="translate(-397.05 -37.09)"/><path d="M602.2,186.22s-.51-14,.49-14" transform="translate(-397.05 -37.09)"/><path d="M590.57,185.64s1-12.77-.51-14" transform="translate(-397.05 -37.09)"/><path d="M431.87,180.38" transform="translate(-397.05 -37.09)"/><path class="cls-3" d="M541.91,402.94S415.2,506.83,405.61,681.72c-.15,2.73-8.65,54-8.56,56.68.3,9.38,12.87,6.13,24.19-6.3,14.29-15.69,72.12-206.85,72.12-206.85" transform="translate(-397.05 -37.09)"/><path d="M437.05,152.67c17.09-99.11,51.57-103.33,156.58-115C696.55,26.31,778.3,176.24,782.52,184.12c.12.22.25.44.39.65C820.09,240.39,821,292.42,837.38,338s-45,112.88-45,112.88S533.74,717.21,686.4,455.71c6.13-10.5,21.42-71.71,24.7-85a8.48,8.48,0,0,1,2.61-4.29c25.19-22.5,38-51.22,44-69.54a8.36,8.36,0,0,0-11.49-10.2c-17.18,8.07-40.59,17.86-31.33,6.54,14.11-17.25,7.53-63.28-3.1-85.54S638.71,115.82,570,118.31c-55.81,2-68.06,78.5-70.69,107.11a8.34,8.34,0,0,1-12.09,6.69c-29.58-15.39-46.6-65-49.92-75.5A8.37,8.37,0,0,1,437.05,152.67Z" transform="translate(-397.05 -37.09)"/><polyline class="cls-7" points="177.4 225.68 174.59 230.79 175.73 234.75"/><line class="cls-7" x1="200.89" y1="238.84" x2="196.86" y2="237.98"/><line class="cls-7" x1="196.51" y1="240.14" x2="197.44" y2="238.11"/><line class="cls-7" x1="179.8" y1="236.6" x2="184.3" y2="236.44"/><line class="cls-7" x1="184.9" y1="239.42" x2="183.8" y2="236.46"/></g></svg>