<svg id="Layer_1" data-name="Layer 1" xmlns="http://www.w3.org/2000/svg" viewBox="0 0 1920 1080"><defs><style>.cls-1{fill:#969696;}.cls-2{fill:#b7b7b7;}.cls-3{fill:#d8d8d8;}.cls-4{fill:#a0a0a0;}.cls-5{fill:#4c4c4c;}.cls-6{fill:#727272;}.cls-7{fill:#9b9b9b;}.cls-8{fill:#878787;}.cls-9{fill:#5b5b5b;}.cls-10{fill:#3d3d3d;}.cls-11{fill:#848484;}.cls-12{fill:#aaa;}.cls-13{fill:#8e8e8e;}.cls-14{fill:#515151;}.cls-15{fill:#6b6a6a;}.cls-16{fill:#777;}.cls-17{fill:#9e9e9e;}.cls-18{fill:#afafaf;}.cls-19{fill:#999;}.cls-20{opacity:0.55;}.cls-21{fill:none;stroke:#000;}.cls-21,.cls-26{stroke-miterlimit:10;}.cls-22{opacity:0.18;}.cls-23{opacity:0.1;}.cls-24{opacity:0.3;}.cls-25{opacity:0.23;}.cls-26{fill:#7c7c7c;stroke:#545252;stroke-width:4px;}.cls-27{fill:#545252;}</style></defs><title>joker scene</title><polygon class="cls-1" points="1202.98 249.38 1011.66 0 1145.77 0 1150.27 87.67 1192.27 86.33 1215.97 -0.25 1228.57 0 1279.87 84.33 1449.65 85.89 1511.63 0 1673.75 0 1595.33 149.38 1380.17 182.19 1266.26 249.38 1202.98 249.38"/><polygon class="cls-2" points="6.93 1080.94 170.7 1080.94 164.48 122.81 176.92 24.38 145.16 0 0.04 0 6.93 1080.94"/><polygon class="cls-3" points="176.92 24.38 210.09 0 585.32 0 641.29 61.88 701.75 19.89 730.77 -0.25 825.8 88.44 914.86 0.5 970.91 88.44 1019.23 0 1207.25 249.38 1269.44 249.38 1381.38 182.19 1510.58 0 1592.84 149.38 1669.91 0 1920.44 0 1927.77 1080.94 1477.27 1085.74 171.86 1080.94 164.72 154 164.48 122.81 176.92 24.38"/><polygon class="cls-4" points="218.38 141.56 283.02 0.91 372.21 0 487.01 145.02 218.38 141.56"/><polyline class="cls-4" points="514.71 146.56 730.77 -0.25 892.75 150.84"/><polygon class="cls-5" points="1426.99 547.81 736.65 443.13 85.7 582.19 614.34 644.69 1426.99 547.81"/><polygon class="cls-6" points="85.7 582.19 614.34 644.69 601.9 672.81 85.7 608.75 85.7 582.19"/><polygon class="cls-6" points="56.52 627.5 585.15 690 572.72 718.13 56.52 654.06 56.52 627.5"/><polygon class="cls-6" points="42 672.81 570.64 735.31 558.2 763.44 42 699.38 42 672.81"/><polygon class="cls-6" points="18.04 723.69 546.68 786.19 534.24 814.31 18.04 750.25 18.04 723.69"/><polygon class="cls-6" points="-8.5 767 520.14 829.5 507.7 857.63 -8.5 793.56 -8.5 767"/><polygon class="cls-6" points="-25.66 811.31 502.98 873.81 490.54 901.94 -25.66 837.88 -25.66 811.31"/><polygon class="cls-7" points="77.04 603.69 605.68 666.19 593.24 694.31 77.04 630.25 77.04 603.69"/><polygon class="cls-7" points="49.18 648 577.82 710.5 565.38 738.63 49.18 674.56 49.18 648"/><polygon class="cls-7" points="32.01 698.31 560.65 760.81 548.21 788.94 32.01 724.88 32.01 698.31"/><polygon class="cls-7" points="10.7 741.94 539.34 804.44 526.9 832.56 10.7 768.5 10.7 741.94"/><polygon class="cls-7" points="-17.16 785.25 511.48 847.75 499.04 875.88 -17.16 811.81 -17.16 785.25"/><polygon class="cls-7" points="-33 831.56 495.64 894.06 483.2 922.19 -33 858.13 -33 831.56"/><polygon class="cls-6" points="614.92 643.78 1427.38 548 1434.29 574 602.16 666.54 614.92 643.78"/><polygon class="cls-6" points="581.88 691.82 1439.51 586.26 1446.23 611.13 574.12 710.06 581.88 691.82"/><polygon class="cls-6" points="568.41 738.2 1455.6 629.49 1462.34 655.53 558.68 760.98 568.41 738.2"/><polygon class="cls-6" points="545.77 787.51 1467.28 675.53 1474.01 701.57 538.01 805.75 545.77 787.51"/><polygon class="cls-6" points="517.88 831.14 1478.97 714.6 1485.71 740.64 510.12 849.38 517.88 831.14"/><polygon class="cls-6" points="500.74 875.45 1488.98 762.31 1495.72 788.35 492.41 895.03 500.74 875.45"/><polygon class="cls-7" points="604.61 666 1435.4 570.78 1442.31 596.78 591.51 690.96 604.61 666"/><polygon class="cls-7" points="574.12 710.06 1451.21 608.59 1457.95 634.63 564.39 738.5 574.12 710.06"/><polygon class="cls-7" points="558.68 760.98 1463.62 652.27 1470.35 678.31 545.77 787.51 558.68 760.98"/><polygon class="cls-7" points="538.01 804.28 1475.29 698.31 1482.03 724.35 525.67 831.56 538.01 804.28"/><polygon class="cls-7" points="511.48 847.75 1486.99 737.38 1493.73 763.42 499.04 875.88 511.48 847.75"/><polygon class="cls-7" points="495.64 894.06 1497 785.09 1503.73 811.13 483.2 922.19 495.64 894.06"/><polygon class="cls-7" points="1510.58 431 1782.57 451 1782.57 441 1511.91 424.67 1510.58 431"/><polygon class="cls-8" points="1782.57 451 1897.67 448 1897.17 437.83 1782.57 441 1782.57 451"/><polygon class="cls-9" points="1511.91 424.67 1768.42 412.67 1897.67 422.33 1897.17 437.83 1782.57 441 1511.91 424.67"/><polygon class="cls-4" points="897.44 249.38 1162.05 249.38 1172.85 558.75 897.44 558.75 897.44 249.38"/><polygon class="cls-9" points="1523.49 431.95 1571.61 570.78 1782.57 578 1782.57 451 1523.49 431.95"/><polygon class="cls-10" points="1782.57 451 1897.67 448 1897.67 578 1782.57 578 1782.57 451"/><polygon class="cls-11" points="1019.23 0 1207.25 249.38 880.36 249.38 1019.23 0"/><polygon class="cls-4" points="408.06 141.56 408.06 168.67 367.44 179 367.62 154 408.06 141.56"/><polygon class="cls-12" points="408.06 141.56 701.06 146.56 698.06 170.56 408.06 168.67 408.06 141.56"/><polygon class="cls-13" points="376.81 24.38 401.81 0 457.1 0 408.06 141.56 367.62 154 367.44 122.81 376.81 24.38"/><polygon class="cls-14" points="352.88 0 377.03 24.16 401.81 0 352.88 0"/><polygon class="cls-4" points="701.06 146.56 671.81 0 584 0 517.56 143.43 701.06 146.56"/><polygon class="cls-14" points="524 0 557.58 56.29 584 0 524 0"/><polygon class="cls-14" points="417.07 260.71 533.07 260.71 533.07 486.62 417.07 511.4 417.07 260.71"/><polygon class="cls-15" points="427.07 282.38 523.07 282.38 523.07 488.75 427.07 509.26 427.07 282.38"/><polygon class="cls-1" points="701.06 146.56 948 151.7 940.08 170.56 698.06 170.56 701.06 146.56"/><polygon class="cls-16" points="671.81 0 698.06 0 804.31 148.71 891.67 0 933 0.5 975.25 88.44 948 151.7 701.06 146.56 671.81 0"/><polygon class="cls-11" points="1011.66 0 1153.38 249.38 907 249.38 1011.66 0"/><polygon class="cls-17" points="1011.9 56.16 1111 230.55 938.71 230.55 1011.9 56.16"/><rect class="cls-16" x="919.88" y="249.38" width="28.12" height="309.38"/><rect class="cls-18" x="948" y="249.38" width="28.12" height="309.38"/><rect class="cls-19" x="976.12" y="249.38" width="28.12" height="309.38"/><rect class="cls-18" x="1032.96" y="249.38" width="28.12" height="309.38"/><rect class="cls-19" x="1061.08" y="249.38" width="28.12" height="309.38"/><rect class="cls-16" x="1089.2" y="249.38" width="28.12" height="309.38"/><rect class="cls-18" x="1117.33" y="249.38" width="28.12" height="309.38"/><g class="cls-20"><path class="cls-21" d="M932.23,262.55a50.72,50.72,0,0,0-1.71,29.9"/><path class="cls-21" d="M938.8,296.39a321.73,321.73,0,0,0-2.58,51.26"/><path class="cls-21" d="M927.67,335.67V365"/><path class="cls-21" d="M932.16,370.63c4,10.29-2.86,21.93-.68,32.74"/><path class="cls-21" d="M932,415.22c-1.68,1.63-2,4.18-2.15,6.52a192.24,192.24,0,0,0-.05,26.94"/><path class="cls-21" d="M937.33,488.37c-2.51,6.39-4.78,13.9-1.27,19.8,1.05,1.76,2.55,3.23,3.5,5a9.74,9.74,0,0,1,.23,8.37"/><path class="cls-21" d="M929.85,529.79a34.4,34.4,0,0,1,.08-16.72"/><path class="cls-21" d="M940.48,436a60.54,60.54,0,0,1-1.62,25.33"/><path class="cls-21" d="M930.21,465.67c.87,3.38-2.18,6.71-1.76,10.17s4.06,5.74,4.49,9.15"/><path class="cls-21" d="M940.87,529.36c.36,3.64.68,7.52-1,10.79-1.78,3.55-5.83,6.65-4.82,10.49"/><path class="cls-21" d="M938.06,267c-2.74,7.91,4.33,16.63,2,24.67"/><path class="cls-21" d="M943,314.34a42.76,42.76,0,0,1-.61,12"/><path class="cls-21" d="M942.33,380.33v13.34"/><path class="cls-21" d="M926.31,302.39c-1.18,6.36.15,13.95,3.14,17.95"/><path class="cls-21" d="M941.75,257a54,54,0,0,0,1.46,14.11"/></g><g class="cls-20"><path class="cls-21" d="M1044.71,262.39A50.66,50.66,0,0,0,1043,292.3"/><path class="cls-21" d="M1051.28,296.24a320.5,320.5,0,0,0-2.58,51.25"/><path class="cls-21" d="M1040.14,335.51v29.33"/><path class="cls-21" d="M1044.64,370.47c4,10.3-2.87,21.93-.69,32.75"/><path class="cls-21" d="M1044.48,415.06c-1.68,1.64-2,4.19-2.16,6.52a193.78,193.78,0,0,0,0,26.94"/><path class="cls-21" d="M1049.8,488.22c-2.5,6.38-4.77,13.89-1.26,19.79,1,1.76,2.55,3.23,3.49,5a9.69,9.69,0,0,1,.23,8.36"/><path class="cls-21" d="M1042.33,529.63a34.52,34.52,0,0,1,.07-16.72"/><path class="cls-21" d="M1053,435.86a60.53,60.53,0,0,1-1.61,25.33"/><path class="cls-21" d="M1042.68,465.52c.87,3.37-2.18,6.7-1.75,10.16s4.06,5.74,4.48,9.15"/><path class="cls-21" d="M1053.35,529.2c.36,3.65.68,7.52-1,10.8-1.78,3.55-5.84,6.64-4.83,10.49"/><path class="cls-21" d="M1050.54,266.85c-2.75,7.92,4.32,16.63,2,24.68"/><path class="cls-21" d="M1055.43,314.18a42.74,42.74,0,0,1-.61,12"/><path class="cls-21" d="M1054.81,380.18v13.33"/><path class="cls-21" d="M1038.79,302.24c-1.18,6.35.15,13.95,3.14,17.94"/><path class="cls-21" d="M1054.23,256.85a53.53,53.53,0,0,0,1.46,14.1"/></g><g class="cls-22"><path class="cls-21" d="M964.37,551.25a50.66,50.66,0,0,0,1.71-29.91"/><path class="cls-21" d="M957.8,517.4a320.56,320.56,0,0,0,2.58-51.26"/><path class="cls-21" d="M968.94,478.13V448.79"/><path class="cls-21" d="M964.44,443.17c-4-10.3,2.87-21.93.69-32.75"/><path class="cls-21" d="M964.6,398.58c1.68-1.64,2-4.19,2.16-6.52a193.92,193.92,0,0,0,0-26.95"/><path class="cls-21" d="M959.28,325.42c2.5-6.38,4.77-13.9,1.26-19.79-1-1.76-2.55-3.23-3.49-5.05a9.69,9.69,0,0,1-.23-8.36"/><path class="cls-21" d="M966.75,284a34.52,34.52,0,0,1-.07,16.72"/><path class="cls-21" d="M956.13,377.78a60.53,60.53,0,0,1,1.61-25.33"/><path class="cls-21" d="M966.4,348.12c-.87-3.37,2.18-6.7,1.75-10.16s-4.06-5.74-4.48-9.15"/><path class="cls-21" d="M955.73,284.44c-.36-3.65-.68-7.52,1-10.8,1.78-3.55,5.84-6.64,4.83-10.49"/><path class="cls-21" d="M958.54,546.79c2.75-7.92-4.32-16.63-2-24.68"/><path class="cls-21" d="M953.65,499.46a42.74,42.74,0,0,1,.61-12"/><path class="cls-21" d="M954.27,433.46V420.13"/><path class="cls-21" d="M970.29,511.4c1.18-6.36-.15-13.95-3.14-17.94"/><path class="cls-21" d="M954.85,556.79a53.65,53.65,0,0,0-1.46-14.11"/></g><g class="cls-23"><path class="cls-21" d="M1105.58,545.34a50.66,50.66,0,0,0,1.71-29.91"/><path class="cls-21" d="M1099,511.49a320.56,320.56,0,0,0,2.58-51.26"/><path class="cls-21" d="M1110.15,472.22V442.88"/><path class="cls-21" d="M1105.65,437.26c-4-10.3,2.87-21.93.68-32.75"/><path class="cls-21" d="M1105.81,392.67c1.68-1.64,2-4.19,2.15-6.52a190.87,190.87,0,0,0,0-26.95"/><path class="cls-21" d="M1100.48,319.51c2.51-6.38,4.78-13.9,1.27-19.79-1-1.76-2.55-3.23-3.5-5.05a9.72,9.72,0,0,1-.22-8.36"/><path class="cls-21" d="M1108,278.1a34.4,34.4,0,0,1-.08,16.72"/><path class="cls-21" d="M1097.33,371.87a60.53,60.53,0,0,1,1.62-25.33"/><path class="cls-21" d="M1107.6,342.21c-.87-3.37,2.19-6.7,1.76-10.16s-4.06-5.74-4.48-9.15"/><path class="cls-21" d="M1096.94,278.53c-.36-3.65-.68-7.52,1-10.8,1.78-3.55,5.83-6.64,4.83-10.49"/><path class="cls-21" d="M1099.75,540.88c2.75-7.92-4.33-16.63-2-24.68"/><path class="cls-21" d="M1094.86,493.55a42.74,42.74,0,0,1,.61-12"/><path class="cls-21" d="M1095.48,427.55V414.22"/><path class="cls-21" d="M1111.5,505.49c1.18-6.36-.15-13.95-3.14-17.94"/><path class="cls-21" d="M1096.06,550.88a53.53,53.53,0,0,0-1.46-14.1"/></g><g class="cls-24"><path class="cls-21" d="M992.79,545.79a50.58,50.58,0,0,0,1.71-29.91"/><path class="cls-21" d="M986.22,511.94c5.75-24.5-.17-44.69,2.59-51.26"/><path class="cls-21" d="M995.85,474.72c-3-10.78-3.45-23.28,1.51-31.39"/><path class="cls-21" d="M992.86,437.71c-2.68-10.92,1.63-23.77.69-32.75"/><path class="cls-21" d="M996.5,395.88c0-6.28-1.71-15-1.26-17.27,1.32-6.86-2.21-7.11,0-19"/><path class="cls-21" d="M987.7,320c-8-6.22-2.25-13.3-3.3-19.23-.35-2,2-3.79,1.07-5.61a9.72,9.72,0,0,1-.23-8.36"/><path class="cls-21" d="M995.18,278.55c1.34,5.46,1.28,18.23-.11,23.69"/><path class="cls-21" d="M984.55,372.32c1.33-10.44,3.7-14.94,1.62-25.33"/><path class="cls-21" d="M994.82,342.66c-.87-3.37-.4-6.2-.83-9.65s-1.47-6.25-1.9-9.66"/><path class="cls-21" d="M984.15,279c-.36-3.65-.68-7.52,1-10.8,1.78-3.55,5.83-6.64,4.82-10.49"/><path class="cls-21" d="M987,541.33c2.75-7.92-4.32-16.63-2-24.68"/><path class="cls-21" d="M982.07,494c.38-9.49.88-15.79.61-12"/><path class="cls-21" d="M982.69,428c0-4.44,1.56-11.87,1.56-16.31"/><path class="cls-21" d="M998.72,505.94c1.18-6.36-.15-13.95-3.15-17.94"/><path class="cls-21" d="M983.28,551.33a54,54,0,0,0-1.47-14.1"/></g><g class="cls-25"><path class="cls-21" d="M1079.37,546.24a50.74,50.74,0,0,0,1.71-29.91"/><path class="cls-21" d="M1072.8,512.39c3.16-20,5.59-42.24,2.58-51.26"/><path class="cls-21" d="M1083.93,473.12c-3-10.78-5-21.23,0-29.34"/><path class="cls-21" d="M1079.43,438.16c-5-10.62-2-23.36.69-32.75"/><path class="cls-21" d="M1079.6,393.57c1.68-1.64,1.07-4.45,2.15-6.52,3.82-7.33,7-14.72,0-26.95"/><path class="cls-21" d="M1074.27,320.41c-8-6.22-2.25-13.3-3.29-19.23-.36-2,2-3.79,1.06-5.61a9.72,9.72,0,0,1-.23-8.36"/><path class="cls-21" d="M1081.75,279c1.35,5.46,1.29,18.23-.11,23.69"/><path class="cls-21" d="M1071.12,372.77c6.93-6.42,10.87-14.29,1.62-25.33"/><path class="cls-21" d="M1081.39,343.11c-.87-3.37-.4-6.2-.83-9.65s-1.47-6.25-1.9-9.66"/><path class="cls-21" d="M1070.73,279.43c-.36-3.65-.68-7.52,1-10.8,1.78-3.55,5.83-6.64,4.82-10.49"/><path class="cls-21" d="M1073.54,541.78c2.74-7.92-4.33-16.63-2-24.68"/><path class="cls-21" d="M1068.65,494.45c.37-9.5.88-15.79.61-12"/><path class="cls-21" d="M1069.27,428.45V415.12"/><path class="cls-21" d="M1085.29,506.39c1.18-6.36-.15-13.95-3.14-17.94"/><path class="cls-21" d="M1069.85,551.78a54,54,0,0,0-1.46-14.1"/></g><g class="cls-20"><path class="cls-21" d="M1132,257.3a50.66,50.66,0,0,0-1.71,29.91"/><path class="cls-21" d="M1138.59,291.15c-3.16,20-5.59,42.24-2.59,51.25"/><path class="cls-21" d="M1127.45,330.42c3,10.78,5,21.23,0,29.33"/><path class="cls-21" d="M1132,365.38c5,10.62,2,23.35-.69,32.75"/><path class="cls-21" d="M1131.78,410c-1.67,1.64-1.07,4.44-2.15,6.52-3.81,7.33-7,14.72-.05,26.94"/><path class="cls-21" d="M1137.11,483.12c8,6.23,2.25,13.31,3.3,19.24.35,2-2,3.79-1.07,5.61a9.69,9.69,0,0,1,.23,8.36"/><path class="cls-21" d="M1129.63,524.54c-1.34-5.47-1.28-18.24.12-23.69"/><path class="cls-21" d="M1140.26,430.77c-6.93,6.42-10.87,14.29-1.62,25.33"/><path class="cls-21" d="M1130,460.43c.87,3.37.4,6.19.83,9.65s1.47,6.25,1.9,9.66"/><path class="cls-21" d="M1140.66,524.11c.36,3.65.68,7.52-1,10.79-1.79,3.56-5.84,6.65-4.83,10.5"/><path class="cls-21" d="M1137.85,261.76c-2.75,7.91,4.32,16.63,2,24.68"/><path class="cls-21" d="M1142.74,309.09c-.38,9.49-.88,15.79-.61,12"/><path class="cls-21" d="M1142.12,375.09v13.33"/><path class="cls-21" d="M1126.09,297.15c-1.18,6.35.15,13.94,3.15,17.94"/><path class="cls-21" d="M1141.53,251.76a54,54,0,0,0,1.47,14.1"/></g><g class="cls-24"><path class="cls-21" d="M1022.83,261.94a50.74,50.74,0,0,1,1.71,29.91"/><path class="cls-21" d="M1016.26,295.79c3.16,20,5.59,42.24,2.58,51.25"/><path class="cls-21" d="M1027.39,335.06c-3,10.78-5,21.23,0,29.33"/><path class="cls-21" d="M1022.89,370c-5,10.62-2,23.35.69,32.75"/><path class="cls-21" d="M1023.06,414.61c1.68,1.64,1.07,4.44,2.15,6.52,3.82,7.33,7,14.72,0,26.94"/><path class="cls-21" d="M1017.73,487.77c-8,6.22-2.25,13.3-3.29,19.23-.36,2,2,3.79,1.06,5.61a9.72,9.72,0,0,0-.23,8.36"/><path class="cls-21" d="M1025.21,529.18c1.35-5.47,1.29-18.24-.11-23.69"/><path class="cls-21" d="M1014.58,435.41c6.93,6.42,10.87,14.29,1.62,25.33"/><path class="cls-21" d="M1024.85,465.07c-.87,3.37-.4,6.2-.83,9.65s-1.47,6.25-1.9,9.66"/><path class="cls-21" d="M1014.19,528.75c-.36,3.65-.68,7.52,1,10.8,1.78,3.55,5.83,6.64,4.82,10.49"/><path class="cls-21" d="M1017,266.4c2.74,7.92-4.33,16.63-2,24.68"/><path class="cls-21" d="M1012.11,313.73c.37,9.49.88,15.79.61,12"/><path class="cls-21" d="M1012.73,379.73v13.33"/><path class="cls-21" d="M1028.75,301.79c1.18,6.35-.15,13.95-3.14,17.94"/><path class="cls-21" d="M1013.31,256.4a54,54,0,0,1-1.46,14.1"/></g><polygon class="cls-14" points="608.06 336.08 666.06 336.08 666.57 458.1 608.06 470.6 608.06 336.08"/><polygon class="cls-15" points="613.06 346.92 661.06 346.92 661.06 459.27 613.06 469.6 613.06 346.92"/><rect class="cls-26" x="738.1" y="189.11" width="101.29" height="101.29"/><rect class="cls-27" x="783.74" y="189.11" width="10" height="101.29"/><rect class="cls-27" x="783.74" y="189.11" width="10" height="101.29" transform="translate(548.99 1028.49) rotate(-90)"/><rect class="cls-26" x="1763.59" y="264.28" width="101.29" height="101.29"/><rect class="cls-27" x="1809.23" y="264.28" width="10" height="101.29"/><rect class="cls-27" x="1809.23" y="264.28" width="10" height="101.29" transform="translate(1499.31 2129.15) rotate(-90)"/><rect class="cls-26" x="268.32" y="240.88" width="66.43" height="66.43"/><rect class="cls-27" x="298.25" y="240.88" width="6.56" height="66.43"/><rect class="cls-27" x="298.25" y="240.88" width="6.56" height="66.43" transform="translate(27.43 575.63) rotate(-90)"/><rect class="cls-26" x="268.32" y="398.58" width="66.43" height="66.43"/><rect class="cls-27" x="298.25" y="398.58" width="6.56" height="66.43"/><rect class="cls-27" x="298.25" y="398.58" width="6.56" height="66.43" transform="translate(-130.26 733.33) rotate(-90)"/><rect class="cls-26" x="1503.73" y="226.02" width="101.29" height="101.29"/><rect class="cls-27" x="1549.38" y="226.02" width="10" height="101.29"/><rect class="cls-27" x="1549.38" y="226.02" width="10" height="101.29" transform="translate(1277.72 1831.04) rotate(-90)"/><rect class="cls-5" x="1644.82" y="596.5" width="29.89" height="485.7"/><rect class="cls-5" x="1470.21" y="596.5" width="204.5" height="19.02"/><polygon class="cls-5" points="1533.63 615 1659.95 687.84 1668.73 676.1 1542.41 603.25 1533.63 615"/><polygon class="cls-5" points="1167 28.14 1153.38 124.69 1145.45 219 1158.94 249.38 1200.25 249.38 1187 124.56 1167 28.14"/></svg>