<svg id="Layer_1" data-name="Layer 1" xmlns="http://www.w3.org/2000/svg" viewBox="0 0 460 165"><defs><style>.cls-1{fill:#494949;}.cls-2{fill:#ccc;}.cls-3{fill:#727272;}.cls-4{fill:#adadad;}.cls-5{fill:#afafaf;}.cls-6{fill:#8e8e8e;}</style></defs><title>joker-hat</title><path class="cls-1" d="M134,92.3s2.54-47,27-65.89c18.89-14.59,46.87,7.72,53.07,18.08,0,0-43.35-19.78-52.08-6.78-20.9,31.1-21.62,55.61-21.62,55.61Z"/><path class="cls-2" d="M125.46,93.32S133,36.67,103.33,32.67,43.67,57.44,54,85.89c0,0,6.92-34.39,27-38.3,0,0,22-13.14,30.12,3.42,8,16.36,4.71,42.32,4.71,42.32Z"/><path class="cls-3" d="M105.72,93.32S110,61.24,85,55.24,37.38,82.43,37.72,88.17c0,0,23.57-22.92,38.33-19.93,28,5.68,19.44,25.08,19.44,25.08Z"/><path class="cls-3" d="M160.33,93.32S156,61.24,181,55.24s47.67,27.19,47.33,32.93c0,0-23.5-27.94-38.33-25.36-32.67,5.68-19.44,30.51-19.44,30.51Z"/><path class="cls-1" d="M132.36,93.32S137.25,46.5,116.08,24c-16.35-17.38-47.5.25-55.25,9.5,0,0,45.92-12.71,52.5,1.5,15.75,34,12.6,58.32,12.6,58.32Z"/><path class="cls-2" d="M145,93.32s-7.54-56.65,22.13-60.65,59.67,24.77,49.33,53.22c0,0-6.92-34.39-27-38.3,0,0-22-13.14-30.12,3.42-8,16.36-4.71,42.32-4.71,42.32Z"/><path class="cls-4" d="M111.1,93.32c-.18-.67-.31-1.34-.42-2a21.9,21.9,0,0,0-3.86-5.14C101.61,81,95,79.13,92.08,82.06c-2.72,2.72-1.31,8.62,3.08,13.62l1.67,3.16Z"/><path class="cls-4" d="M125.46,93.32c0-.6-.08-1.21-.08-1.83,0-.79,0-1.56.12-2.31-2-6.91-6.63-11.62-10.56-10.57-3.61,1-5.34,6.44-4.27,12.72a16.55,16.55,0,0,1,.9,2Z"/><path class="cls-4" d="M111.57,93.32a16.55,16.55,0,0,0-.9-2c.11.66.25,1.32.42,2Z"/><path class="cls-4" d="M126.29,93.32h13a23,23,0,0,1,.7-4.06c.06-.24.14-.47.21-.7-.75-6-3.74-10.4-7.31-10.4s-6.76,4.76-7.38,11c0,.13.08.25.11.38A23.08,23.08,0,0,1,126.29,93.32Z"/><path class="cls-4" d="M125.46,93.32h.83a23.08,23.08,0,0,0-.68-3.76c0-.13-.08-.25-.11-.38-.07.75-.12,1.52-.12,2.31C125.38,92.11,125.41,92.72,125.46,93.32Z"/><path class="cls-4" d="M154.42,93.32l14.08,5.52L170.59,95c3.54-4.68,4.51-10.47,2-13-2.93-2.93-9.52-1.08-14.73,4.12a22.85,22.85,0,0,0-2.75,3.32,23.11,23.11,0,0,1-.66,3.61Z"/><path class="cls-4" d="M140.3,93.32h12.83a18.12,18.12,0,0,1,2-3.82c.57-5.63-1.16-10.32-4.48-11.21-3.87-1-8.46,3.53-10.47,10.26a23.37,23.37,0,0,1,.19,2.93C140.38,92.11,140.35,92.72,140.3,93.32Z"/><path class="cls-4" d="M139.28,93.32h1c0-.6.08-1.21.08-1.83a23.37,23.37,0,0,0-.19-2.93c-.07.23-.14.46-.21.7A23,23,0,0,0,139.28,93.32Z"/><path class="cls-4" d="M154.42,93.32l.06-.21a23.11,23.11,0,0,0,.66-3.61,18.12,18.12,0,0,0-2,3.82Z"/><rect class="cls-3" x="95.13" y="93.32" width="75.43" height="17.16" rx="5.25" ry="5.25"/><path class="cls-1" d="M132.95,105s.27-5.06,2.9-7.09c2-1.57,5,.83,5.71,1.94,0,0-4.66-2.13-5.6-.73a12.51,12.51,0,0,0-2.33,6Z"/><path class="cls-5" d="M132,105.1s.81-6.09-2.38-6.52-6.42,2.66-5.31,5.73c0,0,.74-3.7,2.9-4.12,0,0,2.36-1.41,3.24.37a9.71,9.71,0,0,1,.51,4.55Z"/><path class="cls-2" d="M129.91,105.1s.47-3.45-2.22-4.1-5.13,2.93-5.09,3.54c0,0,2.54-2.47,4.12-2.14,3,.61,2.09,2.7,2.09,2.7Z"/><path class="cls-2" d="M135.78,105.1s-.47-3.45,2.22-4.1,5.13,2.93,5.09,3.54c0,0-2.53-3-4.12-2.73-3.51.61-2.09,3.28-2.09,3.28Z"/><path class="cls-1" d="M132.78,105.1s.53-5-1.75-7.46c-1.76-1.87-5.11,0-5.94,1,0,0,4.94-1.37,5.65.16a12.51,12.51,0,0,1,1.36,6.27Z"/><path class="cls-5" d="M134.14,105.1s-.81-6.09,2.38-6.52,6.42,2.66,5.31,5.73c0,0-.74-3.7-2.9-4.12,0,0-2.36-1.41-3.24.37a9.71,9.71,0,0,0-.51,4.55Z"/><path class="cls-4" d="M130.49,105.1c0-.07,0-.14,0-.21a2.36,2.36,0,0,0-.41-.55c-.56-.56-1.27-.76-1.58-.44s-.14.93.33,1.46l.18.34Z"/><path class="cls-4" d="M132,105.1c0-.06,0-.13,0-.2s0-.17,0-.25c-.21-.74-.71-1.25-1.14-1.14s-.57.69-.46,1.37a1.78,1.78,0,0,1,.1.21Z"/><path class="cls-4" d="M130.54,105.1a1.78,1.78,0,0,0-.1-.21c0,.07,0,.14,0,.21Z"/><path class="cls-4" d="M132.12,105.1h1.4a2.47,2.47,0,0,1,.08-.44l0-.08c-.08-.64-.4-1.12-.79-1.12s-.73.51-.79,1.19v0A2.48,2.48,0,0,1,132.12,105.1Z"/><path class="cls-4" d="M132,105.1h.09a2.48,2.48,0,0,0-.07-.4v0c0,.08,0,.16,0,.25S132,105,132,105.1Z"/><path class="cls-4" d="M135.15,105.1l1.51.59.23-.41c.38-.5.49-1.13.22-1.39s-1-.12-1.58.44a2.46,2.46,0,0,0-.3.36,2.49,2.49,0,0,1-.07.39Z"/><path class="cls-4" d="M133.63,105.1H135a2,2,0,0,1,.22-.41c.06-.61-.13-1.11-.48-1.21s-.91.38-1.13,1.1a2.51,2.51,0,0,1,0,.32C133.64,105,133.63,105,133.63,105.1Z"/><path class="cls-4" d="M133.52,105.1h.11c0-.06,0-.13,0-.2a2.51,2.51,0,0,0,0-.32l0,.08A2.47,2.47,0,0,0,133.52,105.1Z"/><path class="cls-4" d="M135.15,105.1v0a2.49,2.49,0,0,0,.07-.39,2,2,0,0,0-.22.41Z"/><rect class="cls-6" x="128.77" y="105.1" width="8.11" height="1.85" rx="0.92" ry="0.92"/></svg>