<svg xmlns="http://www.w3.org/2000/svg" xmlns:xlink="http://www.w3.org/1999/xlink" width="1920" height="1080" viewBox="0 0 1920 1080">
  <defs>
    <linearGradient id="White_Black" data-name="White, Black" x1="269.7" y1="743.21" x2="416.88" y2="743.21" gradientUnits="userSpaceOnUse">
      <stop offset="0" stop-color="#fff"/>
      <stop offset="1"/>
    </linearGradient>
  </defs>
  <title>killing_scene</title>
  <g id="Layer_1" data-name="Layer 1">
    <polygon points="1203.98 249.38 1012.66 0 1146.77 0 1151.27 87.67 1193.27 86.33 1216.97 -0.25 1229.57 0 1280.87 84.33 1450.65 85.89 1512.63 0 1674.75 0 1596.33 149.38 1381.17 182.19 1267.26 249.38 1203.98 249.38" style="fill: #969696"/>
    <polygon points="165.48 122.81 177.92 24.38 146.16 0 1.04 0 7.93 1080.94 171.7 1080.94 165.48 122.81" style="fill: #b7b7b7"/>
    <path d="M899,1081c1-1-3-1-1-3a283.22,283.22,0,0,1-41.8,5.46l253.59.93c-26.45-1-52.62-4.39-78.79-4.39C987,1081,943,1083,899,1081Z" style="fill: #d8d8d8"/>
    <path d="M1625,1083c100.92,1.92,201.84-4.45,302.75-4.06L1920.45,0H1669.91l-77.07,149.38L1510.58,0,1381.39,182.19l-112,67.19h-62.19L1019.23,0,970.91,88.44,914.86.5,825.8,88.44l-95-88.69-29,20.14-60.46,42L585.32,0H210.09L176.92,24.38l-12.44,98.43.24,31.19,7.14,926.94,42.09.16c26.41-.49,52.77-.69,79.05-.1,30,0,59,1,89,0,11-1,22-1,34-3,9-1,17,5,26,3-9,2-17-4-26-3-12,2-23,2-34,3-30,1-59,0-89,0-26.28-.59-52.64-.39-79.05.1l353,1.29c44.64-1.05,89.28-2.29,134.35.5l11.93,0c19.32-1.18,38.74-.84,58.17-.21A72.92,72.92,0,0,1,790,1082a72.92,72.92,0,0,0-18.63.72q6.82.22,13.66.48l71.17.26A283.22,283.22,0,0,0,898,1078c-2,2,2,2,1,3,44,2,88,0,132-1,26.17,0,52.34,3.42,78.79,4.39l22.93.09c6.41-.23,12.83-.69,19.28-1.48,25-4,50-3,75-2-25-1-50-2-75,2-6.45.79-12.87,1.25-19.28,1.48l344.55,1.26,450.5-4.8,0-2C1826.84,1078.55,1725.92,1084.92,1625,1083Zm-417-2c114,10,228-4,342,1C1436,1077,1322,1091,1208,1081Z" style="fill: #d8d8d8"/>
    <polygon points="219.38 141.56 284.02 0.91 373.21 0 488.01 145.02 219.38 141.56" style="fill: #a0a0a0"/>
    <polyline points="515.71 146.56 731.77 -0.25 893.75 150.84" style="fill: #a0a0a0"/>
    <polygon points="1427.99 547.81 737.65 443.13 86.7 582.19 615.34 644.69 1427.99 547.81" style="fill: #4c4c4c"/>
    <polygon points="86.7 582.19 615.34 644.69 602.9 672.81 86.7 608.75 86.7 582.19" style="fill: #727272"/>
    <polygon points="57.52 627.5 586.15 690 573.72 718.13 57.52 654.06 57.52 627.5" style="fill: #727272"/>
    <polygon points="43 672.81 571.64 735.31 559.2 763.44 43 699.38 43 672.81" style="fill: #727272"/>
    <polygon points="19.04 723.69 547.68 786.19 535.24 814.31 19.04 750.25 19.04 723.69" style="fill: #727272"/>
    <polygon points="-7.5 767 521.14 829.5 508.7 857.63 -7.5 793.56 -7.5 767" style="fill: #727272"/>
    <polygon points="-24.66 811.31 503.98 873.81 491.54 901.94 -24.66 837.88 -24.66 811.31" style="fill: #727272"/>
    <polygon points="78.04 603.69 606.68 666.19 594.24 694.31 78.04 630.25 78.04 603.69" style="fill: #9b9b9b"/>
    <polygon points="50.18 648 578.82 710.5 566.38 738.63 50.18 674.56 50.18 648" style="fill: #9b9b9b"/>
    <polygon points="33.01 698.31 561.65 760.81 549.21 788.94 33.01 724.88 33.01 698.31" style="fill: #9b9b9b"/>
    <polygon points="11.7 741.94 540.34 804.44 527.9 832.56 11.7 768.5 11.7 741.94" style="fill: #9b9b9b"/>
    <polygon points="-16.16 785.25 512.48 847.75 500.04 875.88 -16.16 811.81 -16.16 785.25" style="fill: #9b9b9b"/>
    <polygon points="-32 831.56 496.64 894.06 484.2 922.19 -32 858.13 -32 831.56" style="fill: #9b9b9b"/>
    <polygon points="615.92 643.78 1428.38 548 1435.29 574 603.16 666.54 615.92 643.78" style="fill: #727272"/>
    <polygon points="582.88 691.82 1440.51 586.26 1447.23 611.13 575.12 710.06 582.88 691.82" style="fill: #727272"/>
    <polygon points="569.41 738.2 1456.6 629.49 1463.34 655.53 559.68 760.98 569.41 738.2" style="fill: #727272"/>
    <polygon points="546.77 787.51 1468.28 675.53 1475.01 701.57 539.01 805.75 546.77 787.51" style="fill: #727272"/>
    <polygon points="518.88 831.14 1479.97 714.6 1486.71 740.64 511.12 849.38 518.88 831.14" style="fill: #727272"/>
    <polygon points="501.74 875.45 1489.98 762.31 1496.72 788.35 493.41 895.03 501.74 875.45" style="fill: #727272"/>
    <polygon points="605.61 666 1436.4 570.78 1443.31 596.78 592.51 690.96 605.61 666" style="fill: #9b9b9b"/>
    <polygon points="575.12 710.06 1452.21 608.59 1458.95 634.63 565.39 738.5 575.12 710.06" style="fill: #9b9b9b"/>
    <polygon points="559.68 760.98 1464.62 652.27 1471.35 678.31 546.77 787.51 559.68 760.98" style="fill: #9b9b9b"/>
    <polygon points="539.01 804.28 1476.29 698.31 1483.03 724.35 526.67 831.56 539.01 804.28" style="fill: #9b9b9b"/>
    <polygon points="512.48 847.75 1487.99 737.38 1494.73 763.42 500.04 875.88 512.48 847.75" style="fill: #9b9b9b"/>
    <polygon points="496.64 894.06 1498 785.09 1504.73 811.13 484.2 922.19 496.64 894.06" style="fill: #9b9b9b"/>
    <polygon points="1511.58 431 1783.57 451 1783.57 441 1512.91 424.67 1511.58 431" style="fill: #9b9b9b"/>
    <polygon points="1783.57 451 1898.67 448 1898.17 437.83 1783.57 441 1783.57 451" style="fill: #878787"/>
    <polygon points="1512.91 424.67 1769.42 412.67 1898.67 422.33 1898.17 437.83 1783.57 441 1512.91 424.67" style="fill: #5b5b5b"/>
    <polygon points="1524.49 431.95 1572.61 570.78 1783.57 578 1783.57 451 1524.49 431.95" style="fill: #5b5b5b"/>
    <polygon points="1783.57 451 1898.67 448 1898.67 578 1783.57 578 1783.57 451" style="fill: #3d3d3d"/>
    <polygon points="409.06 141.56 409.06 168.67 368.44 179 368.62 154 409.06 141.56" style="fill: #a0a0a0"/>
    <polygon points="409.06 141.56 702.06 146.56 699.06 170.56 409.06 168.67 409.06 141.56" style="fill: #aaa"/>
    <polygon points="377.81 24.38 402.81 0 458.1 0 409.06 141.56 368.62 154 368.44 122.81 377.81 24.38" style="fill: #8e8e8e"/>
    <polygon points="353.88 0 378.03 24.16 402.81 0 353.88 0" style="fill: #515151"/>
    <polygon points="702.06 146.56 672.81 0 585 0 518.56 143.43 702.06 146.56" style="fill: #a0a0a0"/>
    <polygon points="525 0 558.58 56.29 585 0 525 0" style="fill: #515151"/>
    <polygon points="418.07 260.71 534.07 260.71 534.07 486.62 418.07 511.4 418.07 260.71" style="fill: #515151"/>
    <polygon points="428.07 282.38 524.07 282.38 524.07 488.75 428.07 509.26 428.07 282.38" style="fill: #6b6a6a"/>
    <polygon points="702.06 146.56 949 151.7 941.08 170.56 699.06 170.56 702.06 146.56" style="fill: #969696"/>
    <polygon points="672.81 0 699.06 0 805.31 148.71 892.67 0 934 0.5 976.25 88.44 949 151.7 702.06 146.56 672.81 0" style="fill: #777"/>
    <polygon points="609.06 336.08 667.06 336.08 667.57 458.1 609.06 470.6 609.06 336.08" style="fill: #515151"/>
    <polygon points="614.06 346.92 662.06 346.92 662.06 459.27 614.06 469.6 614.06 346.92" style="fill: #6b6a6a"/>
    <rect x="739.1" y="189.11" width="101.29" height="101.29" style="fill: #7c7c7c;stroke: #545252;stroke-miterlimit: 10;stroke-width: 4px"/>
    <rect x="784.74" y="189.11" width="10" height="101.29" style="fill: #545252"/>
    <rect x="784.74" y="189.11" width="10" height="101.29" transform="translate(549.99 1029.49) rotate(-90)" style="fill: #545252"/>
    <rect x="1764.59" y="264.28" width="101.29" height="101.29" style="fill: #7c7c7c;stroke: #545252;stroke-miterlimit: 10;stroke-width: 4px"/>
    <rect x="1810.23" y="264.28" width="10" height="101.29" style="fill: #545252"/>
    <rect x="1810.23" y="264.28" width="10" height="101.29" transform="translate(1500.31 2130.15) rotate(-90)" style="fill: #545252"/>
    <rect x="269.32" y="240.88" width="66.43" height="66.43" style="fill: #7c7c7c;stroke: #545252;stroke-miterlimit: 10;stroke-width: 4px"/>
    <rect x="299.25" y="240.88" width="6.56" height="66.43" style="fill: #545252"/>
    <rect x="299.25" y="240.88" width="6.56" height="66.43" transform="translate(28.43 576.63) rotate(-90)" style="fill: #545252"/>
    <rect x="269.32" y="398.58" width="66.43" height="66.43" style="fill: #7c7c7c;stroke: #545252;stroke-miterlimit: 10;stroke-width: 4px"/>
    <rect x="299.25" y="398.58" width="6.56" height="66.43" style="fill: #545252"/>
    <rect x="299.25" y="398.58" width="6.56" height="66.43" transform="translate(-129.26 734.33) rotate(-90)" style="fill: #545252"/>
    <rect x="1504.73" y="226.02" width="101.29" height="101.29" style="fill: #7c7c7c;stroke: #545252;stroke-miterlimit: 10;stroke-width: 4px"/>
    <rect x="1550.38" y="226.02" width="10" height="101.29" style="fill: #545252"/>
    <rect x="1550.38" y="226.02" width="10" height="101.29" transform="translate(1278.72 1832.04) rotate(-90)" style="fill: #545252"/>
    <g>
      <rect x="959.35" y="47.54" width="29.89" height="485.7" style="fill: #3d3d3d"/>
      <rect x="784.74" y="47.54" width="204.5" height="19.02" style="fill: #3d3d3d"/>
      <polygon points="848.16 66.04 974.48 138.89 983.26 127.14 856.94 54.3 848.16 66.04" style="fill: #3d3d3d"/>
    </g>
  </g>
  <g id="Layer_2" data-name="Layer 2">
    <path d="M768.5,202.46l1.37,12.18.55,4.83,13,14.7,9.65-1.58,5.19-4.44s1.89-5,1.79-6.45-.55-5.61-.55-5.61a28.24,28.24,0,0,0-1.19-6.17,19.85,19.85,0,0,1-1.85-5.83c-.29-2.28-.63-3.47-.22-4.73s.85-1.71.67-3a23,23,0,0,0-.67-3.14c-.2-.63-.8-2.39-.91-2.71s-.69-2-.78-2.23-.41-1.71-.42-1.92.08-1,.08-1-2.27,2.23-2.36,2.44-1.9,1.19-2.62.93-2.54-.44-3.48-.7-1.71-.51-2-.63-2-.72-2-.72l-1.33-.71-.55-.43" style="fill: #fff;stroke: #282828;stroke-miterlimit: 10"/>
    <path d="M783.36,517.92s-2,11.51-1.45,16a71.22,71.22,0,0,1-.09,11.31s17.85,14.42,18.62,18.94-4.12,11.87-4.12,11.87-7.46,4-11.32,0-7.55-13.57-7.55-13.57l-8.15-23.75L769,520.18V513.6Z" style="fill: #fff;stroke: #282828;stroke-miterlimit: 10"/>
    <path d="M753.34,520.67l3.09,28.84s-2.06,21.77-1.54,24.88,10.2,9.61,14.1,8.48,6.32,1.41,8.46-1.41S776.2,561,776.2,561l-8.7-17.29-.86-24.51Z" style="fill: #fff;stroke: #282828;stroke-miterlimit: 10"/>
    <path d="M832.88,264.33l-3.31.42.38.05q1.44-.23,2.88-.39A.16.16,0,0,0,832.88,264.33Z" style="fill: #dbdbdb;stroke: #282828;stroke-miterlimit: 10"/>
    <path d="M830,264.8l.35.05,2.51-.39a.08.08,0,0,0,0,0Q831.39,264.57,830,264.8Z" style="fill: #dbdbdb;stroke: #282828;stroke-miterlimit: 10"/>
    <path d="M815.41,255.3c0,1.42.48,8.87,1.2,11.08l1.85-.23c1.67-.55,4.37-.76,5.31-1.06a13.13,13.13,0,0,1,5.8-.34l3.31-.42a1.58,1.58,0,0,0,.06-.35c.56-11.49.34-9.8,1.32-16.38.22-1.48,1.78-14.52,1.68-15.86-.19-2.68-.59-10.82-.59-10.82l-1.63-6.76-3.56-4.66-7.24-5.91-5.72-2.49s-10.5,19.32-17.71,25.83-3.4,5.47-16.08,7.16a161,161,0,0,1-13-14.7l-3.72-32.91-21.47,3.9-9.06,7.78c-8.34,7.76-13.2,47.78-14.59,50-2,3.18,20.17-2.78,20.17-2.78l1.28-28-1.69,9.16L747.24,281l49.25,9.73s2.85-13.16,12.3-29.32c1.49-2.54,3.72-7.32,5.63-10.21C814.88,250.55,815.47,252.91,815.41,255.3Z" style="fill: #dbdbdb;stroke: #282828;stroke-miterlimit: 10"/>
    <path d="M832.81,264.46l-2.51.39C831.62,265,832.51,265.1,832.81,264.46Z" style="fill: #dbdbdb;stroke: #282828;stroke-miterlimit: 10"/>
    <path d="M817.61,266.52a4.24,4.24,0,0,1,.85-.37l-1.85.23c0,.07,0,.14.07.19Z" style="fill: #dbdbdb;stroke: #282828;stroke-miterlimit: 10"/>
    <path d="M817.61,266.52l-.93.05,0,0,.86-.05Z" style="fill: #dbdbdb;stroke: #282828;stroke-miterlimit: 10"/>
    <path d="M816.7,266.61c.16.38.32.52.5.27a1.27,1.27,0,0,1,.36-.32Z" style="fill: #dbdbdb;stroke: #282828;stroke-miterlimit: 10"/>
    <path d="M814.85,244.73l7.26-41.14-5.72-2.49s-5.4,21-12.61,27.52-7.16,12.72-26.1,7.06c0,0-3,1.75-12.24-15l.44-34.22-4.65-3s1.71,7.83,0,11.22S741.74,230,741.74,230l5.5,51,49.25,9.73s2-13.16,11.49-29.32S814.85,244.73,814.85,244.73Z" style="fill: #88079b;stroke: #282828;stroke-miterlimit: 10"/>
    <path d="M704.7,523.21l34.6,16.08s6.58,3.72,10.18-.62,1.72-13.57,1.72-13.57,3.86,4.84,10.87,2.52,7.66-10.06,7.66-10.06,2.2,2.31,11.31,1.25S789.4,503,789.4,503l1.6-19s-.71-3.6,2-4,18.85.64,24.19,9.1,4.69,27.1,14.94,25.81,18.19-2.83,20.59-3.77-14.63-58.41-14.63-58.41-26.43-84.3-25.2-115.38c0,0-5.47-23-10.1-33s-6.35-13.58-6.35-13.58L747.24,281l-5.45,5.31s-12,26-13.74,34.46-26,137.94-26,137.94" style="fill: #88079b;stroke: #282828;stroke-miterlimit: 10"/>
    <path d="M756.43,549.51s-2.42,23.19-1.54,24.88,6.35,9.16,14.1,8.48,12,4.89,7.21-21.91l-8.7-17.29S776,561,772.69,567.23s-12.26,7.42-14.93-11.4Z" style="fill: #282828"/>
    <path d="M782.06,545.19s16.07,13.29,18.34,19.27c0,0,1.2,3.6-4.28,11.8,0,0-11.49,9.74-18.68-13.91l-5-15.2s8.52,21.68,13.08,21.2,11.63,2.28,8.4-6S782.06,545.19,782.06,545.19Z" style="fill: #282828"/>
    <g>
      <path d="M801.74,152.65c-.08,5,.26,22-2.26,26.13-4.75,7.69-9.94,9.7-9.94,9.7-1.73.1-8.64.15-13.13-5.81-2.07-2.76-5.09-10.29-5.55-18.72-.53-9.81,0-19.74,0-19.74s1.32-7.69,5.59-9.55,16.72-.51,19.66,1.71C800.69,139.85,801.74,152.65,801.74,152.65Z" style="fill: #fff;stroke: #282828;stroke-miterlimit: 10"/>
      <path d="M771.28,153.16s-.29.4,2-.88c8.63-4.82,9.82.85,9.5,1.08" style="fill: none;stroke: #000;stroke-miterlimit: 10"/>
      <path d="M789.75,152.28s.16-3.41,2.53-3.08,6.79,2.44,7.2,2.56" style="fill: none;stroke: #000;stroke-miterlimit: 10"/>
      <path d="M773.62,155a10.62,10.62,0,0,1,5.83-.63,16.53,16.53,0,0,1,2.31.9s-4,.74-5.26.45S773.62,155,773.62,155Z" style="fill: #fff;stroke: #000;stroke-miterlimit: 10"/>
      <path d="M789.86,154.93a10.43,10.43,0,0,1,5-1c2.82.34,2.73.64,2.73.64s-3.43,1.37-5.6.87Z" style="fill: #fff;stroke: #000;stroke-miterlimit: 10"/>
      <path d="M781,179.09a8.36,8.36,0,0,1,4.87-1.63c2.88,0,6.52,2.09,6.52,2.09a22.36,22.36,0,0,1-5.21-4.57,4.88,4.88,0,0,1-2.24-.18c-1.11-.39-3.94,4.29-3.94,4.29s1.68-2.81,4.31-3.09,6.67,3.31,6.67,3.31" style="fill: #d18c79;stroke: #282828;stroke-miterlimit: 10"/>
      <ellipse cx="777.84" cy="155.06" rx="1.65" ry="0.66"/>
      <ellipse cx="793.23" cy="154.78" rx="1.65" ry="0.66"/>
      <path d="M785.19,155.28a36.76,36.76,0,0,1-1.25,10.24c-.23.73-.46,1.64.16,2.13s1.92.19,2.73.25" style="fill: none;stroke: #282828;stroke-miterlimit: 10"/>
      <path d="M786.83,159.23c.08,3.45-.4,3,.55,6.29a2.21,2.21,0,0,1-.14,2.13c-.57.6-1.57.09-2.46.25" style="fill: none;stroke: #282828;stroke-miterlimit: 10"/>
      <path d="M785.33,133.79a1.58,1.58,0,0,0-.09,1.06l.84-1.41A.81.81,0,0,0,785.33,133.79Z" style="stroke: #282828;stroke-miterlimit: 10"/>
      <path d="M818.32,227.67c-4.84-14.82-1.12-9.77-.54-15.61s.33-1.94,1.55-10,3.33-9,1.3-14.91-2-7-2.85-13.15-1.15-7.9-2.86-15.76-2-9-2.7-12.85.49-5.56-3.67-11.95-7.42-8.33-11.55-9.72-8.14-2.22-11.29-1.39-5.35.28-10,3.61-7.1,4.32-8.08,9.94-2.21,6.73-3,11.18-2.69,6-2.2,11.17,2,6.46,1,10.84-.74,3.21-4.66,8.24-5.88,3.08-6.37,11.42a87.75,87.75,0,0,0,0,14.44c.24,3.34.47,9-2.39,14.18s-6.92,14.44-3.49,20.55,5.39,2.78,3.43,11.11-.49,21.95,1.71,23.89-2,12.22,2.94-.83,7.85-9.73,7.85-18.06,1-3.17-.49-11.59-1-9,.73-11.08,4.09.33,4.25-6,.59-1.62-.33-9.67-5.15-8.35-.86-11.95,4.55-.56,7.46-5,6.57-11.8,6.2-13.19-3.34-2.46-4.53-6.05-1.56-2.73-2.6-8c-1.08-5.5-1.26-3.54-1.13-9.38.15-6.71-1.68-3.36.73-11.73s5.2,1.25,9.22-7.77,3.59-7.5,3.59-7.5l.16-.26a1.58,1.58,0,0,1,.09-1.06.81.81,0,0,1,.75-.35l-.84,1.41a8.24,8.24,0,0,0,.84,2.21c2,3.89,3.73,6.39,7.4,8.05s7.82,2.09,8.36,5.36.8-.84.67,9.89c-.13,10.4-1.35,13-2.08,16.13-.53,2.27-4.06,6.43-4.93,7.71-.61.9-1.55.16-1.36,2.36s3.8,9.24,2.49,11.46.12,9,1.67,11.82,1,8.61,1.63,10.28c.48,1.23-.5,5.73-1.63,8.61a7.42,7.42,0,0,1-1.22,2.22c-1.47,1.46-3.29,1.72-2.47,8.78S795.49,251,797,254s.79.35,4,9.17-.49,20.83,4.16,10.55,2-.83,7.36-12.5,4-11.67,5.31-17.78S823.16,242.48,818.32,227.67Z" style="stroke: #282828;stroke-miterlimit: 10"/>
    </g>
    <path d="M832.83,264.41l-16-2.39L780,337.7s-5.88,2.67-6.61,4.26-8,20.76-8,20.76-.84,1,.83,1.77,6.35-10.17,6.35-10.17,1.61-1.6,2,.16-4.6,11.63-4.6,11.63-3.65-1.11-4.23-.92-1.69-.74-1.1.25,5.17,2.48,5.17,2.48.76,0,3.77-6.9-1.37,7.58-4.23,7.91c0,0-4.37-3.13-4.83-2.55s3.68,3.35,3.68,3.35,2.43,2.08,3.38,1.06,6.18-7.5,6.92-9.09,4.92-14.42,5.89-16.93,9.65-14.59,11.91-17.18,14.51-17.77,16.05-19.84,19-40.59,20.5-43.34" style="fill: #fff;stroke: #282828;stroke-miterlimit: 10"/>
    <line x1="772.78" y1="194.35" x2="771.55" y2="194.35" style="fill: none;stroke: #282828;stroke-miterlimit: 10"/>
    <path d="M802.94,144.77c.22.85.43,1.71.66,2.55-.42-1.54.35-3.42,0-5-1.54-7.06-4.76-16.48-13.4-17-4.79-.32-10.9,2-14.43,5.22-3.17,2.88-4.29,5.78-4.81,10-.2,1.65.2,3.37,0,5,.49-4,1.45-7,4.48-9.7,3.69-3.33,9.74-5.85,14.76-5.51,8.63.57,11.86,10,13.4,17v-5c-.23-.84-.44-1.7-.66-2.55.4,1.56-.4,3.43,0,5Z" style="fill: #900089"/>
    <path d="M784.7,232.06s-.19-.72,1.49-2.59a25.32,25.32,0,0,1,4.24-3.53l3.17-1.05a22.19,22.19,0,0,1,3.56,0" style="fill: none;stroke: #282828;stroke-miterlimit: 10"/>
    <path d="M783.29,231.68s.37-.63-.75-3a28,28,0,0,0-3.14-4.78l-2.75-2.06a21.66,21.66,0,0,0-3.42-1.15" style="fill: none;stroke: #282828;stroke-miterlimit: 10"/>
    <path d="M723.71,249.26l16-4.07,28.15,80.35s5.54,3.5,6.09,5.18,5.67,21.74,5.67,21.74.73,1.1-1,1.64-5.16-11-5.16-11-1.42-1.81-2.06-.14,3.27,12.2,3.27,12.2,3.74-.57,4.29-.3,1.76-.49,1.07.4-5.4,1.73-5.4,1.73-.76-.08-3-7.4.52,7.73,3.32,8.46c0,0,4.68-2.48,5.08-1.84s-4,2.8-4,2.8-2.64,1.72-3.47.56-5.3-8.32-5.85-10-3.28-15-4-17.64-7.94-15.85-9.9-18.75-12.41-19.7-13.71-22-15.76-43-16.91-46" style="fill: #fff;stroke: #282828;stroke-miterlimit: 10"/>
    <path d="M793,60.63c-3.27,2.92-4.7,7.71-4.3,12,.38,4.09,2.69,7.61,3.19,11.69.41,3.43.15,6.85,1,10.23,2,7.9,8.14,14.37,12.82,20.81,1.9,2.62,4.23,5.48,5.14,8.64.81,2.84.68,6.13.84,9.06.23,4.3-.64,10.85,1.28,14.85.37.75,2.07,2.49,1.74,1.8,1.24,2.56-1.09,6.22-2.35,8.29-5.9,9.64-11.73,19.15-17.13,29.09-.67,1.22-3.59,4.89-3.43,6.29,0,.31,1.91-.56,1-.84-.67-.21-2.37.51-3.05.66l-13.6,3,2.92.77-2.8-3.35.47,3.64c1.23-2.61,3.39-5.8,3.87-8.65.42-2.49-1.35-5.14-4.15-4.29-3.69,1.11-2.11,6.9,1.6,5.78q-2.72-5.06-3.61-2c-.13.32-.27.63-.42.95a10.72,10.72,0,0,0-.78,1.64l-1.69,3.59a3.16,3.16,0,0,0,.47,3.64l2.8,3.34a3,3,0,0,0,2.92.77l11.89-2.58c3.19-.69,5.87-.65,7.67-3.51,4.88-7.74,8.56-16.28,13.29-24.13,3.77-6.24,10.74-13.22,10.38-21a8,8,0,0,0-1.75-4.87,9.88,9.88,0,0,0-1.37-1.21,6.84,6.84,0,0,0-.93-.4c1.26,1.71,1.78,2.1,1.56,1.19a5.36,5.36,0,0,1-.1-.7c.52-2.24-.38-5.73-.5-8-.16-3.2-.29-6.42-.59-9.62-.61-6.57-3.82-11.23-7.71-16.45a132.69,132.69,0,0,1-8.34-11.79c-2.69-4.58-2.91-8.72-3.33-13.81-.52-6.3-6.57-14.78-.69-20,2.88-2.58-1.37-6.81-4.24-4.24Z" style="fill: #282828"/>
    <path d="M802.21,107.63a6.44,6.44,0,0,1-2.89,4.7c-1.27,1-2.6,1.7-3.31,3.19a5.94,5.94,0,0,0,.42,5.4,38.83,38.83,0,0,0,2.49,3.76c.23.35.54,1.19.91,1.41.6.36-.35.63.15-1.26l2.1-2.1c1.23-.29,2.89,1,2,.15-2.75-2.72-7,1.52-4.24,4.24a3.94,3.94,0,0,0,3.79,1.4,3,3,0,0,0,2.1-2.1c.44-1.65-.57-3.1-1.43-4.42-.7-1.06-1.44-2.73-2.4-3.52a2.37,2.37,0,0,1-.44-.73c0,.1-.39.81-.08.42.84-1.09,2.55-1.71,3.55-2.72a11.37,11.37,0,0,0,3-6.23c.63-3.78-5.15-5.4-5.78-1.59Z" style="fill: #333"/>
  </g>
  <g id="Layer_3" data-name="Layer 3">
    <path d="M1871.88,799.07s3.88,2.49,2.21,7.69.87,9.87,1.06,13.46-.05,17.34,1.87,19.58,7.77,17.83,7.77,17.83l7.52,15.44s1.92,2.24,3.51-6.8,3.51-6.8,2.58-15.6-.25-10.48-3.26-15-7.77-17.83-7.77-17.83L1884,810l-5.68-5.92Z" style="fill: #b8b5b5;stroke: #000;stroke-miterlimit: 10"/>
    <path d="M1766.22,973.66c4.94-10.24,7.42-18.8,10.78-22.74s.69-4,4.94-10.24,7.19-6.85,8.67-10.61,2.57-4.23,4.46-11.28,3-7.52,4.56-13.82.61-8.37,3.18-12.6.7-4,4-8,3.54-2.16,4.84-7.7,1.29-5.55,2.18-7.81a11.92,11.92,0,0,1,1.19-2.11c0,.13,0,.25,0,.38,0-.13,0-.25,0-.38.31-.47.44-.69,0-.4,1.5-12,2.81-37.27,10.87-33.78,4.31-.73,11.34.74,12.94,2.39,7.64,7.93,4.46,20.53,2.58,27.58s-3.29,15.14-8.53,26.13-11.77,27.54-13.85,32.8-7,8.64-8.89,15.69a81.78,81.78,0,0,1-7.42,18.8c-3.75,7.23-5.83,12.49-10.08,18.69-3.08,4.51-13.13,21.89-13.13,21.89l-9.48,17.19-1.19,3-3.33-2.93-.36-.77.36.77,1.47,3.11c2.93,6.22,2.12,12.8-1.42,15s-6,3.84-8.36,3-5-1-6.47-4.07-1.55-7.43-1-8.94-.49-1,1.48-3.76,1.59-6.3,3.46-6.48l1.87-.18-1.76-2.36,3.52-13.15a65,65,0,0,0,3.41-6.68C1766.79,979,1761.28,983.9,1766.22,973.66Z" style="fill: #545050;stroke: #000;stroke-miterlimit: 10"/>
    <path d="M1865.74,789.85l-.21.81C1866.86,790.12,1865.74,789.85,1865.74,789.85Z" style="fill: #9b9b9b;stroke: #000;stroke-miterlimit: 10"/>
    <path d="M1783.47,1001.27l-.11,1C1783.47,1002.53,1783.47,1001.27,1783.47,1001.27Z" style="fill: #9b9b9b;stroke: #000;stroke-miterlimit: 10"/>
    <path d="M1925.54,1078.93c-3.47-32.64-7.41-69.53-13.63-80.07-10.92-18.49-10.92-24.92-19.31-30.55-4.95-3.32-6.69-4.68-7.63-6.89a9.8,9.8,0,0,1-4.54,1.66A216.27,216.27,0,0,1,1810.3,958c-.46.78-1.46,1.31-1.64,2.27-1.68,8.84-1.27,12.23-10.08,25.72-8.39,12.87-9.23,42.61-9.23,42.61l-7.55,27.33s-1.67,10.17-4.16,25.57C1826.94,1080.22,1876.24,1078.79,1925.54,1078.93Z" style="fill: #ccc;stroke: #000;stroke-miterlimit: 10"/>
    <path d="M1874.13,815.57c-5.87-9.64-10.07-14.46-10.07-20.09l.63-2.41c-1,.39-3.23.93-8.19,1.6-11.75,1.61-15.11,3.22-21.82.81s-9.23-3.22-9.23-3.22,1.67,2.41,0,8.85,4.36,19.81-7.56,27.33c-12.74,8-37.16,21.66-32.74,20.9-18.19,47.74,59.24,9.22,90.24-4.42,9.88-3.95,3.78-2.82,13.85-7.64-2-.6-8.39-11.25-8.39-11.25S1880,825.22,1874.13,815.57Z" style="fill: #f2ecec;stroke: #000;stroke-miterlimit: 10"/>
    <path d="M1785.15,846.93c-5,3.21-5.75,10.78-5.87,11.25-1.68,6.43,5,21.7,8.39,26.53s4.2,4.82,5.88,9.64.84,8,3.36,13.67,1.67-.8,5.87,12.86,7.56,6.43,8.4,19.29c.46,7.1.41,11.26-.29,14.24A3.87,3.87,0,0,0,1814,959a215.69,215.69,0,0,0,65.63,4.06h.32a3.84,3.84,0,0,0,3.39-4.59c-.22-1.05-.45-2.29-.77-3.84-1.59-7.59-5.57-16.8.42-27.42a4,4,0,0,0,.46-1.3c.3-1.61,1.91-4.12,2.4-5.6a2.8,2.8,0,0,0,.12-.5c4.94-30.12,4.17-47,5.79-76.14a3.75,3.75,0,0,0-.26-1.59c-.58-1.48-.88-1.44-3.06-5.61" style="fill: #8d8888;stroke: #b8b5b5;stroke-miterlimit: 10"/>
    <path d="M1844.75,678.92c-21.73,0-32.74,20.09-45.39,44.61l.06-.4c-1.61,6.47-.84,4.82-7.69,12.13-5,5.33-3.22,7.19-3.22,8.63s6.29,2.13,9.54,2.15c2.65,30.08,22.54,53.46,46.7,53.46,26,0,47-27,47-60.29S1870.71,678.92,1844.75,678.92Z" style="fill: #efefef;stroke: #000;stroke-miterlimit: 10"/>
    <path d="M1890.08,838.89c-9.95-15.88-3.52-7.45-13.88-17.31a4.44,4.44,0,0,1-.66-.84c-17.26-29-64.36,5.29-90.39,26.19" style="fill: #8d8888;stroke: #b8b5b5;stroke-miterlimit: 10"/>
    <path d="M1778.54,919.29c0-.2,0-.41-.08-.63-.52-4,1.77-5.88,2.5-13.26s-1.66-6.28-.62-11.27-.94-13.66-1.56-24.92-3.12-4.49-3.75-15.76a66.27,66.27,0,0,1-.24-7.44l-3.29-13.2-2.71-1.29,1.56-1c1.56-1-.52-4-.1-7.28s-.31-2.39-.52-4-2.4-5.38-5.21-7.48-5.2-1-7.7-.7-3.86,2.89-5.94,6.38.42,9.68,6,13.86l2.81,2.1.7.52-.7-.52-4.37-1.1.41,3.19v19.44s-.41,19.86-.94,25.23c-.73,7.38,0,13,.21,21a80.25,80.25,0,0,0,2.6,19.94c.14.58.25,1.14.34,1.7C1762.32,931.12,1775.13,932,1778.54,919.29Z" style="fill: #545050;stroke: #000;stroke-miterlimit: 10"/>
    <path d="M1839.3,880.49c5.35-5.17,14.76-14.49,12.35-25-.5-2.2-5.79-6.88-9.9-8.34-5.1-6.92-19.57,14.22-27.22,23.87.48-.07.26.06-.26.32l-.24.29.24-.29a13.45,13.45,0,0,0-2.14,1.24c-2,1.52-2,1.52-6,5.67s-3.27,2.53-8.24,4.3-3.27,2.53-7.72,4.93-4.7,4.66-9.4,9.32-5.88,4.54-11.23,9.71c-5.06,4.88-6.4,5-9.28,7.17-7.57,10,4.66,18.08,14,14.87,5-4.09,10.43-4.81,14.63-8,4.58-3.53,19-14.63,29.28-21.57S1833.94,885.66,1839.3,880.49Z" style="fill: #545050;stroke: #000;stroke-miterlimit: 10"/>
    <path d="M1822.58,721.8c6-6.79,8.25-7.62,14.62-9.12s14.5,2.26,14.5,2.26" style="fill: none;stroke: #000;stroke-miterlimit: 10"/>
    <path d="M1851.4,713.8c-6.23,5.79-9.34,8.68-15.71,10.19s-13.4-3.28-13.4-3.28" style="fill: none;stroke: #000;stroke-miterlimit: 10"/>
    <path d="M1806.14,773s20.55-6.72,26.86-1.61,5,4.83,5,4.83-11.17.55-13.43,1.6-14.27,3.22-14.27,3.22" style="fill: none;stroke: #000;stroke-miterlimit: 10"/>
    <ellipse cx="1831.37" cy="719.74" rx="4.51" ry="4.6" transform="translate(314.16 1972.75) rotate(-61.01)" style="stroke: #000;stroke-miterlimit: 10"/>
    <path d="M1872.84,737.79s.92-11,6-10.43,7.83,8.57,6.07,13-9.26,6.12-9.15,9.78" style="fill: none;stroke: #000;stroke-miterlimit: 10"/>
    <path d="M1855.27,709.34c-5.59-6.89-10-9.3-17-5.48-6.21,3.36-19.66,10-19.66,10" style="fill: none;stroke: #000;stroke-miterlimit: 10"/>
    <polygon points="1827.32 689.78 1827.26 699.01 1842.63 690.17 1849.87 699.01 1853.49 690.17 1867.05 708.66 1877.56 705.33 1881.52 722.33 1885.54 717.87 1885.54 732.78 1889.66 728.14 1885.14 704.64 1880.62 683.74 1840.83 679.72 1818.22 685.35 1813.69 699.82 1827.32 689.78" style="fill: #b8b5b5;stroke: #000;stroke-miterlimit: 10"/>
    <path d="M1909.8,707.79c-13.83-22.41-8.5-35.69-37.79-45.3s-45.29,11-60,20.45c-11,7.08-.2,9.21,0,11.25.84,8.16,32.78-19.69,50.37-5.63s26,30,27.7,46.63c1.68,16.88-37.35,59.23-22.41,73.43a310.41,310.41,0,0,0,29.1,24.39l2.69-17.46s6.77-38,10.85-50,7.37-19.24,7.68-22.82S1923.63,730.21,1909.8,707.79Z" style="stroke: #333;stroke-miterlimit: 10"/>
    <path d="M59.18,1000.53c5.31-12.94,11-22.3,11.95-28.55s3.08-4,5.31-12.94.5-12.07,2.71-16.53,1.78-5.81,6.62-13.38,4.42-8.92,8.82-15.61,7-7.56,8.81-13.36,3.08-4,4-10.27-.85-4.92,3.11-10.71,4-5.8,5.29-8.47a16.53,16.53,0,0,0,1-2.82l-.29.36.29-.36c.18-.67.28-1,.32-.38,9.61-11.41,31.24-33.74,21.78-37.9-2.73-4.4-9.57-9.36-12.31-9.38-13.1-.07-21.91,13.3-26.76,20.87s-11,15.59-16.75,29.42S67.56,904,64.47,910.22s-2.26,13.41-7.1,21a105.61,105.61,0,0,0-11,22.3c-3.54,9.37-6.63,15.62-8.87,24.55-1.62,6.5-9.33,29.91-9.33,29.91l-8,22.76-1.77,3.57,5.24.48,1-.33-1,.33-3.94,1.32c-7.88,2.64-13.15,8.87-12.3,13.79s1.26,8.51,3.88,9.86S16,1063.35,20,1062s7.89-4.88,8.77-6.66,1.31-.44,2.21-4.46,4.4-6.68,3.1-8.48l-1.3-1.8,3.5-.42,9-14.13c0-.36.73-2.32,3.32-8.61C53.92,1004.53,53.87,1013.47,59.18,1000.53Z" style="fill: #545050;stroke: #000;stroke-miterlimit: 10"/>
    <path d="M82.16,770.5l.24,1C80.86,770.84,82.16,770.5,82.16,770.5Z" style="fill: #9b9b9b;stroke: #000;stroke-miterlimit: 10"/>
    <path d="M-.15,1048.27a3.38,3.38,0,0,1,1.24.23C2.69,1049.05,1.38,1048.7-.15,1048.27Z" style="fill: #9b9b9b;stroke: #000;stroke-miterlimit: 10"/>
    <path d="M177.87,1033.5l.14,1.22C177.87,1035.08,177.87,1033.5,177.87,1033.5Z" style="fill: #9b9b9b;stroke: #000;stroke-miterlimit: 10"/>
    <path d="M150.91,1007.5c-8.67-16.79-8.26-21-9.91-32-.18-1.19-1.16-1.86-1.62-2.82a170.19,170.19,0,0,1-69,6.32,8.38,8.38,0,0,1-4.47-2.08c-.93,2.75-2.64,4.45-7.51,8.58-8.27,7-8.27,15-19,38-4.13,8.85-7.24,32.63-9.88,59.64,44.93,1.34,90.11.23,135.28-.91L160,1060.5S159.18,1023.5,150.91,1007.5Z" style="fill: #545050;stroke: #000;stroke-miterlimit: 10"/>
    <path d="M72.39,802.5c6.84-12,11.72-18,11.72-25l-.73-3c1.13.48,3.76,1.15,9.52,2,13.67,2,17.58,4,25.39,1s10.75-4,10.75-4-1.95,3,0,11-5.08,24.65,8.79,34c14.83,10,43.24,27,38.09,26C197.09,903.89,107,856,70.93,839c-11.5-4.9-4.4-3.5-16.12-9.5,2.37-.74,9.77-14,9.77-14S65.55,814.5,72.39,802.5Z" style="fill: #f2ecec;stroke: #000;stroke-miterlimit: 10"/>
    <path d="M169.48,841.5c5.53,4,6.32,13.41,6.46,14,1.84,8-5.54,27-9.23,33s-4.61,6-6.46,12-.92,10-3.69,17-1.84-1-6.45,16-8.3,8-9.23,24c-.51,8.83-.45,14,.32,17.71a4.83,4.83,0,0,1-3.37,5.74,210.32,210.32,0,0,1-72.13,5l-.35,0c-2.54-.28-4.23-3-3.72-5.7.24-1.31.49-2.86.84-4.78,1.75-9.45,6.13-20.9-.46-34.11a6,6,0,0,1-.51-1.62c-.32-2-2.1-5.13-2.64-7a4.25,4.25,0,0,1-.12-.62c-5.44-37.47-4.59-58.42-6.37-94.72a5.32,5.32,0,0,1,.29-2c.64-1.84,1-1.79,3.36-7" style="stroke: #b8b5b5;stroke-miterlimit: 10"/>
    <path d="M106.57,632.5c25.29,0,38.1,25,52.82,55.5l-.07-.5c1.87,8,1,6,9,15.09,5.82,6.63,3.74,8.94,3.74,10.73s-7.32,2.66-11.1,2.68c-3.08,37.42-26.23,66.5-54.34,66.5-30.2,0-54.69-33.58-54.69-75S76.37,632.5,106.57,632.5Z" style="fill: #efefef;stroke: #000;stroke-miterlimit: 10"/>
    <path d="M53.83,831.5C65.41,811.74,57.93,822.24,70,810a5.19,5.19,0,0,0,.77-1c20.09-36.12,74.89,6.57,105.17,32.57" style="stroke: #b8b5b5;stroke-miterlimit: 10"/>
    <path d="M214.44,869.84c-.11-.23-.23-.46-.34-.71-2.1-4.51-5.59-5-11.13-12.3s-2.47-7.65-6.75-12.21-8-14.93-14.77-27.14.13-6.71-6.62-18.92c-3.29-5.94-4.38-7.71-4.63-8l-5.4-16,1.81-3.09-2.19,0c-2.18,0-2.09-4.51-4.65-7.7s-1.26-2.7-2.1-4.51-1.17-7.18.22-11.18,4.45-4.38,7.09-5.67,5.67.56,10,2.88,5.91,10.41,3.14,18.41l-1.39,4-.35,1,.35-1,3.57-4,1.68,3.61,12.71,20.39s13.39,20.56,17.42,25.85c5.54,7.26,8.47,13.59,13.55,22.19a105.85,105.85,0,0,1,10.49,22.57c.23.7.5,1.36.77,2C238.07,871.85,226.1,881,214.44,869.84Z" style="fill: #545050;stroke: #000;stroke-miterlimit: 10"/>
    <path d="M129.48,868.11c-8.63-2-23.95-5.74-28.48-18.33-1-2.63,1.18-10.93,4.26-15.09.48-10.53,28.49,2.37,42.3,7.57-.52.25-.22.23.46.17l.43.16-.43-.16a15.14,15.14,0,0,1,2.91-.06c2.92.33,2.92.33,9.6,2.1s4.86.55,10.9-.78,4.85.55,10.78.22,7.66,1.87,15.32,3.75,8.74,1,17.36,3c8.16,1.88,9.57,1.19,13.8,1.58,13.93,5.59,7.24,21.94-4,24.55-7.58-1.09-13.37,1.64-19.61.93-6.8-.77-28.15-3.19-42.82-3.85S138.11,870.09,129.48,868.11Z" style="fill: #545050;stroke: #000;stroke-miterlimit: 10"/>
    <path d="M138.05,674.25c-5.1-8.75-9.53-12.16-17.8-8.75-7.28,3-23,8.75-23,8.75" style="fill: none;stroke: #000;stroke-miterlimit: 10"/>
    <path d="M135.23,680c-8.72-4.08-13.08-6.12-20.71-6.12S100.34,680,100.34,680" style="fill: none;stroke: #000;stroke-miterlimit: 10"/>
    <path d="M100.34,679.09c8.72,3.27,13.08,4.9,20.71,4.91s14.19-4.88,14.19-4.88" style="fill: none;stroke: #000;stroke-miterlimit: 10"/>
    <path d="M151.5,749.5s-23.91-8.36-31.25-2-5.86,6-5.86,6,12,.7,14.65,2,17.58,4,17.58,4" style="fill: none;stroke: #000;stroke-miterlimit: 10"/>
    <ellipse cx="123.67" cy="679.54" rx="6.35" ry="4.02" style="stroke: #000;stroke-miterlimit: 10"/>
    <path d="M30.89,668.42c16.09-27.89,9.89-44.4,44-56.35s52.7,13.68,69.81,25.43c12.83,8.81.24,11.46,0,14-1,10.15-38.14-24.5-58.61-7s-30.3,37.29-32.23,58c-1.95,21,43.46,73.68,26.08,91.35a366.38,366.38,0,0,1-33.86,30.34l-3.12-21.72S35,755.13,30.3,740.28s-8.57-23.93-8.94-28.39S14.8,696.3,30.89,668.42Z" style="fill: #787878;stroke: #333;stroke-miterlimit: 10"/>
    <path d="M73.89,705.73s-1.07-13.71-7-13-9.1,10.66-7.06,16.19,10.78,7.62,10.65,12.18" style="fill: none;stroke: #000;stroke-miterlimit: 10"/>
    <path d="M134.9,681.5c1,6,1.95,11,0,11a4.23,4.23,0,0,1-2.93-1,2.21,2.21,0,0,1-1-3,47.66,47.66,0,0,0,2-5Z" style="fill: #b3b3b3"/>
    <path d="M132,718.5c1,6,1.95,11,0,11a4.23,4.23,0,0,1-2.93-1,2.21,2.21,0,0,1-1-3,47.66,47.66,0,0,0,2-5Z" style="fill: #b3b3b3"/>
    <path d="M1442.11,1081.59q17.52-.42,35-.61c0-.28,0-.57.08-.85C1474.23,1068.53,1455.31,1066.67,1442.11,1081.59Z" style="fill: #fff;stroke: #000;stroke-miterlimit: 10"/>
    <path d="M1489.84,951.09l0-.11c-3.55-7.26-11.75-9.93-18.22-5.91-27,16.77-40.88,36-45.41,72.58a15.36,15.36,0,0,0,.39,5.85c.93,3.43,2.45,8.91,3,9.93,3.72,7.24,9.06,26.82,1.79,46.76-.21.58-.4,1.13-.58,1.69,17.25-.46,34.5-.82,51.75-.94,1.7-21.44,6.57-45.32,9.08-72.17C1494.53,977,1495.52,962.72,1489.84,951.09Z" style="fill: none;stroke: #000;stroke-miterlimit: 10"/>
    <path d="M1454.84,760.17c-5.77,5-10.44,15.82-12.31,20s-10.35,19.94-10.12,31.48-3.66,12.42.57,28,5.4,24.64,12.38,31.12" style="fill: #fff;stroke: #000;stroke-miterlimit: 10"/>
    <path d="M1560.59,812.85c-5.21-24.21-9.49-33.63-22.43-44.14s-34.61-18.39-46.33-17.38" style="fill: #fff;stroke: #000;stroke-miterlimit: 10"/>
    <path d="M1538.21,887.33l11.76-67s-8.82-40.9-38.23-47.86-50-.87-59.8,3.48-12.71,11.62-12.71,11.62,1.44-27.37,26.68-31.68"/>
    <path d="M1526,757.67c13.87,5.16,27.1,25.63,31,40.66"/>
    <path d="M1444,803c6.59-3,13.15-6.1,19.72-9.15,1.94-.91,4.13-2.24,6.31-2.46a30.38,30.38,0,0,1,4.75.42c4.51.32,11.65.32,14.92,2.94,1.49,1.2,3.63-.91,2.12-2.12-3.61-2.9-9.18-3.39-13.59-3.66-2.57-.17-5.4-.67-8-.58-2.19.07-4.23,1.13-6.19,2-7.23,3.25-14.36,6.72-21.58,10-1.75.8-.23,3.39,1.52,2.59Z"/>
    <path d="M1438.86,860.6,1434,843.4s13,1.73,18.94-2.63,3.92-7,9.8-5.22,15.69,6.09,12.74,9.58-2.94,4.35-14.7,8.7-11.77.87-14.71,3.48a16.09,16.09,0,0,1-7.19,3.29" style="fill: none;stroke: #000;stroke-miterlimit: 10"/>
    <path d="M1525.89,894.09c-1.51-9-3.14-18-3.14-18s20.5-2,26.27-7,10.54-10.88,11.46-13.37,4.57-15.73,4.54-17.38.64-1.9-4.43-25.47c-5.21-24.21-9.49-33.63-22.43-44.14s-34.61-18.39-46.33-17.38-31.22,3.8-37,8.84-10.44,15.82-12.31,20-10.35,19.94-10.12,31.48-3.66,12.42.57,28,5.4,24.64,12.38,31.12,18.75,7.94,21.7,8.71,10.8,2.3,10.8,2.3l1.8,9.43C1495.07,894.8,1510.48,894.08,1525.89,894.09Z" style="fill: #fff;stroke: #000;stroke-miterlimit: 10"/>
    <path d="M1530.77,1081.34c2.6-11,6.23-22.67,13.13-31.73,11.43-15,25.24-57.26,25.24-57.26l-12.66-45.12s-28-30.86-28.12-35.8c0-2.26-1.21-9.8-2.47-17.34-15.41,0-30.82.71-46.23-2.91l1.49,7.82.24,11.53s-63.92,31.52-66.67,40.63-12.52,10.09-16.14,24.16-7.78,50.39-11.5,59.51,1.6,30.46,5.64,37c1.2,1.94,2.45,6.12,3.61,11C1441.14,1081.53,1486,1080.16,1530.77,1081.34Z" style="fill: #c9c9c9;stroke: #000;stroke-miterlimit: 10"/>
    <path d="M1441.59,785.38s1.43-31.6,26.68-36.57,29.65-11,60,2.06c13.87,6,27.1,29.59,31,46.94s9.25,50.51,9.25,50.51l3.43,52.23h-31.37l11.76-77.35S1543.51,776,1514.1,768s-50-1-59.81,4A26.49,26.49,0,0,0,1441.59,785.38Z"/>
    <path d="M1498.91,1080.89c1.62-21.71,6.61-45.93,9.16-73.23,3-31.79,4-46-1.73-57.67l0-.11c-3.55-7.26-11.75-9.93-18.22-5.91-27,16.77-40.88,36-45.41,72.58a15.36,15.36,0,0,0,.39,5.85c.93,3.43,2.45,8.9,3,9.93,3.72,7.24,9.06,26.81,1.79,46.76-.3.82-.57,1.61-.81,2.39C1464.31,1081.1,1481.61,1080.85,1498.91,1080.89Z" style="fill: none;stroke: #000;stroke-miterlimit: 10"/>
    <path d="M1454.38,788.45c6.16-9.64,11.5-13.4,21.48-9.64,8.78,3.3,27.69,9.64,27.69,9.64" style="fill: none;stroke: #000;stroke-miterlimit: 10"/>
    <path d="M1457.78,794.78c10.52-4.49,15.78-6.74,25-6.74s17.11,6.74,17.11,6.74" style="fill: none;stroke: #000;stroke-miterlimit: 10"/>
    <path d="M1499.88,793.78c-10.52,3.6-15.78,5.4-25,5.41s-17.11-5.38-17.11-5.38" style="fill: none;stroke: #000;stroke-miterlimit: 10"/>
    <path d="M1438.14,860.34s28.86-9.22,37.72-2.2,7.07,6.61,7.07,6.61-14.5.76-17.68,2.2-21.21,4.41-21.21,4.41" style="fill: none;stroke: #000;stroke-miterlimit: 10"/>
    <ellipse cx="1471.73" cy="794.28" rx="7.66" ry="4.43" style="stroke: #000;stroke-miterlimit: 10"/>
    <path d="M1460.09,800.84c-.79,6.61-1.59,12.12,0,12.12a3,3,0,0,0,2.38-1.1,2.78,2.78,0,0,0,.79-3.3c-.79-2.21-1.58-5.51-1.58-5.51Z" style="fill: #b3b3b3"/>
    <path d="M1461.71,826.18c-1.17,6.62-2.35,12.12,0,12.12a5.38,5.38,0,0,0,3.54-1.1s2.36-1.1,1.18-3.3a50.42,50.42,0,0,1-2.36-5.51Z" style="fill: #b3b3b3"/>
    <path d="M1523.55,814.32s1.29-15.1,8.39-14.29,11,11.75,8.52,17.84-13,8.39-12.84,13.41" style="fill: none;stroke: #000;stroke-miterlimit: 10"/>
    <path d="M1438.14,821.78a11.92,11.92,0,0,1-7.07,8.81c-2.36,1.1-1.18,1.1-4.71,2.21s-8.25,5.5-7.07,6.61,0,4.4,8.25,3.3,9.42-1.1,9.42-1.1l7.08-1.1" style="fill: #fff;stroke: #000;stroke-miterlimit: 10"/>
    <path d="M1308.5,841.5l-.25,1C1309.83,841.84,1308.5,841.5,1308.5,841.5Z" style="fill: #9b9b9b;stroke: #000;stroke-miterlimit: 10"/>
    <path d="M1340.5,1063.5c-5.9-4.13-8-5.83-9.09-8.58A11.3,11.3,0,0,1,1326,1057a247.44,247.44,0,0,1-83.54-6.32,22.09,22.09,0,0,1-2,2.82c-4,5,2-1-12,13-3.4,3.4-6.18,8.52-8.44,14.23l6.94.27-6.94-.27c-.16.4-.31.8-.46,1.2,45,3.32,89.91,3.14,134.87,2.09C1349.54,1073.64,1347.4,1068.33,1340.5,1063.5Z" style="fill: #9b9b9b;stroke: #000;stroke-miterlimit: 10"/>
    <path d="M1319.5,870.5c-7-12-12-18-12-25l.75-3c-1.15.48-3.85,1.15-9.75,2-14,2-18,4-26,1s-11-4-11-4,2,3,0,11-1,14-16,22c-11.8,6.29-26.67,8.88-38.33,12.61,33,21.94,76.89,36.86,113.83,19.89,11.77-4.9,25.45-11.74,34.46-23.32-2.43-.74-4-1.18-4-1.18S1326.5,882.5,1319.5,870.5Z" style="fill: #9b9b9b;stroke: #000;stroke-miterlimit: 10"/>
    <path d="M1401.5,1029.5c1-12-5-9-7-28s2-21,4-26,4-27,3-34-6-39-14-45c-6-4.5-23.24-10.12-31.49-12.65a119.39,119.39,0,0,0,11.13,49.27,10.22,10.22,0,0,1,1.36-.62s2,24,1,33,0-1-1,17-3,23-3,36-4,15-1,40c.92,7.66,2.21,16.54,3.57,25.18q15.33-.42,30.66-.88C1400.5,1061.71,1400.54,1041,1401.5,1029.5Z" style="fill: #9b9b9b;stroke: #000;stroke-miterlimit: 10"/>
    <path d="M1355.46,883.68c-9,11.58-22.69,18.42-34.46,23.32-36.94,17-80.85,2-113.83-19.89l-.19.06c-1.91,14.63.86,29.26-2.75,43.89.3.5,1,1.83,2.27,4.44,4,8,6,18,10,24s5,6,7,12,1,10,4,17,2-1,7,16,9,8,10,24c.81,13,.31,18.06-2,22.18A247.44,247.44,0,0,0,1326,1057a11.3,11.3,0,0,0,5.41-2.08c-.77-1.9-1.09-4.32-1.91-8.42-2-10-6-11,3-26s10-30,14-37,5-1,11-20,7-19,6-24c-.69-3.44,1.94-5.46,3.64-6.38A119.39,119.39,0,0,1,1356,883.85Z" style="stroke: #000;stroke-miterlimit: 10"/>
    <path d="M1211.5,1076.5c-1-14,0-25-2-31s1-5-1-14-5-11-5-16-1-6,0-15,0-10,1-18,3-10,2-16,1-5-1-11-3-4-2-11,1-7,1-10a15.66,15.66,0,0,0-.39-3c0,.16-.07.31-.11.46,0-.15.07-.3.11-.46-.14-.68-.19-1,.12-.48,3.61-14.63.84-29.26,2.75-43.89a60.94,60.94,0,0,0-8.48,3.33c-12,6-21,16-22,25s-3,19-2,34,1,37,1,44,4,13,3,22a104.45,104.45,0,0,0,0,25c1,10,1,17,3,26,.58,2.62,1.5,8.1,2.39,13.73,9.25-.24,18.51-.09,27.77.2C1211.66,1079.35,1211.61,1078.07,1211.5,1076.5Z" style="fill: #9b9b9b;stroke: #000;stroke-miterlimit: 10"/>
    <path d="M1289.5,894.5s25-41,35-53,17-19,19-23,12-12,7-44,7-45-21-69-48-26-69-24-56,49-54,59-8,11,5,35,6,39,18,56,18,18,28,41a372.64,372.64,0,0,0,21,41Z" style="fill: #4d4d4d;stroke: #000;stroke-miterlimit: 10"/>
    <path d="M373.5,787.5l-.25,1C374.83,787.84,373.5,787.5,373.5,787.5Z" style="fill: #9b9b9b;stroke: #000;stroke-miterlimit: 10"/>
    <path d="M457.77,1065.27a3.53,3.53,0,0,0-1.27.23C454.86,1066.05,456.21,1065.7,457.77,1065.27Z" style="fill: #9b9b9b;stroke: #000;stroke-miterlimit: 10"/>
    <path d="M275.5,1050.5l-.14,1.22C275.5,1052.08,275.5,1050.5,275.5,1050.5Z" style="fill: #9b9b9b;stroke: #000;stroke-miterlimit: 10"/>
    <path d="M428.5,1047.5c-13-23-13-31-23-38-5.9-4.13-8-5.83-9.09-8.58A11.3,11.3,0,0,1,391,1003a247.44,247.44,0,0,1-83.54-6.32,22.09,22.09,0,0,1-2,2.82c-4,5,2-1-12,13-13,13-17,51-17,51l-.94,17.22q8.73.09,17.44.28c30,0,59,1,89,0,11-1,22-1,34-3,7.31-.81,13.95,3,21,3.38C434.59,1065.8,431.82,1053.37,428.5,1047.5Z" style="fill: #9b9b9b;stroke: #000;stroke-miterlimit: 10"/>
    <path d="M384.5,816.5c-7-12-12-18-12-25l.75-3c-1.15.48-3.85,1.15-9.75,2-14,2-18,4-26,1s-11-4-11-4,2,3,0,11-1,14-16,22c-11.8,6.29-26.67,8.88-38.33,12.61C305.15,855.05,349.06,870,386,853c11.77-4.9,25.45-11.74,34.46-23.32-2.43-.74-4-1.18-4-1.18S391.5,828.5,384.5,816.5Z" style="fill: #9b9b9b;stroke: #000;stroke-miterlimit: 10"/>
    <path d="M457.77,1065.27c-1.56.43-2.91.78-1.27.23a3.53,3.53,0,0,1,1.27-.23l2.73-.77s5-3,4-7-3-4-1-26,2-44,3-56-5-9-7-28,2-21,4-26,4-27,3-34-6-39-14-45c-6-4.5-23.24-10.12-31.49-12.65a119.39,119.39,0,0,0,11.13,49.27,10.22,10.22,0,0,1,1.36-.62s2,24,1,33,0-1-1,17-3,23-3,36-4,15-1,40,10,63,10,63h6l-3,3s-1,5.75-1.22,10.62l.72-.12-.72.12c0,.34,0,.66,0,1,9.83.19,19.44.61,29.29.8-.13-2.79-1.29-5.67-5-9.41C459.72,1067.72,459.39,1065.36,457.77,1065.27Z" style="fill: #9b9b9b;stroke: #000;stroke-miterlimit: 10"/>
    <path d="M420.46,829.68c-9,11.58-22.69,18.42-34.46,23.32-36.94,17-80.85,2-113.83-19.89l-.19.06c-1.91,14.63.86,29.26-2.75,43.89.3.5,1,1.83,2.27,4.44,4,8,6,18,10,24s5,6,7,12,1,10,4,17,2-1,7,16,9,8,10,24c.81,13,.31,18.06-2,22.18A247.44,247.44,0,0,0,391,1003a11.3,11.3,0,0,0,5.41-2.08c-.77-1.9-1.09-4.32-1.91-8.42-2-10-6-11,3-26s10-30,14-37,5-1,11-20,7-19,6-24c-.69-3.44,1.94-5.46,3.64-6.38A119.39,119.39,0,0,1,421,829.85Z" style="stroke: #000;stroke-miterlimit: 10"/>
    <path d="M272.5,1071.5l-2-1,3-2,1.86-16.78a89.19,89.19,0,0,1-.86-9.22c-1-14,3-6,2-20s0-25-2-31,1-5-1-14-5-11-5-16-1-6,0-15,0-10,1-18,3-10,2-16,1-5-1-11-3-4-2-11,1-7,1-10a15.66,15.66,0,0,0-.39-3c0,.16-.07.31-.11.46,0-.15.07-.3.11-.46-.14-.68-.19-1,.12-.48,3.61-14.63.84-29.26,2.75-43.89a60.94,60.94,0,0,0-8.48,3.33c-12,6-21,16-22,25s-3,19-2,34,1,37,1,44,4,13,3,22a104.45,104.45,0,0,0,0,25c1,10,1,17,3,26,1.46,6.55,5,31,5,31l3,24v4l5-2,.75-.75-.75.75-3,3a23.31,23.31,0,0,0-5.35,8.15q11.21,0,22.4,0c0-.07,0-.13-.05-.2C272.5,1076.5,274.5,1072.5,272.5,1071.5Z" style="fill: #9b9b9b;stroke: #000;stroke-miterlimit: 10"/>
    <path d="M354.5,840.5s25-41,35-53,17-19,19-23,12-12,7-44,7-45-21-69-48-26-69-24-56,49-54,59-8,11,5,35,6,39,18,56,18,18,28,41a372.64,372.64,0,0,0,21,41Z" style="stroke: #000;stroke-miterlimit: 10;fill: url(#White_Black)"/>
    <path d="M732.05,876.44c-.82-9.15-1.55-15.94-1.55-15.94S729.52,865.93,732.05,876.44Z" style="fill: #6cc400;stroke: #000;stroke-miterlimit: 10"/>
    <path d="M681,750c-.7-11.23,9.95-7.27,19.63-15.68,10.7-9.29,11.89-23.23,11.89-46.46s-10.7-32.52-16.64-39.48-15.46-10.46-21.4-15.1-23.78-5.81-26.15-7-11.89,1.16-19,3.48-5.95,1.16-22.59,31.36c-1.26,2.29-7.13,39.49-3.57,59.23,2.29,12.65,10.91,19.1,17.13,25.77C640.81,743.24,661,747.18,681,750Z" style="fill: #030300;stroke: #000;stroke-miterlimit: 10"/>
    <path d="M731.5,949.5c-2-14-1-19,2-26,2-4.56.09-29.94-1.45-47.06-2.53-10.51-1.55-15.94-1.55-15.94s.73,6.79,1.55,15.94a100.53,100.53,0,0,0,5.45,16.06c9,21,38,15,56,17s37-21,51-32,11-26,18-32,13-43,15-49,2-4,11-5,5-5,7-9-3-5-14-14-4-4-14-7-6,1-19,6,0,13,0,13-12,30-15,39-47,57-49,48-20-41-20-41-11-25-14-34-17-18-19-19-24-7-30-9-23,0-26-14A24.21,24.21,0,0,1,675,747c-16.84-2.43-33.8-5.82-51.09-3.31,2.94,3.22,5.24,6.5,5.6,10.81,1,12,0,0-17,6s-35,13-46,18-18,16-33,41-25,49-38,67-6,25,0,58,27,62,37,84,49,9,49,9l6-24s-23-9-29-21-10-22-21-43,1-22,6-41,30-36,29-30,13,42,24,63c5.19,9.91-2.09,47.44-11.23,84.31-5.13,20.72-10.85,41.23-15.27,56.51,35.18-.83,70.37-1.72,105.78-.61l.72-7.21,1.11,7.27c19.71.66,39.5,1.94,59.39,4.23a70.39,70.39,0,0,0,17.6-.58q-.3-1.53-.6-3.15c-14-.26-28-.17-42,.73,14-.9,28-1,42-.73-5.68-29.94-14.5-80.77-14.5-80.77S733.5,963.5,731.5,949.5Z" style="fill: #9b9b9b;stroke: #000;stroke-miterlimit: 10"/>
    <path d="M1007.65,809.14c-1.36-8.18-2.82-16.35-2.82-16.35s15.49-2.72,20.67-7.29,10.17-13.74,11-16,4-12.5,4-14,2.86-2.71-1.69-24.1c-4.68-22-8.53-30.53-20.14-40.06s-31.08-16.7-41.6-15.78-28.05,3.45-33.22,8-9.38,14.36-11.06,18.13-9.3,18.1-9.08,28.57-3.29,11.27.51,25.42,4.84,26.36,11.11,32.24,16.84,7.2,19.49,7.91,9.7,2.08,9.7,2.08l1.62,8.56C980,809.78,993.81,809.12,1007.65,809.14Z" style="fill: #fff;stroke: #000;stroke-miterlimit: 10"/>
    <path d="M946.38,990.59c10.58-19.52,27.87-38.94,43.89-63.29s22.9-35.44,22.63-47.52c-.07-3.34-.24-7.24-.49-11.49-2-2.93-1.54-4.27-4.64-6.1-30.2-29.31-40.61-6-64.21,16.47-1,1-20.21,39.76-21.51,40.77.81,6.47-4.46,27.35-16.31,37.45-15,12.75-10.65,24-34.34,23.19s-34.44-.07-47.86-.28-31.5-17-31.5-17l-19,15.81s5.2,40.78,29.36,40.25,59.4,5.82,91.74-3.09S935.8,1010.11,946.38,990.59Z" style="fill: #b3b3b3;stroke: #000;stroke-miterlimit: 10"/>
    <path d="M1040.58,996.5c11-21,20.92-62,19.92-68-3-31-3-47-7-78-.68-2.71-3.71-12.37-5-15-8-6-11.62-15.66-23.92-20-17-6-18,6-17-6,.36-4.31,2.66-7.59,5.59-10.81-17.28-2.51-34.24.88-51.08,3.31a24.21,24.21,0,0,1-.51,3.5c-2.9,13.52-18.84,12.12-25.34,13.81-32.4,28.47-23.86,76.18-31.46,115-1.48,17-3,39.91-1.2,44.23,3,7,4,12,2,26s-8,52-8,52-1.62,9.34-3.92,22.37c1.45-.28,2.89-.56,4.34-.87-2,2,2,2,1,3,44,2,88,0,132-1,6.92,0,13.84.24,20.76.61C1042.64,1043.8,1035.4,1006.39,1040.58,996.5Z" style="fill: #3f3f3f;stroke: #000;stroke-miterlimit: 10"/>
    <path d="M862.58,1081.8c22.24-9.45,57.31-16.63,84-36.9s36.61-20.69,39.2-42.75,11.43-46.5,17.28-75.06,8.11-41.4,3.38-52.52c-1.3-3.08-2.91-6.63-4.71-10.5-3-2-3-3.38-6.58-3.93-38.92-16-39.93,9.51-53.52,39.12-.59,1.29-4,44.42-4.84,45.84,3.15,5.71,6,27-1.26,40.83-9.15,17.38-1,26.23-23.29,34.27s-32,12.71-44.54,17.5-35.56-4.12-35.56-4.12l-11.8,21.74S840.34,1091.26,862.58,1081.8Z" style="fill: #b3b3b3;stroke: #000;stroke-miterlimit: 10"/>
    <path d="M935.33,787.94c-6.27-5.88-7.31-18.09-11.11-32.24s-.3-15-.51-25.42,7.4-24.8,9.08-28.57,5.88-13.56,11.06-18.13" style="fill: #fff;stroke: #000;stroke-miterlimit: 10"/>
    <path d="M1038.81,731.4c-4.68-22-8.53-30.53-20.14-40.06s-31.08-16.7-41.6-15.78" style="fill: #fff;stroke: #000;stroke-miterlimit: 10"/>
    <path d="M1007.71,681.31c12.45,4.69,24.33,23.26,27.79,36.91"/>
    <path d="M943.43,709.25c5.53-8.75,10.33-12.16,19.29-8.75,7.89,3,24.87,8.75,24.87,8.75" style="fill: none;stroke: #000;stroke-miterlimit: 10"/>
    <path d="M946.48,715c9.46-4.08,14.18-6.12,22.45-6.12S984.29,715,984.29,715" style="fill: none;stroke: #000;stroke-miterlimit: 10"/>
    <path d="M984.29,714.09c-9.45,3.27-14.17,4.9-22.44,4.91s-15.37-4.88-15.37-4.88" style="fill: none;stroke: #000;stroke-miterlimit: 10"/>
    <path d="M926.15,766.67s24.77-8.47,32.37-2,6.06,6.06,6.06,6.06-12.44.71-15.17,2-18.21,4.06-18.21,4.06" style="fill: none;stroke: #000;stroke-miterlimit: 10"/>
    <ellipse cx="959.02" cy="714.54" rx="6.88" ry="4.02" style="stroke: #000;stroke-miterlimit: 10"/>
    <path d="M948.56,720.5c-.71,6-1.42,11,0,11a2.71,2.71,0,0,0,2.14-1,2.54,2.54,0,0,0,.71-3c-.71-2-1.42-5-1.42-5Z" style="fill: #b3b3b3"/>
    <path d="M950,743.5c-1.06,6-2.12,11,0,11a4.8,4.8,0,0,0,3.18-1,2.15,2.15,0,0,0,1-3,46.76,46.76,0,0,1-2.11-5Z" style="fill: #b3b3b3"/>
    <path d="M906,684s45-2,71,6,65,30.93,65,30.93L1069,741v-7l-29.5-22.78S1039,707,1033,688s-21-24-21-24l-20-7s-26-2-36,11a34,34,0,0,1-25,13H914Z" style="fill: #666"/>
    <path d="M1014,737.73s1.1-13.71,7.13-13,9.32,10.66,7.23,16.19-11,7.62-10.9,12.18" style="fill: none;stroke: #000;stroke-miterlimit: 10"/>
    <path d="M943.5,693.5l3,2,5.11-10.18s1.89,9.18,1.89,10.18,5-7,6-7,0,1,6,7,9,14,12,8,7-8,7-8l7,9,7-5,9,20,4-10,10,14,7-7,4,21,4-6,2-11s.83-.89-.59-1.94-42.32-27.13-68.86-30.6-23.62-2.64-23.62-2.64L940,688.05Z" style="stroke: #000;stroke-miterlimit: 10"/>
    <path d="M928.5,726.5a10.67,10.67,0,0,1-6,8c-2,1-1,1-4,2s-7,5-6,6,0,4,7,3,8-1,8-1l6-1" style="fill: #fff;stroke: #000;stroke-miterlimit: 10"/>
    <path d="M1784.05,887.44c-.82-9.15-1.55-15.94-1.55-15.94S1781.52,876.93,1784.05,887.44Z" style="fill: #6cc400;stroke: #000;stroke-miterlimit: 10"/>
    <path d="M1762.84,745.92c-2-11.07,9.06-8.35,17.73-17.8,9.58-10.44,9.19-24.42,6.56-47.5s-14.31-31.1-21-37.36-16.54-8.63-23-12.58-24.28-3.08-26.77-4-11.68,2.49-18.51,5.61-5.77,1.82-18.89,33.71c-1,2.41-2.62,40,3.15,59.25,3.7,12.31,13,17.75,19.93,23.67C1722.16,743.75,1742.63,745.38,1762.84,745.92Z" style="fill: #9b9b9b;stroke: #000;stroke-miterlimit: 10"/>
    <path d="M1786.58,942.5c11-21,25-57,24-63s24,11,29,30,17,20,6,41-15,31-21,43-29,21-29,21l6,24s39,13,49-9,31-51,37-84,13-40,0-58-23-42-38-67-22-36-33-41-29-12-46-18-18,6-17-6c.36-4.31,2.66-7.59,5.59-10.81-17.28-2.51-34.24.88-51.08,3.31a24.21,24.21,0,0,1-.51,3.5c-3,14-20,12-26,14s-28,8-30,9-16,10-19,19-14,34-14,34-18,32-20,41-46-39-49-48-15-39-15-39,13-8,0-13-9-9-19-6-3-2-14,7-16,10-14,14-2,8,7,9,9-1,11,5,8,43,15,49,4,21,18,32,33,34,51,32,47,4,56-17a100.53,100.53,0,0,0,5.45-16.06c.82-9.15,1.55-15.94,1.55-15.94s1,5.43-1.55,15.94c-1.54,17.12-3.41,42.5-1.45,47.06,3,7,4,12,2,26s-8,52-8,52-8.78,50.59-14.46,80.56c25.44.43,50.87.35,76.31,0l1.15-7.55.75,7.52c35-.51,70-1.52,105-2.42-4.3-14.95-9.66-34.28-14.49-53.79C1788.67,989.94,1781.39,952.41,1786.58,942.5Z" style="fill: #3f3f3f;stroke: #000;stroke-miterlimit: 10"/>
    <path d="M1049.78,851.33c-3.7-10.62,7.63-9.68,14.69-20.38,7.81-11.83,5.21-25.57-1-47.94s-19-28.45-26.65-33.56-17.7-5.91-24.67-8.78-24.46.8-27.07.32-11.13,4.31-17.38,8.47-5.41,2.72-13.32,36.28c-.6,2.54,3.75,40,12.5,58,5.6,11.56,15.64,15.46,23.42,20.21C1009.27,855.63,1029.74,854,1049.78,851.33Z" style="fill: gray;stroke: #000;stroke-miterlimit: 10"/>
    <path d="M1129.76,946.7s15.58-26.93,31.67-67.45,20.21-25.07,33.2-77.19c2.87-11.52,9.87-36.49,24.56-86.26,2.47-8.37,7.85-26.38-.59-37.11a21.27,21.27,0,0,0-5.42-4.76c-8.66-5.36-20-2.64-28.2.78a20.25,20.25,0,0,0-7.35,5.61c-2.32,2.64-6.42,2.41-7.2,5a16.93,16.93,0,0,0-.21,2.11c-.25,2.74-.54,4.58-.64,5.34-.41,3.12-2.63,19.75,3.05,22.72a10.74,10.74,0,0,0,2.18.73c3.75.94,5.32-.21,6.31.38,4,2.4-7.47,29.83-7.52,30s-15.8,28.52-31.85,57.26c-16.33,29.21-32.93,58.64-33.48,58.52-2.19-.44-25-.56-31.3-.95s-22.22,5.94-28.73-6.81a23.54,23.54,0,0,1-1.4-3.25c-16.9,2-34.16,3.1-50.21,10,3.67,2.36,6.74,4.93,8.2,9,4.06,11.33,0,0-14.88,10.18s-30.46,21.59-39.79,29.26-13.26,20.11-21.3,48.13-11.51,53.8-19.42,74.54c-7.28,19.08-.61,24.82,11.64,49.2,14.8.27,29.6.19,44.4-.06-14.84-16.7-3.92-21-4-40.27-.07-19.65,19.69-42.53,20.27-36.47s18.19,44.82,34.24,62.27c2.27,2.47,4.57,7,6.69,13l8.31-.2c40,0,80,8,121,3a224.11,224.11,0,0,1,22.85-2.4c0-.1-15.61-35.18-21.15-48.17s-10.62-24.55-13.6-31.56c-2.78-6.5-12.15-20.43-18.06-36.58C1116.89,954.8,1129.76,946.7,1129.76,946.7Z" style="fill: #c9c9c9;stroke: #000;stroke-miterlimit: 10"/>
    <path d="M452.78,763.33c-3.7-10.62,7.63-9.68,14.69-20.38,7.81-11.83,5.21-25.57-1-47.94s-19.05-28.45-26.65-33.56-17.7-5.91-24.67-8.78-24.46.8-27.07.32-11.13,4.31-17.38,8.47-5.41,2.72-13.32,36.28c-.6,2.54,3.75,40,12.5,58,5.6,11.56,15.64,15.46,23.42,20.21C412.27,767.63,432.74,766,452.78,763.33Z" style="fill: #090d00;stroke: #000;stroke-miterlimit: 10"/>
    <path d="M556.7,944.43c-5.54-13-10.62-24.55-13.6-31.56-2.78-6.5-12.15-20.43-18.06-36.58-5.15-9.49,7.72-17.59,7.72-17.59s15.58-26.93,31.67-67.45,20.21-25.07,33.2-77.19c2.87-11.52,9.87-36.49,24.56-86.26,2.47-8.37,7.85-26.38-.59-37.11a21.27,21.27,0,0,0-5.42-4.76c-8.66-5.36-20-2.64-28.2.78a20.25,20.25,0,0,0-7.35,5.61c-2.32,2.64-6.42,2.41-7.2,5a16.93,16.93,0,0,0-.21,2.11c-.25,2.74-.54,4.58-.64,5.34-.41,3.12-2.63,19.75,3,22.72a10.74,10.74,0,0,0,2.18.73c3.75.94,5.32-.21,6.31.38,4,2.4-7.47,29.83-7.52,30s-15.8,28.52-31.85,57.26c-16.33,29.21-32.93,58.64-33.48,58.52-2.19-.44-25-.56-31.3-.95s-22.22,5.94-28.73-6.81a23.54,23.54,0,0,1-1.4-3.25c-16.9,2-34.16,3.1-50.21,10,3.67,2.36,6.74,4.93,8.2,9,4.06,11.33,0,0-14.88,10.18s-30.46,21.59-39.79,29.26-13.26,20.11-21.3,48.13-11.51,53.8-19.42,74.54.65,25.7,15,56,42.09,52.93,57.43,71.6,49.66-3.95,49.66-3.95l-.4-24.74s-24.54-2.76-33.44-12.8-15.34-18.68-31.38-36.12-4.72-21.52-4.79-41.16,19.69-42.53,20.27-36.47S403,961.7,419,979.15c7.57,8.24,15.44,38.77,16.13,76.75.15,8.57.21,17.12.2,25.32A19,19,0,0,0,442,1081a19,19,0,0,1-6.67.22v.8c14.76.12,28.79,1,43.67,1,19.18.45,38.31.34,57.42,0l-.59-3.64,1.58,3.62c27.46-.46,54.89-1.35,82.39-1.69-9.93-19.43-41.95-88.72-41.95-88.72S562.25,957.44,556.7,944.43Z" style="fill: #c9c9c9;stroke: #000;stroke-miterlimit: 10"/>
    <path d="M805.5,883.5l-.25,1C806.83,883.84,805.5,883.5,805.5,883.5Z" style="fill: #9b9b9b;stroke: #000;stroke-miterlimit: 10"/>
    <path d="M816.5,912.5c-7-12-12-18-12-25l.75-3c-1.15.48-3.85,1.15-9.75,2-14,2-18,4-26,1s-11-4-11-4,2,3,0,11-1,14-16,22c-11.8,6.29-26.67,8.88-38.33,12.61C737.15,951.05,781.06,966,818,949c11.77-4.9,25.45-11.74,34.46-23.32-2.43-.74-4-1.18-4-1.18S823.5,924.5,816.5,912.5Z" style="fill: #9b9b9b;stroke: #000;stroke-miterlimit: 10"/>
    <path d="M891.5,1043.5c-2-19,2-21,4-26s4-27,3-34-6-39-14-45c-6-4.5-23.24-10.12-31.49-12.65a119.39,119.39,0,0,0,11.13,49.27,10.22,10.22,0,0,1,1.36-.62s2,24,1,33,0-1-1,17-3,23-3,36c0,9.06-1.94,12.79-2.1,22.67A274.27,274.27,0,0,0,898,1078c-.93.93-.56,1.43,0,1.79.14-3.1.3-5.9.5-8.29C899.5,1059.5,893.5,1062.5,891.5,1043.5Z" style="fill: #9b9b9b;stroke: #000;stroke-miterlimit: 10"/>
    <path d="M829.5,1062.5c9-15,10-30,14-37s5-1,11-20,7-19,6-24c-.69-3.44,1.94-5.46,3.64-6.38A119.39,119.39,0,0,1,853,925.85l-.55-.17c-9,11.58-22.69,18.42-34.46,23.32-36.94,17-80.85,2-113.83-19.89l-.19.06c-1.91,14.63.86,29.26-2.75,43.89.3.5,1,1.83,2.27,4.44,4,8,6,18,10,24s5,6,7,12,1,10,4,17,2-1,7,16,9,8,10,24c.3,4.88.42,8.63.33,11.64,9.83,0,19.68.26,29.53.58A73,73,0,0,1,790,1082a73,73,0,0,0-18.64.72c18,.59,36.09,1.42,54.07,1.51C823.54,1077.8,822,1075.05,829.5,1062.5Z" style="stroke: #000;stroke-miterlimit: 10"/>
    <path d="M705.5,1073.5c-2-9-5-11-5-16s-1-6,0-15,0-10,1-18,3-10,2-16,1-5-1-11-3-4-2-11,1-7,1-10a15.66,15.66,0,0,0-.39-3c0,.16-.07.31-.11.46,0-.15.07-.3.11-.46-.14-.68-.19-1,.12-.48,3.61-14.63.84-29.26,2.75-43.89a60.94,60.94,0,0,0-8.48,3.33c-12,6-21,16-22,25s-3,19-2,34,1,37,1,44,4,13,3,22a103.45,103.45,0,0,0-.08,24.2q15.17.46,30.38,1.48C706,1081,706.83,1079.48,705.5,1073.5Z" style="fill: #9b9b9b;stroke: #000;stroke-miterlimit: 10"/>
    <path d="M786.5,936.5s25-41,35-53,17-19,19-23,12-12,7-44,7-45-21-69-48-26-69-24-56,49-54,59-8,11,5,35,6,39,18,56,18,18,28,41a372.64,372.64,0,0,0,21,41Z" style="fill: #b3b3b3;stroke: #000;stroke-miterlimit: 10"/>
  </g>
</svg>
