<svg xmlns="http://www.w3.org/2000/svg" viewBox="0 0 233.5 386.53"><defs><style>.cls-1{fill:#707070;}.cls-1,.cls-6,.cls-7,.cls-8{stroke:#000;}.cls-1,.cls-2,.cls-6,.cls-7,.cls-8,.cls-9{stroke-miterlimit:10;}.cls-2{stroke:#fff;}.cls-3,.cls-8{fill:none;}.cls-4{fill:#fff;}.cls-5{fill:#1b1b1b;}.cls-6{fill:#b5b5b5;}.cls-7{fill:#f2f2f0;}.cls-9{stroke:#f2f2f0;}</style></defs><title>king</title><g id="Layer_3" data-name="Layer 3"><rect class="cls-1" x="728.49" y="546.22" width="36.94" height="32" rx="12.86" ry="12.86" transform="translate(-686.26 -297.44) rotate(-4.11)"/></g><g id="Layer_1" data-name="Layer 1"><path class="cls-1" d="M792.67,482.78c-1.67,8.84-2.78,10.83-3,13.82-.32,4.52-2.33,25.4-2.33,25.4s-5.07,14.67-10.55,21.3-13.83,11-18,13.74-28.14,1-33.91-2.44-9.19-11.69-15.1-13.12-10.82-16.82-14.53-21.1L685,488.08,683.33,456,791.47,443.6C790.08,456,797.52,457.07,792.67,482.78Z" transform="translate(-647.85 -352.47)"/><path class="cls-2" d="M668.13,471.83c.15-.06.24-.34.3-.76C668,471.66,667.81,472,668.13,471.83Z" transform="translate(-647.85 -352.47)"/><path d="M812,427.88a2,2,0,0,1-1.54,2c-8.55,1.93-49,10.94-54.28,9.66-4.84-1.17-64.32-24.6-85.84-33.1a2,2,0,0,1,.55-3.82h0a2,2,0,0,0,1.8-1.89c.27-6.43,1.26-28.69,2.3-31.18,1.1-2.65,16-13.43,18.75-15.37a2,2,0,0,1,.94-.36,266,266,0,0,1,42.66-.85c21,1.51,42.35,6.36,43.6,7.14,3.73,2.34,8.64,19.54,10.38,25.67A2,2,0,0,0,794,387l4.38-2a2,2,0,0,1,2.82,1.8c0,7,.44,23.39,5,25.3S811.82,423.9,812,427.88Z" transform="translate(-647.85 -352.47)"/><path class="cls-3" d="M789.19,446.68" transform="translate(-647.85 -352.47)"/><circle class="cls-4" cx="725.34" cy="408.27" r="14" transform="translate(-381.73 750) rotate(-85.89)"/><circle class="cls-4" cx="759.54" cy="406.71" r="14" transform="translate(-348.43 782.67) rotate(-85.89)"/><ellipse class="cls-4" cx="783.14" cy="404.99" rx="7.31" ry="16" transform="translate(-730.3 -115.04) rotate(-16.39)"/><ellipse class="cls-4" cx="697.27" cy="408.25" rx="9" ry="6" transform="translate(-407.77 721.99) rotate(-85.89)"/><path class="cls-5" d="M812.46,437.59a175.18,175.18,0,0,0-21,6L683.33,456l-.26,0s-12.07,11.83-14.63,15c.76-5.59-5.59-40.22-7.91-46.91-2.49-7.2-11.07-20.35-11.07-20.35l14.24-1.33s87.63,34.72,93.54,36.15,55.86-10,55.86-10S825.71,434.53,812.46,437.59Z" transform="translate(-647.85 -352.47)"/><path class="cls-6" d="M675.86,468.88S673,480.7,668.73,484.4s-9.27,17.38-11.55,21.23,6.06-.57,10.33-4.27,3.77,3.28,5.55,6.41,7.55,6.56,8,.57,4.28-3.7,3.77,3.28,5.27,10.4,5.41,8.41,3.52-11.05,4.86-6.81-18.7-50.93-10.34-56" transform="translate(-647.85 -352.47)"/><path class="cls-6" d="M798.86,453.79s4.1,11.38,8,14.62,9.89,16.24,12.26,19.81-4.7,0-8.56-3.22-2.34,3.59-3.18,6.86-4.68,7.19-6,1.33-3.86-3.24-2.34,3.59-2.31,10.76-2.75,8.81-4.48-10.55-4.81-6.24,5.92-52-1.28-56.23" transform="translate(-647.85 -352.47)"/><ellipse class="cls-7" cx="713.16" cy="473.06" rx="11" ry="5" transform="matrix(0.99, -0.17, 0.17, 0.99, -717.16, -225.99)"/><ellipse class="cls-7" cx="762.68" cy="467.6" rx="11" ry="5" transform="translate(-687.38 -280.84) rotate(-5.24)"/><line class="cls-8" x1="27.41" y1="117.87" x2="34.18" y2="107.33"/><line class="cls-8" x1="150.89" y1="101.68" x2="143.62" y2="91.13"/><circle class="cls-9" cx="713.16" cy="473.06" r="4" transform="translate(-457.66 798.01) rotate(-85.89)"/><circle class="cls-9" cx="762.68" cy="467.6" r="4" transform="translate(-406.24 842.32) rotate(-85.89)"/><path class="cls-8" d="M734.4,502.92s-1.54,4.76,1,6.63" transform="translate(-647.85 -352.47)"/><path class="cls-8" d="M750.85,508s1.8-4.77-.75-6.36" transform="translate(-647.85 -352.47)"/><path class="cls-8" d="M737.58,509.83s3.06-.78,3.92,1.28" transform="translate(-647.85 -352.47)"/><path class="cls-8" d="M749.7,508.7a2.94,2.94,0,0,0-3.21,2.78" transform="translate(-647.85 -352.47)"/><path d="M734.29,534.75s1.67,2.77,6.74,2.9c6.2.16,16.35-2.63,20.49-7C764.07,528,734.29,534.75,734.29,534.75Z" transform="translate(-647.85 -352.47)"/></g><g id="Layer_4" data-name="Layer 4"><path class="cls-1" d="M879.39,704.41,803.5,573a11,11,0,0,0-10.17-5.46H708a10.4,10.4,0,0,0-3,.43,12,12,0,0,0-14.67,8.28l-41.56,145.7a12,12,0,0,0,8.25,14.83l1.92.55A12,12,0,0,0,673.81,729l12.69-44.48v16.1a37.94,37.94,0,0,0,37.83,37.83h52.34a37.94,37.94,0,0,0,37.83-37.83V636l45.83,79.39a11,11,0,1,0,19.05-11Z" transform="translate(-647.85 -352.47)"/></g></svg>