<svg id="Layer_1" data-name="Layer 1" xmlns="http://www.w3.org/2000/svg" xmlns:xlink="http://www.w3.org/1999/xlink" viewBox="0 0 913.02 1001.34"><defs><style>.cls-1,.cls-21{fill:#fff;}.cls-1,.cls-2,.cls-3,.cls-4,.cls-5,.cls-6{stroke:#000;}.cls-1,.cls-10,.cls-11,.cls-12,.cls-13,.cls-14,.cls-15,.cls-17,.cls-18,.cls-19,.cls-2,.cls-20,.cls-21,.cls-3,.cls-4,.cls-5,.cls-6,.cls-7,.cls-9{stroke-miterlimit:10;}.cls-2{fill:#d3dbe0;}.cls-3{fill:#4d4d4d;}.cls-13,.cls-5{fill:none;}.cls-6{fill:#999;}.cls-7{fill:#1a1a1a;}.cls-10,.cls-11,.cls-13,.cls-14,.cls-15,.cls-17,.cls-20,.cls-7,.cls-9{stroke:#fff;}.cls-18,.cls-8{fill:gray;}.cls-16,.cls-17,.cls-9{fill:#bfbfbf;}.cls-15,.cls-18,.cls-9{stroke-width:2px;}.cls-10{fill:#666;}.cls-12,.cls-19{fill:#f2f2f2;}.cls-12,.cls-21{stroke:#999;}.cls-14{fill:url(#linear-gradient);}.cls-18{stroke:gray;}.cls-19{stroke:#b3b3b3;}.cls-20{fill:#b3b3b3;}</style><linearGradient id="linear-gradient" x1="942.79" y1="172.44" x2="942.79" y2="172.44" gradientUnits="userSpaceOnUse"><stop offset="0" stop-color="#fff"/><stop offset="1"/></linearGradient></defs><title>phoebus and the horse</title><path class="cls-1" d="M696.1,731.46l4.15,4.3c23,24,42.15,46.52,49.88,56.25,8.19,10.31-.71-8.73,8.66,12s13.59,35.62,17.81,50.55c4.13,14.62.24,60.44-3.43,61.6,0,0,0,0,0,0,1.93-.38,15.48-2.15,28,19.29,13.57,23.14,34.62,47.87,37.67,52.41s26.39.12,26.39.12l20.37,41,44.13-11.72-10.32-36.49s-21,.23-54.69-31.84-51.45-57.67-48.47-103-3.33-49.05,6.43-89.1,7.17-55.41,23.73-77.64,5.77-60.38.85-71.56-83-38.6-119.13-11.15-50.18,85.83-48.7,95c0,0-5.83,10.46,5.4,25.32l11.23,14.85" transform="translate(-502.48 -39.36)"/><path class="cls-1" d="M1150.48,944.25s3.44,0,8.6,3.33,12,23.34,12,23.34v38.34H1221s5.16-31.67-3.44-45-39.55-45-39.55-45,0,18.34-5.16-13.33-6.88-85-8.6-111.68-5.16-43.34-5.16-43.34-6.88-8.33-6.88-10,8.6-6.67,10.32-31.67,1.72-43.34-1.72-73.34-5.16-41.67-15.48-50-27.52,5-27.52,5-25.8,3.33-18.92,43.34,10.32,56.67,10.32,56.67,3.44,33.34,6.88,41.67,10.32,15,10.32,15-1.72,10,0,26.67,12,65,18.92,85S1150.48,944.25,1150.48,944.25Z" transform="translate(-502.48 -39.36)"/><path class="cls-1" d="M1408.44,309.18c-5.69-2.21-25.47-3.1-40.57-4.77-7.7-.85-14.19-1.9-17-3.42q-1.25-.69-2.54-1.44c-.22-.13-1.83-1.1-2.43-1.47a136,136,0,0,1-16.6-12.24l-77.39-66.67-10.32-8.33-22.36-23.34,3.44,41.67-27.52-38.34,1.72,56.67-1.17,6.83-.55,3.18v91.68l-3.44-55-8.6,68.34-3.44-51.67-6.88,71.67-5.16-50-6.88,66.67-6.88-43.34-7.42,57.65L1135,365.85l-12,75-1.47-42.7a.08.08,0,0,0-.16,0L1103.5,451.5l10-58-17,42,5.83-36.31s-.76.94-2.15,2.57c-6.67,7.84-27.79,31.69-47.72,44.11-24.08,15-31,13.33-65.35,15S899.4,462.53,853,454.2s-130.7-3.33-158.21,3.33c-22.9,5.55-36.3,15.72-55,26.67-29,44.53-44.82,96.81-43.25,148.94.15-.39.25-.58.25-.58l17.2,33.34c17.2,33.34,112.48,54.93,156.49,38.34,92.86-35,138.75,23.13,230.44,16.67,94.58-6.67,119.87-29.75,142.74-53.34,53.31-55,41.27-83.34,41.27-83.34s22.36-83.34,37.83-133.35,48.15-85,48.15-85,38.78.93,62.62,1.41c10.3.21,17.81.33,18.2.25a11.44,11.44,0,0,1,4.27.13c8.9,1.69,21.85,10.29,33.56,3.2,13.76-8.33,22.36-16.67,24.08-30S1417,312.51,1408.44,309.18Z" transform="translate(-502.48 -39.36)"/><path class="cls-2" d="M1067.14,436.69s3.46,72.94,41,94.48S1190,565.37,1190,565.37l-5.1,18.85s-87-11.6-107.49-39.78-41.8-87.39-37.24-90.32" transform="translate(-502.48 -39.36)"/><path class="cls-2" d="M973,461.41l17.51,257.82s-25.8,3.33-27.52,0-14.62-257.82-14.62-257.82Z" transform="translate(-502.48 -39.36)"/><path class="cls-3" d="M1262.58,228.34s-8.92,80.84,4.84,109.18l13.76,28.34h-10.32s-24.08-28.34-22.36-78.34,8-64.78,7.44-64.89S1262.58,228.34,1262.58,228.34Z" transform="translate(-502.48 -39.36)"/><path class="cls-3" d="M1351.69,300.85s0,45-1.72,55-3.87,11.64-3.87,11.64l9,0s6.88-20,5.16-38.34.28-25.71.28-25.71Z" transform="translate(-502.48 -39.36)"/><ellipse class="cls-4" cx="780.41" cy="239.82" rx="12.04" ry="15"/><path class="cls-5" d="M1346.53,367.52" transform="translate(-502.48 -39.36)"/><path class="cls-1" d="M1024.31,939.52s3.37.66,7.75,4.91,7.06,25.18,7.06,25.18l-7.78,37.59,48.9,9.51s11.49-30.07,5.77-44.78-29.64-51.67-29.64-51.67-3.72,18-2.35-14.06,10.52-84.66,14.24-111.14,3.74-43.47,3.74-43.47-5.05-9.48-4.71-11.12,9.78-4.9,16.55-29.08,10.49-42.16,13.2-72.24,3.4-41.84-5-52-28-.35-28-.35-26-1.65-27.35,38.88-1.39,57.53-1.39,57.53-3.4,33.34-1.72,42.17,7.07,16.68,7.07,16.68-3.72,9.48-5.41,26.15-1.4,66,1.29,87S1024.31,939.52,1024.31,939.52Z" transform="translate(-502.48 -39.36)"/><path class="cls-1" d="M630.54,667.3q.39,3,.76,5.92c4.15,32.93,6.25,62.73,6.75,75.31.54,13.33,4.12-8.21,0,15.06s-9,38.79-13.79,54.31c-4.73,15.2-32,54.51-35.28,53.73,0,0,0,0,0,0,1.62.62,12.52,5.73,10.36,31.24-2.33,27.55,0,60.22-.18,65.81s19.34,13.18,19.34,13.18l-6.81,46.94,38.68,11.3,11.82-37.95s-15.58-10.2-23.28-55.73S631.79,869,658.11,829.67s23.64-45.79,52.11-77S745,706.37,769,694.56s36.35-51.48,38.68-64-40.47-75.81-81.65-69S643.45,614,639.68,622.92c0,0-9.85,6.53-9.49,25.46l.36,18.92" transform="translate(-502.48 -39.36)"/><path class="cls-1" d="M1102.33,399.19s79.11-86.68,86-110,6.88-35,6.88-35" transform="translate(-502.48 -39.36)"/><path class="cls-6" d="M623.25,510.93s-6.32-16.74-8.68-23.83-20.28-14.81-31.38.41-47.24,79-54.13,111.71-19.5,101.66-19.5,101.66L503,775.78l2.67,49.29L510,775.14l3.83,30.92L521.12,738l-3.18,75.41,8.83-56L528,782.85s8.47-20.67,7-22.57-.12,11.79-.12,11.79-2.6,16.48,8.73-22.31,14.33-46.78,29.7-100.15,25.84-66.71,25.84-66.71Z" transform="translate(-502.48 -39.36)"/><path class="cls-1" d="M1147,895.91" transform="translate(-502.48 -39.36)"/><path class="cls-1" d="M549.74,570.43" transform="translate(-502.48 -39.36)"/><path class="cls-6" d="M1195.19,257.51v88l-3.7-49.19-6,73.22-6.37-52.59-8.63,72.59-6-47v68l-12.75-44.65-3.25,55.65-13-50-14,74v-45l-19,59,9-60-21,51,14.56-54.32S1187.5,287.5,1191.5,272.5,1195.19,257.51,1195.19,257.51Z" transform="translate(-502.48 -39.36)"/><path class="cls-7" d="M1074,427a5,5,0,0,1,.57-.47c-13-8.42-26.21-19.14-26.21-19.14-.81-5.11-38.17-63.08-38.17-63.08s.81-.85-2.44-15.34-8.93-15.34-8.93-15.34l.81-9.38c.81-9.38-1.62-34.95-1.62-34.95l-25.37,40.1.19,0c-.41,16.49-12.1,55-12.1,55s1.54,10.63,4.3,12.57,9.5,12.94,9.5,12.94,4,9.84,6.89,18.08,28.76,25,30.39,27.56c.83,1.31,16.63,8.46,31.82,15.11C1053.67,442.76,1068.32,440.26,1074,427Z" transform="translate(-502.48 -39.36)"/><path class="cls-1" d="M1182.32,392.81" transform="translate(-502.48 -39.36)"/><path class="cls-1" d="M1185.23,400.91" transform="translate(-502.48 -39.36)"/><path class="cls-1" d="M1191.49,400.91" transform="translate(-502.48 -39.36)"/><path class="cls-1" d="M1194.37,391.76" transform="translate(-502.48 -39.36)"/><path class="cls-1" d="M1193.84,374" transform="translate(-502.48 -39.36)"/><path class="cls-8" d="M838.5,457.52s45,81.67,68,98.49,63,45.64,63,45.64-21,28.83-31,70.86-15,72.06-15,72.06,31,28.83,46,34.83,40,4.8,40-6-11-27.62-11-27.62-27-6-35-8.41-11-2.4-11-2.4,33-67.26,40-81.67,6-20.42,6-20.42,10-8.41,11-13.21,10-27.62-8-42c0,0,0-6-11-27.62s-55-81.67-65-87.68-87-4.8-87-4.8" transform="translate(-502.48 -39.36)"/><path class="cls-9" d="M843.41,237s-11.07,12.71-15.13,34.87-3.25,54.56,7.31,78.42c7.88,17.81,10.33,24.23,11.07,26.34a.16.16,0,0,1-.27.18c-.66-.66-1.61-.76-1.05,5,.81,8.52.81,12.79,3.25,13.64s4.06,0,3.25,4.26-12.18,17-13,28.13-4.06,29.83,0,35.8,64.16,8.52,84.46,0l16.73-7,3.57-1.5L946,456c5.45,1.91,5.68,2.56,14.62,3.41s10.56,4.26,13.81,4.26,10.71,5.84,11,5.48" transform="translate(-502.48 -39.36)"/><path class="cls-10" d="M900.56,161s0,9.38-5.68,11.93-16.24,0-16.24,0l-6.5-2.56s6.5-13.64,6.5-34.95-2.44-40.06,2.44-52S896.5,63,897.31,63s4.87-1.7,11.37-7.67,19.49-7.67,21.11-12.79c0,0-.81-1.7,6.5,5.11S946,55.34,946,55.34l1.62-.85L958.22,40s1.62.85,2.44,12.79S972,59.61,972,59.61l.81,8.52c.81,8.52,7.31,8.52,7.31,8.52V95.41c0,18.75-4.87,14.49-7.31,25.57s-4.06,11.29-4.06,11.29v-19s4.87-17,4.06-15.34-20.3-3.41-20.3-3.41L923.3,91.15S908.68,92,903.81,98s-7.31,31.54-7.31,31.54,4.06,1.7,8.12-5.11" transform="translate(-502.48 -39.36)"/><path class="cls-11" d="M790.38,224s-14.07,22.24-17.32,47,0,34.95,0,34.95-10.56,9.38-6.5,29l4.06,19.61s-15.43,40.92-4.87,75,21.11,54.56,21.11,54.56-4.87-1.7-4.87,8.52,7.31,29.83,21.11,22.16,22.74-6,17.87-20.46-12.18-17-12.18-17-.81-48.59-3.25-66.49,0-36.65,1.62-47.74,20.65-62.51,18.85-74.3" transform="translate(-502.48 -39.36)"/><path class="cls-12" d="M937.05,190a15.91,15.91,0,0,0,11.76-4.59,18.1,18.1,0,0,0,3.65-4.59c12.52-21.46,17.44-43.8,16.63-67.15,0-.83-2.43-1.67-3.24-1.67-14.6,0-29.2.83-43.8,1.67-4.06.83-8.92.83-13,4.17-7.3,5.84-7.3,15.85-7.3,24.19-1.62,12.51-2.43,26.69,4.06,38.37,0,0,3.77,3.25,4.48,3.63,8.12,4.26,22.74,6,26.8,6" transform="translate(-502.48 -39.36)"/><path class="cls-13" d="M936.29,190" transform="translate(-502.48 -39.36)"/><path class="cls-13" d="M905.13,181.5" transform="translate(-502.48 -39.36)"/><path class="cls-14" d="M942.79,172.44" transform="translate(-502.48 -39.36)"/><path class="cls-11" d="M997.2,270.15s-4.75,2.86-5.62,3.56-4.15,3.87-4.15,3.87l-4.19,4.69-4.59,5.85L975,293.34l-2.13,3.24-.81.85s.81,4.26.81,5.11v6.82l0,1.21" transform="translate(-502.48 -39.36)"/><path class="cls-15" d="M825.85,288.91" transform="translate(-502.48 -39.36)"/><path d="M790.18,224.36a47.15,47.15,0,0,1,6.53-2.08,59,59,0,0,1,6-.28h8.93l6.5,1.7,5.68,1.7L829.5,228l5.68,3.41,3.25,2.56,1.62,1.7,2.44,1.7-2.44,2.56-1.62,3.41-1.62,2.56-4.87,11.08-2.21,8.41-1.64,7.58-.72,4.65-1.12,6.64v5.4" transform="translate(-502.48 -39.36)"/><polyline class="cls-16" points="390.76 177.95 341.23 200.11 390.76 296.44 479.28 425.15 478.23 416.28"/><path class="cls-17" d="M985,468.77c-5.68-11.93-5-5.57-4.87-9.38.09-4.39,6.6-26.46,5.68-31.54-.56-3.07-2.38-18.53-9.25-29.47-1.3-2.07-7-6.33-7-6.33-.81-6-.17-9.23-2.44-11.08-7.31-6-9.75-6.82-9.75-6.82s19.49-59.67,14.62-75.87c-.11-.35-.57-1.82-.7-2.21-1.09-3.3-2.42-6.67-3.83-9.93-.79-1.83-1.61-3.63-2.43-5.36-4.63-9.77-9.28-17.45-9.28-17.45l17.05,33.24s13.81-22.16,24.36-26.43S1011,265,1011,265s-27.61-47.74-43-54.56-22.74-10.23-26-11.08-31.67-.85-38.17-6.82-8.93-11.08-8.93-11.08-21.93-12.79-49.54-16.2-54.41,27.28-58.47,33.24-10.56,31.54-10.56,31.54,27.52-18.78,56.6-1.15a61.77,61.77,0,0,1,7.55,5.42c31.67,26.43,33.3,28.13,33.3,28.13l17.87-45.18" transform="translate(-502.48 -39.36)"/><path class="cls-18" d="M969.18,391.63s0,1.7-4.06,1.7-113.93,2.85-113.93,2.85.24-.29-2.2-2-2.44-12.79-2.44-12.79v-4.26s0,1.7.81,0,110.44-3.41,110.44-3.41,10.56,7.67,9.75,9.38,1.62,6.39,1.62,6.39Z" transform="translate(-502.48 -39.36)"/><path class="cls-19" d="M938.73,190c.81,0-.22.49.81,4.26l1.62,6-13-1.7-11.37-.85s-8.12-.85-10.56-2.56a49.4,49.4,0,0,1-5.68-5.11l-4.06-5.11-1.62-2.56a7.92,7.92,0,0,0,2.44.85c.81,0,2.44.85,4.06,0s4.06-2.56,4.06-2.56l2.44,1.7s3.81,3.51,8.12,4.26c4.87.85,6.5,1.7,8.12,1.7s7.31.85,7.31.85c1.62,0,7.31.85,7.31.85" transform="translate(-502.48 -39.36)"/><path class="cls-20" d="M976.49,98l-4.25,15.34s-10-1.7-11.81-1.28-35.85,1.28-35.85,1.28l-12.15,2.87s-1.06-.52-3.82,2.57a32.48,32.48,0,0,0-4.23,5.92l-1.22,3.57-3.59,1.28H896.5L898,118.65l.87-4.91L900.1,108s2.22-9.06,4.84-10.81S909,94.6,909,94.6l3.79-1.4,6.66-2.06h4.19l9.51,1L950.4,94Z" transform="translate(-502.48 -39.36)"/><path class="cls-20" d="M989.08,115" transform="translate(-502.48 -39.36)"/><path class="cls-21" d="M924.11,159.77S933.42,174.85,941,173s12.7-8.48,12.7-8.48a18.72,18.72,0,0,1-13.55,1.89C932.58,164.48,924.11,159.77,924.11,159.77Z" transform="translate(-502.48 -39.36)"/><path class="cls-13" d="M920,155.08" transform="translate(-502.48 -39.36)"/><path class="cls-5" d="M942.18,147.35s-1.51-4.06-3.78-3.24a8.71,8.71,0,0,0-3.78,3.24l-.76,3.24s1.51,5.68,6.06,5.68,9.08,2.43,9.84,1.62,6.06,0,4.54-6.49c0,0-3-8.11-3.78-11.36s-.76-4.06,0-6.49a15.11,15.11,0,0,0,.76-4.06" transform="translate(-502.48 -39.36)"/><path class="cls-5" d="M942.79,122.69c-8.93-5.11-7.31-6.82-13-6s-12.18,1.7-12.18,1.7" transform="translate(-502.48 -39.36)"/><path class="cls-5" d="M955.78,124.39c8.12-.85,8.12,0,10.56.85s1.62.85,1.62.85" transform="translate(-502.48 -39.36)"/><path class="cls-1" d="M922.42,123.12s7.25-5.06,11.5-1.77c5,3.89,4.37,5.38,4.37,5.38s-8.92,4.84-12.39.61Z" transform="translate(-502.48 -39.36)"/><path d="M935.3,127.86a2.65,2.65,0,0,1-4-.12,3.25,3.25,0,0,1,.09-4.32,2.65,2.65,0,0,1,4,.12A3.25,3.25,0,0,1,935.3,127.86Z" transform="translate(-502.48 -39.36)"/><path class="cls-1" d="M953.75,130.73s6.3-4.4,10-1.54c4.35,3.37,3.8,4.67,3.8,4.67s-7.74,4.2-10.76.53Z" transform="translate(-502.48 -39.36)"/><path d="M964.94,134.84a2.3,2.3,0,0,1-3.44-.1,2.82,2.82,0,0,1,.08-3.75,2.3,2.3,0,0,1,3.44.1A2.82,2.82,0,0,1,964.94,134.84Z" transform="translate(-502.48 -39.36)"/><path class="cls-5" d="M1349.5,367.5c2,37-138,110-167,143s-149,52-219,42-151-55-151-55l-36-5,36,12s74,0,125-17,49-34,68-37,31.07,4,31.07,4" transform="translate(-502.48 -39.36)"/><path class="cls-5" d="M1205.5,509.5s22,24,43,7,46-31,46-31,32-44,34-49,25-69,25-69" transform="translate(-502.48 -39.36)"/></svg>