<svg xmlns="http://www.w3.org/2000/svg" viewBox="0 0 442.07 604.91"><defs><style>.cls-1,.cls-2{fill:none;}.cls-1,.cls-10,.cls-3,.cls-4,.cls-5,.cls-6,.cls-7,.cls-9{stroke:#282828;}.cls-1,.cls-10,.cls-11,.cls-2,.cls-3,.cls-4,.cls-5,.cls-6,.cls-7,.cls-8,.cls-9{stroke-miterlimit:10;}.cls-2,.cls-8{stroke:#191919;}.cls-2{opacity:0.32;}.cls-3{fill:#f2f2f0;}.cls-5{fill:#282828;}.cls-6{fill:#d3c279;opacity:0.37;}.cls-7{fill:#4c6644;}.cls-8{fill:#b7b7b7;}.cls-9{fill:#898989;}.cls-10{fill:#474747;}.cls-11{fill:#fff;stroke:#000;}</style></defs><title>quasimodo-dwg</title><g id="Layer_2" data-name="Layer 2"><g id="Layer_1-2" data-name="Layer 1"><path class="cls-1" d="M53.34,88.91s-4.72-2.11-8,0-2.24,1.74-2.24,1.74"/></g><g id="Layer_2-2" data-name="Layer 2"><path class="cls-2" d="M86,163.88S77.58,144,56.2,133.55c0,0-6-11.94-4.48-17.41s-6-10.44-6-10.44,3.48-4,0-5.47S29.84,83.82,30.84,78.35,28.35,44.53,55.7,30.11,104.93,4.25,120.35,4.25s35.81,11.94,40.78,16.91,9,8.45,12.43,19.39.5,49.23-4,57.19-17.41,57.69-22.88,66.14-18.9,11.44-18.9,11.44-18.43,1-24.88,0S86,163.88,86,163.88Z"/><path class="cls-1" d="M136.76,57S142,43.54,149.44,42.54a10.11,10.11,0,0,1,10.44,4.72s7.21,7.21,6.71,15.17-6.71,15.91-6.71,15.91-3.23,6-2,8.21-9.2,1.74-9.2,1.74l-4.23-7.21"/><path class="cls-1" d="M141.24,59s2.49-.75,6.22,1.24,9,2.49,7.71,6.71-4.23,7.21-5.72,8.7a25,25,0,0,1-4,3s3-4.48-.75-7.46-3.48-7.21-3.48-9.7"/><path class="cls-1" d="M143.23,56.47s.43-6.22,5.06-8.45,7.86,0,10.35,4.23,3.73,9.88,2.49,13.14-6.34,11-5.78,13.21"/><path class="cls-1" d="M69.87,71.88c2.24-7.21,3.73-15.42,9-17.65a15.8,15.8,0,0,1,12.68,0"/><path class="cls-3" d="M73.85,80.59c1.49-2.74,2.74-9.2,8.21-9.95s11.19,2.74,12.18,3.23S84,84.07,78.33,84.07,73.85,80.59,73.85,80.59Z"/><ellipse class="cls-4" cx="80.69" cy="78.6" rx="3.65" ry="4.1"/><path class="cls-1" d="M74.6,114.77c4.48-2.49,6.22-2.24,7.21-4.72s1.12-9.82-3.61-13.55S70,91,70.62,88.34s-5.1-5.64-7.71-5.64-7.46,4.6-7.46,6.22-1.62,5.22-3.23,7.21-1.24,9.08,0,10.57,3.61,7.09,6.84,8.08S74.6,114.77,74.6,114.77Z"/><path class="cls-5" d="M64.28,107.07s.6-3,2.48-3.73,7.35,1,8.22,2.74,1.74,3.23,0,5.59S64.28,107.07,64.28,107.07Z"/><path class="cls-5" d="M58.56,110.42s4.85.62,6.71,2.24,0,2,0,2-4.72.75-5.84-.62-3.23-3-2.36-3.61A1.13,1.13,0,0,1,58.56,110.42Z"/><path class="cls-6" d="M78.95,128.2c2.49-1.12,18.65.25,22.25,1.49s4.72,2.49,4.72,2.49-5.84,7.21-11.06,10.19-12.43,1.86-14.17,1.49-5.47-6-5.47-6,1.49-8,2.61-8.83Z"/><path class="cls-1" d="M75.22,137.9s13.3-5.22,22-5.47l8.7-.25"/><path class="cls-4" d="M7.71,74.49l3-9.11L2.86,74.49l11.19-20L8.46,56s1.49-6.2,13.43-13.54A136.16,136.16,0,0,0,43,26.13l3.13-11.19V25.39s-1.53,4.85,5-4.48S55.45,4.25,55.45,4.25l4.48,16.66s-1-14.67,4.35-16.66c0,0-5.72,9.2,0,11.06S75,6.24,80.69,4.25,108-.35,114.76.77,150.81,7.11,155.35,12,181.52,34.1,183,42.43s.75,32.94-2.61,38.53-13.78-9.08-13.78-9.08,3.75-20.17,0-24.75-15.69-12.79-20.91-9.06-3.73,16.78-9,16.78-9-7.09-14.17-9.7-14.7-7.83-19.66-10.07-9.68-9.7-11.42-9-7,13.19-5.47,16.29S76,29.49,76,29.49l-5.85-3S56.82,36.71,53.34,42.43,43.23,74.74,43,78.6,36.43,99,36.43,99L36.8,82.7,34.19,99,32.36,84.07l-11.6,19.09L25.61,82.7l5.17-23.88L20,88l6-29.16Z"/><path class="cls-7" d="M431.18,275.23c-1.12-10.07-54.08-156.65-58.93-166.5s-31-30.36-31-30.36c-74.22-51-120.47-60.87-133.52-62.73-9.14-1.31-26.31,7.44-35.8,12.8,5.57,5.53,10.5,11.24,11.18,15.05,1.49,8.32.75,32.94-2.61,38.53-1.43,2.38-4.13,1.09-6.76-1.17-1,8.15-2.42,15.06-4.05,18-4.48,8-17.41,57.69-22.88,66.14s-18.9,11.44-18.9,11.44-18.43,1-24.88,0-16.9-11.44-16.9-11.44a60.07,60.07,0,0,0-7.87-12.5L77.18,154a115.74,115.74,0,0,1-1.82,17.9c-1.86,11.19,15.29,51.47,25.36,61.54s60.42,126.19,60.42,126.19l213.34,1.49h0l67-3S432.3,285.3,431.18,275.23Z"/><path class="cls-8" d="M166.24,107.66s-4.64,37.33-4.63,57.72,7.53,65.15,13.47,84S193,312.52,193,312.52s-19.9-6.91-22.89-12.38-24.86-32.82-26.85-52.71-19.92-70.83-19.92-70.83,10.65,4,25-14.41Z"/><path class="cls-9" d="M161.15,359.64,166.62,423s2.85,60.42,17.12,82.8,28.82,76.08,28.82,76.08H264L231.58,470.78l7.83-72.36,11.19,72.36,33.57,111.14h53.71l-28-111.14,41.4-109.64Z"/><path class="cls-10" d="M216.58,581.92v4.79s-24.24-.75-38,0-7.83,7.09-7.83,7.09-.37,10.07,18.28,10.44,67.24,0,67.24,0V581.92Z"/><path class="cls-10" d="M290.43,581.92v4.79s-24.24-.75-38,0-7.83,7.09-7.83,7.09-.37,10.07,18.28,10.44,67.24,0,67.24,0V581.92Z"/><path class="cls-11" d="M344.69,322.09l3.25,5.94s-4.5,3.5-5.5,13,2,21,9,24,3-9,3-9-5.5-11-2.5-16,3.64-2.5,3.64-2.5,10.36,9.5,6.36,31.5c0,0,0,12,7,5.5s0-34.5,0-34.5a84.92,84.92,0,0,1,8.5,36.43s-5,5.07,0,9.07,9-13.5,9-13.5-2.5-26.5-6-32.5,10.5,15,11.5,27.5c0,0-4,3,0,7.5s9-7.5,9-7.5l-7-25.5a96.86,96.86,0,0,0,7,12.58c4,5.92,7.5,0,7.5,0s-3.5-13.58-9-17.08A56.93,56.93,0,0,1,389,327.9Z"/><path class="cls-7" d="M235.94,160.5l98.23-79.77s46.61,118.54,53.44,148.08l5.49,18.42,10.33,82.89-68.25-9Z"/></g></g></svg>