<svg id="Layer_2" data-name="Layer 2" xmlns="http://www.w3.org/2000/svg" viewBox="0 0 421.98 618.52"><defs><style>.cls-1,.cls-2{fill:none;}.cls-1,.cls-10,.cls-3,.cls-4,.cls-5,.cls-6,.cls-7,.cls-9{stroke:#282828;}.cls-1,.cls-10,.cls-11,.cls-2,.cls-3,.cls-4,.cls-5,.cls-6,.cls-7,.cls-8,.cls-9{stroke-miterlimit:10;}.cls-2,.cls-8{stroke:#191919;}.cls-2{opacity:0.32;}.cls-3{fill:#f2f2f0;}.cls-5{fill:#282828;}.cls-6{fill:#d3c279;opacity:0.37;}.cls-7{fill:#4c6644;}.cls-8{fill:#b7b7b7;}.cls-9{fill:#898989;}.cls-10{fill:#474747;}.cls-11{fill:#fff;stroke:#000;}</style></defs><title>quasimodo-esmeralda</title><path class="cls-1" d="M829.07,256.39s4.57-2.43,7.94-.54,2.35,1.58,2.35,1.58" transform="translate(-459.6 -171.37)"/><path class="cls-2" d="M801.55,333.41s7.08-20.42,27.7-32.3c0,0,5.14-12.31,3.28-17.67s5.24-10.83,5.24-10.83-3.74-3.73-.37-5.46,14.76-17.46,13.39-22.85.18-33.91-28.09-46.43-50.88-22.45-66.26-21.4-34.91,14.35-39.53,19.65-8.35,9-11.08,20.2,2.86,49.15,7.86,56.79S735,329.48,741,337.54s19.63,10.12,19.63,10.12,18.45-.26,24.82-1.69S801.55,333.41,801.55,333.41Z" transform="translate(-459.6 -171.37)"/><path class="cls-1" d="M743.66,230.19s-6.12-13-13.63-13.52a10.11,10.11,0,0,0-10.1,5.42s-6.7,7.69-5.67,15.59S722,253.1,722,253.1s3.63,5.73,2.54,8.05,9.3,1.11,9.3,1.11l3.73-7.48" transform="translate(-459.6 -171.37)"/><path class="cls-1" d="M739.33,232.48s-2.53-.57-6.12,1.66-8.76,3.09-7.23,7.22,4.71,6.91,6.3,8.29a25,25,0,0,0,4.17,2.71s-3.28-4.26.24-7.49,3-7.43,2.81-9.91" transform="translate(-459.6 -171.37)"/><path class="cls-1" d="M737.18,230.13s-.85-6.17-5.63-8.09-7.85.54-10,4.92-3,10.11-1.59,13.28S727,250.77,726.59,253" transform="translate(-459.6 -171.37)"/><path class="cls-1" d="M811.41,240.52c-2.72-7-4.77-15.13-10.13-17a15.8,15.8,0,0,0-12.65.86" transform="translate(-459.6 -171.37)"/><path class="cls-3" d="M808,249.47c-1.67-2.63-3.36-9-8.86-9.36s-11,3.49-11.94,4.05,10.87,9.48,16.57,9.09S808,249.47,808,249.47Z" transform="translate(-459.6 -171.37)"/><ellipse class="cls-4" cx="801.08" cy="247.95" rx="3.65" ry="4.1" transform="translate(-474.62 -116.25) rotate(-3.9)"/><path class="cls-1" d="M809.62,283.63c-4.63-2.18-6.35-1.81-7.52-4.22s-1.79-9.72,2.67-13.77,7.81-6,7-8.66,4.7-6,7.31-6.15,7.76,4.08,7.87,5.69,2,5.1,3.72,7,1.86,9,.72,10.54-3.11,7.32-6.27,8.53S809.62,283.63,809.62,283.63Z" transform="translate(-459.6 -171.37)"/><path class="cls-5" d="M819.39,275.24s-.8-2.94-2.72-3.55-7.26,1.49-8,3.29-1.52,3.34.38,5.58S819.39,275.24,819.39,275.24Z" transform="translate(-459.6 -171.37)"/><path class="cls-5" d="M825.32,278.2s-4.8,1-6.55,2.69.14,2,.14,2,4.76.42,5.79-1,3-3.2,2.11-3.76A1.13,1.13,0,0,0,825.32,278.2Z" transform="translate(-459.6 -171.37)"/><path class="cls-6" d="M806.19,297.33c-2.56-.95-18.59,1.52-22.1,3s-4.54,2.8-4.54,2.8,6.32,6.8,11.73,9.42,12.53,1,14.24.52,5.05-6.33,5.05-6.33-2-7.84-3.21-8.63Z" transform="translate(-459.6 -171.37)"/><path class="cls-1" d="M810.57,306.75s-13.63-4.3-22.33-4l-8.7.34" transform="translate(-459.6 -171.37)"/><path class="cls-4" d="M873.61,238.89,870,230l8.43,8.56-12.53-19.21,5.68,1.11s-1.91-6.08-14.32-12.6A136.16,136.16,0,0,1,835.11,193l-3.88-11,.71,10.42s1.86,4.73-5.31-4.12-5.43-16.33-5.43-16.33L817.86,189s0-14.7-5.48-16.32c0,0,6.33,8.79.75,11s-11.29-8.33-17.13-9.92-27.6-2.73-34.22-1.15-35.54,8.78-39.74,13.93-24.6,23.88-25.52,32.28,1.5,32.91,5.23,38.27,13.13-10,13.13-10-5.12-19.86-1.69-24.7,14.78-13.83,20.25-10.47,4.86,16.49,10.07,16.14S752,220.4,757,217.44s14.13-8.82,18.93-11.39,9-10.33,10.79-9.71,7.84,12.69,6.57,15.88,9.16-13.59,9.16-13.59l5.63-3.38s14,9.28,17.83,14.74,12.29,31.55,12.78,35.38,7.94,19.87,7.94,19.87l-1.48-16.2,3.71,16,.81-15,12.87,18.26L856.3,248.3l-6.78-23.48,12.72,28.36L854.3,224.5Z" transform="translate(-459.6 -171.37)"/><path class="cls-7" d="M464.79,468c.43-10.12,43.29-160,47.46-170.13s28.82-32.39,28.82-32.39c70.57-56,116-68.93,128.94-71.68,9-1.92,26.76,5.63,36.58,10.34-5.18,5.89-9.71,11.92-10.13,15.78-.92,8.4,1.5,32.91,5.23,38.27,1.59,2.27,4.19.81,6.67-1.63,1.55,8.06,3.44,14.86,5.27,17.64,5,7.63,21.29,56.37,27.33,64.43s19.63,10.12,19.63,10.12,18.45-.26,24.82-1.69,16.08-12.56,16.08-12.56a60.07,60.07,0,0,1,7-13l1.23,1.48a115.74,115.74,0,0,0,3,17.74c2.62,11-11.75,52.39-21.11,63.12s-51.69,130-51.69,130l-212.74,16h0l-67.07,1.55S464.36,478.12,464.79,468Z" transform="translate(-459.6 -171.37)"/><path class="cls-8" d="M717.7,282.77s7.17,36.93,8.55,57.27-3.08,65.51-7.71,84.77S705,489,705,489s19.39-8.25,22-13.91,22.57-34.44,23.2-54.42,15-72,15-72-10.36,4.68-25.91-12.68Z" transform="translate(-459.6 -171.37)"/><path class="cls-9" d="M739.94,533.83l-1.15,63.62s1.27,60.47-11.44,83.77-23.57,77.87-23.57,77.87l-51.35,3.5,24.8-113.09L664.5,577.85l-6.24,73L632.35,764l-53.58,3.66L599.1,654.84,550.34,548.27Z" transform="translate(-459.6 -171.37)"/><path class="cls-10" d="M699.78,759.36l.33,4.78s24.14-2.4,38-2.59,8.3,6.54,8.3,6.54,1.06,10-17.52,11.66-67.09,4.58-67.09,4.58l-1.52-22.27Z" transform="translate(-459.6 -171.37)"/><path class="cls-10" d="M626.1,764.39l.33,4.78s24.14-2.4,38-2.59,8.3,6.54,8.3,6.54,1.06,10-17.52,11.66-67.09,4.58-67.09,4.58l-1.52-22.27Z" transform="translate(-459.6 -171.37)"/><path class="cls-11" d="M554.27,508.86,551.43,515s4.73,3.19,6.37,12.6-.57,21.09-7.34,24.56-3.61-8.77-3.61-8.77,4.74-11.35,1.4-16.13-3.8-2.25-3.8-2.25-9.69,10.18-4.2,31.86c0,0,.82,12-6.61,6s-2.35-34.42-2.35-34.42a84.92,84.92,0,0,0-6,36.92s5.33,4.72.62,9-9.9-12.86-9.9-12.86.69-26.61,3.77-32.83-9.45,15.68-9.6,28.22c0,0,4.2,2.72.51,7.48s-9.49-6.87-9.49-6.87l5.25-25.92a96.86,96.86,0,0,1-6.13,13c-3.59,6.18-7.48.51-7.48.51s2.57-13.79,7.82-17.65a56.93,56.93,0,0,0,9.77-9.81Z" transform="translate(-459.6 -171.37)"/><path class="cls-7" d="M651.76,340.24l-103.44-72.9s-38.43,121.44-43.23,151.38l-4.22,18.75-4.66,83.4,67.49-13.58Z" transform="translate(-459.6 -171.37)"/></svg>