<svg id="Layer_1" data-name="Layer 1" xmlns="http://www.w3.org/2000/svg" viewBox="0 0 1927.72 1085.99"><defs><style>.cls-1{fill:#969696;}.cls-2{fill:#b7b7b7;}.cls-3{fill:#d8d8d8;}.cls-4{fill:#a0a0a0;}.cls-5{fill:#727272;}.cls-6{fill:#9b9b9b;}.cls-7{fill:#878787;}.cls-8{fill:#5b5b5b;}.cls-9{fill:#3d3d3d;}.cls-10{fill:#aaa;}.cls-11{fill:#8e8e8e;}.cls-12{fill:#515151;}.cls-13{fill:#6b6a6a;}.cls-14{fill:#777;}.cls-15{fill:#7c7c7c;stroke:#545252;stroke-miterlimit:10;stroke-width:4px;}.cls-16{fill:#545252;}</style></defs><title>scene2_bg</title><polygon class="cls-1" points="1202.93 249.63 1011.62 0.25 1145.72 0.25 1150.22 87.92 1192.23 86.58 1215.92 0 1228.53 0.25 1279.83 84.58 1449.6 86.14 1511.58 0.25 1673.7 0.25 1595.28 149.63 1380.12 182.44 1266.21 249.63 1202.93 249.63"/><polygon class="cls-2" points="6.88 1081.19 170.66 1081.19 164.44 123.06 176.88 24.63 145.12 0.25 0 0.25 6.88 1081.19"/><polygon class="cls-3" points="176.88 24.63 210.04 0.25 585.27 0.25 641.25 62.13 701.71 20.14 730.72 0 825.75 88.69 914.81 0.75 970.87 88.69 1019.18 0.25 1207.2 249.63 1269.39 249.63 1381.34 182.44 1510.54 0.25 1592.8 149.63 1669.87 0.25 1920.4 0.25 1927.72 1081.19 1477.22 1085.99 171.82 1081.19 164.68 154.25 164.44 123.06 176.88 24.63"/><polygon class="cls-4" points="218.34 141.81 282.98 1.16 372.16 0.25 486.96 145.27 218.34 141.81"/><polyline class="cls-4" points="514.66 146.81 730.72 0 892.7 151.09"/><path class="cls-5" d="M614.34,644.69" transform="translate(-0.05 0.25)"/><polygon class="cls-6" points="1510.54 431.25 1782.52 451.25 1782.52 441.25 1511.86 424.92 1510.54 431.25"/><polygon class="cls-7" points="1782.52 451.25 1897.62 448.25 1897.13 438.08 1782.52 441.25 1782.52 451.25"/><polygon class="cls-8" points="1511.86 424.92 1768.37 412.92 1897.62 422.58 1897.13 438.08 1782.52 441.25 1511.86 424.92"/><polygon class="cls-8" points="1523.44 432.2 1571.57 571.03 1782.52 578.25 1782.52 451.25 1523.44 432.2"/><polygon class="cls-9" points="1782.52 451.25 1897.62 448.25 1897.62 578.25 1782.52 578.25 1782.52 451.25"/><polygon class="cls-4" points="408.02 141.81 408.02 168.92 367.39 179.25 367.57 154.25 408.02 141.81"/><polygon class="cls-10" points="408.02 141.81 701.02 146.81 698.02 170.81 408.02 168.92 408.02 141.81"/><polygon class="cls-11" points="376.77 24.63 401.77 0.25 457.05 0.25 408.02 141.81 367.57 154.25 367.39 123.06 376.77 24.63"/><polygon class="cls-12" points="352.83 0.25 376.99 24.41 401.77 0.25 352.83 0.25"/><polygon class="cls-4" points="701.02 146.81 671.77 0.25 583.96 0.25 517.52 143.68 701.02 146.81"/><polygon class="cls-12" points="523.96 0.25 557.54 56.54 583.96 0.25 523.96 0.25"/><polygon class="cls-12" points="417.02 260.96 533.02 260.96 533.02 486.87 417.02 511.65 417.02 260.96"/><polygon class="cls-13" points="427.02 282.63 523.02 282.63 523.02 489 427.02 509.51 427.02 282.63"/><polygon class="cls-1" points="701.02 146.81 947.95 151.95 940.03 170.81 698.02 170.81 701.02 146.81"/><polygon class="cls-14" points="671.77 0.25 698.02 0.25 804.27 148.96 891.62 0.25 932.96 0.75 975.21 88.69 947.95 151.95 701.02 146.81 671.77 0.25"/><polygon class="cls-12" points="608.02 336.33 666.02 336.33 666.52 458.35 608.02 470.85 608.02 336.33"/><polygon class="cls-13" points="613.02 347.17 661.02 347.17 661.02 459.52 613.02 469.85 613.02 347.17"/><rect class="cls-15" x="738.06" y="189.36" width="101.29" height="101.29"/><rect class="cls-16" x="783.7" y="189.36" width="10" height="101.29"/><rect class="cls-16" x="783.74" y="189.11" width="10" height="101.29" transform="translate(548.95 1028.74) rotate(-90)"/><rect class="cls-15" x="1763.54" y="264.53" width="101.29" height="101.29"/><rect class="cls-16" x="1809.19" y="264.53" width="10" height="101.29"/><rect class="cls-16" x="1809.23" y="264.28" width="10" height="101.29" transform="translate(1499.27 2129.4) rotate(-90)"/><rect class="cls-15" x="268.27" y="241.13" width="66.43" height="66.43"/><rect class="cls-16" x="298.21" y="241.13" width="6.56" height="66.43"/><rect class="cls-16" x="298.25" y="240.88" width="6.56" height="66.43" transform="translate(27.39 575.88) rotate(-90)"/><rect class="cls-15" x="268.27" y="398.83" width="66.43" height="66.43"/><rect class="cls-16" x="298.21" y="398.83" width="6.56" height="66.43"/><rect class="cls-16" x="298.25" y="398.58" width="6.56" height="66.43" transform="translate(-130.31 733.58) rotate(-90)"/><rect class="cls-15" x="1503.69" y="226.27" width="101.29" height="101.29"/><rect class="cls-16" x="1549.33" y="226.27" width="10" height="101.29"/><rect class="cls-16" x="1549.38" y="226.02" width="10" height="101.29" transform="translate(1277.67 1831.29) rotate(-90)"/></svg>