<svg xmlns="http://www.w3.org/2000/svg" xmlns:xlink="http://www.w3.org/1999/xlink" viewBox="0 0 1382 1091.5"><defs><style>.cls-1{fill:#191919;}.cls-2{fill:#282828;}.cls-3{fill:#4f4e4d;}.cls-4{fill:url(#linear-gradient);}.cls-5{fill:#333;}.cls-15,.cls-20,.cls-6{fill:none;}.cls-6{stroke:#191919;stroke-width:5px;}.cls-20,.cls-6{stroke-miterlimit:10;}.cls-7{fill:#313331;}.cls-8{fill:#272827;}.cls-9{fill:#686868;}.cls-10{fill:#383838;}.cls-11{fill:#787a78;}.cls-12{fill:#444;}.cls-13{fill:#707070;}.cls-14{fill:#4f4f4e;}.cls-16{fill:#303030;}.cls-17{fill:#101110;}.cls-18{fill:#3f3f3f;}.cls-19{fill:#353535;}.cls-20{stroke:#000;stroke-width:10px;}.cls-21{fill:#1c1c1c;}.cls-22{fill:#4f4f4f;}.cls-23{fill:#161616;}.cls-24{fill:#141414;}.cls-25{fill:#2b2b2b;}.cls-26{fill:#383a39;}.cls-27{fill:#2c2d2c;}</style><linearGradient id="linear-gradient" y1="709" x2="579" y2="709" gradientUnits="userSpaceOnUse"><stop offset="0" stop-color="#4d4d4d"/><stop offset="1"/></linearGradient></defs><title>scene1</title><g id="Layer_3" data-name="Layer 3"><rect class="cls-1" x="129" y="749.5" width="45" height="61"/><rect class="cls-2" x="469" y="625.5" width="45" height="61"/><rect class="cls-3" x="435" y="649.5" width="34" height="61"/><polygon class="cls-4" points="0 530.5 23 524.5 49 530.5 75 524.5 78 522.5 78 516.5 72 512.5 77 508.5 81 463.5 91 505.5 91 508.5 98 511.5 94 517.5 95 524.5 105 524.5 112 512.5 209 508.5 217 527.5 237 526.5 243 503.5 248 524.5 257 519.5 275 517.5 310 518.5 374 541.5 382 521.5 394 526.5 404 534.5 413 526.5 421 530.5 439 530.5 443 523.5 448 530.5 462 530.5 464 522.5 469 530.5 487 529.5 495 513.5 497 500.5 493 495.5 500 490.5 505 463.5 512 490.5 517 494.5 514 500.5 517 507.5 520 516.5 532 527.5 543 506.5 546 510.5 563 510.5 565 505.5 568 511.5 579 524.5 579 693.5 0 954.5 0 530.5"/><polygon class="cls-5" points="16 947.29 16 1091.5 1382 1091.5 1382 983.5 16 906.5 16 947.29"/><polygon class="cls-5" points="74 814.5 129 679.5 280 746.5 382 930.5 74 916.5 101 855.5 74 814.5"/><polygon class="cls-1" points="271 769.5 271 925.59 289.5 925.59 289.5 763.64 280 746.5 271 769.5"/><polygon class="cls-1" points="221 887.5 344.34 862.57 352.63 877.52 208 906.5 221 887.5"/><polygon class="cls-1" points="275 740.5 462.67 710.5 491 769.5 275 740.5"/><polygon class="cls-2" points="611 769.5 274 742.5 382 930.5 663 944.5 660 890.5 653 884.5 653 869.5 672 858.5 611 769.5"/><polygon class="cls-6" points="280 746.5 201.33 922.29 382 930.5 280 746.5"/><rect class="cls-5" x="901" y="804.5" width="60" height="80"/></g><g id="Layer_4" data-name="Layer 4"><rect class="cls-7" x="986" y="235.5" width="30" height="194"/><rect class="cls-8" x="1004" y="235.5" width="2" height="7"/><polyline class="cls-7" points="1184 654.16 1233 648.01 1230 507.69 1198 472.87 1190 429.85 1175.84 415.25 1178.67 654.5 1233 648.01"/><path class="cls-9" d="M1057,542l-1,50,24,34,12-31-2-50s21-4-1-15l-18-193-14,188S1034,539,1057,542Z" transform="translate(16 -274.5)"/><polyline class="cls-9" points="1042 367.5 1097.02 388.31 1151 451.31 1151 466.5 1042 432.4 1042 367.5"/><polygon class="cls-10" points="1095.46 352.5 1042 337.74 1042 294.5 1062.32 303.99 1096 349.63 1095.46 352.5"/><polyline class="cls-5" points="1042.59 374.46 1101.41 389.83 1098.12 348.94 1042.81 337.89 1042.44 371.63"/><polyline class="cls-11" points="795 342.5 978.46 117.5 986 337.08 795 342.5"/><rect class="cls-11" x="600" y="263.5" width="179" height="95"/><polygon class="cls-12" points="731.07 476 839.52 473.74 839.5 443.06 837 336.5 731 351.18 731.07 476"/><rect class="cls-13" x="606.5" y="281" width="3" height="78"/><rect class="cls-13" x="617.5" y="278" width="3" height="78"/><rect class="cls-13" x="628.5" y="278" width="3" height="78"/><rect class="cls-13" x="639.5" y="278" width="3" height="78"/><rect class="cls-13" x="648.5" y="278" width="3" height="78"/><rect class="cls-13" x="666.5" y="275" width="3" height="78"/><rect class="cls-13" x="672.5" y="275" width="3" height="78"/><rect class="cls-13" x="680.5" y="275" width="3" height="78"/><rect class="cls-13" x="688.5" y="275" width="3" height="78"/><rect class="cls-13" x="695.5" y="273" width="3" height="78"/><rect class="cls-13" x="657.5" y="275" width="3" height="78"/><rect class="cls-14" x="582.01" y="622.97" width="378" height="154.13" transform="translate(-19.89 -232.81) rotate(-3.03)"/><polygon class="cls-15" points="582.5 367 582.5 485 985.5 476 985.5 337 582.5 367"/><polygon class="cls-16" points="587.5 255 587.5 47.36 711.5 25.5 711.5 241.89 587.5 255"/><polygon class="cls-16" points="849 229 986 213 979 0 849 17 849 229"/><polygon class="cls-7" points="1016 674.5 1155 657.16 1151.23 465.95 1016 422.5 1016 674.5"/><polygon class="cls-17" points="1150.5 451 1148 372.5 1095.5 373 1095.5 396 1150.5 451"/><polygon class="cls-18" points="1155.65 319.56 1147 374.5 1175 384.5 1155.65 319.56"/><polygon class="cls-19" points="711 243 774 236 774 94.17 774 84 711 26 711 243"/><polygon class="cls-19" points="979 246.5 1044 239.5 1042 77.43 1042 65.89 979 0 979 246.5"/><path class="cls-1" d="M604,525.37l-4.92-146.61A39.91,39.91,0,0,1,600,371c1.38-8.29,10-21,17-20,7.54,1.08,12,8,15,18s5,152.13,5,153.49c0,0,0,0,0,0l-32.92,2.89A0,0,0,0,1,604,525.37Z" transform="translate(16 -274.5)"/><path d="M651,521l-4.88-147.5s1.24-24,13.11-28.35S677,371,677,371l5,147Z" transform="translate(16 -274.5)"/><path class="cls-1" d="M864,497l-5.87-165.68a43,43,0,0,1,1-8.73c1.63-9.33,11.77-23.64,20-22.51,8.88,1.21,14.13,9,17.66,20.26s5.86,171.25,5.89,172.79c0,0,0,0,0,0L864,498S864,497,864,497Z" transform="translate(16 -274.5)"/><path d="M916.5,491.45l-5.74-166s1.46-27,15.43-31.91,20.92,29.1,20.92,29.1L953,488.07Z" transform="translate(16 -274.5)"/><rect class="cls-3" x="722" y="482" width="117.5" height="85"/><polygon class="cls-7" points="1044 463.5 1016 463.5 1016 242.5 1044 238.5 1044 463.5"/><rect class="cls-7" x="1042" y="327.5" width="5" height="1"/><polygon class="cls-7" points="1183.78 653.85 1147 657.5 1147 372.5 1174.78 384.1 1183.78 653.85"/><line class="cls-20" x1="536.84" y1="719.95" x2="480" y2="746.5"/><line class="cls-20" x1="877" y1="729.5" x2="722" y2="810.5"/><path class="cls-20" d="M585,1134" transform="translate(16 -274.5)"/><path class="cls-20" d="M431,1119" transform="translate(16 -274.5)"/><circle class="cls-21" cx="795.5" cy="423" r="47"/><rect class="cls-2" x="836" y="346" width="25.5" height="132"/><rect class="cls-2" x="701.5" y="356.5" width="24.5" height="125.5"/><rect class="cls-2" x="846.5" y="256" width="15" height="86"/><rect class="cls-2" x="963.5" y="337" width="22.5" height="137"/><rect class="cls-3" x="602.5" y="479.5" width="95" height="38.5"/><polygon class="cls-2" points="835 479 835 669 865 669.5 864.5 510 864.5 479 835 479"/><polygon class="cls-2" points="963 476 963 478 963 510 963 674 996.5 674 996.5 476 963 476"/><polygon class="cls-3" points="864 478 864 479 864 510 965.5 510 965.5 478 864 478"/><rect class="cls-2" x="582.5" y="366" width="20" height="116"/><rect class="cls-2" x="587" y="281.5" width="13" height="79"/><rect class="cls-2" x="704.5" y="268.5" width="16" height="82.5"/><rect class="cls-2" x="965.5" y="245" width="21.5" height="97.5"/><path class="cls-2" d="M715.5,744.5v-68s12-47.37,55-50.19,53,24.19,53,24.19v-30l-117,10.58V755.5l8.17.5Z" transform="translate(16 -274.5)"/><rect class="cls-14" x="565.96" y="616.95" width="403.78" height="13.04" transform="translate(-28.01 -216.01) rotate(-4.24)"/><circle class="cls-5" cx="798" cy="422.5" r="30.5"/><rect class="cls-22" x="864" y="505" width="101" height="70"/><polygon class="cls-2" points="581.07 485.24 581.07 658.93 603.92 658.93 603.92 513.58 603.92 485.24 581.07 485.24"/><polygon class="cls-3" points="603.47 484.33 603.47 485.24 603.47 513.58 696.25 513.58 696.25 484.33 603.47 484.33"/><rect class="cls-22" x="603.46" y="509.01" width="92.33" height="63.99"/><path class="cls-23" d="M706,940.13l.48-90.63s24-60,56-57,62,46,61,57,.5,94.5.5,94.5Z" transform="translate(16 -274.5)"/><rect class="cls-14" x="725" y="268.5" width="4" height="82"/><rect class="cls-14" x="736" y="268.5" width="4" height="82"/><rect class="cls-14" x="746" y="266.5" width="4" height="82"/><rect class="cls-14" x="756" y="266.5" width="4" height="82"/><rect class="cls-14" x="764" y="263.5" width="4" height="82"/><rect class="cls-14" x="772" y="263.5" width="4" height="82"/><rect class="cls-14" x="782" y="263.5" width="4" height="82"/><rect class="cls-14" x="791" y="260.5" width="4" height="82"/><rect class="cls-14" x="799" y="260.5" width="4" height="82"/><rect class="cls-14" x="807" y="260.5" width="4" height="82"/><rect class="cls-14" x="814" y="260.5" width="4" height="82"/><rect class="cls-14" x="823" y="258.5" width="4" height="82"/><rect class="cls-14" x="833" y="258.5" width="4" height="82"/><rect class="cls-14" x="840" y="256.5" width="4" height="82"/><rect class="cls-14" x="867" y="255.5" width="4" height="81"/><rect class="cls-14" x="874" y="251.5" width="4" height="85"/><rect class="cls-14" x="881" y="251.5" width="4" height="85"/><rect class="cls-14" x="890" y="253.5" width="4" height="83"/><rect class="cls-14" x="899" y="248.5" width="4" height="88"/><rect class="cls-14" x="907" y="248.5" width="4" height="88"/><rect class="cls-14" x="914" y="248.5" width="4" height="88"/><rect class="cls-14" x="922" y="248.5" width="4" height="88"/><rect class="cls-14" x="930" y="248.5" width="4" height="88"/><rect class="cls-14" x="938" y="245.5" width="4" height="88"/><rect class="cls-14" x="946" y="245.5" width="4" height="88"/><rect class="cls-14" x="954" y="245.5" width="4" height="88"/><path class="cls-1" d="M848.67,943.86l-.17-94.36s31-46,48-46c24,0,53,48,52,46l1.5,99Z" transform="translate(16 -274.5)"/><path class="cls-1" d="M588.07,933.76l-.15-86.26s28.31-42.05,43.88-42.05c21.94,0,48.45,43.88,47.54,42.05l1.37,90.5Z" transform="translate(16 -274.5)"/><rect class="cls-8" x="985" y="423.5" width="31" height="251"/><path class="cls-19" d="M850.5,746l99-3.17v-74s-23-40.16-44-43.33-55,45.45-55,45.45Z" transform="translate(16 -274.5)"/><path class="cls-24" d="M866.5,735.5v-61s2-9,11-8,21,12,22,19,0,50,0,50Z" transform="translate(16 -274.5)"/><path class="cls-24" d="M909.5,732.5v-47s5-20,14-22,23,19,23,19v50Z" transform="translate(16 -274.5)"/><circle class="cls-24" cx="919.5" cy="376" r="11"/><path class="cls-25" d="M594,752.8,686,750V685s-21.37-35.31-40.89-38.1-51.11,40-51.11,40Z" transform="translate(16 -274.5)"/><path class="cls-24" d="M609.29,748.8V692.42s1.85-8.32,10.17-7.39,19.41,11.09,20.33,17.56,0,46.21,0,46.21Z" transform="translate(16 -274.5)"/><path class="cls-24" d="M649,746V702.59s4.62-18.48,12.94-20.33,21.26,17.56,21.26,17.56V746Z" transform="translate(16 -274.5)"/><circle class="cls-24" cx="659.48" cy="395.74" r="10.17"/><polygon class="cls-26" points="593 253.5 587.5 254 587.5 285 979 245.5 979.5 215.83 979.5 211 593 253.5"/><polygon class="cls-27" points="1095.5 373 1096 348.5 1108 320.5 1156 320.5 1147.5 373 1095.5 373"/><path class="cls-2" d="M737.46,933.5V870.16s-3.73-9.94,9.94-9.94h13.66s9.94-2.48,9.94,6.21V933.5Z" transform="translate(16 -274.5)"/><path class="cls-2" d="M777,932.26V868.92S773.24,859,786.9,859h13.66s9.94-2.48,9.94,6.21v67.07Z" transform="translate(16 -274.5)"/><path class="cls-24" d="M789.5,697.25a7,7,0,0,1-7.25,6.75c1.52,0-7.25-3-7.25-6.75a7.27,7.27,0,0,1,14.5,0Z" transform="translate(16 -274.5)"/><rect class="cls-14" x="564.99" y="742.12" width="415.16" height="16.84" transform="translate(4.8 -262.8) rotate(-0.86)"/><rect class="cls-2" x="694" y="481" width="31" height="184"/></g><g id="Layer_8" data-name="Layer 8"><polygon class="cls-1" points="834.5 784 893.5 695 893 629.5 945 629.5 945 742.5 1016 740.5 1016 629.5 1042 570.5 1065 570.5 1073 558.5 1091 558.5 1097 571.5 1139 572.5 1149 558.5 1176 558.5 1207 604.5 1262 594.5 1289 593.5 1314 617.5 1314 664.5 1382 691.5 1382 985.5 834 954.5 834.5 784"/><polygon class="cls-5" points="1294 659.5 1233 766.5 1165 737.5 1106 805.5 1051 983.5 1382 991.5 1382 691.5 1294 659.5"/><polygon class="cls-7" points="1016 629.5 1042 570.5 1065 570.5 1073 558.5 1091 558.5 1097 571.5 1139 572.5 1149 558.5 1176 558.5 1209 606.5 1178 620.5 1151 564.5 1126 610.5 1094 610.5 1074 564.5 1042 629.5 1016 629.5"/><polygon class="cls-1" points="1112 656.5 1202 656.5 1223 668.5 1226.3 763.64 1165 737.5 1112 656.5"/></g></svg>