<svg xmlns="http://www.w3.org/2000/svg" viewBox="0 0 703.67 1066.5"><defs><style>.cls-1,.cls-17{fill:#999;}.cls-1,.cls-12,.cls-13,.cls-14,.cls-2,.cls-3,.cls-4,.cls-5,.cls-6,.cls-7{stroke:#000;}.cls-1,.cls-12,.cls-13,.cls-14,.cls-15,.cls-16,.cls-17,.cls-18,.cls-2,.cls-3,.cls-4,.cls-5,.cls-6,.cls-7,.cls-8{stroke-miterlimit:10;}.cls-2{fill:#b3b3b3;}.cls-3{fill:#707070;}.cls-4{fill:#e6e6e6;}.cls-5{fill:#333;}.cls-6{fill:#4d4d4d;}.cls-10,.cls-7{fill:#fff;}.cls-16,.cls-8{stroke:#fff;}.cls-14,.cls-16,.cls-18,.cls-9{fill:none;}.cls-11{fill:#1b1b1b;}.cls-12{fill:#b5b5b5;}.cls-13{fill:#f2f2f0;}.cls-15{stroke:#f2f2f0;}.cls-16,.cls-17,.cls-18{stroke-width:3px;}.cls-17,.cls-18{stroke:#ccc;}</style></defs><title>the king on his chair</title><g id="Layer_2" data-name="Layer 2"><ellipse class="cls-1" cx="444.56" cy="132.94" rx="187.15" ry="114.54"/><path class="cls-1" d="M437.4,578.32V160.62a5.3,5.3,0,0,1,5.56-5H888a5.3,5.3,0,0,1,5.55,5v412.7a5.3,5.3,0,0,1-5.55,5h0" transform="translate(-211.06 -7)"/><polygon class="cls-1" points="512 764.26 34.64 764.26 225.59 570.64 683.24 570.64 512 764.26"/><polygon class="cls-2" points="34.64 764.26 81.62 716.54 72.53 641.54 227.1 475.19 227.1 398.83 14.94 615.63 34.64 764.26"/><polygon class="cls-2" points="512 764.26 34.64 764.26 34.64 816.07 512 816.07 683.24 625.18 683.24 570.64 512 764.26"/><rect class="cls-3" x="452.9" y="816.07" width="57.59" height="136.35"/><polygon class="cls-4" points="431.4 1026.06 525.04 1026.06 495.38 952.43 454.81 952.43 431.4 1026.06"/><rect class="cls-3" x="34.64" y="814.71" width="57.59" height="136.35"/><polygon class="cls-4" points="0.68 1024.69 94.32 1024.69 64.67 951.06 24.09 951.06 0.68 1024.69"/><polygon class="cls-3" points="683.24 761.53 625.65 761.53 627.17 685.17 683.24 625.18 683.24 761.53"/><polygon class="cls-4" points="612.02 835.16 702.94 835.16 674.15 761.53 634.75 761.53 612.02 835.16"/><ellipse class="cls-4" cx="372.24" cy="698.31" rx="23.31" ry="18.28" transform="translate(-609.06 509.84) rotate(-48.68)"/><ellipse class="cls-4" cx="834.44" cy="654.68" rx="18.55" ry="22.97" transform="translate(-430.71 530.31) rotate(-31.76)"/><path class="cls-5" d="M530.6,351.29l-22.35-24.58c-4.69-2.95-2.4-9.57,3.31-9.6l230-1.18c5.54,0,8,6.24,3.71,9.37l-16.14,27.36c-1,.74-18.51-2.72-19.82-2.71L548,351.67" transform="translate(-211.06 -7)"/><polygon class="cls-1" points="66.49 1005.83 51.2 1004.68 41.45 1015.03 37.98 1001.98 23.7 997.07 36.84 990.15 37.76 976.77 49.36 985.55 64.21 982.18 58.23 994.53 66.49 1005.83"/></g><g id="Layer_3" data-name="Layer 3"><path class="cls-6" d="M443.46,527.87" transform="translate(-211.06 -7)"/><path class="cls-6" d="M894.05,527.87" transform="translate(-211.06 -7)"/><path class="cls-7" d="M898.85,535.37" transform="translate(-211.06 -7)"/><path class="cls-7" d="M444.22,535.37" transform="translate(-211.06 -7)"/><path class="cls-2" d="M629.58,363.52l-23.89,1.28c-15.07.8-28.29-7.68-29.37-18.85l-1-9.9c-1.09-11.16,10.36-21,25.43-21.76L624.67,313c15.08-.81,28.29,7.67,29.38,18.84l1,9.9C656.09,352.93,644.65,362.72,629.58,363.52Z" transform="translate(-211.06 -7)"/><path class="cls-4" d="M712.8,213.21c-3.57,14-5.95,17.14-6.41,21.87-.69,7.15-5,40.2-5,40.2S690.61,298.5,678.88,309s-29.52,17.46-38.5,21.75-60.11,1.55-72.43-3.86-19.61-18.5-32.24-20.76-23.11-26.61-31-33.38l-21.8-51.13-3.6-50.76,231-19.63C707.27,170.88,723.17,172.52,712.8,213.21Z" transform="translate(-211.06 -7)"/><path class="cls-8" d="M446.84,195.88c.31-.1.52-.54.64-1.21C446.46,195.62,446.15,196.09,446.84,195.88Z" transform="translate(-211.06 -7)"/><path d="M754.07,126.33c.09,1.52-1.29,2.86-3.3,3.19-18.26,3.06-104.63,17.31-115.91,15.29C624.53,143,497.5,105.88,451.55,92.43c-4.15-1.21-3.27-5.74,1.17-6.05h0c2.12-.14,3.76-1.42,3.85-3,.57-10.18,2.69-45.4,4.9-49.35,2.35-4.2,34.25-21.24,40-24.31a5.15,5.15,0,0,1,2-.57c7.24-.56,49-3.58,91.1-1.34,44.82,2.38,90.44,10.06,93.11,11.3,8,3.7,18.46,30.92,22.16,40.62.71,1.84,3.51,2.74,5.85,1.94l9.36-3.23c2.81-1,6,.55,6,2.85,0,11.06.93,37,10.72,40S753.69,120,754.07,126.33Z" transform="translate(-211.06 -7)"/><path class="cls-9" d="M705.37,156.08" transform="translate(-211.06 -7)"/><ellipse class="cls-10" cx="357.95" cy="88.3" rx="29.9" ry="22.15"/><ellipse class="cls-10" cx="430.98" cy="85.84" rx="29.9" ry="22.15"/><ellipse class="cls-10" cx="692.44" cy="90.12" rx="15.02" ry="26.31" transform="translate(-179.32 309.1) rotate(-26.3)"/><ellipse class="cls-10" cx="509.06" cy="95.28" rx="14.33" ry="12.74" transform="translate(72.42 554.46) rotate(-74.78)"/><path class="cls-11" d="M755.06,141.69c-28.3,4.84-44.81,9.52-44.81,9.52l-231,19.63-.56,0s-25.78,18.71-31.24,23.8c1.63-8.85-11.94-63.66-16.88-74.23C425.29,109.06,407,88.25,407,88.25l30.42-2.11s187.13,55,199.76,57.21,119.3-15.86,119.3-15.86S783.36,136.86,755.06,141.69Z" transform="translate(-211.06 -7)"/><path class="cls-12" d="M463.35,191.2s-6.09,18.72-15.23,24.58-19.79,27.5-24.67,33.59,12.94-.9,22.07-6.76,8.06,5.19,11.86,10.15,16.12,10.38,17,.91,9.14-5.86,8.06,5.19,11.25,16.46,11.56,13.3,7.51-17.48,10.38-10.77-39.94-80.58-22.08-88.68" transform="translate(-211.06 -7)"/><path class="cls-12" d="M726,167.33s8.77,18,17,23.13,21.13,25.69,26.18,31.35-10,0-18.29-5.09-5,5.68-6.79,10.85-10,11.37-12.77,2.1-8.25-5.12-5,5.69-4.94,17-5.86,13.94-9.58-16.7-10.28-9.88,12.65-82.26-2.72-89" transform="translate(-211.06 -7)"/><ellipse class="cls-13" cx="543" cy="197.83" rx="23.36" ry="7.96" transform="translate(-229.81 55.1) rotate(-6.43)"/><ellipse class="cls-13" cx="648.75" cy="189.18" rx="23.45" ry="7.93" transform="translate(-221.34 32.72) rotate(-3.48)"/><line class="cls-14" x1="251" y1="186.52" x2="265.46" y2="169.83"/><line class="cls-14" x1="514.7" y1="160.9" x2="499.19" y2="144.21"/><ellipse class="cls-15" cx="325.88" cy="192.19" rx="8.54" ry="6.33"/><ellipse class="cls-15" cx="431.63" cy="182.18" rx="8.54" ry="6.33"/><path class="cls-14" d="M588.36,245.07s-3.3,7.53,2.14,10.5" transform="translate(-211.06 -7)"/><path class="cls-14" d="M623.5,253.11s3.84-7.55-1.6-10.06" transform="translate(-211.06 -7)"/><path class="cls-14" d="M595.16,256s6.54-1.24,8.37,2" transform="translate(-211.06 -7)"/><path class="cls-14" d="M621,254.22s-6.39-.34-6.85,4.4" transform="translate(-211.06 -7)"/><path d="M585.91,289.25s5.78,10.57,16.61,10.78c13.25.26,34.91-4.15,43.75-11C651.72,284.74,585.91,289.25,585.91,289.25Z" transform="translate(-211.06 -7)"/><path class="cls-6" d="M842.78,602.18l7.57-80.45L768.52,370.38c-4.57-5.87-42.71-22.1-51.29-21.75H535a29.31,29.31,0,0,0-6.3.69c-13.46-2.7-27.51,3.15-31.34,13.11l-85,232.93c-2.14,5.54-7.58,27.27-15.16,46.36-6.64,16.75-31.82,31.37-33.34,40.91l21.22-1.36,13.64,15c4.66-2.27,26-37.43,38.64-51.82A146.88,146.88,0,0,0,462,604.27l48.9-149.35L489.1,559.36c0,32.93,36.35,59.87,80.79,59.87H681.66c41.4-11.59,55-23.32,74.74-59.32l6.05-102.85,39.41,59.22,1.51,102.26c6.46,8.29-15.15,50.45,42.44,19.09C856.41,631.86,848.84,618.54,842.78,602.18Z" transform="translate(-211.06 -7)"/><path class="cls-5" d="M523.74,608.54c-44.67,34.55-99.22,78.18-118.92,100s-43.95,25.9-37.89,69.54,21.22,128.17,21.22,128.17L380.57,939A415.27,415.27,0,0,0,320,954c-33.34,10.91-65.17,49.09-18.19,50.45s75.77-8.18,75.77-8.18L423,989.42,448.77,984S466.65,935.68,470,911.7c3-21.81,0-66.81,0-66.81l-6.06-47.72S473,759,515.44,739.9s81.84-69.54,81.84-69.54l1.51-2.73-63.64,84.54s-31.83,50.45-25.77,76.36,25.77,94.08,25.77,94.08S548.4,950.13,551.81,954c18.19,20.46-12.12,40.91-12.12,40.91S517,1012.6,510.9,1029s6.06,39.54,24.25,43.63,40.91-24.54,40.91-24.54l63.65-55.91,15.15-15s-9.09-19.09-30.3-58.63-36.37-90-36.37-90S667,765.81,692.75,709.9,718.51,624,718.51,624l-11-10.12-173-1.09" transform="translate(-211.06 -7)"/><path class="cls-3" d="M888.24,806.71" transform="translate(-211.06 -7)"/><polygon class="cls-5" points="667.33 489.51 661.49 510.88 638 517.01 620.35 501.78 626.19 480.41 649.68 474.27 667.33 489.51"/><polygon class="cls-5" points="606.71 553.59 600.87 574.97 577.38 581.1 559.73 565.87 565.57 544.49 589.06 538.36 606.71 553.59"/><path class="cls-2" d="M753.37,340.38" transform="translate(-211.06 -7)"/><path class="cls-16" d="M570,347.2c1.6,86.18,92.61,100.41,94,1.36" transform="translate(-211.06 -7)"/><path class="cls-5" d="M660.22,349.93s18.77,75.86,14.6,103.73-6.13,20.12-8.21,48-5.39,43.82-6.39,54.18c-2.08,21.67-18.46,39.24-17.48,53.17.87,12.39,15.4,47.15,16.44,49.63S654,690.52,654,690.52s-54.89,77.5-56.69,80.74c-24.25,43.63,53,54.54,53,54.54s6.06-10.91,21-52.29c11.73-32.41,59.6-49.07,61.84-58.22,4.17-17,6.54-73.57,6.54-73.57s15.77-31.41,18.48-47.19c1.86-10.83,0-7.74,0-27.86,0-16.41,4.16-77.41,6.25-83.6s-8.34-60.38-10.43-60.38,0-35.6,0-35.6l-4.17-18.58-2.09-6.14S737,350,711.28,349.93,660.22,349.93,660.22,349.93Z" transform="translate(-211.06 -7)"/><path class="cls-5" d="M574.82,347.2s17.91,114.6,12.32,152.28c-5.82,39.2-14.11,53.38-14.11,62.8s-38.4,92.33-38.4,92.33L495.74,756.94l-113.65-33.4s65.16-49.09,87.89-75c17.3-19.71,1.52-36,.71-51-.66-12.35,11.57-62.77,11.57-62.77s39.22-184.35,50.33-186C543.15,347.2,574.82,347.2,574.82,347.2Z" transform="translate(-211.06 -7)"/><ellipse class="cls-17" cx="626.58" cy="425.17" rx="7.3" ry="7.82" transform="translate(-43.13 1020.67) rotate(-86.88)"/><ellipse class="cls-18" cx="598.85" cy="421.3" rx="8.44" ry="7.26" transform="translate(-223.4 11.11) rotate(-1.71)"/><polygon class="cls-2" points="512 764.26 536.57 736.8 562.01 708.36 571.1 621.09 683.24 498.37 683.24 409.74 516.54 581.55 512 764.26"/><polygon class="cls-1" points="497.21 1003.11 481.92 1001.96 472.17 1012.31 468.69 999.25 454.41 994.35 467.56 987.42 468.48 974.04 480.07 982.82 494.93 979.46 488.95 991.8 497.21 1003.11"/><polygon class="cls-1" points="674.4 813.57 659.56 812.42 650.09 822.78 646.72 809.72 632.85 804.82 645.61 797.89 646.5 784.51 657.76 793.29 672.19 789.92 666.38 802.27 674.4 813.57"/><path class="cls-2" d="M747.3,609" transform="translate(-211.06 -7)"/><ellipse class="cls-18" cx="648.85" cy="415.85" rx="8.44" ry="7.26" transform="translate(-223.21 12.6) rotate(-1.71)"/></g></svg>