<?xml version="1.0" encoding="utf-8"?>
<!-- Generator: Adobe Illustrator 21.1.0, SVG Export Plug-In . SVG Version: 6.00 Build 0)  -->
<svg version="1.1" xmlns="http://www.w3.org/2000/svg" xmlns:xlink="http://www.w3.org/1999/xlink" x="0px" y="0px"
	 viewBox="0 0 703.7 1066.5" style="enable-background:new 0 0 703.7 1066.5;" xml:space="preserve">
<style type="text/css">
	.st0{fill:#999999;stroke:#000000;stroke-miterlimit:10;}
	.st1{fill:#B3B3B3;stroke:#000000;stroke-miterlimit:10;}
	.st2{fill:#707070;stroke:#000000;stroke-miterlimit:10;}
	.st3{fill:#E6E6E6;stroke:#000000;stroke-miterlimit:10;}
	.st4{fill:#333333;stroke:#000000;stroke-miterlimit:10;}
	.st5{fill:#4D4D4D;stroke:#000000;stroke-miterlimit:10;}
	.st6{fill:#FFFFFF;stroke:#000000;stroke-miterlimit:10;}
	.st7{stroke:#FFFFFF;stroke-miterlimit:10;}
	.st8{fill:none;}
	.st9{fill:#FFFFFF;}
	.st10{fill:#1B1B1B;}
	.st11{fill:#B5B5B5;stroke:#000000;stroke-miterlimit:10;}
	.st12{fill:#F2F2F0;stroke:#000000;stroke-miterlimit:10;}
	.st13{fill:none;stroke:#000000;stroke-miterlimit:10;}
	.st14{stroke:#F2F2F0;stroke-miterlimit:10;}
	.st15{fill:none;stroke:#FFFFFF;stroke-width:3;stroke-miterlimit:10;}
	.st16{fill:#999999;stroke:#CCCCCC;stroke-width:3;stroke-miterlimit:10;}
	.st17{fill:none;stroke:#CCCCCC;stroke-width:3;stroke-miterlimit:10;}
	.st18{display:none;}
	.st19{display:inline;fill:#B3B3B3;stroke:#000000;stroke-miterlimit:10;}
</style>
<g id="Layer_1">
</g>
<g id="Layer_7">
	<rect x="596.6" y="744.7" class="st2" width="50.9" height="136.4"/>
	<polygon class="st3" points="578.7,954.7 672.4,954.7 642.7,881.1 602.1,881.1 	"/>
	<polygon class="st0" points="644.5,931.7 629.2,930.6 619.5,940.9 616,927.9 601.7,923 614.9,916 615.8,902.7 627.4,911.4 
		642.3,908.1 636.3,920.4 	"/>
	<rect x="190.4" y="747.5" class="st2" width="50.9" height="136.4"/>
	<polygon class="st3" points="172.5,957.5 266.1,957.5 236.5,883.9 195.9,883.9 	"/>
	<polygon class="st0" points="238.3,934.6 223,933.4 213.2,943.8 209.8,930.7 195.5,925.8 208.6,918.9 209.6,905.5 221.1,914.3 
		236,910.9 230,923.2 	"/>
</g>
<g id="Layer_5">
	<polygon class="st1" points="192.2,515.5 48.2,579.8 48.2,751.3 91.6,735.7 91.6,617.3 192.2,569.6 	"/>
</g>
<g id="Layer_3">
	<ellipse class="st0" cx="409.5" cy="136.5" rx="187.1" ry="114.5"/>
	<path class="st0" d="M191.3,703.1V158.7c0.2-3.8,2.6-6.7,5.6-6.5h445c2.9-0.2,5.4,2.7,5.5,6.5v537.9c-0.2,3.8-2.6,6.7-5.5,6.5l0,0"
		/>
	<polygon class="st1" points="647.4,701.1 518.2,749.9 47.3,751.3 47.3,789.3 518.2,789.3 647.4,748.9 	"/>
</g>
<g id="Layer_4">
	<polygon class="st0" points="191.3,701.1 48.2,750.3 519.1,749.9 648.3,701.1 	"/>
</g>
<g id="Layer_6">
	<polygon class="st1" points="647.4,532.2 518.2,580.2 518.2,749.9 568,731.1 568,617.1 647.4,586 	"/>
	<rect x="459.8" y="789.7" class="st2" width="57.6" height="136.4"/>
	<polygon class="st3" points="442.3,999.7 535.9,999.7 506.3,926.1 465.7,926.1 	"/>
	<rect x="47.5" y="789.3" class="st2" width="57.6" height="136.4"/>
	<polygon class="st3" points="30.6,999.3 124.2,999.3 94.6,925.7 54,925.7 	"/>
	<polygon class="st0" points="96.4,980.5 81.1,979.3 71.4,989.7 67.9,976.6 53.6,971.7 66.7,964.8 67.7,951.4 79.3,960.2 
		94.1,956.8 88.1,969.2 	"/>
	<polygon class="st0" points="508.1,976.7 492.8,975.6 483.1,985.9 479.6,972.9 465.3,968 478.5,961 479.4,947.7 491,956.4 
		505.8,953.1 499.9,965.4 	"/>
</g>
<g id="Layer_2">
	
		<ellipse transform="matrix(0.6603 -0.751 0.751 0.6603 -471.6083 338.8292)" class="st3" cx="138.7" cy="690.7" rx="23.3" ry="18.3"/>
	
		<ellipse transform="matrix(0.8503 -0.5264 0.5264 0.8503 -252.5683 406.3535)" class="st3" cx="587.9" cy="647.1" rx="18.5" ry="23"/>
	<path class="st4" d="M284.1,343.6l-22.4-24.6c-4.7-3-2.4-9.6,3.3-9.6l230-1.2c5.5,0,8,6.2,3.7,9.4L482.6,345
		c-1,0.7-18.5-2.7-19.8-2.7L301.5,344"/>
	<path class="st1" d="M383.1,355.9l-23.9,1.3c-15.1,0.8-28.3-7.7-29.4-18.9l-1-9.9c-1.1-11.2,10.4-21,25.4-21.8l23.9-1.3
		c15.1-0.8,28.3,7.7,29.4,18.8l1,9.9C409.6,345.3,398.1,355.1,383.1,355.9z"/>
	<path class="st3" d="M466.3,205.6c-3.6,14-6,17.1-6.4,21.9c-0.7,7.1-5,40.2-5,40.2s-10.8,23.2-22.5,33.7s-29.5,17.5-38.5,21.8
		s-60.1,1.5-72.4-3.9s-19.6-18.5-32.2-20.8s-23.1-26.6-31-33.4L236.4,214l-3.6-50.8l231-19.6C460.7,163.2,476.6,164.9,466.3,205.6z"
		/>
	<path class="st7" d="M200.3,188.2c0.3-0.1,0.5-0.5,0.6-1.2C199.9,188,199.6,188.4,200.3,188.2z"/>
	<path d="M507.5,118.7c0.1,1.5-1.3,2.9-3.3,3.2c-18.3,3.1-104.6,17.3-115.9,15.3C378,135.3,251,98.2,205,84.8
		c-4.1-1.2-3.3-5.7,1.2-6.1l0,0c2.1-0.1,3.8-1.4,3.9-3c0.6-10.2,2.7-45.4,4.9-49.3c2.4-4.2,34.2-21.2,40-24.3c0.6-0.3,1.3-0.5,2-0.6
		c7.2-0.6,49-3.6,91.1-1.3c44.8,2.4,90.4,10.1,93.1,11.3c8,3.7,18.5,30.9,22.2,40.6c0.7,1.8,3.5,2.7,5.8,1.9l9.4-3.2
		c2.8-1,6,0.5,6,2.8c0,11.1,0.9,37,10.7,40S507.2,112.3,507.5,118.7z"/>
	<ellipse class="st9" cx="322.5" cy="87.6" rx="29.9" ry="22.2"/>
	<ellipse class="st9" cx="395.5" cy="85.2" rx="29.9" ry="22.2"/>
	<ellipse transform="matrix(0.8965 -0.4431 0.4431 0.8965 9.6314 206.1043)" class="st9" cx="445.9" cy="82.4" rx="15" ry="26.3"/>
	
		<ellipse transform="matrix(0.2625 -0.9649 0.9649 0.2625 109.0717 317.9455)" class="st9" cx="262.5" cy="87.6" rx="14.3" ry="12.7"/>
	<path class="st10" d="M508.5,134c-28.3,4.8-44.8,9.5-44.8,9.5l-231,19.6h-0.6c0,0-25.8,18.7-31.2,23.8c1.6-8.9-11.9-63.7-16.9-74.2
		c-5.3-11.4-23.6-32.2-23.6-32.2l30.4-2.1c0,0,187.1,55,199.8,57.2S510,119.8,510,119.8S536.8,129.2,508.5,134z"/>
	<path class="st11" d="M216.8,183.5c0,0-6.1,18.7-15.2,24.6s-19.8,27.5-24.7,33.6s12.9-0.9,22.1-6.8s8.1,5.2,11.9,10.1
		c3.8,5,16.1,10.4,17,0.9s9.1-5.9,8.1,5.2c-1.1,11.1,11.2,16.5,11.6,13.3s7.5-17.5,10.4-10.8s-39.9-80.6-22.1-88.7"/>
	<path class="st11" d="M479.5,159.7c0,0,8.8,18,17,23.1s21.1,25.7,26.2,31.4s-10,0-18.3-5.1s-5,5.7-6.8,10.9s-10,11.4-12.8,2.1
		s-8.2-5.1-5,5.7s-4.9,17-5.9,13.9s-9.6-16.7-10.3-9.9s12.7-82.3-2.7-89"/>
	<ellipse transform="matrix(0.9937 -0.112 0.112 0.9937 -19.438 34.3979)" class="st12" cx="296.5" cy="190.2" rx="23.4" ry="8"/>
	
		<ellipse transform="matrix(0.9982 -6.070012e-02 6.070012e-02 0.9982 -10.2766 24.7505)" class="st12" cx="402.2" cy="181.5" rx="23.5" ry="7.9"/>
	<line class="st13" x1="215.5" y1="185.9" x2="230" y2="169.2"/>
	<line class="st13" x1="479.2" y1="160.2" x2="463.7" y2="143.6"/>
	<ellipse class="st14" cx="290.4" cy="191.5" rx="8.5" ry="6.3"/>
	<ellipse class="st14" cx="396.2" cy="181.5" rx="8.5" ry="6.3"/>
	<path class="st13" d="M341.8,237.4c0,0-3.3,7.5,2.1,10.5"/>
	<path class="st13" d="M377,245.5c0,0,3.8-7.6-1.6-10.1"/>
	<path class="st13" d="M348.6,248.3c0,0,6.5-1.2,8.4,2"/>
	<path class="st13" d="M374.5,246.6c0,0-6.4-0.3-6.8,4.4"/>
	<path d="M339.4,281.6c0,0,5.8,10.6,16.6,10.8c13.2,0.3,34.9-4.1,43.8-11C405.2,277.1,339.4,281.6,339.4,281.6z"/>
	<path class="st5" d="M596.3,594.5l7.6-80.5L522,362.7c-4.6-5.9-42.7-22.1-51.3-21.8H288.5c-2.1,0-4.2,0.2-6.3,0.7
		c-13.5-2.7-27.5,3.1-31.3,13.1l-85,232.9c-2.1,5.5-7.6,27.3-15.2,46.4c-6.6,16.8-23.4,26.4-25,36l12.8,3.6l27.2,18.7
		c4.7-2.3,12.5-41.2,25.1-55.6c10.3-12,18.6-25.5,24.6-40.2l48.9-149.4l-21.8,104.4c0,32.9,36.4,59.9,80.8,59.9h111.8
		c41.4-11.6,55-23.3,74.7-59.3l6-102.9l39.4,59.2l1.5,102.3c6.5,8.3-15.2,50.5,42.4,19.1C609.9,624.2,602.3,610.9,596.3,594.5z"/>
	<path class="st4" d="M277.2,600.9c-44.7,34.5-99.2,78.2-118.9,100s-44,25.9-37.9,69.5s21.2,128.2,21.2,128.2l-7.6,32.8
		c-20.5,3.5-40.8,8.5-60.6,15c-33.3,10.9-65.2,49.1-18.2,50.5s75.8-8.2,75.8-8.2l45.4-6.9l25.8-5.4c0,0,17.9-48.3,21.2-72.3
		c3-21.8,0-66.8,0-66.8l-6.1-47.7c0,0,9.1-38.2,51.5-57.3s81.8-69.5,81.8-69.5l1.5-2.7l-63.6,84.5c0,0-31.8,50.5-25.8,76.4
		c6.1,25.9,25.8,94.1,25.8,94.1s13.2,27.5,16.7,31.4c18.2,20.5-12.1,40.9-12.1,40.9s-22.7,17.7-28.8,34.1
		c-6.1,16.4,6.1,39.5,24.3,43.6s40.9-24.5,40.9-24.5l63.7-55.9l15.2-15c0,0-9.1-19.1-30.3-58.6s-36.4-90-36.4-90
		s78.8-62.7,104.6-118.6s25.8-85.9,25.8-85.9l-11-10.1l-173-1.1"/>
	<path class="st15" d="M323.5,339.5c1.6,86.2,92.6,100.4,94,1.4"/>
	<path class="st4" d="M413.7,342.3c0,0,18.8,75.9,14.6,103.7s-6.1,20.1-8.2,48c-2.1,27.9-5.4,43.8-6.4,54.2
		c-2.1,21.7-18.5,39.2-17.5,53.2c0.9,12.4,15.4,47.2,16.4,49.6s-5.2,31.9-5.2,31.9s-54.9,77.5-56.7,80.7c-24.2,43.6,53,54.5,53,54.5
		s6.1-10.9,21-52.3c11.7-32.4,59.6-49.1,61.8-58.2c4.2-17,6.5-73.6,6.5-73.6s15.8-31.4,18.5-47.2c1.9-10.8,0-7.7,0-27.9
		c0-16.4,4.2-77.4,6.2-83.6s-8.3-60.4-10.4-60.4s0-35.6,0-35.6l-4.2-18.6l-2.1-6.1c0,0-10.7-12.4-36.4-12.4S413.7,342.3,413.7,342.3
		z"/>
	<path class="st4" d="M328.3,339.5c0,0,17.9,114.6,12.3,152.3c-5.8,39.2-14.1,53.4-14.1,62.8S288.1,647,288.1,647l-38.9,102.3
		l-113.6-33.4c0,0,65.2-49.1,87.9-75c17.3-19.7,1.5-36,0.7-51c-0.7-12.3,11.6-62.8,11.6-62.8s39.2-184.4,50.3-186
		C296.6,339.5,328.3,339.5,328.3,339.5z"/>
	
		<ellipse transform="matrix(5.442741e-02 -0.9985 0.9985 5.442741e-02 -57.1078 777.2388)" class="st16" cx="381.8" cy="418.8" rx="7.3" ry="7.8"/>
	
		<ellipse transform="matrix(0.9996 -2.984070e-02 2.984070e-02 0.9996 -12.2252 10.7504)" class="st17" cx="354.1" cy="415" rx="8.4" ry="7.3"/>
	
		<ellipse transform="matrix(0.9996 -2.984070e-02 2.984070e-02 0.9996 -12.0403 12.2402)" class="st17" cx="404.1" cy="409.5" rx="8.4" ry="7.3"/>
</g>
<g id="Layer_8" class="st18">
	<polygon class="st19" points="647.4,533.2 518.2,581.2 518.2,750.9 568,732.1 568,618.1 647.4,587 	"/>
</g>
</svg>
