<svg id="Layer_1" data-name="Layer 1" xmlns="http://www.w3.org/2000/svg" viewBox="0 0 1960.77 1085.99"><defs><style>.cls-1{fill:#969696;}.cls-2{fill:#b7b7b7;}.cls-3{fill:#d8d8d8;}.cls-4{fill:#a0a0a0;}.cls-5{fill:#4c4c4c;}.cls-6{fill:#727272;}.cls-7{fill:#9b9b9b;}.cls-8{fill:#878787;}.cls-9{fill:#5b5b5b;}.cls-10{fill:#3d3d3d;}.cls-11{fill:#aaa;}.cls-12{fill:#8e8e8e;}.cls-13{fill:#515151;}.cls-14{fill:#6b6a6a;}.cls-15{fill:#777;}.cls-16{fill:#7c7c7c;stroke:#545252;stroke-miterlimit:10;stroke-width:4px;}.cls-17{fill:#545252;}</style></defs><title>water-scene</title><polygon class="cls-1" points="1235.98 249.63 1044.66 0.25 1178.77 0.25 1183.27 87.92 1225.27 86.58 1248.97 0 1261.57 0.25 1312.87 84.58 1482.65 86.14 1544.63 0.25 1706.75 0.25 1628.33 149.63 1413.17 182.44 1299.26 249.63 1235.98 249.63"/><polygon class="cls-2" points="39.93 1081.19 203.7 1081.19 197.48 123.06 209.92 24.63 178.16 0.25 33.05 0.25 39.93 1081.19"/><polygon class="cls-3" points="209.92 24.63 243.09 0.25 618.32 0.25 674.29 62.13 734.75 20.14 763.77 0 858.8 88.69 947.86 0.75 1003.91 88.69 1052.23 0.25 1240.25 249.63 1302.44 249.63 1414.38 182.44 1543.58 0.25 1625.84 149.63 1702.91 0.25 1953.44 0.25 1960.77 1081.19 1510.27 1085.99 204.86 1081.19 197.72 154.25 197.48 123.06 209.92 24.63"/><polygon class="cls-4" points="251.38 141.81 316.02 1.16 405.21 0.25 520.01 145.27 251.38 141.81"/><polyline class="cls-4" points="547.71 146.81 763.77 0 925.75 151.09"/><polygon class="cls-5" points="1459.99 548.06 769.65 443.38 118.7 582.44 647.34 644.94 1459.99 548.06"/><polygon class="cls-6" points="118.7 582.44 647.34 644.94 634.9 673.06 118.7 609 118.7 582.44"/><polygon class="cls-6" points="89.52 627.75 618.15 690.25 605.72 718.38 89.52 654.31 89.52 627.75"/><polygon class="cls-6" points="75 673.06 603.64 735.56 591.2 763.69 75 699.63 75 673.06"/><polygon class="cls-6" points="51.04 723.94 579.68 786.44 567.24 814.56 51.04 750.5 51.04 723.94"/><polygon class="cls-6" points="24.5 767.25 553.14 829.75 540.7 857.88 24.5 793.81 24.5 767.25"/><polygon class="cls-6" points="7.34 811.56 535.98 874.06 523.54 902.19 7.34 838.13 7.34 811.56"/><polygon class="cls-7" points="110.04 603.94 638.68 666.44 626.24 694.56 110.04 630.5 110.04 603.94"/><polygon class="cls-7" points="82.18 648.25 610.82 710.75 598.38 738.88 82.18 674.81 82.18 648.25"/><polygon class="cls-7" points="65.01 698.56 593.65 761.06 581.21 789.19 65.01 725.13 65.01 698.56"/><polygon class="cls-7" points="43.7 742.19 572.34 804.69 559.9 832.81 43.7 768.75 43.7 742.19"/><polygon class="cls-7" points="15.84 785.5 544.48 848 532.04 876.13 15.84 812.06 15.84 785.5"/><polygon class="cls-7" points="0 831.81 528.64 894.31 516.2 922.44 0 858.38 0 831.81"/><path class="cls-6" d="M614.34,644.69" transform="translate(33 0.25)"/><polygon class="cls-6" points="647.92 644.03 1460.38 548.25 1467.29 574.25 635.16 666.79 647.92 644.03"/><polygon class="cls-6" points="614.88 692.07 1472.51 586.51 1479.23 611.38 607.12 710.31 614.88 692.07"/><polygon class="cls-6" points="601.41 738.45 1488.6 629.74 1495.34 655.78 591.68 761.23 601.41 738.45"/><polygon class="cls-6" points="578.77 787.76 1500.28 675.78 1507.01 701.82 571.01 806 578.77 787.76"/><polygon class="cls-6" points="550.88 831.39 1511.97 714.85 1518.71 740.89 543.12 849.63 550.88 831.39"/><polygon class="cls-6" points="533.74 875.7 1521.98 762.56 1528.72 788.6 525.41 895.28 533.74 875.7"/><polygon class="cls-7" points="637.61 666.25 1468.4 571.03 1475.31 597.03 624.51 691.21 637.61 666.25"/><polygon class="cls-7" points="607.12 710.31 1484.21 608.84 1490.95 634.88 597.39 738.75 607.12 710.31"/><polygon class="cls-7" points="591.68 761.23 1496.62 652.52 1503.35 678.56 578.77 787.76 591.68 761.23"/><polygon class="cls-7" points="571.01 804.53 1508.29 698.56 1515.03 724.6 558.67 831.81 571.01 804.53"/><polygon class="cls-7" points="544.48 848 1519.99 737.63 1526.73 763.67 532.04 876.13 544.48 848"/><polygon class="cls-7" points="528.64 894.31 1530 785.34 1536.73 811.38 516.2 922.44 528.64 894.31"/><polygon class="cls-7" points="1543.58 431.25 1815.57 451.25 1815.57 441.25 1544.91 424.92 1543.58 431.25"/><polygon class="cls-8" points="1815.57 451.25 1930.67 448.25 1930.17 438.08 1815.57 441.25 1815.57 451.25"/><polygon class="cls-9" points="1544.91 424.92 1801.42 412.92 1930.67 422.58 1930.17 438.08 1815.57 441.25 1544.91 424.92"/><polygon class="cls-9" points="1556.49 432.2 1604.61 571.03 1815.57 578.25 1815.57 451.25 1556.49 432.2"/><polygon class="cls-10" points="1815.57 451.25 1930.67 448.25 1930.67 578.25 1815.57 578.25 1815.57 451.25"/><polygon class="cls-4" points="441.06 141.81 441.06 168.92 400.44 179.25 400.62 154.25 441.06 141.81"/><polygon class="cls-11" points="441.06 141.81 734.06 146.81 731.06 170.81 441.06 168.92 441.06 141.81"/><polygon class="cls-12" points="409.81 24.63 434.81 0.25 490.1 0.25 441.06 141.81 400.62 154.25 400.44 123.06 409.81 24.63"/><polygon class="cls-13" points="385.88 0.25 410.03 24.41 434.81 0.25 385.88 0.25"/><polygon class="cls-4" points="734.06 146.81 704.81 0.25 617 0.25 550.56 143.68 734.06 146.81"/><polygon class="cls-13" points="557 0.25 590.58 56.54 617 0.25 557 0.25"/><polygon class="cls-13" points="450.07 260.96 566.07 260.96 566.07 486.87 450.07 511.65 450.07 260.96"/><polygon class="cls-14" points="460.07 282.63 556.07 282.63 556.07 489 460.07 509.51 460.07 282.63"/><polygon class="cls-1" points="734.06 146.81 981 151.95 973.08 170.81 731.06 170.81 734.06 146.81"/><polygon class="cls-15" points="704.81 0.25 731.06 0.25 837.31 148.96 924.67 0.25 966 0.75 1008.25 88.69 981 151.95 734.06 146.81 704.81 0.25"/><polygon class="cls-13" points="641.06 336.33 699.06 336.33 699.57 458.35 641.06 470.85 641.06 336.33"/><polygon class="cls-14" points="646.06 347.17 694.06 347.17 694.06 459.52 646.06 469.85 646.06 347.17"/><rect class="cls-16" x="771.1" y="189.36" width="101.29" height="101.29"/><rect class="cls-17" x="816.74" y="189.36" width="10" height="101.29"/><rect class="cls-17" x="783.74" y="189.11" width="10" height="101.29" transform="translate(581.99 1028.74) rotate(-90)"/><rect class="cls-16" x="1796.59" y="264.53" width="101.29" height="101.29"/><rect class="cls-17" x="1842.23" y="264.53" width="10" height="101.29"/><rect class="cls-17" x="1809.23" y="264.28" width="10" height="101.29" transform="translate(1532.31 2129.4) rotate(-90)"/><rect class="cls-16" x="301.32" y="241.13" width="66.43" height="66.43"/><rect class="cls-17" x="331.25" y="241.13" width="6.56" height="66.43"/><rect class="cls-17" x="298.25" y="240.88" width="6.56" height="66.43" transform="translate(60.43 575.88) rotate(-90)"/><rect class="cls-16" x="301.32" y="398.83" width="66.43" height="66.43"/><rect class="cls-17" x="331.25" y="398.83" width="6.56" height="66.43"/><rect class="cls-17" x="298.25" y="398.58" width="6.56" height="66.43" transform="translate(-97.26 733.58) rotate(-90)"/><rect class="cls-16" x="1536.73" y="226.27" width="101.29" height="101.29"/><rect class="cls-17" x="1582.38" y="226.27" width="10" height="101.29"/><rect class="cls-17" x="1549.38" y="226.02" width="10" height="101.29" transform="translate(1310.72 1831.29) rotate(-90)"/><rect class="cls-5" x="1677.82" y="596.75" width="29.89" height="485.7"/><rect class="cls-5" x="1503.21" y="596.75" width="204.5" height="19.02"/><polygon class="cls-5" points="1566.63 615.25 1692.95 688.09 1701.73 676.35 1575.41 603.5 1566.63 615.25"/></svg>